<?xml version="1.0" encoding="utf-8"?>
<!-- Generator: Adobe Illustrator 27.5.0, SVG Export Plug-In . SVG Version: 6.00 Build 0)  -->
<svg version="1.1" id="Layer_1" xmlns="http://www.w3.org/2000/svg" xmlns:xlink="http://www.w3.org/1999/xlink" x="0px" y="0px"
	 viewBox="0 0 5000 5000" style="enable-background:new 0 0 5000 5000;" xml:space="preserve">
<rect style="fill:#72C1BB;" width="5007.139" height="5007.144"/>
<g>
	<path style="fill:#FFFFFF;" d="M1649.006,4865.563c-23.803-23.693-35.712-53.385-35.712-89.064
		c0.108-34.913,12.04-64.268,35.793-88.076c23.755-23.808,53.197-35.711,88.327-35.711c35.462,0,65.898,11.045,91.304,33.141
		l-33.142,36.293c-16.897-13.256-36.288-19.885-58.162-19.885c-22.313,0.109-40.297,7.068-53.939,20.874
		c-13.643,13.812-20.467,31.49-20.467,53.027c0.109,23.091,7.02,41.433,20.717,55.016c13.697,13.593,31.702,20.385,54.021,20.385
		c22.314,0,41.596-6.574,57.83-19.722l33.142,36.293c-25.297,22.096-55.733,33.142-91.304,33.142
		C1702.284,4901.166,1672.815,4889.262,1649.006,4865.563z"/>
	<path style="fill:#FFFFFF;" d="M1905.281,4865.563c-23.753-23.803-35.63-53.331-35.63-88.57c0-35.354,11.877-64.904,35.63-88.652
		c23.748-23.753,53.298-35.629,88.652-35.629c35.353,0,64.898,11.876,88.651,35.629c23.754,23.748,35.631,53.299,35.631,88.652
		s-11.877,64.904-35.631,88.652c-23.753,23.753-53.298,35.63-88.651,35.63C1958.579,4901.274,1929.029,4889.371,1905.281,4865.563z
		 M1994.101,4854.875c21.982,0,39.879-7.453,53.69-22.373c13.805-14.908,20.711-33.413,20.711-55.51
		c0-22.096-6.906-40.602-20.711-55.51c-13.811-14.92-31.816-22.373-54.027-22.373c-21.982,0-39.879,7.453-53.69,22.373
		c-13.811,14.908-20.711,33.414-20.711,55.51c0,22.097,6.9,40.602,20.711,55.51
		C1953.885,4847.422,1971.891,4854.875,1994.101,4854.875z"/>
	<path style="fill:#FFFFFF;" d="M2155.17,4901.274v-248.563h16.571l155.767,155.766v-155.766h49.713v248.563h-18.234
		l-154.104-154.11v154.11H2155.17z"/>
	<path style="fill:#FFFFFF;" d="M2631.582,4652.711v46.398h-82.854v202.165h-49.715v-202.165h-82.852v-46.398H2631.582z"/>
	<path style="fill:#FFFFFF;" d="M2655.444,4901.274l99.426-248.563h49.713l99.257,248.4l-52.858,0.163l-14.913-38.113h-112.684
		l-14.913,38.113H2655.444z M2781.053,4718.994l-37.782,94.454h74.569L2781.053,4718.994z"/>
	<path style="fill:#FFFFFF;" d="M2957.78,4865.563c-23.808-23.693-35.706-53.385-35.706-89.064
		c0.108-34.913,12.039-64.268,35.793-88.076c23.748-23.808,53.189-35.711,88.32-35.711c35.462,0,65.893,11.045,91.309,33.141
		l-33.143,36.293c-16.907-13.256-36.293-19.885-58.166-19.885c-22.319,0.109-40.292,7.068-53.939,20.874
		c-13.643,13.812-20.462,31.49-20.462,53.027c0.109,23.091,7.009,41.433,20.712,55.016c13.696,13.593,31.707,20.385,54.021,20.385
		s41.591-6.574,57.835-19.722l33.143,36.293c-25.302,22.096-55.738,33.142-91.309,33.142
		C3011.057,4901.166,2981.588,4889.262,2957.78,4865.563z"/>
	<path style="fill:#FFFFFF;" d="M3393.846,4652.711v46.398h-82.854v202.165h-49.713v-202.165h-82.854v-46.398H3393.846z"/>
</g>
<g>
	<g>
		<path style="fill:#FFFFFF;" d="M2720.377,567.823l-4.883,37.029l-96.05-12.65l4.876-37.026L2720.377,567.823z"/>
		<path style="fill:#FFFFFF;" d="M2915.469,610.291l-8.998,36.243l-94.015-23.335l8.993-36.242L2915.469,610.291z"/>
		<path style="fill:#FFFFFF;" d="M3104.687,674.498l-13.023,34.998l-90.791-33.776l13.023-34.999L3104.687,674.498z"/>
		<path style="fill:#FFFFFF;" d="M3285.466,759.628l-16.871,33.309l-86.414-43.784l16.885-33.312L3285.466,759.628z"/>
		<path style="fill:#FFFFFF;" d="M3455.546,864.455l-20.501,31.207l-80.954-53.183l20.501-31.208L3455.546,864.455z"/>
		<path style="fill:#FFFFFF;" d="M3612.759,987.498l-23.851,28.733l-74.527-61.864l23.846-28.733L3612.759,987.498z"/>
		<path style="fill:#FFFFFF;" d="M3755.4,1127.366l-26.898,25.9l-67.194-69.785l26.903-25.903L3755.4,1127.366z"/>
		<path style="fill:#FFFFFF;" d="M3881.504,1282.142l-29.615,22.745l-59-76.813l29.615-22.741L3881.504,1282.142z"/>
		<path style="fill:#FFFFFF;" d="M3989.646,1450.096l-31.97,19.297l-50.062-82.917l31.97-19.301L3989.646,1450.096z"/>
		<path style="fill:#FFFFFF;" d="M4078.297,1629.061l-33.932,15.599l-40.461-88.007l33.924-15.602L4078.297,1629.061z"/>
		<path style="fill:#FFFFFF;" d="M4146.252,1816.972l-35.471,11.676l-30.284-92.006l35.464-11.674L4146.252,1816.972z"/>
		<path style="fill:#FFFFFF;" d="M4192.599,2011.259l-36.563,7.603l-19.724-94.837l36.559-7.606L4192.599,2011.259z"/>
		<path style="fill:#FFFFFF;" d="M4216.857,2209.582l-37.178,3.464l-8.98-96.442l37.178-3.466L4216.857,2209.582z"/>
		<path style="fill:#FFFFFF;" d="M4219.017,2409.113l-37.331-0.655l1.689-96.849l37.338,0.653L4219.017,2409.113z"/>
		<path style="fill:#FFFFFF;" d="M4199.098,2607.816l-37.037-4.794l12.432-96.075l37.034,4.791L4199.098,2607.816z"/>
		<path style="fill:#FFFFFF;" d="M4156.947,2803.27l-36.268-8.929l23.17-94.067l36.261,8.931L4156.947,2803.27z"/>
		<path style="fill:#FFFFFF;" d="M4093.126,2992.476l-35.021-12.956l33.609-90.843l35.021,12.956L4093.126,2992.476z"/>
		<path style="fill:#FFFFFF;" d="M4008.391,3173.48l-33.348-16.814l43.615-86.505l33.349,16.813L4008.391,3173.48z"/>
		<path style="fill:#FFFFFF;" d="M3903.992,3343.642l-31.252-20.438l53.018-81.078l31.257,20.438L3903.992,3343.642z"/>
		<path style="fill:#FFFFFF;" d="M3781.142,3501.238l-28.775-23.791l61.716-74.658l28.783,23.791L3781.142,3501.238z"/>
		<path style="fill:#FFFFFF;" d="M3641.554,3644.119l-25.956-26.849l69.646-67.314l25.948,26.851L3641.554,3644.119z"/>
		<path style="fill:#FFFFFF;" d="M3487.026,3770.596l-22.811-29.576l76.715-59.172l22.813,29.572L3487.026,3770.596z"/>
		<path style="fill:#FFFFFF;" d="M3319.307,3879.019l-19.364-31.928l82.826-50.229l19.359,31.928L3319.307,3879.019z"/>
		<path style="fill:#FFFFFF;" d="M3140.51,3968.014l-15.663-33.898l87.935-40.639l15.661,33.901L3140.51,3968.014z"/>
		<path style="fill:#FFFFFF;" d="M2952.793,4036.361l-11.76-35.452l91.965-30.481l11.754,35.447L2952.793,4036.361z"/>
		<path style="fill:#FFFFFF;" d="M2758.504,4083.095l-7.685-36.544l94.798-19.918l7.678,36.544L2758.504,4083.095z"/>
		<path style="fill:#FFFFFF;" d="M2560.262,4107.772l-3.538-37.177l96.439-9.183l3.539,37.175L2560.262,4107.772z"/>
		<path style="fill:#FFFFFF;" d="M2360.885,4110.246l0.602-37.338l96.853,1.576l-0.602,37.337L2360.885,4110.246z"/>
		<path style="fill:#FFFFFF;" d="M2161.963,4090.733l4.729-37.048l96.099,12.26l-4.724,37.048L2161.963,4090.733z"/>
		<path style="fill:#FFFFFF;" d="M1966.561,4049.02l8.853-36.279l94.117,22.969l-8.853,36.282L1966.561,4049.02z"/>
		<path style="fill:#FFFFFF;" d="M1777.178,3985.588l12.89-35.045l90.913,33.412l-12.883,35.047L1777.178,3985.588z"/>
		<path style="fill:#FFFFFF;" d="M1595.979,3901.168l16.751-33.375l86.577,43.446l-16.75,33.372L1595.979,3901.168z"/>
		<path style="fill:#FFFFFF;" d="M1425.607,3797.113l20.374-31.296l81.172,52.849l-20.367,31.295L1425.607,3797.113z"/>
		<path style="fill:#FFFFFF;" d="M1267.863,3674.658l23.736-28.825l74.776,61.571l-23.735,28.828L1267.863,3674.658z"/>
		<path style="fill:#FFFFFF;" d="M1124.67,3535.354l26.793-26.005l67.463,69.518l-26.794,26.007L1124.67,3535.354z"/>
		<path style="fill:#FFFFFF;" d="M997.825,3380.979l29.524-22.867l59.322,76.595l-29.53,22.866L997.825,3380.979z"/>
		<path style="fill:#FFFFFF;" d="M889.042,3213.483l31.897-19.431l50.396,82.726l-31.889,19.429L889.042,3213.483z"/>
		<path style="fill:#FFFFFF;" d="M799.71,3034.874l33.877-15.729l40.802,87.861l-33.871,15.732L799.71,3034.874z"/>
		<path style="fill:#FFFFFF;" d="M731.038,2847.333l35.421-11.813l30.655,91.882l-35.421,11.816L731.038,2847.333z"/>
		<path style="fill:#FFFFFF;" d="M683.827,2653.025l36.535-7.751l20.112,94.767l-36.534,7.755L683.827,2653.025z"/>
		<path style="fill:#FFFFFF;" d="M658.803,2454.907l37.166-3.614l9.375,96.416l-37.166,3.612L658.803,2454.907z"/>
		<path style="fill:#FFFFFF;" d="M656.036,2255.189l37.331,0.608l-1.575,96.85l-37.331-0.608L656.036,2255.189z"/>
		<path style="fill:#FFFFFF;" d="M675.047,2056.547l37.057,4.654l-12.062,96.126l-37.063-4.654L675.047,2056.547z"/>
		<path style="fill:#FFFFFF;" d="M716.386,1861.015l36.291,8.78l-22.775,94.163l-36.297-8.78L716.386,1861.015z"/>
		<path style="fill:#FFFFFF;" d="M779.464,1671.447l35.075,12.813l-33.244,90.988l-35.075-12.813L779.464,1671.447z"/>
		<path style="fill:#FFFFFF;" d="M863.477,1490.205l33.416,16.683l-43.285,86.672l-33.408-16.683L863.477,1490.205z"/>
		<path style="fill:#FFFFFF;" d="M967.238,1319.609l31.329,20.316l-52.707,81.273l-31.33-20.319L967.238,1319.609z"/>
		<path style="fill:#FFFFFF;" d="M1089.37,1161.62l28.874,23.682l-61.432,74.897l-28.874-23.678L1089.37,1161.62z"/>
		<path style="fill:#FFFFFF;" d="M1228.375,1018.165l26.058,26.745l-69.377,67.603l-26.058-26.743L1228.375,1018.165z"/>
		<path style="fill:#FFFFFF;" d="M1382.391,891.124l22.921,29.478l-76.466,59.464l-22.927-29.481L1382.391,891.124z"/>
		<path style="fill:#FFFFFF;" d="M1549.782,781.908l19.494,31.853l-82.627,50.569l-19.492-31.853L1549.782,781.908z"/>
		<path style="fill:#FFFFFF;" d="M1728.181,692.266l15.801,33.835l-87.769,40.975l-15.796-33.834L1728.181,692.266z"/>
		<path style="fill:#FFFFFF;" d="M1915.721,623.116l11.892,35.403l-91.831,30.846l-11.893-35.403L1915.721,623.116z"/>
		<path style="fill:#FFFFFF;" d="M2109.712,575.611l7.83,36.513l-94.718,20.307L2015,595.915L2109.712,575.611z"/>
		<path style="fill:#FFFFFF;" d="M2307.886,550.167l3.684,37.157l-96.391,9.57l-3.685-37.154L2307.886,550.167z"/>
		<path style="fill:#FFFFFF;" d="M2507.61,547.102l-0.602,37.34l-96.853-1.575l0.603-37.337L2507.61,547.102z"/>
	</g>
</g>
<g>
	<g>
		<path style="fill:#F3705A;" d="M3013.943,3819.521c-10.064-6.111-21.419-9.871-33.643-9.871h-802.087
			c-16.167,0-30.919,6.263-42.948,16.504l406.715,311.279l1.489,0.461l-1.489,0.899l35.646,27.282l36.16-28.643l-1.438-0.914
			l1.438-0.414L3013.943,3819.521z"/>
		<path style="fill:#F3705A;" d="M2135.266,3827.504c0,0,388.609-376.054,445.669-376.054c57.083,0,433.009,369.409,433.009,369.409
			L2135.266,3827.504z"/>
		<g>
			<rect x="2302.007" y="3721.027" style="fill:#FFFFFF;" width="565.224" height="659.43"/>
			<rect x="2341.942" y="3778.199" style="fill:#FFD064;" width="485.321" height="29.497"/>
			<rect x="2341.942" y="3913.328" style="fill:#FFD064;" width="485.321" height="29.489"/>
			<rect x="2341.942" y="3845.762" style="fill:#FFD064;" width="485.321" height="29.5"/>
			<rect x="2341.942" y="3980.89" style="fill:#FFD064;" width="485.321" height="29.479"/>
			<rect x="2341.942" y="4044.057" style="fill:#FFD064;" width="485.321" height="29.496"/>
			<rect x="2341.942" y="4111.629" style="fill:#FFD064;" width="485.321" height="29.477"/>
		</g>
		<g>
			<polygon style="fill:#65BBC9;" points="2519.168,4121.313 2506.923,4111.922 2519.102,4121.258 			"/>
			<path style="fill:#F8BA1E;" d="M2519.168,4121.313l-0.066-0.055l-12.179-9.336l-114.104-87.281l-257.553-197.137
				c-17.489,14.936-29.02,38.504-29.02,65.279v445.355c0,23.339,8.697,44.236,22.483,59.137l320.07-200.205l93.181-58.276
				L2519.168,4121.313z"/>
			<path style="fill:#F8BA1E;" d="M3013.943,3820.859l-299.273,236.798l0,0l-63.275,50.081l-32.245,25.486l-5.363,4.209
				l113.388,72.225l299.43,190.688c15.578-14.999,25.693-37.135,25.693-62.207v-445.355
				C3052.297,3861.476,3036.645,3834.61,3013.943,3820.859z"/>
			<path style="fill:#E3A33A;" d="M2727.174,4209.658l-113.388-72.225l5.363-4.209c-0.323,0.214-29.904,18.568-44.575,18.568
				c-14.619,0-55.147-30.266-55.406-30.48l22.813,17.481l-93.181,58.276l-320.07,200.205c12.859,13.965,30.263,22.669,49.484,22.669
				h802.087c17.737,0,33.73-7.552,46.303-19.599L2727.174,4209.658z"/>
		</g>
	</g>
</g>
<g>
	<g>
		<path style="fill:#51657C;" d="M3952.23,2534.305v447.645c0,18.172,14.737,32.906,32.91,32.906h507.01
			c18.178,0,32.912-14.734,32.912-32.906v-447.645H3952.23z"/>
		<path style="fill:#2C455E;" d="M4525.064,2354.616c0-18.176-14.732-32.908-32.908-32.908h-507.012
			c-18.174,0-32.912,14.732-32.912,32.908v179.688h572.832V2354.616z"/>
	</g>
	<path style="fill:#F8FCFF;" d="M4449.596,2765.59v-155.756c0-16.543-14.743-29.955-32.917-29.955h-169.8v185.711H4449.596z"/>
	<path style="fill:#F8FCFF;" d="M4027.709,2782.047v155.756c0,16.543,14.738,29.956,32.911,29.956h169.802v-185.712H4027.709z"/>
	<g>
		<path style="fill:#518F9F;" d="M4002.314,2431.392c0-20.443,13.12-37.01,29.301-37.01h430.518c8.26,0,15.701,4.322,21.027,11.263
			c-0.521-19.859-13.397-35.771-29.258-35.771h-430.51c-16.188,0-29.303,16.568-29.303,37.015v40.704
			c0,10.014,3.158,19.085,8.274,25.749c-0.015-0.417-0.05-0.821-0.05-1.243V2431.392z"/>
		<path style="fill:#B9DAEC;" d="M4023.393,2484.606h430.51c16.189,0,29.312-16.573,29.312-37.015v-40.704
			c0-0.42-0.038-0.827-0.054-1.243c-5.326-6.941-12.768-11.263-21.027-11.263h-430.518c-16.181,0-29.301,16.567-29.301,37.01v40.706
			c0,0.422,0.035,0.826,0.05,1.243C4007.688,2480.278,4015.136,2484.606,4023.393,2484.606z"/>
	</g>
	<g>
		<path style="fill:#F8FCFF;" d="M4230.422,2579.879H4060.62c-18.173,0-32.911,13.412-32.911,29.955v155.756h202.713V2579.879z"/>
		<path style="fill:#2C455E;" d="M4140.112,2612.783v49.136h47.104v21.182h-47.104v49.591h-22.096v-49.591h-47.101v-21.182h47.101
			v-49.136H4140.112z"/>
	</g>
	<path style="fill:#2C455E;" d="M4387.882,2661.355v22.764h-79.294v-22.764H4387.882z"/>
	<path style="fill:#2C455E;" d="M4179.271,2840.317l-34.752,34.743l33.311,33.309l-14.972,14.981l-33.313-33.306l-35.06,35.056
		l-15.624-15.612l35.068-35.063l-33.313-33.313l14.981-14.977l33.309,33.308l34.746-34.745L4179.271,2840.317z"/>
	<g>
		<path style="fill:#F8FCFF;" d="M4246.879,2782.047v185.712h169.8c18.174,0,32.917-13.413,32.917-29.956v-155.756H4246.879z"/>
		<g>
			<path style="fill:#2C455E;" d="M4290.385,2862.12v-20.854h115.697v20.854H4290.385z M4290.385,2908.537v-20.857h115.697v20.857
				H4290.385z"/>
		</g>
	</g>
</g>
<g>
	<path style="fill:#666F7A;" d="M3896.062,665.969c0,262.925-213.138,476.056-476.002,476.056
		c-262.928,0-476.065-213.13-476.065-476.056c0-262.881,213.138-476.012,476.065-476.012
		C3682.924,189.957,3896.062,403.088,3896.062,665.969z"/>
	<path style="fill:#F3F2F3;" d="M3816.299,665.987c0,218.836-177.401,396.275-396.293,396.275
		c-218.84,0-396.249-177.439-396.249-396.275c0-218.852,177.409-396.268,396.249-396.268
		C3638.897,269.719,3816.299,447.135,3816.299,665.987z"/>
	<path style="fill:#49494A;" d="M3420.06,1068.059c-221.743,0-402.097-180.399-402.097-402.09
		c0-221.694,180.354-402.045,402.097-402.045c221.687,0,402.046,180.351,402.046,402.045
		C3822.105,887.66,3641.746,1068.059,3420.06,1068.059z M3420.06,289.392c-207.674,0-376.628,168.91-376.628,376.577
		c0,207.671,168.954,376.622,376.628,376.622c207.666,0,376.619-168.952,376.619-376.622
		C3796.679,458.302,3627.726,289.392,3420.06,289.392z"/>
	<g>
		<rect x="3403.738" y="281.108" style="fill:#49494A;" width="32.58" height="95.877"/>
		<rect x="3403.738" y="954.995" style="fill:#49494A;" width="32.58" height="95.892"/>
	</g>
	<g>
		<rect x="3709.031" y="649.699" style="fill:#49494A;" width="95.893" height="32.582"/>
		<rect x="3035.147" y="649.699" style="fill:#49494A;" width="95.878" height="32.582"/>
	</g>
	<path style="fill:#49494A;" d="M3634.209,640.317l-185.366,6.147c-6.261-9.235-16.823-15.297-28.813-15.297
		c-4.274,0-8.319,0.87-12.094,2.274l-171.045-194.799c-4.492-5.125-12.347-5.6-17.477-1.131c-5.125,4.519-5.623,12.327-1.134,17.474
		l171.07,194.836c-2.535,4.861-4.119,10.293-4.119,16.148c0,19.243,15.563,34.85,34.798,34.85c12.783,0,23.833-6.961,29.877-17.227
		l185.508-6.144c10.25-0.347,18.293-8.914,17.961-19.164C3653.018,648.027,3644.934,640.595,3634.209,640.317z"/>
</g>
<g>
	<g>
		<path style="fill:#666F7A;" d="M1184.092,1024.068H550.919c-38.021,0-68.845,36.294-68.845,81.071v419.139
			c0,44.766,30.824,81.066,68.845,81.066h633.172c38.015,0,68.843-36.3,68.843-81.066v-419.139
			C1252.935,1060.362,1222.106,1024.068,1184.092,1024.068z M1227.003,1562.412H508.017V1126.01h718.987V1562.412z"/>
		<rect x="508.017" y="1126.01" style="fill:#FFFFFF;" width="718.987" height="436.402"/>
	</g>
	<g>
		<g>
			<g>
				<g>
					<path style="fill:#B9DAEC;" d="M626.976,1071.474c0,12.342-10.008,22.35-22.356,22.35l0,0
						c-12.346,0-22.358-10.008-22.358-22.35v-73.337c0-12.341,10.013-22.354,22.358-22.354l0,0
						c12.348,0,22.356,10.014,22.356,22.354V1071.474z"/>
					<path style="fill:#B9DAEC;" d="M692.447,1071.474c0,12.342-10.004,22.35-22.356,22.35l0,0
						c-12.342,0-22.353-10.008-22.353-22.35v-73.337c0-12.341,10.01-22.354,22.353-22.354l0,0c12.352,0,22.356,10.014,22.356,22.354
						V1071.474z"/>
				</g>
				<g>
					<path style="fill:#B9DAEC;" d="M1087.267,1071.474c0,12.342-9.999,22.35-22.35,22.35l0,0c-12.346,0-22.356-10.008-22.356-22.35
						v-73.337c0-12.341,10.01-22.354,22.356-22.354l0,0c12.351,0,22.35,10.014,22.35,22.354V1071.474z"/>
					<path style="fill:#B9DAEC;" d="M1152.75,1071.474c0,12.342-10.017,22.35-22.365,22.35l0,0
						c-12.349,0-22.347-10.008-22.347-22.35v-73.337c0-12.341,9.998-22.354,22.347-22.354l0,0c12.348,0,22.365,10.014,22.365,22.354
						V1071.474z"/>
				</g>
			</g>
		</g>
		<g>
			<g>
				<path style="fill:#B9DAEC;" d="M601.923,1210.854c0,9.448-7.663,17.104-17.105,17.104h-37.331
					c-9.445,0-17.109-7.656-17.109-17.104v-37.328c0-9.445,7.664-17.107,17.109-17.107h37.331c9.441,0,17.105,7.662,17.105,17.107
					V1210.854z"/>
				<path style="fill:#B9DAEC;" d="M702.385,1210.854c0,9.448-7.655,17.104-17.106,17.104h-37.333
					c-9.442,0-17.097-7.656-17.097-17.104v-37.328c0-9.445,7.655-17.107,17.097-17.107h37.333c9.451,0,17.106,7.662,17.106,17.107
					V1210.854z"/>
				<path style="fill:#B9DAEC;" d="M802.858,1210.854c0,9.448-7.658,17.104-17.109,17.104h-37.325
					c-9.445,0-17.106-7.656-17.106-17.104v-37.328c0-9.445,7.661-17.107,17.106-17.107h37.325c9.451,0,17.109,7.662,17.109,17.107
					V1210.854z"/>
				<path style="fill:#B9DAEC;" d="M903.328,1210.854c0,9.448-7.661,17.104-17.109,17.104h-37.325
					c-9.448,0-17.102-7.656-17.102-17.104v-37.328c0-9.445,7.654-17.107,17.102-17.107h37.325c9.448,0,17.109,7.662,17.109,17.107
					V1210.854z"/>
				<path style="fill:#B9DAEC;" d="M1003.795,1210.854c0,9.448-7.657,17.104-17.103,17.104h-37.328
					c-9.451,0-17.106-7.656-17.106-17.104v-37.328c0-9.445,7.655-17.107,17.106-17.107h37.328c9.445,0,17.103,7.662,17.103,17.107
					V1210.854z"/>
				<path style="fill:#B9DAEC;" d="M1104.269,1210.854c0,9.448-7.661,17.104-17.109,17.104h-37.325
					c-9.445,0-17.108-7.656-17.108-17.104v-37.328c0-9.445,7.663-17.107,17.108-17.107h37.325c9.448,0,17.109,7.662,17.109,17.107
					V1210.854z"/>
				<path style="fill:#B9DAEC;" d="M1204.73,1210.854c0,9.448-7.655,17.104-17.1,17.104h-37.337
					c-9.442,0-17.096-7.656-17.096-17.104v-37.328c0-9.445,7.654-17.107,17.096-17.107h37.337c9.445,0,17.1,7.662,17.1,17.107
					V1210.854z"/>
			</g>
		</g>
		<g>
			<path style="fill:#B9DAEC;" d="M601.923,1318.159c0,9.445-7.663,17.103-17.105,17.103h-37.331
				c-9.445,0-17.109-7.657-17.109-17.103v-37.331c0-9.445,7.664-17.107,17.109-17.107h37.331c9.441,0,17.105,7.662,17.105,17.107
				V1318.159z"/>
			<path style="fill:#B9DAEC;" d="M702.385,1318.159c0,9.445-7.655,17.103-17.106,17.103h-37.333
				c-9.442,0-17.097-7.657-17.097-17.103v-37.331c0-9.445,7.655-17.107,17.097-17.107h37.333c9.451,0,17.106,7.662,17.106,17.107
				V1318.159z"/>
			<path style="fill:#EBA8A0;" d="M802.858,1318.159c0,9.445-7.658,17.103-17.109,17.103h-37.325
				c-9.445,0-17.106-7.657-17.106-17.103v-37.331c0-9.445,7.661-17.107,17.106-17.107h37.325c9.451,0,17.109,7.662,17.109,17.107
				V1318.159z"/>
			<path style="fill:#B9DAEC;" d="M903.328,1318.159c0,9.445-7.661,17.103-17.109,17.103h-37.325
				c-9.448,0-17.102-7.657-17.102-17.103v-37.331c0-9.445,7.654-17.107,17.102-17.107h37.325c9.448,0,17.109,7.662,17.109,17.107
				V1318.159z"/>
			<path style="fill:#B9DAEC;" d="M1003.795,1318.159c0,9.445-7.657,17.103-17.103,17.103h-37.328
				c-9.451,0-17.106-7.657-17.106-17.103v-37.331c0-9.445,7.655-17.107,17.106-17.107h37.328c9.445,0,17.103,7.662,17.103,17.107
				V1318.159z"/>
			<path style="fill:#B9DAEC;" d="M1104.269,1318.159c0,9.445-7.661,17.103-17.109,17.103h-37.325
				c-9.445,0-17.108-7.657-17.108-17.103v-37.331c0-9.445,7.663-17.107,17.108-17.107h37.325c9.448,0,17.109,7.662,17.109,17.107
				V1318.159z"/>
			<path style="fill:#B9DAEC;" d="M1204.73,1318.159c0,9.445-7.655,17.103-17.1,17.103h-37.337c-9.442,0-17.096-7.657-17.096-17.103
				v-37.331c0-9.445,7.654-17.107,17.096-17.107h37.337c9.445,0,17.1,7.662,17.1,17.107V1318.159z"/>
		</g>
		<g>
			<g>
				<path style="fill:#B9DAEC;" d="M601.923,1425.453c0,9.448-7.663,17.106-17.105,17.106h-37.331
					c-9.445,0-17.109-7.658-17.109-17.106v-37.328c0-9.443,7.664-17.101,17.109-17.101h37.331c9.441,0,17.105,7.657,17.105,17.101
					V1425.453z"/>
				<path style="fill:#B9DAEC;" d="M702.385,1425.453c0,9.448-7.655,17.106-17.106,17.106h-37.333
					c-9.442,0-17.097-7.658-17.097-17.106v-37.328c0-9.443,7.655-17.101,17.097-17.101h37.333c9.451,0,17.106,7.657,17.106,17.101
					V1425.453z"/>
				<path style="fill:#B9DAEC;" d="M802.858,1425.453c0,9.448-7.658,17.106-17.109,17.106h-37.325
					c-9.445,0-17.106-7.658-17.106-17.106v-37.328c0-9.443,7.661-17.101,17.106-17.101h37.325c9.451,0,17.109,7.657,17.109,17.101
					V1425.453z"/>
				<path style="fill:#B9DAEC;" d="M903.328,1425.453c0,9.448-7.661,17.106-17.109,17.106h-37.325
					c-9.448,0-17.102-7.658-17.102-17.106v-37.328c0-9.443,7.654-17.101,17.102-17.101h37.325c9.448,0,17.109,7.657,17.109,17.101
					V1425.453z"/>
				<path style="fill:#B9DAEC;" d="M1003.795,1425.453c0,9.448-7.657,17.106-17.103,17.106h-37.328
					c-9.451,0-17.106-7.658-17.106-17.106v-37.328c0-9.443,7.655-17.101,17.106-17.101h37.328c9.445,0,17.103,7.657,17.103,17.101
					V1425.453z"/>
				<path style="fill:#B9DAEC;" d="M1104.269,1425.453c0,9.448-7.661,17.106-17.109,17.106h-37.325
					c-9.445,0-17.108-7.658-17.108-17.106v-37.328c0-9.443,7.663-17.101,17.108-17.101h37.325c9.448,0,17.109,7.657,17.109,17.101
					V1425.453z"/>
				<path style="fill:#B9DAEC;" d="M1204.73,1425.453c0,9.448-7.655,17.106-17.1,17.106h-37.337
					c-9.442,0-17.096-7.658-17.096-17.106v-37.328c0-9.443,7.654-17.101,17.096-17.101h37.337c9.445,0,17.1,7.657,17.1,17.101
					V1425.453z"/>
			</g>
		</g>
		<g>
			<g>
				<path style="fill:#B9DAEC;" d="M601.923,1532.757c0,9.448-7.663,17.105-17.105,17.105h-37.331
					c-9.445,0-17.109-7.657-17.109-17.105v-37.325c0-9.444,7.664-17.106,17.109-17.106h37.331c9.441,0,17.105,7.662,17.105,17.106
					V1532.757z"/>
				<path style="fill:#B9DAEC;" d="M702.385,1532.757c0,9.448-7.655,17.105-17.106,17.105h-37.333
					c-9.442,0-17.097-7.657-17.097-17.105v-37.325c0-9.444,7.655-17.106,17.097-17.106h37.333c9.451,0,17.106,7.662,17.106,17.106
					V1532.757z"/>
				<path style="fill:#B9DAEC;" d="M802.858,1532.757c0,9.448-7.658,17.105-17.109,17.105h-37.325
					c-9.445,0-17.106-7.657-17.106-17.105v-37.325c0-9.444,7.661-17.106,17.106-17.106h37.325c9.451,0,17.109,7.662,17.109,17.106
					V1532.757z"/>
				<path style="fill:#B9DAEC;" d="M903.328,1532.757c0,9.448-7.661,17.105-17.109,17.105h-37.325
					c-9.448,0-17.102-7.657-17.102-17.105v-37.325c0-9.444,7.654-17.106,17.102-17.106h37.325c9.448,0,17.109,7.662,17.109,17.106
					V1532.757z"/>
				<path style="fill:#B9DAEC;" d="M1003.795,1532.757c0,9.448-7.657,17.105-17.103,17.105h-37.328
					c-9.451,0-17.106-7.657-17.106-17.105v-37.325c0-9.444,7.655-17.106,17.106-17.106h37.328c9.445,0,17.103,7.662,17.103,17.106
					V1532.757z"/>
				<path style="fill:#B9DAEC;" d="M1104.269,1532.757c0,9.448-7.661,17.105-17.109,17.105h-37.325
					c-9.445,0-17.108-7.657-17.108-17.105v-37.325c0-9.444,7.663-17.106,17.108-17.106h37.325c9.448,0,17.109,7.662,17.109,17.106
					V1532.757z"/>
				<path style="fill:#B9DAEC;" d="M1204.73,1532.757c0,9.448-7.655,17.105-17.1,17.105h-37.337
					c-9.442,0-17.096-7.657-17.096-17.105v-37.325c0-9.444,7.654-17.106,17.096-17.106h37.337c9.445,0,17.1,7.662,17.1,17.106
					V1532.757z"/>
			</g>
		</g>
	</g>
</g>
<g>
	<rect x="585.324" y="2963.445" style="fill:#274B6B;" width="569.816" height="775.915"/>
	<g>
		<rect x="632.215" y="3037.121" style="fill:#FFFDF5;" width="476.034" height="656.378"/>
		<g>
			<rect x="659.487" y="3494.732" style="fill:#8B8588;" width="204.567" height="14.252"/>
			<rect x="659.487" y="3516.834" style="fill:#8B8588;" width="204.567" height="14.26"/>
			<rect x="659.487" y="3538.931" style="fill:#8B8588;" width="204.567" height="14.261"/>
			<rect x="659.487" y="3561.043" style="fill:#8B8588;" width="204.567" height="14.232"/>
			<rect x="659.487" y="3583.129" style="fill:#8B8588;" width="204.567" height="14.25"/>
			<rect x="659.487" y="3605.234" style="fill:#8B8588;" width="204.567" height="14.242"/>
			<rect x="659.487" y="3627.327" style="fill:#8B8588;" width="204.567" height="14.253"/>
			<rect x="659.487" y="3649.421" style="fill:#8B8588;" width="204.567" height="14.263"/>
		</g>
		<g>
			<rect x="886.279" y="3494.732" style="fill:#8B8588;" width="204.564" height="14.252"/>
			<rect x="886.279" y="3516.834" style="fill:#8B8588;" width="204.564" height="14.26"/>
			<rect x="886.279" y="3538.931" style="fill:#8B8588;" width="204.564" height="14.261"/>
			<rect x="886.279" y="3561.043" style="fill:#8B8588;" width="204.564" height="14.232"/>
			<rect x="886.279" y="3583.129" style="fill:#8B8588;" width="204.564" height="14.25"/>
			<rect x="886.279" y="3605.234" style="fill:#8B8588;" width="204.564" height="14.242"/>
			<rect x="886.279" y="3627.327" style="fill:#8B8588;" width="204.564" height="14.253"/>
		</g>
		<rect x="659.487" y="3402.136" style="fill:#EBA8A0;" width="37.667" height="32.549"/>
		<rect x="659.487" y="3449.495" style="fill:#85CFEF;" width="37.667" height="32.576"/>
		<rect x="879.804" y="3402.136" style="fill:#C9DC58;" width="37.671" height="32.549"/>
		<rect x="879.804" y="3449.495" style="fill:#F4BD5A;" width="37.671" height="32.576"/>
		<rect x="717.498" y="3412.305" style="fill:#C2C1C1;" width="44.255" height="13.231"/>
		<rect x="717.498" y="3461.154" style="fill:#C2C1C1;" width="44.255" height="12.205"/>
		<rect x="933.306" y="3412.305" style="fill:#C2C1C1;" width="44.268" height="13.231"/>
		<rect x="933.306" y="3461.159" style="fill:#C2C1C1;" width="44.268" height="12.215"/>
		<g>
			<rect x="659.487" y="3233.9" style="fill:#8B8588;" width="428.001" height="14.251"/>
			<rect x="659.487" y="3256" style="fill:#8B8588;" width="428.001" height="14.26"/>
			<rect x="659.487" y="3278.102" style="fill:#8B8588;" width="428.001" height="14.256"/>
			<rect x="659.487" y="3300.209" style="fill:#8B8588;" width="428.001" height="14.234"/>
			<rect x="659.487" y="3322.298" style="fill:#8B8588;" width="428.001" height="14.248"/>
			<rect x="659.487" y="3344.398" style="fill:#8B8588;" width="428.001" height="14.245"/>
			<rect x="659.487" y="3366.492" style="fill:#8B8588;" width="428.001" height="14.252"/>
		</g>
		<g>
			<g>
				<g>
					<g>
						<rect x="842.853" y="3068.666" style="fill:#8B8588;" width="205.628" height="67.29"/>
					</g>
				</g>
			</g>
			<rect x="844.917" y="3151.663" style="fill:#C2C1C1;" width="201.503" height="16.959"/>
			<rect x="844.917" y="3203.166" style="fill:#C2C1C1;" width="201.503" height="16.963"/>
			<rect x="844.917" y="3177.414" style="fill:#C2C1C1;" width="201.503" height="16.964"/>
		</g>
		<g>
			<g>
				<rect x="659.487" y="3074.876" style="fill:#C2C1C1;" width="170.374" height="16.963"/>
				<rect x="659.487" y="3126.382" style="fill:#C2C1C1;" width="170.374" height="16.962"/>
				<rect x="659.487" y="3100.628" style="fill:#C2C1C1;" width="170.374" height="16.962"/>
			</g>
			<g>
				<rect x="659.487" y="3152.673" style="fill:#C2C1C1;" width="170.374" height="16.962"/>
				<rect x="659.487" y="3204.175" style="fill:#C2C1C1;" width="170.374" height="16.962"/>
				<rect x="659.487" y="3178.424" style="fill:#C2C1C1;" width="170.374" height="16.962"/>
			</g>
		</g>
	</g>
	<path style="fill:#FFFFFF;" d="M997.531,3024.706H742.933c-5.153,0-9.345-4.193-9.345-9.345v-42.785
		c0-5.155,4.192-9.348,9.345-9.348h254.599c5.153,0,9.348,4.192,9.348,9.348v42.785
		C1006.879,3020.513,1002.684,3024.706,997.531,3024.706z M742.933,2969.798c-1.532,0-2.777,1.247-2.777,2.778v42.785
		c0,1.531,1.245,2.777,2.777,2.777h254.599c1.532,0,2.779-1.246,2.779-2.777v-42.785c0-1.531-1.247-2.778-2.779-2.778H742.933z"/>
	<path style="fill:#0A1D2F;" d="M768.377,2996.559c7.749,5.658,14.665,12.394,20.519,19.988h162.671
		c5.855-7.595,12.771-14.33,20.517-19.988c10.014-0.204,18.072-8.378,18.072-18.44v-18.45c0-10.189-8.262-18.449-18.449-18.449
		H768.76c-10.19,0-18.452,8.26-18.452,18.449v18.45C750.308,2988.181,758.367,2996.354,768.377,2996.559z"/>
</g>
<path style="fill:#95D5CF;" d="M1639.42,723.161c-4.475,22.772-4.168,46.486,0.902,69.934l-59.92,25.526l25.928,60.869
	l59.924-25.523c13.384,20.036,30.226,36.573,49.709,49.077l-24.187,60.275l61.462,24.675l24.246-60.169
	c22.685,4.53,46.417,4.216,69.901-0.842l25.471,59.805l60.912-25.937l-25.475-59.838c19.848-13.424,36.474-30.29,49.02-49.8
	l60.26,24.176l24.708-61.315l-60.114-24.402c4.35-22.584,4.155-46.308-0.921-69.937l59.792-25.457l-25.979-60.908l-59.759,25.465
	c-13.47-19.838-30.406-36.415-49.779-49.101l24.113-60.127l-61.328-24.715l-24.271,60.2c-22.729-4.448-46.465-4.226-69.941,0.808
	l-25.443-59.78l-60.89,25.927l25.478,59.835c-19.906,13.479-36.489,30.375-49.095,49.871l-60.082-24.177l-24.833,61.371
	L1639.42,723.161z M1782.419,689.989c36.625-15.588,79.139,1.435,94.768,38.169c15.652,36.723-1.563,79.149-38.209,94.762
	c-36.64,15.625-79.018-1.442-94.658-38.173C1728.697,748.016,1745.721,705.627,1782.419,689.989z"/>
<path style="fill:#95D5CF;" d="M4363.611,1619.859c7.532-28.8,9.039-59.172,4.408-89.597l78.726-27.906l-28.333-79.966
	l-78.746,27.891c-15.531-26.7-35.771-49.21-59.714-66.782l35.761-75.223l-76.715-36.477l-35.83,75.09
	c-28.664-7.597-59.07-9.093-89.532-4.487l-27.849-78.571l-80.032,28.354l27.849,78.616c-26.479,15.607-49.098,35.866-66.705,59.842
	l-75.209-35.741l-36.51,76.521l75.008,36.021c-7.381,28.563-9.004,58.938-4.395,89.589l-78.554,27.831l28.4,80.021l78.521-27.836
	c15.664,26.471,36.021,49.034,59.817,66.806l-35.659,75.047l76.537,36.524l35.854-75.125c28.752,7.494,59.146,9.098,89.6,4.523
	l27.813,78.547l79.992-28.335l-27.842-78.62c26.557-15.668,49.123-35.98,66.809-59.929l74.985,35.731l36.665-76.582
	L4363.611,1619.859z M4177.929,1650.936c-48.114,17.036-101.182-8.144-118.255-56.403c-17.117-48.256,8.291-101.185,56.441-118.251
	c48.139-17.081,101.04,8.125,118.125,56.394C4251.309,1580.932,4226.154,1633.836,4177.929,1650.936z"/>
<path style="fill:#95D5CF;" d="M602.668,2215.846c-4.475,22.773-4.167,46.488,0.903,69.934l-59.92,25.527l25.927,60.869
	l59.923-25.523c13.385,20.036,30.226,36.573,49.709,49.076l-24.186,60.276l61.461,24.678l24.247-60.172
	c22.684,4.53,46.417,4.217,69.9-0.842l25.472,59.804l60.911-25.938l-25.474-59.835c19.848-13.425,36.473-30.291,49.02-49.801
	l60.261,24.177l24.709-61.316l-60.115-24.4c4.35-22.585,4.156-46.309-0.921-69.938l59.793-25.456l-25.979-60.909l-59.76,25.465
	c-13.47-19.838-30.405-36.415-49.779-49.101l24.114-60.127l-61.328-24.715l-24.271,60.201c-22.729-4.448-46.465-4.227-69.94,0.808
	l-25.444-59.78l-60.89,25.927l25.478,59.835c-19.905,13.48-36.489,30.375-49.095,49.871l-60.082-24.176l-24.833,61.37
	L602.668,2215.846z M745.667,2182.675c36.626-15.589,79.139,1.436,94.768,38.169c15.652,36.724-1.563,79.149-38.209,94.762
	c-36.641,15.625-79.018-1.441-94.658-38.173C691.946,2240.701,708.969,2198.312,745.667,2182.675z"/>
<path style="fill:#95D5CF;" d="M3881.062,3808.438c7.534-28.802,9.041-59.177,4.409-89.6l78.724-27.906l-28.331-79.963
	l-78.747,27.889c-15.531-26.696-35.771-49.211-59.714-66.782l35.762-75.22l-76.716-36.48l-35.829,75.094
	c-28.663-7.6-59.072-9.098-89.532-4.487l-27.849-78.571l-80.032,28.351l27.849,78.62c-26.479,15.606-49.099,35.865-66.707,59.837
	l-75.207-35.736l-36.51,76.521l75.007,36.018c-7.38,28.563-9.003,58.938-4.395,89.593l-78.553,27.828l28.398,80.023l78.522-27.84
	c15.664,26.472,36.021,49.034,59.817,66.806l-35.659,75.051l76.537,36.521l35.854-75.124c28.752,7.492,59.145,9.098,89.599,4.524
	l27.813,78.546l79.992-28.338l-27.842-78.619c26.556-15.669,49.122-35.98,66.809-59.93l74.986,35.731l36.664-76.582
	L3881.062,3808.438z M3695.379,3839.511c-48.112,17.037-101.182-8.14-118.254-56.402c-17.119-48.256,8.29-101.182,56.439-118.247
	c48.141-17.086,101.041,8.121,118.127,56.39C3768.76,3769.508,3743.604,3822.415,3695.379,3839.511z"/>
<path style="fill:#95D5CF;" d="M1346.008,3909.908c-4.475,22.769-4.17,46.486,0.9,69.931l-59.917,25.53l25.925,60.865l59.923-25.523
	c13.388,20.04,30.229,36.576,49.709,49.077l-24.186,60.275l61.461,24.679l24.246-60.173c22.684,4.529,46.42,4.22,69.901-0.839
	l25.476,59.801l60.908-25.937l-25.475-59.838c19.851-13.425,36.474-30.29,49.022-49.801l60.258,24.181l24.709-61.316l-60.112-24.405
	c4.348-22.58,4.153-46.304-0.924-69.937l59.796-25.457l-25.979-60.908l-59.759,25.47c-13.473-19.839-30.406-36.42-49.783-49.102
	l24.113-60.131l-61.328-24.715l-24.272,60.203c-22.727-4.449-46.463-4.225-69.937,0.81l-25.445-59.785l-60.89,25.932l25.475,59.833
	c-19.906,13.479-36.485,30.375-49.095,49.873l-60.081-24.181l-24.831,61.371L1346.008,3909.908z M1489.008,3876.735
	c36.625-15.589,79.137,1.435,94.769,38.169c15.65,36.724-1.563,79.149-38.213,94.762c-36.637,15.626-79.015-1.441-94.658-38.176
	C1435.286,3934.763,1452.31,3892.373,1489.008,3876.735z"/>
<g>
	<g>
		<g>
			<path style="fill:#2B445D;" d="M1873.339,3346.538c0,14.618-11.847,26.469-26.46,26.469h-145.574
				c-14.619,0-26.463-11.851-26.463-26.469v-52.933c0-14.616,11.844-26.472,26.463-26.472h145.574
				c14.613,0,26.46,11.855,26.46,26.472V3346.538z"/>
			<path style="fill:#2B445D;" d="M3309.206,3346.538c0,14.618-11.839,26.469-26.46,26.469h-145.574
				c-14.623,0-26.476-11.851-26.476-26.469v-52.933c0-14.616,11.853-26.472,26.476-26.472h145.574
				c14.621,0,26.46,11.855,26.46,26.472V3346.538z"/>
		</g>
		<g>
			<g>
				<polygon style="fill:#2B445D;" points="2182.816,2150.097 2005.645,2150.097 1978.378,1845.724 2119.214,1845.724 				"/>
				<polygon style="fill:#2B445D;" points="2801.232,2150.097 2978.406,2150.097 3005.666,1845.724 2864.834,1845.724 				"/>
			</g>
		</g>
		<g>
			<path style="fill:#3F5F78;" d="M2037.664,1822.324h909.984c79.348,0,143.682,70.514,143.682,157.502v4.768
				c2.665,4.968,5.178,10.072,7.478,15.357c12.399,28.526,27.252,35.527,55.727,35.347c172.382-1.118,344.788-0.486,517.177-0.714
				c12.838-0.011,25.676-2.199,39.262-3.446c2.418-158.049-51.146-281.691-187.293-366.976
				c-147.109-92.155-310.529-126.176-478.299-128.733c-381.378-5.842-762.969-5.679-1144.355-0.153
				c-165.398,2.387-322.853,48.223-465.458,137.934c-133.6,84.045-170.181,209.604-162.521,359.32c199.462,0,396.176,0,592.044,0
				c8.983-22.093,18.558-41.428,28.994-58.22C1896.732,1889.88,1960.002,1822.324,2037.664,1822.324z"/>
			<path style="fill:#2B445D;" d="M3705.655,2066.941c-194.605,0-389.563,0-587.769,0c-14.63,135.169-5.176,145.855,124.82,145.866
				c116.889,0.019,233.772,0.085,350.649-0.015C3697.062,2212.69,3728.418,2172.476,3705.655,2066.941z"/>
			<path style="fill:#2B445D;" d="M1863.654,2067.831c-196.208,0-392.51,0-588.501,0c-13.917,119.989,7.252,144.922,120.895,144.973
				c113.566,0.052,227.136,0.16,340.707-0.04C1837.038,2212.582,1870.658,2174.47,1863.654,2067.831z"/>
		</g>
		<path style="fill:#E1EFFA;" d="M2492.033,2281.396c-221.093,0-400.327,179.225-400.327,400.319
			c0,221.089,179.234,400.325,400.327,400.325c221.086,0,400.322-179.236,400.322-400.325
			C2892.355,2460.621,2713.119,2281.396,2492.033,2281.396z M2492.033,2945.473c-146.532,0-265.343-118.795-265.343-265.336
			c0-146.55,118.811-265.348,265.343-265.348c146.545,0,265.347,118.798,265.347,265.348
			C2757.38,2826.678,2638.578,2945.473,2492.033,2945.473z"/>
		<path style="fill:#3F5F78;" d="M3123.934,2248.135l-138.953-172.042h-410.245h-165.42h-410.25l-138.951,172.042l-244.828,694.775
			v383.779h1753.47V2942.91L3123.934,2248.135z M2492.022,3081.858c-221.085,0-400.316-179.226-400.316-400.315
			c0-221.093,179.231-400.328,400.316-400.328c221.09,0,400.321,179.235,400.321,400.328
			C2892.344,2902.633,2713.112,3081.858,2492.022,3081.858z"/>
		<path style="fill:#2B445D;" d="M2492.033,2416.368c-146.532,0-265.343,118.8-265.343,265.347
			c0,146.548,118.811,265.344,265.343,265.344c146.545,0,265.347-118.796,265.347-265.344
			C2757.38,2535.168,2638.578,2416.368,2492.033,2416.368z"/>
		<g>
			<g>
				<path style="fill:#2B445D;" d="M2547.525,2351.101c0,30.643-24.846,55.482-55.492,55.482c-30.643,0-55.489-24.839-55.489-55.482
					c0-30.646,24.846-55.482,55.489-55.482C2522.68,2295.619,2547.525,2320.454,2547.525,2351.101z"/>
				<path style="fill:#2B445D;" d="M2547.525,3012.336c0,30.631-24.846,55.479-55.492,55.479c-30.643,0-55.489-24.849-55.489-55.479
					c0-30.65,24.846-55.496,55.489-55.496C2522.68,2956.84,2547.525,2981.686,2547.525,3012.336z"/>
			</g>
		</g>
		<g>
			<g>
				<path style="fill:#2B445D;" d="M2822.645,2737.202c-30.644,0-55.486-24.838-55.486-55.487c0-30.647,24.843-55.485,55.486-55.485
					c30.651,0,55.492,24.838,55.492,55.485C2878.137,2712.364,2853.296,2737.202,2822.645,2737.202z"/>
				<path style="fill:#2B445D;" d="M2161.415,2737.202c-30.646,0-55.487-24.838-55.487-55.487c0-30.647,24.841-55.485,55.487-55.485
					c30.651,0,55.495,24.838,55.495,55.485C2216.909,2712.364,2192.066,2737.202,2161.415,2737.202z"/>
			</g>
		</g>
		<g>
			<g>
				<path style="fill:#2B445D;" d="M2765.058,2487.174c-21.673,21.664-56.805,21.664-78.481,0
					c-21.668-21.674-21.668-56.811,0-78.473c21.677-21.67,56.809-21.67,78.481,0
					C2786.721,2430.372,2786.721,2465.5,2765.058,2487.174z"/>
				<path style="fill:#2B445D;" d="M2297.485,2954.726c-21.662,21.669-56.8,21.675-78.468,0.009
					c-21.668-21.674-21.668-56.809,0-78.471c21.668-21.671,56.806-21.673,78.468,0
					C2319.165,2897.926,2319.15,2933.061,2297.485,2954.726z"/>
			</g>
		</g>
		<g>
			<g>
				<path style="fill:#2B445D;" d="M2686.576,2954.726c-21.668-21.665-21.668-56.794,0-78.462
					c21.677-21.673,56.809-21.673,78.481-0.009c21.663,21.666,21.663,56.806,0,78.479
					C2743.385,2976.4,2708.253,2976.395,2686.576,2954.726z"/>
				<path style="fill:#2B445D;" d="M2219.018,2487.174c-21.668-21.67-21.668-56.802-0.005-78.47
					c21.673-21.673,56.811-21.673,78.473-0.003c21.68,21.67,21.68,56.803,0,78.473
					C2275.823,2508.844,2240.686,2508.838,2219.018,2487.174z"/>
			</g>
		</g>
		<g>
			<g>
				<path style="fill:#2B445D;" d="M2817.722,2602.258c-28.158,12.094-60.788-0.932-72.879-29.092
					c-12.094-28.16,0.929-60.783,29.091-72.877c28.16-12.089,60.799,0.936,72.887,29.087
					C2858.909,2557.543,2845.884,2590.166,2817.722,2602.258z"/>
				<path style="fill:#2B445D;" d="M2210.13,2863.141c-28.155,12.094-60.788-0.938-72.883-29.092
					c-12.086-28.16,0.944-60.793,29.099-72.881c28.155-12.094,60.79,0.937,72.881,29.091
					C2251.318,2818.419,2238.291,2851.049,2210.13,2863.141z"/>
			</g>
		</g>
		<g>
			<g>
				<path style="fill:#2B445D;" d="M2571.489,3007.4c-12.088-28.157,0.927-60.787,29.085-72.879
					c28.164-12.088,60.801,0.937,72.889,29.092c12.095,28.166-0.939,60.793-29.096,72.881
					C2616.213,3048.588,2583.577,3035.558,2571.489,3007.4z"/>
				<path style="fill:#2B445D;" d="M2310.604,2399.809c-12.097-28.156,0.942-60.789,29.1-72.879
					c28.163-12.089,60.792,0.937,72.875,29.097c12.091,28.163-0.931,60.787-29.094,72.879
					C2355.318,2440.997,2322.698,2427.967,2310.604,2399.809z"/>
			</g>
		</g>
		<g>
			<g>
				<path style="fill:#2B445D;" d="M2207.594,2504.296c28.33,11.685,41.812,44.129,30.115,72.457
					c-11.686,28.322-44.119,41.814-72.453,30.122c-28.327-11.688-41.809-44.135-30.126-72.459
					C2146.826,2506.083,2179.269,2492.599,2207.594,2504.296z"/>
				<path style="fill:#2B445D;" d="M2818.819,2756.549c28.311,11.693,41.8,44.141,30.109,72.467
					c-11.691,28.332-44.128,41.812-72.455,30.121c-28.327-11.691-41.817-44.133-30.127-72.459
					C2758.044,2758.348,2790.485,2744.866,2818.819,2756.549z"/>
			</g>
		</g>
		<g>
			<g>
				<path style="fill:#2B445D;" d="M2669.457,2397.277c-11.69,28.324-44.133,41.813-72.455,30.123
					c-28.333-11.695-41.817-44.139-30.129-72.461c11.693-28.331,44.135-41.816,72.469-30.129
					C2667.658,2336.503,2681.147,2368.946,2669.457,2397.277z"/>
				<path style="fill:#2B445D;" d="M2417.198,3008.496c-11.696,28.321-44.139,41.806-72.466,30.121
					c-28.327-11.697-41.812-44.137-30.121-72.465c11.691-28.327,44.136-41.811,72.46-30.117
					C2415.398,2947.723,2428.883,2980.165,2417.198,3008.496z"/>
			</g>
		</g>
	</g>
	<path style="fill:#E1EFFA;" d="M2696.97,2681.398c0,111.922-90.734,202.657-202.655,202.657
		c-111.923,0-202.661-90.735-202.661-202.657c0-111.924,90.737-202.656,202.661-202.656
		C2606.235,2478.743,2696.97,2569.475,2696.97,2681.398z"/>
</g>
</svg>
