<?xml version="1.0" encoding="UTF-8"?>
<svg version="1.1" xmlns="http://www.w3.org/2000/svg" width="512" height="512">
<path d="M0 0 C8.53621037 4.57109471 16.90747513 9.40081279 25.25 14.3125 C26.54619436 15.07418775 27.84241853 15.83582475 29.13867188 16.59741211 C37.7887229 21.68304132 46.41990886 26.7970665 55 32 C56.23542371 32.7361025 57.47110807 33.47176768 58.70703125 34.20703125 C59.90905014 34.92936148 61.11088044 35.65200567 62.3125 36.375 C63.36050781 37.00148437 64.40851563 37.62796875 65.48828125 38.2734375 C68.60148155 40.4134601 69.78650993 42.10859491 70.66674805 45.78393555 C70.86308838 46.890354 71.05942871 47.99677246 71.26171875 49.13671875 C71.49439453 50.35423828 71.72707031 51.57175781 71.96679688 52.82617188 C72.44309402 55.37804033 72.9043195 57.93277303 73.34960938 60.49023438 C73.58873047 61.71419922 73.82785156 62.93816406 74.07421875 64.19921875 C74.27619873 65.31127686 74.47817871 66.42333496 74.6862793 67.5690918 C78.22824098 76.81926603 87.86698779 84.00383839 94.81030273 90.92382812 C95.99380124 92.10704408 97.17707865 93.29048123 98.3601532 94.47412109 C101.55161727 97.66587049 104.74614135 100.85454084 107.94124866 104.04264259 C111.28758954 107.38270566 114.63107327 110.72562638 117.97486877 114.0682373 C124.29792141 120.38818963 130.62351742 126.70558987 136.95004469 133.02206373 C144.15640737 140.21722478 151.35990952 147.41524679 158.56317985 154.61350346 C173.37228585 169.41217454 188.18495755 184.2072721 203 199 C208.71492509 194.21964371 214.08452989 189.15424236 219.42358398 183.9597168 C220.80037071 182.62410957 220.80037071 182.62410957 222.20497131 181.26152039 C230.62319611 173.08729715 238.99042819 164.86087065 247.34315395 156.61978436 C252.94638858 151.09318387 258.56466175 145.58383299 264.22338867 140.11401367 C269.17973709 135.32309573 274.10495974 130.50259459 278.99559456 125.64458019 C281.57811269 123.08124678 284.17291897 120.53437037 286.80554008 118.02243614 C299.62661354 106.88808276 299.62661354 106.88808276 305.33725834 91.77629566 C305.17166495 88.46790369 304.57908708 85.25799808 304 82 C305.23130695 61.68688199 313.58566258 42.3028145 328 28 C328.825 27.113125 329.65 26.22625 330.5 25.3125 C347.33410681 9.7409512 368.30847803 1.6108872 391.29296875 1.8515625 C407.59537079 2.50434572 422.52280366 7.78619155 437 15 C435.41925776 18.90781993 432.91125301 21.23765961 429.87597656 24.11303711 C428.79766391 25.14203347 427.71948403 26.17116897 426.64141846 27.20042419 C426.07071877 27.7417996 425.50001907 28.28317501 424.91202545 28.84095573 C421.88286315 31.72474353 418.887502 34.64338472 415.88671875 37.55664062 C412.07207298 41.25743321 408.24831442 44.94673588 404.38330078 48.5949707 C401.25520854 51.54937412 398.16561177 54.53958355 395.09801483 57.55670357 C393.92628915 58.69582435 392.74123336 59.82140549 391.54279327 60.9323864 C384.59909723 67.08400564 384.59909723 67.08400564 381.72937012 75.5317688 C382.22427111 78.83438773 382.98877497 81.82284494 384 85 C384.24153078 86.43229603 384.45730153 87.86969501 384.625 89.3125 C384.74875 90.199375 384.8725 91.08625 385 92 C387.10812627 92.24191613 389.2176431 92.4744026 391.33085632 92.66688538 C394 93 394 93 396.45979309 93.68553162 C399.59291709 94.39786256 401.81513239 94.53579553 405 94 C409.95333959 90.74707163 413.82905101 86.57097558 417.88671875 82.28515625 C419.07904233 81.07042867 420.27405996 79.85834012 421.47163391 78.64878845 C424.60434101 75.47043772 427.69933389 72.25772974 430.78765869 69.03631592 C433.95024214 65.75059014 437.14741912 62.49891102 440.34179688 59.24414062 C446.59539503 52.86215568 452.80965272 46.44331304 459 40 C462 41 462 41 463.90234375 44.4375 C474.3234314 67.1119823 478.63309247 91.85825535 470 116 C466.10992229 126.17214892 461.31620067 134.86574314 454 143 C453.53335937 143.60714844 453.06671875 144.21429688 452.5859375 144.83984375 C441.81990986 158.72235308 423.73235641 167.17360842 407 171 C406.21803222 171.18850808 405.43606443 171.37701616 404.63040066 171.57123661 C401.86330326 172.02228199 399.66736749 171.87741025 396.89015198 171.55162048 C385.31360895 170.70238966 377.02735066 171.73573703 368.00431728 179.43511295 C363.29964509 183.80092382 358.86112218 188.41053776 354.4741714 193.09237409 C351.81063205 195.90792216 349.07699344 198.65383156 346.35072327 201.40843201 C341.21949272 206.61369927 336.15242221 211.87689487 331.10664707 217.16489595 C325.35075783 223.1908439 319.52497348 229.14722526 313.69290531 235.09932816 C301.71697766 247.32483997 289.82976566 259.63303424 278 272 C279.39596486 274.90619135 280.73064201 276.97121766 283.0390625 279.234375 C283.61914062 279.80800781 284.19921875 280.38164062 284.796875 280.97265625 C285.40015625 281.55917969 286.0034375 282.14570313 286.625 282.75 C287.54152344 283.65298828 287.54152344 283.65298828 288.4765625 284.57421875 C289.97988624 286.05405305 291.48934856 287.52764676 293 289 C295.99943905 287.65427113 298.08076179 286.16462899 300.39160156 283.83544922 C301.0319635 283.19493622 301.67232544 282.55442322 302.33209229 281.89450073 C303.01140808 281.20486237 303.69072388 280.515224 304.390625 279.8046875 C305.09523865 279.09724396 305.79985229 278.38980042 306.52581787 277.66091919 C308.7719539 275.40360138 311.01103009 273.13942367 313.25 270.875 C314.77297717 269.34199047 316.29640939 267.80943285 317.8203125 266.27734375 C321.55216815 262.52345427 325.27825351 258.76391086 329 255 C332.01647998 256.35548965 334.14376688 257.88055291 336.49926758 260.19287109 C337.16287796 260.84049408 337.82648834 261.48811707 338.51020813 262.15536499 C339.56669807 263.20381088 339.56669807 263.20381088 340.64453125 264.2734375 C341.37371262 264.99359039 342.10289398 265.71374329 342.85417175 266.45571899 C344.39077185 267.97782898 345.92459036 269.50275146 347.45581055 271.03027344 C349.80909068 273.37160799 352.18037388 275.69364614 354.55273438 278.015625 C356.04281194 279.49624414 357.53178323 280.97797762 359.01953125 282.4609375 C359.73397903 283.15585297 360.44842682 283.85076843 361.18452454 284.56674194 C361.83237411 285.22066925 362.48022369 285.87459656 363.14770508 286.54833984 C364.01230095 287.40532974 364.01230095 287.40532974 364.8943634 288.27963257 C366 290 366 290 365.78190613 292.09675598 C364.73263844 294.65078692 363.24424068 295.99361546 361.21875 297.86328125 C360.45949219 298.58580078 359.70023437 299.30832031 358.91796875 300.05273438 C357.31182339 301.55379268 355.69986195 303.04865286 354.08203125 304.53710938 C349.22283105 308.95836206 349.22283105 308.95836206 346.90625 314.890625 C346.8164469 317.95924245 346.8164469 317.95924245 348 320.4375 C350.01477471 322.24539779 350.01477471 322.24539779 353.1875 322.6875 C358.60434866 321.71069123 361.21695847 318.82889658 365 315 C365.60714844 314.40574219 366.21429688 313.81148438 366.83984375 313.19921875 C368.24295725 311.81591391 369.62406102 310.41033745 371 309 C374.15697758 310.39857839 376.29274245 312.04170405 378.7300415 314.47607422 C379.45601028 315.19640335 380.18197906 315.91673248 380.9299469 316.65888977 C382.10979408 317.84480965 382.10979408 317.84480965 383.31347656 319.0546875 C384.56791817 320.30387215 384.56791817 320.30387215 385.84770203 321.57829285 C388.13891261 323.86220896 390.42556177 326.15057079 392.70995426 328.44130325 C395.10952552 330.84594984 397.51398665 333.245699 399.91766357 335.64624023 C403.9596209 339.68455817 407.9973434 343.72707439 412.03271484 347.77197266 C416.67771406 352.42781217 421.32981398 357.07646299 425.98575425 361.72135925 C429.99558495 365.72206326 434.00144119 369.72671548 438.00410628 373.73458862 C440.38880976 376.12238811 442.77479073 378.50886903 445.16437531 380.89178467 C447.83745593 383.55974344 450.50396929 386.234105 453.16894531 388.91015625 C454.33664711 390.07178535 454.33664711 390.07178535 455.52793884 391.25688171 C469.91392217 405.75291197 479.17682831 420.53402892 479.4375 441.3125 C479.31313278 458.56465974 473.44987126 473.70653415 461 486 C459.05195718 487.76464966 457.07279382 489.48168208 455.06640625 491.1796875 C452.94680434 493.04686045 451.014217 495.02153948 449.0625 497.0625 C445.04321906 501.08955518 441.00136298 504.27268225 436 507 C435.10925781 507.48855469 434.21851563 507.97710937 433.30078125 508.48046875 C424.94027017 512.22539028 416.93676147 512.49254332 407.875 512.5625 C406.69574951 512.57716309 405.51649902 512.59182617 404.30151367 512.60693359 C381.7762703 512.34587164 368.08665262 499.195782 352.9543457 484.1472168 C352.11247208 483.31352066 351.27059845 482.47982452 350.4032135 481.62086487 C347.65776814 478.89995423 344.91623464 476.17515674 342.17578125 473.44921875 C341.22540247 472.50421177 340.27502085 471.55920765 339.32463646 470.61420631 C335.37688283 466.68798388 331.43052382 462.76036856 327.48785114 458.82904339 C321.85984844 453.21735914 316.22343616 447.61442525 310.57535487 442.02294797 C306.58686388 438.0730704 302.6079224 434.11373504 298.6360423 430.14715511 C296.26862838 427.78339633 293.89720282 425.42401665 291.51546669 423.07468224 C288.87264204 420.46322706 286.24576255 417.83671002 283.62231445 415.20581055 C282.83026611 414.43016754 282.03821777 413.65452454 281.22216797 412.8553772 C280.16048149 411.781213 280.16048149 411.781213 279.0773468 410.68534851 C278.14415603 409.75712296 278.14415603 409.75712296 277.19211292 408.81014538 C276 407 276 407 276.15336895 404.92908955 C277.73496862 401.32533867 281.12965289 398.88698519 284.05078125 396.33007812 C286.86438323 393.70578182 287.98372653 392.0640135 288.94140625 388.296875 C289.30515691 384.98019284 289.30515691 384.98019284 287.4375 382.5625 C284.14842861 380.4541209 282.85559681 380.18439298 279 381 C275.99840851 382.9853576 273.54485256 385.46774572 271 388 C270.49500977 388.49806152 269.99001953 388.99612305 269.46972656 389.50927734 C265.95253467 392.97961499 262.46771952 396.48026469 259 400 C255.98352002 398.64451035 253.85623312 397.11944709 251.50073242 394.80712891 C250.50531685 393.83569443 250.50531685 393.83569443 249.48979187 392.84463501 C248.43330193 391.79618912 248.43330193 391.79618912 247.35546875 390.7265625 C246.62628738 390.00640961 245.89710602 389.28625671 245.14582825 388.54428101 C243.60922815 387.02217102 242.07540964 385.49724854 240.54418945 383.96972656 C238.19090932 381.62839201 235.81962612 379.30635386 233.44726562 376.984375 C231.95718806 375.50375586 230.46821677 374.02202238 228.98046875 372.5390625 C228.26602097 371.84414703 227.55157318 371.14923157 226.81547546 370.43325806 C226.16762589 369.77933075 225.51977631 369.12540344 224.85229492 368.45166016 C223.98769905 367.59467026 223.98769905 367.59467026 223.1056366 366.72036743 C222 365 222 365 222.12530518 363.00198364 C223.15021149 360.65619902 224.32271281 359.31594931 226.14282227 357.51660156 C226.80343155 356.85621887 227.46404083 356.19583618 228.14466858 355.51544189 C228.86134201 354.81425232 229.57801544 354.11306274 230.31640625 353.390625 C231.41298805 352.30041046 231.41298805 352.30041046 232.53172302 351.18817139 C234.86837157 348.86831599 237.21523484 346.559108 239.5625 344.25 C241.14847036 342.67907557 242.73376543 341.10746906 244.31835938 339.53515625 C248.20443822 335.68215516 252.09895543 331.83784481 256 328 C255.05893615 326.8921646 254.11643273 325.78555197 253.17333984 324.67944336 C252.64864105 324.06306503 252.12394226 323.44668671 251.58334351 322.81163025 C249.37254722 320.28208097 247.01599944 317.92118864 244.625 315.5625 C243.75101562 314.69753906 242.87703125 313.83257812 241.9765625 312.94140625 C241.32429688 312.30074219 240.67203125 311.66007812 240 311 C234.29806971 315.77531469 228.92085576 320.82241257 223.57641602 325.99267578 C222.6585582 326.87826172 221.74070038 327.76384766 220.79502869 328.67626953 C212.37092394 336.81328274 204.00535144 345.01029162 195.65684605 353.22477913 C190.05750077 358.73208668 184.44074258 364.21894357 178.77661133 369.65966797 C173.81446005 374.42614659 168.88930876 379.22749325 164.00440544 384.07315433 C161.42541789 386.62910105 158.83250823 389.16531046 156.19445992 391.66037369 C143.03574256 403.31341301 143.03574256 403.31341301 137.68410397 419.25955009 C137.82803526 422.49209025 138.2345405 425.62351103 138.76217461 428.81364059 C140.67405112 446.38976704 129.14163137 465.49847548 118.84375 478.78125 C104.8658887 495.1900437 84.32966064 505.54065335 63 508 C37.84626228 509.5831457 15.96939532 503.3538743 -3.25 486.5625 C-4.85020652 485.05943062 -6.43439093 483.53907333 -8 482 C-9.04800781 480.97132813 -9.04800781 480.97132813 -10.1171875 479.921875 C-26.67644005 462.52499489 -31.8016579 439.73184564 -31.3671875 416.41015625 C-30.42784092 393.94911385 -19.73255781 373.98190353 -3.5703125 358.703125 C8.97894377 348.08768855 27.79249712 337.49178009 44.67462158 338.09567451 C45.56832458 338.1798406 46.46202759 338.26400669 47.3828125 338.35072327 C56.66241519 339.10840439 64.28029748 338.81939772 71.94921875 333.07540894 C77.81277229 328.05301099 83.14190243 322.52949796 88.42443466 316.90762591 C91.09255845 314.09392256 93.82775568 311.34687735 96.5559082 308.59156799 C101.69210241 303.38439597 106.76693174 298.1215721 111.82133389 292.83510405 C117.58654563 286.81117266 123.41865632 280.85384049 129.25677109 274.90067184 C141.24610717 262.67209088 153.15055019 250.36414932 165 238 C163.42364759 234.24104803 161.07795479 231.76813589 158.26057434 228.85183716 C157.77437754 228.34629236 157.28818074 227.84074756 156.7872507 227.31988323 C155.15707546 225.62789981 153.51974973 223.94302923 151.88208008 222.25830078 C150.71017689 221.04602517 149.5385269 219.83350475 148.36711121 218.62075806 C137.6209969 207.51222811 126.79000617 196.48568979 115.93913746 185.47957039 C107.9380117 177.36149693 99.9797066 169.20586353 92.0733574 160.99543774 C86.4917767 155.20668692 80.8615914 149.46796383 75.19548911 143.76193607 C71.82391957 140.36378278 68.47635438 136.94846726 65.18079567 133.47641373 C51.0107435 118.57900346 39.65536548 107.11224062 18.30424976 105.81343269 C9.21950005 105.16688229 9.21950005 105.16688229 5.14191628 101.26523399 C2.71574373 98.22781292 0.68937499 94.99387602 -1.25 91.625 C-1.66682195 90.90347622 -2.08364389 90.18195244 -2.51309681 89.4385643 C-3.43666222 87.70203679 -4.25336049 85.90989331 -5.0625 84.1171875 C-8.85205369 76.0378661 -13.34500989 68.47446984 -17.97644043 60.85467529 C-20.36454296 56.9081144 -22.69938591 52.92975652 -25.03692627 48.95309448 C-26.97136716 45.67754197 -28.99228172 42.4877484 -31.109375 39.328125 C-33 36 -33 36 -32.80885315 34.00396729 C-31.85926759 31.65132961 -30.75164674 30.38986266 -28.94897461 28.60839844 C-28.30838608 27.9680365 -27.66779755 27.32767456 -27.00779724 26.66790771 C-26.31299759 25.98859192 -25.61819794 25.30927612 -24.90234375 24.609375 C-24.19348526 23.90476135 -23.48462677 23.20014771 -22.75428772 22.47418213 C-20.4889672 20.22565215 -18.21343792 17.98777762 -15.9375 15.75 C-14.39970665 14.22725292 -12.86258869 12.70382346 -11.32617188 11.1796875 C-7.55858198 7.4451719 -3.78255735 3.7193515 0 0 Z M32.57885742 405.95483398 C28.82961815 409.95640919 26.20724709 412.98086883 25.63574219 418.54882812 C26.4188394 426.64583874 28.67961455 435.05047825 33 442 C36.16454599 444.30415534 36.16454599 444.30415534 40 445 C41.48343935 445.46870994 42.96513844 445.94295322 44.4453125 446.421875 C46.00373086 446.86975658 47.56366044 447.31241064 49.125 447.75 C49.91003906 447.98332031 50.69507812 448.21664062 51.50390625 448.45703125 C52.26832031 448.67230469 53.03273438 448.88757813 53.8203125 449.109375 C54.50367676 449.30499023 55.18704102 449.50060547 55.89111328 449.70214844 C59.66721482 450.23547141 62.1492584 449.61757263 65.23583984 447.37695312 C67.64243762 445.11030452 70.02071758 442.82101941 72.375 440.5 C73.21933594 439.72140625 74.06367187 438.9428125 74.93359375 438.140625 C79.25739774 434.07290543 79.25739774 434.07290543 81.40136719 428.73022461 C81.18236628 426.35572549 80.68779654 424.2819878 80 422 C79.81228027 421.22092285 79.62456055 420.4418457 79.43115234 419.63916016 C78.8452814 417.26012478 78.18545972 414.91460606 77.5 412.5625 C77.27441406 411.76134766 77.04882812 410.96019531 76.81640625 410.13476562 C75.66215779 405.973171 75.66215779 405.973171 74 402 C71.42545383 401.0557647 71.42545383 401.0557647 68.28515625 400.2734375 C67.12435547 399.9640625 65.96355469 399.6546875 64.76757812 399.3359375 C63.54490234 399.01882813 62.32222656 398.70171875 61.0625 398.375 C59.84369141 398.05015625 58.62488281 397.7253125 57.36914062 397.390625 C44.9785611 394.11945703 41.98392386 397.26143284 32.57885742 405.95483398 Z " fill="#000001" transform="translate(33,0)"/>
<path d="M0 0 C3 1 3 1 4.54296875 3.80859375 C5.08566406 5.00613281 5.62835938 6.20367187 6.1875 7.4375 C9.33289729 14.06569306 13.06735536 19.53099011 18 25 C18.59167969 25.68449219 19.18335938 26.36898437 19.79296875 27.07421875 C27.78056007 35.74305453 38.69173308 41.51419869 49 47 C44.28044517 52.6711018 39.23599967 57.90746007 34.01580811 63.11790466 C33.12187827 64.01410005 32.22794844 64.91029544 31.30692983 65.83364826 C28.84104265 68.30561915 26.37207452 70.77449207 23.9025526 73.24283111 C21.23414822 75.91103064 18.5686126 78.58209359 15.90267944 81.25276184 C10.68727589 86.47645133 5.46911613 91.69737897 0.24984738 96.91720628 C-3.98983571 101.15736507 -8.22872702 105.39831378 -12.4670639 109.63981819 C-24.48277826 121.6643299 -36.5005776 133.68675216 -48.52106681 145.70649063 C-49.16831398 146.35369784 -49.81556115 147.00090506 -50.48242188 147.66772461 C-51.13045827 148.31572012 -51.77849466 148.96371563 -52.44616851 149.63134737 C-62.96955897 160.15433058 -73.48794107 170.68230433 -84.00408641 181.21252751 C-94.80117616 192.02395736 -105.60196584 202.83167858 -116.4066608 213.63550812 C-122.47321375 219.70172851 -128.53820421 225.76949265 -134.59922028 231.84124565 C-139.75405971 237.0051585 -144.91230591 242.16563734 -150.07509091 247.32160687 C-152.71076859 249.95400459 -155.34477457 252.58802161 -157.97449875 255.22636795 C-160.81887975 258.07997949 -163.67086559 260.92586325 -166.52374268 263.77098083 C-167.362051 264.61443273 -168.20035933 265.45788462 -169.06407094 266.32689565 C-169.82373308 267.081959 -170.58339522 267.83702234 -171.36607742 268.61496639 C-172.0242978 269.27340414 -172.68251818 269.93184189 -173.36068463 270.61023229 C-175 272 -175 272 -177 272 C-177.4846875 271.03320312 -177.969375 270.06640625 -178.46875 269.0703125 C-182.59064335 261.00108544 -186.88847889 253.76466077 -193 247 C-194.01320312 245.84757812 -194.01320312 245.84757812 -195.046875 244.671875 C-200.89553912 238.39630109 -207.56895035 234.20452994 -215 230 C-215.93457031 229.46890625 -216.86914062 228.9378125 -217.83203125 228.390625 C-219.87929647 227.24286686 -221.9355141 226.11626099 -224 225 C-219.27887731 219.3250567 -214.2295815 214.09099885 -209.00234985 208.88209534 C-208.10700889 207.98589995 -207.21166793 207.08970456 -206.28919542 206.16635174 C-203.81944593 203.69437842 -201.34660993 201.22551349 -198.87323451 198.75716889 C-196.2007406 196.08900978 -193.5311541 193.41794441 -190.86120605 190.74723816 C-186.24007335 186.12558214 -181.61711917 181.50575468 -176.99290848 176.88717842 C-170.30715015 170.20956113 -163.62416812 163.52917096 -156.94185166 156.8481096 C-146.09909564 146.00754 -135.25411022 135.16920358 -124.40771484 124.33227539 C-113.87398847 113.80773372 -103.34131714 103.28213805 -92.81005859 92.75512695 C-92.1604699 92.10580098 -91.5108812 91.45647501 -90.841608 90.78747249 C-87.58268706 87.52985663 -84.3237868 84.27222006 -81.06489682 81.01457322 C-54.04647056 54.00650683 -27.02442274 27.0020662 0 0 Z " fill="#99C7FD" transform="translate(342,119)"/>
<path d="M0 0 C3.31115963 1.57599923 5.66702538 3.31174306 8.3125 5.875 C9.03050781 6.55304688 9.74851562 7.23109375 10.48828125 7.9296875 C12 10 12 10 11.94140625 12.0234375 C10.8180179 14.38208689 9.45199301 15.88446284 7.625 17.75 C1.79535594 24.26196379 0.32940126 30.24524154 0.59375 38.96875 C1.52542005 45.92044191 4.48885338 51.17876004 10 55.5 C16.44444067 59.96953143 22.29498276 60.73064819 30 60 C33.62328815 59.01305957 36.57449889 57.28696586 39.6875 55.1875 C40.8321875 54.5996875 40.8321875 54.5996875 42 54 C45.02113254 55.14533846 47.05650523 56.80429519 49.32589722 59.06520081 C49.96220062 59.6944194 50.59850403 60.323638 51.25408936 60.97192383 C52.28436249 62.00591309 52.28436249 62.00591309 53.33544922 63.06079102 C54.06766693 63.7878978 54.79988464 64.51500458 55.55429077 65.2641449 C57.97629388 67.6722361 60.39078242 70.08769934 62.8046875 72.50390625 C64.48831541 74.1836466 66.17216668 75.86316309 67.85623169 77.54246521 C71.38853507 81.06730181 74.916931 84.59599585 78.44287109 88.12719727 C82.9489912 92.63909627 87.46633516 97.13956498 91.98695183 101.63693333 C95.47016813 105.10536986 98.94638157 108.58076011 102.42065811 112.05814934 C104.08239149 113.7193711 105.74647424 115.37824635 107.41299057 117.03466988 C109.75119274 119.3604506 112.07954447 121.6956873 114.40576172 124.03344727 C115.08856201 124.70860382 115.7713623 125.38376038 116.47485352 126.07937622 C124.80356033 134.49908823 132.19068723 144.86030846 133 157 C133.09796875 157.91136719 133.1959375 158.82273437 133.296875 159.76171875 C134.03449816 171.29417321 130.128972 181.21555063 122.8046875 190.03515625 C119.39094003 193.88934109 115.76182078 197.48755835 112 201 C111.48824219 201.48146484 110.97648438 201.96292969 110.44921875 202.45898438 C104.51617263 207.93625741 98.74372776 211.68957631 91 214 C90.29617188 214.23460937 89.59234375 214.46921875 88.8671875 214.7109375 C79.99782694 217.23101412 69.40177677 216.62528599 61.21963406 212.2634449 C53.80438138 208.04258554 47.7040029 203.13585704 41.72631836 197.06689453 C40.95447205 196.2954863 40.18262573 195.52407806 39.38739014 194.72929382 C36.86435513 192.20418619 34.35208439 189.66865574 31.83984375 187.1328125 C30.08216511 185.3695325 28.32381838 183.60691823 26.56483459 181.84494019 C21.95674751 177.22544696 17.35774465 172.59701314 12.76062012 167.96661377 C8.06091871 163.23447835 3.35096868 158.51254942 -1.35742188 153.7890625 C-10.58001439 144.5343805 -19.79332144 135.27051217 -29 126 C-28.57489639 125.18042816 -28.14979279 124.36085632 -27.71180725 123.51644897 C-27.16117111 122.43900421 -26.61053497 121.36155945 -26.04321289 120.25146484 C-25.49435928 119.18439301 -24.94550568 118.11732117 -24.38002014 117.01791382 C-22.6269904 113.18427941 -22.27657808 110.80896988 -22.4375 106.625 C-22.45683594 105.50351562 -22.47617187 104.38203125 -22.49609375 103.2265625 C-23.42654266 97.26880434 -26.54280886 92.05718681 -31 88 C-37.26122377 84.07114445 -43.55815232 82.11620053 -51 83 C-58.93564634 85.00627452 -64.27751438 89.30515924 -70 95 C-73.68069887 93.46356148 -75.98775204 91.21849055 -78.75 88.375 C-79.54921875 87.55773437 -80.3484375 86.74046875 -81.171875 85.8984375 C-81.77515625 85.27195312 -82.3784375 84.64546875 -83 84 C-78.64304101 78.78936078 -74.0641384 73.92583419 -69.25048828 69.13696289 C-68.49858719 68.38491577 -67.7466861 67.63286865 -66.97200012 66.85803223 C-64.507136 64.39386004 -62.03875789 61.93324049 -59.5703125 59.47265625 C-57.85231025 57.75652073 -56.13452988 56.04016306 -54.41696167 54.32359314 C-49.91143139 49.82186792 -45.40290529 45.32315483 -40.89373779 40.82507324 C-36.28671199 36.22830491 -31.68254087 31.62867923 -27.078125 27.02929688 C-18.05486698 18.01674068 -9.02853652 9.00726818 0 0 Z " fill="#006CEE" transform="translate(362,280)"/>
<path d="M0 0 C12.89515776 10.75543261 23.10575698 24.24663468 25.66015625 41.21875 C27.10101933 59.25209893 25.64808218 78.36850428 14.16015625 93.21875 C13.00694725 94.56373992 11.84103883 95.89799067 10.66015625 97.21875 C10.16644531 97.84136719 9.67273438 98.46398437 9.1640625 99.10546875 C0.37108982 110.0907273 -14.37238094 118.38847468 -28.15234375 120.8671875 C-48.42696142 123.10335857 -67.22149656 119.97856184 -83.71484375 107.34375 C-91.5434133 100.6702153 -97.4963346 93.28406415 -102.33984375 84.21875 C-102.72011719 83.52394531 -103.10039063 82.82914062 -103.4921875 82.11328125 C-110.89077411 67.23235044 -111.53042495 48.81159353 -106.33984375 33.21875 C-106.02273437 32.25582031 -105.705625 31.29289062 -105.37890625 30.30078125 C-98.85694315 12.793242 -86.15102217 -0.09992248 -69.47412109 -8.21826172 C-46.70810459 -18.54094235 -19.72876028 -15.21527411 0 0 Z M-62.76098633 37.17358398 C-66.5102256 41.17515919 -69.13259666 44.19961883 -69.70410156 49.76757812 C-68.92100435 57.86458874 -66.6602292 66.26922825 -62.33984375 73.21875 C-59.17529776 75.52290534 -59.17529776 75.52290534 -55.33984375 76.21875 C-53.8564044 76.68745994 -52.37470531 77.16170322 -50.89453125 77.640625 C-49.33611289 78.08850658 -47.77618331 78.53116064 -46.21484375 78.96875 C-45.42980469 79.20207031 -44.64476563 79.43539062 -43.8359375 79.67578125 C-43.07152344 79.89105469 -42.30710937 80.10632813 -41.51953125 80.328125 C-40.83616699 80.52374023 -40.15280273 80.71935547 -39.44873047 80.92089844 C-35.67262893 81.45422141 -33.19058535 80.83632263 -30.10400391 78.59570312 C-27.69740613 76.32905452 -25.31912617 74.03976941 -22.96484375 71.71875 C-22.12050781 70.94015625 -21.27617188 70.1615625 -20.40625 69.359375 C-16.08244601 65.29165543 -16.08244601 65.29165543 -13.93847656 59.94897461 C-14.15747747 57.57447549 -14.65204721 55.5007378 -15.33984375 53.21875 C-15.52756348 52.43967285 -15.7152832 51.6605957 -15.90869141 50.85791016 C-16.49456235 48.47887478 -17.15438403 46.13335606 -17.83984375 43.78125 C-18.06542969 42.98009766 -18.29101562 42.17894531 -18.5234375 41.35351562 C-19.67768596 37.191921 -19.67768596 37.191921 -21.33984375 33.21875 C-23.91438992 32.2745147 -23.91438992 32.2745147 -27.0546875 31.4921875 C-28.21548828 31.1828125 -29.37628906 30.8734375 -30.57226562 30.5546875 C-31.79494141 30.23757813 -33.01761719 29.92046875 -34.27734375 29.59375 C-35.49615234 29.26890625 -36.71496094 28.9440625 -37.97070312 28.609375 C-50.36128265 25.33820703 -53.35591989 28.48018284 -62.76098633 37.17358398 Z " fill="#005CCB" transform="translate(128.33984375,368.78125)"/>
<path d="M0 0 C-4.56395597 5.54415272 -9.5052054 10.42455605 -14.75 15.3203125 C-17.29455016 17.74972847 -19.83258349 20.18583683 -22.37060547 22.62207031 C-24.12573134 24.29278066 -25.89310837 25.9507132 -27.67236328 27.59570312 C-37.8640591 36.2177372 -37.8640591 36.2177372 -43.76806641 47.61572266 C-43.26333303 51.03360624 -42.29956692 53.80518879 -41 57 C-40.52925833 59.20256175 -40.09967064 61.41430793 -39.7109375 63.6328125 C-39.26863515 65.79749224 -38.82332731 67.96156007 -38.375 70.125 C-37.92181323 72.31455407 -37.47116701 74.50463599 -37.0234375 76.6953125 C-36.82669434 77.64422363 -36.62995117 78.59313477 -36.42724609 79.57080078 C-36 82 -36 82 -36 85 C-35.34225586 85.0424585 -34.68451172 85.08491699 -34.00683594 85.12866211 C-25.86789226 85.74861511 -18.18147101 87.39553522 -10.25390625 89.27148438 C-9.28839844 89.49255859 -8.32289063 89.71363281 -7.328125 89.94140625 C-6.4712207 90.14451416 -5.61431641 90.34762207 -4.73144531 90.55688477 C-3.83006836 90.70311279 -2.92869141 90.84934082 -2 91 C-0.41481567 91.3237561 -0.41481567 91.3237561 1.20239258 91.65405273 C7.46637082 90.57522292 10.79983539 86.05512749 15.08984375 81.59375 C16.04236972 80.62815779 16.99646088 79.6641073 17.95204163 78.70153809 C20.45513114 76.17180359 22.9364831 73.62176024 25.41381836 71.0668335 C27.94857682 68.4602887 30.50342955 65.87360583 33.05664062 63.28515625 C38.05755373 58.20931528 43.03576183 53.1117362 48 48 C53.63330078 56.44995117 51.67379543 71.38042145 49.80859375 80.9765625 C45.49623551 97.10103245 35.62530794 113.36338608 21.09326172 122.15332031 C4.15509093 131.60812839 -13.61102889 136.02882145 -33.0546875 131.87890625 C-44.02536627 128.60516259 -53.57969416 123.84518863 -62 116 C-62.76699219 115.33484375 -63.53398437 114.6696875 -64.32421875 113.984375 C-76.01076681 103.2700525 -83.61066558 87.29793954 -84.37109375 71.4453125 C-84.7979821 50.8582774 -80.21556878 33.34345851 -66 18 C-49.43116326 1.40555455 -22.82779537 -7.73249209 0 0 Z " fill="#3791FC" transform="translate(439,22)"/>
<path d="M0 0 C3.31115963 1.57599923 5.66702538 3.31174306 8.3125 5.875 C9.03050781 6.55304688 9.74851562 7.23109375 10.48828125 7.9296875 C12 10 12 10 11.94140625 12.0234375 C10.8180179 14.38208689 9.45199301 15.88446284 7.625 17.75 C1.79535594 24.26196379 0.32940126 30.24524154 0.59375 38.96875 C1.52542005 45.92044191 4.48885338 51.17876004 10 55.5 C16.44444067 59.96953143 22.29498276 60.73064819 30 60 C33.62328815 59.01305957 36.57449889 57.28696586 39.6875 55.1875 C40.8321875 54.5996875 40.8321875 54.5996875 42 54 C45.02113254 55.14533846 47.05650523 56.80429519 49.32589722 59.06520081 C49.96220062 59.6944194 50.59850403 60.323638 51.25408936 60.97192383 C51.94093811 61.66125 52.62778687 62.35057617 53.33544922 63.06079102 C54.06766693 63.7878978 54.79988464 64.51500458 55.55429077 65.2641449 C57.97629388 67.6722361 60.39078242 70.08769934 62.8046875 72.50390625 C64.48831541 74.1836466 66.17216668 75.86316309 67.85623169 77.54246521 C71.38853507 81.06730181 74.916931 84.59599585 78.44287109 88.12719727 C82.9489912 92.63909627 87.46633516 97.13956498 91.98695183 101.63693333 C95.47016813 105.10536986 98.94638157 108.58076011 102.42065811 112.05814934 C104.08239149 113.7193711 105.74647424 115.37824635 107.41299057 117.03466988 C109.75119274 119.3604506 112.07954447 121.6956873 114.40576172 124.03344727 C115.08856201 124.70860382 115.7713623 125.38376038 116.47485352 126.07937622 C124.80356033 134.49908823 132.19068723 144.86030846 133 157 C133.09796875 157.91136719 133.1959375 158.82273437 133.296875 159.76171875 C134.05196199 171.56721346 129.67641404 182.20374423 121.93115234 191.03076172 C120.01586541 193.08680823 118.03727718 195.06520155 116 197 C112.84795019 195.60652624 110.73828227 193.97514921 108.328125 191.5234375 C107.66425781 190.853125 107.00039063 190.1828125 106.31640625 189.4921875 C105.29353516 188.44417969 105.29353516 188.44417969 104.25 187.375 C103.55261719 186.66859375 102.85523438 185.9621875 102.13671875 185.234375 C100.41987512 183.49401297 98.70788168 181.74915019 97 180 C97.680625 179.2575 98.36125 178.515 99.0625 177.75 C101.22443001 175.29836618 101.22443001 175.29836618 100.86113834 173.09071732 C99.74565479 170.38248722 98.23550809 168.86678967 96.1592865 166.79852295 C95.33332474 165.96843719 94.50736298 165.13835144 93.65637207 164.28311157 C92.28720642 162.93012466 92.28720642 162.93012466 90.89038086 161.54980469 C89.92408406 160.58435418 88.95844753 159.61824245 87.99342346 158.65151978 C85.37214272 156.02937772 82.74171016 153.41659303 80.10955501 150.80537319 C77.36020887 148.07477113 74.61934677 145.33568041 71.87757874 142.59747314 C66.68453648 137.41375801 61.48389371 132.23773811 56.28048664 127.06442952 C50.35689374 121.17435981 44.44180938 115.27577705 38.52742946 109.37645864 C26.36107197 97.24146529 14.1840559 85.11722275 2 73 C1.38640625 73.30679688 0.7728125 73.61359375 0.140625 73.9296875 C-1.90625 74.953125 -3.953125 75.9765625 -6 77 C-7.7021698 75.4324482 -9.38640554 73.84540216 -11.0625 72.25 C-12.00222656 71.36828125 -12.94195312 70.4865625 -13.91015625 69.578125 C-16 67 -16 67 -15.99609375 64.921875 C-15 63 -15 63 -12 59 C-15.3 55.7 -18.6 52.4 -22 49 C-23.32 49.66 -24.64 50.32 -26 51 C-27.32 51.66 -28.64 52.32 -30 53 C-33.63 49.37 -37.26 45.74 -41 42 C-36.5021065 36.60809603 -31.73873458 31.60608316 -26.7578125 26.66015625 C-25.98944061 25.89319931 -25.22106873 25.12624237 -24.42941284 24.33604431 C-21.99696491 21.9091526 -19.56104678 19.48577873 -17.125 17.0625 C-15.46591448 15.40843514 -13.80705798 13.75414055 -12.1484375 12.09960938 C-8.10160291 8.06374567 -4.05192047 4.03075723 0 0 Z " fill="#2386FC" transform="translate(362,280)"/>
<path d="M0 0 C2.46486038 1.05824076 4.11960885 2.53447787 6.1328125 4.30834961 C12.79210812 9.8277658 20.29059784 13.73907326 27.8828125 17.80834961 C23.16325767 23.4794514 18.11881217 28.71580968 12.89862061 33.92625427 C11.55772586 35.27054736 11.55772586 35.27054736 10.18974233 36.64199787 C7.72385515 39.11396876 5.25488702 41.58284168 2.7853651 44.05118072 C0.11696072 46.71938025 -2.5485749 49.3904432 -5.21450806 52.06111145 C-10.42991161 57.28480094 -15.64807137 62.50572858 -20.86734012 67.72555589 C-25.10702321 71.96571468 -29.34591452 76.20666339 -33.5842514 80.4481678 C-45.59996576 92.47267951 -57.6177651 104.49510177 -69.63825431 116.51484024 C-70.28550148 117.16204745 -70.93274865 117.80925467 -71.59960938 118.47607422 C-72.57166396 119.44806748 -72.57166396 119.44806748 -73.56335601 120.43969698 C-84.08674647 130.96268019 -94.60512857 141.49065394 -105.12127391 152.02087712 C-115.91836366 162.83230697 -126.71915334 173.64002819 -137.5238483 184.44385773 C-143.59040125 190.51007812 -149.65539171 196.57784226 -155.71640778 202.64959526 C-160.87124721 207.81350811 -166.02949341 212.97398695 -171.19227841 218.12995648 C-173.82795609 220.7623542 -176.46196207 223.39637122 -179.09168625 226.03471756 C-181.93606725 228.8883291 -184.78805309 231.73421286 -187.64093018 234.57933044 C-188.4792385 235.42278233 -189.31754683 236.26623423 -190.18125844 237.13524526 C-191.32075165 238.26784028 -191.32075165 238.26784028 -192.48326492 239.423316 C-193.1414853 240.08175375 -193.79970568 240.7401915 -194.47787213 241.4185819 C-196.1171875 242.80834961 -196.1171875 242.80834961 -198.1171875 242.80834961 C-198.601875 241.84155273 -199.0865625 240.87475586 -199.5859375 239.87866211 C-203.30044991 232.61507983 -207.07422636 226.06307969 -212.453125 219.85913086 C-214.1171875 217.80834961 -214.1171875 217.80834961 -216.1171875 213.80834961 C-210.5071875 208.19834961 -204.8971875 202.58834961 -199.1171875 196.80834961 C-196.6421875 198.78834961 -196.6421875 198.78834961 -194.1171875 200.80834961 C-189.53829565 200.60671508 -186.90478172 197.00251399 -183.86566162 193.91758728 C-183.24154396 193.2960329 -182.6174263 192.67447851 -181.97439599 192.03408915 C-179.87905036 189.94369594 -177.79462626 187.84273966 -175.70996094 185.74169922 C-174.2124973 184.24338963 -172.71437327 182.7457398 -171.21563721 181.248703 C-167.14314265 177.17707106 -163.07997984 173.09623927 -159.0183897 169.01373363 C-154.77430521 164.7509267 -150.52175374 160.49658392 -146.27008057 156.24134827 C-138.21768339 148.1796176 -130.17296566 140.11026836 -122.13095689 132.03817612 C-112.97612439 122.84984025 -103.81279699 113.66999641 -94.64873457 104.4908675 C-75.79539614 85.60615049 -56.95278841 66.71075686 -38.1171875 47.80834961 C-38.42398438 47.19475586 -38.73078125 46.58116211 -39.046875 45.94897461 C-40.0703125 43.90209961 -41.09375 41.85522461 -42.1171875 39.80834961 C-40.5496357 38.10617981 -38.96258966 36.42194407 -37.3671875 34.74584961 C-36.04460937 33.33625977 -36.04460937 33.33625977 -34.6953125 31.89819336 C-32.1171875 29.80834961 -32.1171875 29.80834961 -30.0390625 29.81225586 C-28.1171875 30.80834961 -28.1171875 30.80834961 -24.1171875 33.80834961 C-20.8171875 30.50834961 -17.5171875 27.20834961 -14.1171875 23.80834961 C-15.1071875 21.82834961 -15.1071875 21.82834961 -16.1171875 19.80834961 C-16.78385417 18.47501628 -17.45052083 17.14168294 -18.1171875 15.80834961 C-15.554269 13.1007215 -12.96383546 10.42111581 -10.3671875 7.74584961 C-9.63757813 6.9743457 -8.90796875 6.2028418 -8.15625 5.40795898 C-7.44726562 4.68286133 -6.73828125 3.95776367 -6.0078125 3.21069336 C-5.35844727 2.53514404 -4.70908203 1.85959473 -4.04003906 1.16357422 C-2.1171875 -0.19165039 -2.1171875 -0.19165039 0 0 Z " fill="#C0DDF4" transform="translate(363.1171875,148.191650390625)"/>
<path d="M0 0 C3.99420568 1.47388175 7.53171561 3.37052292 11.19921875 5.52734375 C11.78765564 5.87122635 12.37609253 6.21510895 12.98236084 6.56941223 C16.20874055 8.45915422 19.41856999 10.37492634 22.61938477 12.30761719 C23.92808064 13.09517847 25.23724208 13.88196666 26.546875 14.66796875 C27.19091782 15.05465729 27.83496063 15.44134583 28.4985199 15.8397522 C32.84740619 18.41413387 37.22995148 20.59665129 41.95410156 22.41918945 C45.87139684 24.51840068 49.20931291 26.46337754 52 30 C52.80370705 33.10008818 53.04114179 36.06666365 53.3050518 39.2572298 C55.37206991 61.54288011 69.60263303 73.64644864 85.06107473 88.39313531 C88.7584291 91.94476139 92.38893673 95.56355699 96.02761841 99.1750946 C102.89881888 105.97536542 109.82636343 112.71496189 116.7772342 119.43367213 C124.69983967 127.09742229 132.55569331 134.828153 140.40719008 142.56463301 C156.53264694 158.45095102 172.7383375 174.2532168 189 190 C187.30413874 193.63303084 185.26199512 195.94549046 182.375 198.75 C181.14910156 199.94882812 181.14910156 199.94882812 179.8984375 201.171875 C179.27195313 201.77515625 178.64546875 202.3784375 178 203 C171.84547477 197.99466675 166.38296128 192.39198902 160.88392448 186.69359016 C157.89317208 183.59484866 154.89193047 180.50627791 151.89254761 177.41589355 C151.25516623 176.75861015 150.61778486 176.10132675 149.9610889 175.42412567 C141.74717634 166.95803002 133.47717684 158.54686895 125.20750403 150.13528728 C117.17486813 141.96470262 109.16155684 133.77741669 101.20898438 125.52880859 C94.87427201 118.95848474 88.4985154 112.43121281 82.0729934 105.94962835 C78.68449734 102.52862261 75.31858584 99.0910825 72.00170517 95.60047913 C56.74133917 79.56960472 45.53916083 69.05770494 22.84085083 66.96057129 C18.6065956 66.52026667 16.32526407 66.05452198 13.44822693 62.84207153 C11.84666066 60.35688615 10.49293603 58.20892248 9.46484375 55.4609375 C7.44737749 50.70154695 4.93581588 46.38188413 2.25390625 41.9765625 C1.82086182 41.26428497 1.38781738 40.55200745 0.94165039 39.81814575 C0.05310477 38.35943368 -0.83628567 36.90123589 -1.72650146 35.44354248 C-3.87335864 31.91867153 -5.99285588 28.37823908 -8.09765625 24.828125 C-8.47627304 24.19951569 -8.85488983 23.57090637 -9.24497986 22.92324829 C-12.86790646 16.7976342 -12.86790646 16.7976342 -13 14 C-11.92016602 12.26074219 -11.92016602 12.26074219 -10.25390625 10.546875 C-9.66416016 9.928125 -9.07441406 9.309375 -8.46679688 8.671875 C-7.83837891 8.03765625 -7.20996094 7.4034375 -6.5625 6.75 C-5.62567383 5.77546875 -5.62567383 5.77546875 -4.66992188 4.78125 C-3.12407259 3.17639883 -1.56751209 1.58365243 0 0 Z " fill="#CFD1D2" transform="translate(35,22)"/>
<path d="M0 0 C-4.56395597 5.54415272 -9.5052054 10.42455605 -14.75 15.3203125 C-17.29455016 17.74972847 -19.83258349 20.18583683 -22.37060547 22.62207031 C-24.12573134 24.29278066 -25.89310837 25.9507132 -27.67236328 27.59570312 C-37.86404222 36.21905604 -37.86404222 36.21905604 -43.77026367 47.61791992 C-43.26718032 51.03862937 -42.30607164 53.8051085 -41 57 C-40.51869549 59.19083285 -40.07734963 61.39081565 -39.67578125 63.59765625 C-38.99129295 66.86623582 -38.29739114 70.13239383 -37.59179688 73.39648438 C-37.37201172 74.45287109 -37.15222656 75.50925781 -36.92578125 76.59765625 C-36.72380127 77.54133057 -36.52182129 78.48500488 -36.3137207 79.45727539 C-35.98777786 82.0990612 -36.15936132 83.50332007 -37 86 C-38.94862692 88.20466295 -40.90121637 90.24979844 -43.00390625 92.296875 C-43.60178452 92.89050842 -44.19966278 93.48414185 -44.81565857 94.09576416 C-46.72434102 95.98767195 -48.6431954 97.86887499 -50.5625 99.75 C-51.85940836 101.03186002 -53.15564078 102.3144043 -54.45117188 103.59765625 C-57.62632957 106.73976072 -60.81064946 109.87230539 -64 113 C-65.12318653 112.06856378 -66.24196207 111.13180705 -67.35888672 110.19287109 C-67.98238007 109.67179779 -68.60587341 109.15072449 -69.2482605 108.61386108 C-78.6217053 99.97819478 -83.77569463 83.85758304 -84.37109375 71.4453125 C-84.7979821 50.8582774 -80.21556878 33.34345851 -66 18 C-49.43116326 1.40555455 -22.82779537 -7.73249209 0 0 Z " fill="#2387FD" transform="translate(439,22)"/>
<path d="M0 0 C2.29150391 0.47143555 2.29150391 0.47143555 4.4765625 1.13671875 C5.30309326 1.38204346 6.12962402 1.62736816 6.98120117 1.88012695 C7.85365479 2.14656006 8.7261084 2.41299316 9.625 2.6875 C17.96191102 5.16013103 26.32528272 7.39639605 34.77783203 9.43823242 C40.81116839 10.9055842 40.81116839 10.9055842 43 12 C43.7902832 14.32226563 43.7902832 14.32226563 44.55078125 17.40625 C44.97713867 19.09983643 44.97713867 19.09983643 45.41210938 20.82763672 C45.70923828 22.0395166 46.00636719 23.25139648 46.3125 24.5 C48.53299258 33.37378957 50.78953052 42.19735422 53.6652832 50.88476562 C54.87003179 54.71179163 55.09981513 57.15445647 54 61 C52.76824951 62.88772583 52.76824951 62.88772583 51.19042969 64.67626953 C50.59760193 65.35271515 50.00477417 66.02916077 49.39398193 66.72610474 C46.61766953 69.76229635 43.81799076 72.77324457 40.97900391 75.75097656 C39.5006107 77.32555439 38.04966837 78.92639214 36.62841797 80.55273438 C25.20284351 93.60598188 25.20284351 93.60598188 18.39389038 94.24432373 C12.76622026 93.736252 7.63304773 91.9461923 2.39508057 89.90338135 C-0.91479608 88.65495536 -4.22155367 87.88219918 -7.66796875 87.0859375 C-9.84189635 86.51849255 -12.01510623 85.94828901 -14.1875 85.375 C-15.31607422 85.08882813 -16.44464844 84.80265625 -17.60742188 84.5078125 C-18.67927734 84.22421875 -19.75113281 83.940625 -20.85546875 83.6484375 C-21.80059326 83.40270996 -22.74571777 83.15698242 -23.71948242 82.90380859 C-26 82 -26 82 -28 79 C-28.50115731 77.37986579 -28.93800011 75.7393082 -29.33203125 74.08984375 C-29.57107178 73.10798096 -29.8101123 72.12611816 -30.05639648 71.11450195 C-30.30591064 70.06609131 -30.5554248 69.01768066 -30.8125 67.9375 C-32.87090018 59.43196265 -35.02903191 50.98525523 -37.61450195 42.62280273 C-38.79736 38.60185504 -39.41407734 35.9616723 -38 32 C-35.91303114 29.29718489 -33.52865373 26.92057803 -31.11328125 24.51171875 C-30.4186528 23.80852005 -29.72402435 23.10532135 -29.00834656 22.3808136 C-27.53810132 20.89909518 -26.06260312 19.42257319 -24.58227539 17.95092773 C-22.32048519 15.69546285 -20.0866414 13.41466533 -17.85351562 11.13085938 C-16.42089425 9.69369238 -14.98670031 8.25809092 -13.55078125 6.82421875 C-12.55199699 5.79780525 -12.55199699 5.79780525 -11.53303528 4.75065613 C-7.74885127 1.04048 -5.5718897 -0.9873499 0 0 Z M-13.42114258 29.95483398 C-17.17038185 33.95640919 -19.79275291 36.98086883 -20.36425781 42.54882812 C-19.5811606 50.64583874 -17.32038545 59.05047825 -13 66 C-9.83545401 68.30415534 -9.83545401 68.30415534 -6 69 C-4.51656065 69.46870994 -3.03486156 69.94295322 -1.5546875 70.421875 C0.00373086 70.86975658 1.56366044 71.31241064 3.125 71.75 C3.91003906 71.98332031 4.69507812 72.21664062 5.50390625 72.45703125 C6.26832031 72.67230469 7.03273438 72.88757813 7.8203125 73.109375 C8.50367676 73.30499023 9.18704102 73.50060547 9.89111328 73.70214844 C13.66721482 74.23547141 16.1492584 73.61757263 19.23583984 71.37695312 C21.64243762 69.11030452 24.02071758 66.82101941 26.375 64.5 C27.21933594 63.72140625 28.06367187 62.9428125 28.93359375 62.140625 C33.25739774 58.07290543 33.25739774 58.07290543 35.40136719 52.73022461 C35.18236628 50.35572549 34.68779654 48.2819878 34 46 C33.81228027 45.22092285 33.62456055 44.4418457 33.43115234 43.63916016 C32.8452814 41.26012478 32.18545972 38.91460606 31.5 36.5625 C31.27441406 35.76134766 31.04882812 34.96019531 30.81640625 34.13476562 C29.66215779 29.973171 29.66215779 29.973171 28 26 C25.42545383 25.0557647 25.42545383 25.0557647 22.28515625 24.2734375 C21.12435547 23.9640625 19.96355469 23.6546875 18.76757812 23.3359375 C17.54490234 23.01882813 16.32222656 22.70171875 15.0625 22.375 C13.84369141 22.05015625 12.62488281 21.7253125 11.36914062 21.390625 C-1.0214389 18.11945703 -4.01607614 21.26143284 -13.42114258 29.95483398 Z " fill="#000002" transform="translate(79,376)"/>
<path d="M0 0 C10.46448704 7.63035513 16.95748435 19.97878569 19.62939453 32.53759766 C22.31131027 50.35696663 20.09640563 69.31866355 10.26171875 84.72265625 C8.58147187 86.89468271 6.82987611 88.95337319 5 91 C4.50628906 91.62261719 4.01257813 92.24523437 3.50390625 92.88671875 C-5.28906643 103.8719773 -20.03253719 112.16972468 -33.8125 114.6484375 C-54.38705722 116.91769013 -73.35625111 113.68443574 -89.875 100.5625 C-91.26116312 99.3880499 -92.64089408 98.20565847 -94 97 C-93.47437077 92.83390162 -91.22866032 90.69849495 -88.375 87.75 C-87.53710938 86.85796875 -86.69921875 85.9659375 -85.8359375 85.046875 C-82.15418765 82.38952387 -80.48166817 82.44676503 -76 83 C-72.74201745 83.74557538 -69.56571546 84.69585667 -66.375 85.6875 C-63.76422766 86.49065156 -61.15959467 87.2625848 -58.51904297 87.96313477 C-55.65574388 88.80678894 -53.00286144 89.78277475 -50.23486328 90.87866211 C-40.98006211 94.33764457 -40.98006211 94.33764457 -31.54473877 92.94729614 C-26.41132066 89.56301647 -22.31234708 85.19691186 -18.26171875 80.60766602 C-16.11021415 78.17075272 -13.87941719 75.8360113 -11.6171875 73.50195312 C-10.20041092 71.99978988 -8.78874956 70.49278197 -7.3828125 68.98046875 C-6.72169464 68.27391647 -6.06057678 67.5673642 -5.37942505 66.83940125 C-1.80415134 62.90654533 -1.80415134 62.90654533 -1.02172852 57.83300781 C-1.5059729 56.43066895 -1.5059729 56.43066895 -2 55 C-2.19827393 54.12674072 -2.39654785 53.25348145 -2.60083008 52.35375977 C-2.93183716 51.03589478 -2.93183716 51.03589478 -3.26953125 49.69140625 C-3.6406604 48.20991089 -3.6406604 48.20991089 -4.01928711 46.69848633 C-4.28104736 45.66361084 -4.54280762 44.62873535 -4.8125 43.5625 C-5.07877197 42.49733154 -5.34504395 41.43216309 -5.61938477 40.3347168 C-6.80143251 35.62967531 -7.99911834 30.93370824 -9.3203125 26.265625 C-9.60684692 25.24553345 -9.60684692 25.24553345 -9.89916992 24.20483398 C-10.40058668 22.44225742 -10.91652098 20.68382865 -11.43359375 18.92578125 C-12.05896837 15.69539787 -12.17624044 14.07183454 -11 11 C-9.19042818 8.90812369 -7.44366434 7.06342645 -5.4375 5.1875 C-4.91736328 4.68541016 -4.39722656 4.18332031 -3.86132812 3.66601562 C-2.5831143 2.43470873 -1.29272853 1.2160593 0 0 Z " fill="#006BED" transform="translate(134,375)"/>
<path d="M0 0 C1.1065941 0.93877926 2.21178799 1.87920916 3.31640625 2.8203125 C3.93201416 3.34383301 4.54762207 3.86735352 5.18188477 4.40673828 C7.57236585 6.5015791 9.78679163 8.71972471 12 11 C10.34664119 15.24927787 7.18199489 18.10527828 4.01589966 21.258255 C3.39631311 21.88307823 2.77672657 22.50790145 2.13836467 23.15165871 C0.05810762 25.24693434 -2.02925406 27.33498301 -4.11669922 29.4230957 C-5.60841694 30.92243336 -7.09973004 32.42217367 -8.59066772 33.92228699 C-12.64353196 37.99711262 -16.70296602 42.06533081 -20.76428366 46.13172936 C-23.29909342 48.67017914 -25.83259922 51.20992298 -28.36566544 53.75011253 C-37.19589951 62.60484165 -46.03184013 71.45383487 -54.87255859 80.2980957 C-63.12552834 88.55470622 -71.36525869 96.82437087 -79.59910572 105.10004741 C-86.6612288 112.19679254 -93.73287188 119.28395599 -100.81197751 126.36376065 C-105.04343575 130.59601412 -109.27077098 134.83220173 -113.48843002 139.07821083 C-117.45175522 143.06757965 -121.42671911 147.04496237 -125.41113663 151.0132618 C-126.87482125 152.4751213 -128.33420498 153.94130108 -129.78903198 155.41197586 C-131.76871388 157.41190927 -133.7630121 159.39598649 -135.76193237 161.37666321 C-136.34034091 161.96827171 -136.91874944 162.55988021 -137.51468551 163.16941625 C-139.13955498 164.76038074 -139.13955498 164.76038074 -142 167 C-146.11009691 166.53285867 -147.94627068 164.36492326 -150.75 161.4375 C-151.54921875 160.61121094 -152.3484375 159.78492188 -153.171875 158.93359375 C-153.77515625 158.29550781 -154.3784375 157.65742188 -155 157 C-153.34580289 152.72604067 -150.140746 149.8687142 -146.95101929 146.71051025 C-146.32452693 146.08230904 -145.69803457 145.45410783 -145.05255759 144.80687022 C-142.94910699 142.70012168 -140.83858084 140.60060756 -138.72802734 138.50097656 C-137.21993284 136.9934461 -135.7122784 135.4854753 -134.20503235 133.97709656 C-130.10850861 129.87999805 -126.00583943 125.78910333 -121.90206099 121.69927311 C-117.61568042 117.4253792 -113.33494776 113.14583612 -109.05361938 108.86688232 C-100.9438875 100.76337127 -92.82906998 92.66497277 -84.71242487 84.56838679 C-75.47282575 75.35112787 -66.23889234 66.12820196 -57.00543666 56.90478945 C-38.00993367 37.93020214 -19.00730661 18.9627628 0 0 Z " fill="#020203" transform="translate(314,183)"/>
<path d="M0 0 C4.78296711 1.38020038 8.72635645 3.49922222 12.90234375 6.140625 C17.46306705 8.96479588 22.02490934 11.58271787 26.87686157 13.87463379 C29.48863663 15.11651629 32.05340558 16.44290198 34.61938477 17.77636719 C35.91380859 18.42496151 37.22628283 19.03872153 38.55395508 19.61621094 C43.58267554 21.83307407 47.91574842 24.33097727 51 29 C51.70478851 32.09656052 51.95195565 35.11160154 52.22231102 38.27508259 C54.43491083 60.53190115 68.59131875 72.6356553 84.06107473 87.39313531 C87.7584291 90.94476139 91.38893673 94.56355699 95.02761841 98.1750946 C101.89881888 104.97536542 108.82636343 111.71496189 115.7772342 118.43367213 C123.69983967 126.09742229 131.55569331 133.828153 139.40719008 141.56463301 C155.53264694 157.45095102 171.7383375 173.2532168 188 189 C186.84826645 191.46800047 185.95216435 193.04783565 184 195 C180.62940683 194.67265239 178.94567628 193.31955568 176.60297775 190.97212124 C175.94710198 190.32221861 175.29122621 189.67231599 174.61547542 189.00271934 C173.54737789 187.92151403 173.54737789 187.92151403 172.45770264 186.81846619 C171.6947442 186.05807102 170.93178576 185.29767586 170.14570737 184.51423842 C167.5805071 181.95399566 165.02620443 179.38314719 162.47167969 176.81225586 C160.63924488 174.97897521 158.80614995 173.14635416 156.97244263 171.31434631 C153.02025309 167.3637307 149.07359847 163.40765442 145.13063812 159.44782829 C139.42975991 153.72258081 133.72062697 148.00562399 128.00943795 142.29066414 C118.74390393 133.01856239 109.4850908 123.73977934 100.23046875 114.45678711 C91.23984134 105.43862747 82.24607203 96.42362048 73.24804688 87.4128418 C72.69351659 86.85752334 72.13898631 86.30220489 71.56765208 85.7300586 C68.78574898 82.94424043 66.00378388 80.15848419 63.22178793 77.37275875 C40.13823538 54.25810025 17.06557641 31.1325967 -6 8 C-4.44805246 4.67240077 -2.69378051 2.51419515 0 0 Z " fill="#E2E3E4" transform="translate(36,23)"/>
<path d="M0 0 C3.37933422 1.46715512 5.60269558 3.34536306 8.20820618 5.93405151 C9.45550255 7.16638519 9.45550255 7.16638519 10.72799683 8.4236145 C11.63155914 9.32651215 12.53512146 10.22940979 13.46606445 11.15966797 C14.43339159 12.11937148 15.40111932 13.07867136 16.36921692 14.03759766 C18.9936571 16.64011553 21.61151574 19.24915647 24.22755837 21.86011267 C25.86145892 23.49036924 27.49664985 25.11932011 29.13228416 26.74783707 C34.8358531 32.42692663 40.53369224 38.11170045 46.22680664 43.80126953 C51.53873499 49.10955608 56.86367117 54.40454697 62.19464332 59.69370162 C66.76912415 64.23354839 71.33399431 68.78291001 75.89154023 73.33975708 C78.61474837 76.06217055 81.34182604 78.78042073 84.07879066 81.48900986 C86.6498996 84.03405357 89.20889877 86.59066714 91.75893974 89.15681458 C93.14747936 90.54804924 94.54842988 91.92686198 95.949646 93.30532837 C97.17579369 94.54612152 97.17579369 94.54612152 98.42671204 95.8119812 C99.14512425 96.52838209 99.86353647 97.24478298 100.60371876 97.98289299 C102 100 102 100 101.85248089 102.11429024 C100.58861536 104.90999345 98.64193156 106.63871344 96.4375 108.75 C95.19806641 109.94882812 95.19806641 109.94882812 93.93359375 111.171875 C92.97646484 112.07679688 92.97646484 112.07679688 92 113 C88.59109215 111.52630723 86.37478178 109.62192589 83.76055908 107.00106812 C82.92205917 106.16531754 82.08355927 105.32956696 81.21965027 104.4684906 C79.85263725 103.09069176 79.85263725 103.09069176 78.45800781 101.68505859 C77.48249044 100.70897691 76.50653212 99.73333574 75.53016663 98.75810242 C72.88342897 96.1119385 70.24290245 93.45965413 67.6034441 90.80623198 C64.84302927 88.03331342 62.07694845 85.26605875 59.3114624 82.49819946 C54.07663863 77.25715988 48.84693394 72.01104297 43.61904693 66.76308501 C37.66654735 60.7882296 31.70836677 54.81905321 25.74970102 48.85034823 C13.49346622 36.57320914 1.24438858 24.28895352 -11 12 C-10.06122074 10.8934059 -9.12079084 9.78821201 -8.1796875 8.68359375 C-7.39440674 7.76018188 -7.39440674 7.76018188 -6.59326172 6.81811523 C-4.4984209 4.42763415 -2.28027529 2.21320837 0 0 Z " fill="#000203" transform="translate(362,352)"/>
<path d="M0 0 C6.78376359 5.55035203 12.85522968 11.76442027 19 18 C15.49102731 22.18423892 11.91939465 26.19588166 8 30 C4.84795019 28.60652624 2.73828227 26.97514921 0.328125 24.5234375 C-0.33574219 23.853125 -0.99960937 23.1828125 -1.68359375 22.4921875 C-2.36550781 21.79351562 -3.04742187 21.09484375 -3.75 20.375 C-4.44738281 19.66859375 -5.14476562 18.9621875 -5.86328125 18.234375 C-7.58012488 16.49401297 -9.29211832 14.74915019 -11 13 C-9.30413874 9.36696916 -7.26199512 7.05450954 -4.375 4.25 C-3.55773437 3.45078125 -2.74046875 2.6515625 -1.8984375 1.828125 C-0.95871094 0.92320312 -0.95871094 0.92320312 0 0 Z " fill="#BABCBE" transform="translate(296,285)"/>
<path d="M0 0 C3.68069887 1.53643852 5.98775204 3.78150945 8.75 6.625 C9.54921875 7.44226563 10.3484375 8.25953125 11.171875 9.1015625 C11.77515625 9.72804688 12.3784375 10.35453125 13 11 C9.49102731 15.18423892 5.91939465 19.19588166 2 23 C-1.68069887 21.46356148 -3.98775204 19.21849055 -6.75 16.375 C-7.54921875 15.55773437 -8.3484375 14.74046875 -9.171875 13.8984375 C-9.77515625 13.27195312 -10.3784375 12.64546875 -11 12 C-7.49102731 7.81576108 -3.91939465 3.80411834 0 0 Z " fill="#000306" transform="translate(338,328)"/>
<path d="M0 0 C4.18423892 3.50897269 8.19588166 7.08060535 12 11 C10.46356148 14.68069887 8.21849055 16.98775204 5.375 19.75 C4.55773437 20.54921875 3.74046875 21.3484375 2.8984375 22.171875 C2.27195312 22.77515625 1.64546875 23.3784375 1 24 C-3.18423892 20.49102731 -7.19588166 16.91939465 -11 13 C-9.46356148 9.31930113 -7.21849055 7.01224796 -4.375 4.25 C-3.55773437 3.45078125 -2.74046875 2.6515625 -1.8984375 1.828125 C-0.95871094 0.92320312 -0.95871094 0.92320312 0 0 Z " fill="#040506" transform="translate(338,159)"/>
<path d="M0 0 C3.54399257 0.30628787 5.25057141 1.89498274 7.671875 4.37890625 C8.33574219 5.05244141 8.99960937 5.72597656 9.68359375 6.41992188 C10.36550781 7.12697266 11.04742187 7.83402344 11.75 8.5625 C12.44738281 9.27341797 13.14476562 9.98433594 13.86328125 10.71679688 C15.5824658 12.47130714 17.29425872 14.23243352 19 16 C17.35 17.98 15.7 19.96 14 22 C10.95667235 20.6415798 8.87690849 19.11536976 6.546875 16.7421875 C5.61875 15.80439453 5.61875 15.80439453 4.671875 14.84765625 C4.03765625 14.19667969 3.4034375 13.54570312 2.75 12.875 C2.1003125 12.21628906 1.450625 11.55757813 0.78125 10.87890625 C-0.81711727 9.25703357 -2.41061897 7.6306719 -4 6 C-2.84826645 3.53199953 -1.95216435 1.95216435 0 0 Z " fill="#CCCECF" transform="translate(296,287)"/>
</svg>
