<?xml version="1.0" encoding="UTF-8"?>
<svg version="1.1" xmlns="http://www.w3.org/2000/svg" width="512" height="512">
<path d="M0 0 C22.16696109 17.16054539 35.68887721 39.41505001 39.48022461 67.22875977 C39.95759107 71.54407434 40.05973922 75.84491182 40.109375 80.18359375 C40.11831284 80.95204117 40.12725067 81.72048859 40.13645935 82.51222229 C40.16578124 85.6774024 40.18581401 88.84200232 40.17651367 92.00732422 C39.8151602 103.56476165 39.8151602 103.56476165 44.66723633 113.68334961 C48.97295952 119.18884236 48.12310515 127.49284149 47.4765625 134.00390625 C45.98032315 141.9581077 41.54881565 149.80248891 34.953125 154.625 C29.38095854 158.2317494 24.43948266 160.17891226 17.87109375 161.22265625 C17.45150391 162.71152344 17.45150391 162.71152344 17.0234375 164.23046875 C13.2212277 177.29297751 8.10563587 194.50389028 -3.85839844 202.35803223 C-6.94558678 204.48678891 -8.85995807 206.01815837 -9.69799805 209.7713623 C-9.81732615 212.74120714 -9.74059257 215.6307464 -9.56640625 218.59765625 C-9.53482422 219.61988281 -9.50324219 220.64210937 -9.47070312 221.6953125 C-9.38853169 224.20741059 -9.27374973 226.71352159 -9.12890625 229.22265625 C-7.97704834 229.6602124 -6.82519043 230.09776855 -5.63842773 230.54858398 C-3.12930542 231.50177619 -0.62042457 232.45559001 1.88795471 233.41073608 C6.67781492 235.2344656 11.46998638 237.05160235 16.26708984 238.85620117 C32.63533261 245.03196662 32.63533261 245.03196662 40.21875 248.46484375 C52.20497925 254.02580349 52.20497925 254.02580349 64.87109375 252.22265625 C66.06734375 251.66578125 67.26359375 251.10890625 68.49609375 250.53515625 C72.51724852 248.97137384 74.73458733 249.10898144 78.87109375 250.22265625 C79.38285156 250.73570312 79.89460938 251.24875 80.421875 251.77734375 C81.86969634 253.52941462 81.86969634 253.52941462 84.7265625 253.48046875 C85.82613281 253.43664062 86.92570312 253.3928125 88.05859375 253.34765625 C93.14852577 253.22240065 97.84794803 253.43471182 102.87109375 254.22265625 C103.15984375 253.58328125 103.44859375 252.94390625 103.74609375 252.28515625 C104.87109375 250.22265625 104.87109375 250.22265625 106.87109375 249.22265625 C127.4418883 249.89710853 143.74366704 263.39156354 157.18359375 277.66015625 C171.36992434 294.25992897 177.29937072 316.72203837 175.625 338.26953125 C173.41596034 357.11478991 166.4228383 374.6709117 152.87109375 388.22265625 C152.5696787 390.09612235 152.5696787 390.09612235 152.61953735 392.26387024 C152.61415451 393.10922333 152.60877167 393.95457642 152.60322571 394.82554626 C152.6094117 396.21961449 152.6094117 396.21961449 152.61572266 397.6418457 C152.6121022 398.61921692 152.60848175 399.59658813 152.60475159 400.60357666 C152.5978454 402.73106768 152.59535443 404.85857646 152.59669876 406.98607826 C152.59766096 410.35242902 152.58475769 413.71845778 152.56771851 417.08476257 C152.52135485 426.6576384 152.49683865 436.23048265 152.49023438 445.8034668 C152.48522375 451.65438184 152.46099364 457.50496251 152.42490768 463.35576439 C152.41509658 465.58727195 152.41278484 467.81882544 152.41807938 470.05034828 C152.42513792 473.17235726 152.40789108 476.29336852 152.38525391 479.4152832 C152.39751259 480.80024239 152.39751259 480.80024239 152.41001892 482.21318054 C152.35580117 486.41293888 152.23551552 488.63976394 149.96395874 492.27311707 C146.49647551 495.50313642 144.01166402 495.53762469 139.43283081 495.4793396 C134.89832331 495.02498673 130.91335017 493.32130575 126.71875 491.6171875 C124.78872192 490.87354271 122.85837334 490.13072928 120.92773438 489.38867188 C117.92375553 488.21454781 114.92404946 487.03133403 111.92993164 485.83227539 C109.01485223 484.67183439 106.08733873 483.5489565 103.15625 482.4296875 C101.83235008 481.88149101 101.83235008 481.88149101 100.48170471 481.32221985 C93.6865913 478.76293149 89.49786086 479.50624408 82.87109375 482.22265625 C81.47470176 482.73422036 80.07822177 483.24554433 78.68164062 483.7565918 C77.3166717 484.28819881 75.95275859 484.82252369 74.58984375 485.359375 C73.07321963 485.94284539 71.55628283 486.52550358 70.0390625 487.10742188 C67.69940805 488.00817656 65.36211945 488.9136945 63.02978516 489.83325195 C44.9902083 496.92604256 44.9902083 496.92604256 37.87109375 495.22265625 C34.52484351 492.69589586 33.19131528 491.18332083 31.87109375 487.22265625 C31.78324315 485.48919818 31.75344561 483.75252356 31.75756836 482.0168457 C31.75764389 480.95597244 31.75771942 479.89509918 31.75779724 478.80207825 C31.76295853 477.6582518 31.76811981 476.51442535 31.7734375 475.3359375 C31.77555992 473.57771919 31.77555992 473.57771919 31.77772522 471.78398132 C31.78332987 468.03434718 31.79588319 464.2847724 31.80859375 460.53515625 C31.81360815 457.99544357 31.81817116 455.45572995 31.82226562 452.91601562 C31.83330081 446.68487552 31.8500435 440.45377013 31.87109375 434.22265625 C30.57880576 434.22634342 29.28651777 434.23003059 27.95506954 434.2338295 C-2.72372734 434.32046764 -33.4024912 434.38642166 -64.08138106 434.42691757 C-67.85772105 434.43192037 -71.63406078 434.43709766 -75.41040039 434.44238281 C-76.16219914 434.44343205 -76.91399789 434.4444813 -77.68857842 434.44556233 C-89.86035892 434.46296585 -102.03206383 434.49450323 -114.20379949 434.53126743 C-126.69385564 434.56867837 -139.18387221 434.59089242 -151.67398208 434.59901023 C-159.38059523 434.6044977 -167.08699471 434.62182702 -174.79354208 434.65432212 C-180.70371125 434.67797269 -186.61377085 434.68047569 -192.52398872 434.67508698 C-194.94796057 434.67618831 -197.37194043 434.68415664 -199.79586411 434.69947815 C-203.10428435 434.71936648 -206.41178886 434.71459882 -209.7202301 434.70367432 C-210.68035918 434.71532568 -211.64048826 434.72697705 -212.62971216 434.73898149 C-218.65545898 434.68516589 -222.20618795 433.76529221 -227.12890625 430.22265625 C-230.76279213 425.63248462 -232.24850472 421.96950529 -232.26261902 416.1913147 C-232.266884 415.39828949 -232.27114899 414.60526428 -232.27554321 413.78820801 C-232.27509003 412.92691284 -232.27463684 412.06561768 -232.27416992 411.17822266 C-232.27752853 410.26378387 -232.28088715 409.34934509 -232.28434753 408.40719604 C-232.29385556 405.37952315 -232.29580121 402.35190566 -232.296875 399.32421875 C-232.30008993 397.21113055 -232.30345418 395.09804257 -232.30696106 392.98495483 C-232.31295355 388.54807012 -232.31480106 384.11120488 -232.31420898 379.67431641 C-232.31410787 374.02141996 -232.32770683 368.36865055 -232.34498119 362.71578407 C-232.35617202 358.34540244 -232.35812596 353.97505071 -232.35759926 349.60465622 C-232.35877077 347.52290793 -232.3631454 345.44115865 -232.37093163 343.35942459 C-232.45071182 319.8064104 -230.49944003 298.18495831 -213.8203125 279.89453125 C-208.13822862 274.27806035 -202.11317061 269.98011178 -194.94921875 266.43359375 C-194.25528015 266.08912704 -193.56134155 265.74466034 -192.84637451 265.38975525 C-184.55531809 261.35393278 -175.98796061 258.06982242 -167.37890625 254.78515625 C-165.61944049 254.10747088 -163.86025062 253.42906885 -162.10131836 252.75 C-158.39240929 251.31925246 -154.68184912 249.89290012 -150.97021484 248.46923828 C-144.88701539 246.13332363 -138.81431553 243.77076366 -132.7421875 241.40625 C-129.71130517 240.2278382 -126.68023161 239.04992015 -123.64904785 237.87228394 C-121.68039337 237.107073 -119.71204896 236.34106385 -117.74401855 235.57424927 C-114.99987973 234.50584412 -112.25408957 233.44180084 -109.5078125 232.37890625 C-108.68581863 232.05784409 -107.86382477 231.73678192 -107.016922 231.4059906 C-101.35735303 229.22265625 -101.35735303 229.22265625 -99.12890625 229.22265625 C-98.29342018 217.1894919 -98.29342018 217.1894919 -102.140625 206.2421875 C-104.71308265 204.07943214 -107.39042321 202.1685248 -110.12890625 200.22265625 C-117.33467197 192.71402121 -122.75287672 183.86933661 -125.328125 173.75 C-125.52704346 172.98051025 -125.72596191 172.21102051 -125.9309082 171.41821289 C-126.30625118 169.8981298 -126.64863838 168.36944082 -126.95385742 166.83374023 C-127.45972352 164.41602343 -127.45972352 164.41602343 -129.12890625 161.22265625 C-131.71522964 159.96788055 -134.30600753 159.64251777 -137.12890625 159.22265625 C-146.34271997 155.81209106 -152.34844328 150.45456069 -156.50390625 141.53515625 C-160.26618586 132.09730098 -159.90013372 124.2438041 -156.296875 114.80078125 C-155.12890625 112.22265625 -155.12890625 112.22265625 -153.58129883 110.09008789 C-151.66953037 106.31571901 -151.70658246 102.8998846 -151.72265625 98.765625 C-151.70640198 97.53468864 -151.70640198 97.53468864 -151.68981934 96.27888489 C-151.65566038 93.65589649 -151.64001631 91.03333713 -151.62890625 88.41015625 C-151.50343582 59.44557983 -145.67766342 33.13206865 -124.80859375 11.8671875 C-123.92429687 10.99449219 -123.04 10.12179688 -122.12890625 9.22265625 C-121.38898438 8.48402344 -120.6490625 7.74539062 -119.88671875 6.984375 C-87.67216988 -23.40114271 -35.60062605 -25.07018307 0 0 Z " fill="#020101" transform="translate(284.12890625,16.77734375)"/>
<path d="M0 0 C0.30209885 0.61752136 0.60419769 1.23504272 0.91545105 1.87127686 C4.06454476 8.30229502 7.23056021 14.72477392 10.40649414 21.14257812 C11.59064267 23.53764019 12.76759697 25.93586838 13.94165039 28.3359375 C15.63074592 31.7869775 17.33526881 35.23001084 19.04296875 38.671875 C19.56400681 39.74491882 20.08504486 40.81796265 20.62187195 41.92352295 C24.06675478 48.99875164 24.06675478 48.99875164 30 54 C35.69517963 55.25789185 39.98573645 53.74590623 45 51 C49.17630054 52.39210018 49.99070521 54.11998247 52 58 C52.54837959 65.99652031 51.04304066 73.59218156 49.625 81.4375 C49.3655327 82.9058575 49.10693832 84.37436946 48.84912109 85.84301758 C48.41578098 88.3095719 47.98155692 90.77595303 47.54458618 93.24186707 C45.70148445 103.644827 43.91584568 114.05767664 42.125 124.46972656 C40.08708225 136.3137967 38.04288545 148.15678569 36 160 C15.54 160 -4.92 160 -26 160 C-26.02578125 154.34359375 -26.0515625 148.6871875 -26.078125 142.859375 C-26.10328967 139.27729829 -26.12961949 135.69530634 -26.16015625 132.11328125 C-26.20852121 126.4269172 -26.25255428 120.7407493 -26.27099609 115.05419922 C-26.2861332 110.46984834 -26.32052591 105.88601031 -26.36830902 101.30188751 C-26.38315333 99.55243638 -26.39104276 97.80291204 -26.39188385 96.05339813 C-26.39424617 93.60372658 -26.42126426 91.15548086 -26.45410156 88.70605469 C-26.4490712 87.98172745 -26.44404083 87.25740021 -26.43885803 86.51112366 C-26.5092304 83.12110105 -26.78279125 81.2892975 -28.8427124 78.54571533 C-31.75219706 76.46104426 -33.49796842 76.47842083 -37 77 C-38.80724889 77.98307332 -38.80724889 77.98307332 -40 80 C-40.30953897 82.66729938 -40.43750456 85.10638486 -40.43237305 87.77612305 C-40.4425647 88.56660034 -40.45275635 89.35707764 -40.46325684 90.17150879 C-40.49345733 92.78498354 -40.50266338 95.39809221 -40.51171875 98.01171875 C-40.52856024 99.82348353 -40.54670976 101.63523659 -40.56611633 103.44697571 C-40.61368017 108.21611875 -40.64344816 112.98521427 -40.66955566 117.7545166 C-40.7045635 123.47651224 -40.76159431 129.19832532 -40.81494904 134.92017365 C-40.89353778 143.61342626 -40.94408665 152.30643869 -41 161 C-56.18 161 -71.36 161 -87 161 C-87.08021762 136.98373628 -87.08021762 136.98373628 -87.09765625 126.70117188 C-87.10958509 119.70073391 -87.12365671 112.70034855 -87.15087891 105.69995117 C-87.17270125 100.05245705 -87.18458838 94.40501939 -87.18975449 88.75748634 C-87.19343343 86.60905888 -87.20061726 84.46063431 -87.21146011 82.31223106 C-87.22609994 79.28971185 -87.22797275 76.26742233 -87.22705078 73.24487305 C-87.23424133 72.36804871 -87.24143188 71.49122437 -87.24884033 70.58782959 C-87.19928017 55.45101209 -82.9247538 43.29791798 -72.359375 32.25390625 C-63.26196798 23.5631714 -53.24500957 18.95541773 -41.640625 14.453125 C-40.57382507 14.03705994 -39.50702515 13.62099487 -38.40789795 13.19232178 C-36.16643112 12.31972599 -33.92416768 11.44917401 -31.68115234 10.58056641 C-28.24399206 9.24767018 -24.8114019 7.90344957 -21.37890625 6.55859375 C-19.19558124 5.71024553 -17.01199639 4.8625657 -14.828125 4.015625 C-13.80205139 3.61257141 -12.77597778 3.20951782 -11.71881104 2.79425049 C-10.76391785 2.42676697 -9.80902466 2.05928345 -8.82519531 1.68066406 C-7.98772766 1.35519592 -7.15026001 1.02972778 -6.28741455 0.69439697 C-4 0 -4 0 0 0 Z " fill="#E3E9F7" transform="translate(155,275)"/>
<path d="M0 0 C1.79931641 1.55053711 1.79931641 1.55053711 3.6015625 3.52734375 C4.58382812 4.59178711 4.58382812 4.59178711 5.5859375 5.67773438 C6.25882812 6.42345703 6.93171875 7.16917969 7.625 7.9375 C8.97134065 9.40496031 10.31769423 10.87240877 11.6640625 12.33984375 C12.25654785 12.99331787 12.8490332 13.64679199 13.45947266 14.32006836 C14.6099276 15.57462944 15.7963659 16.7963659 17 18 C17.25396729 20.65432739 17.25396729 20.65432739 17.25878906 24.06689453 C17.26509338 25.34227081 17.27139771 26.61764709 17.27789307 27.93167114 C17.2743111 29.33205298 17.2702086 30.73243358 17.265625 32.1328125 C17.2669725 33.56810573 17.26891374 35.00339852 17.27142334 36.43869019 C17.2743763 39.45331143 17.27007533 42.46781437 17.26074219 45.48242188 C17.24940891 49.32895525 17.25586674 53.17520762 17.26788712 57.02173042 C17.27515383 59.99018423 17.27279478 62.95857276 17.26763153 65.92702866 C17.26630509 67.34387114 17.26790719 68.76071972 17.27259064 70.17755508 C17.31911556 88.22704785 12.37492529 102.83147035 -0.09375 116.25390625 C-12.36743483 127.97171767 -27.34947874 131.62058295 -43.80566406 131.54858398 C-60.37039036 131.13357743 -73.16543782 124.23032397 -84.75 112.4375 C-87.85487999 108.63840851 -90.08218554 104.41100986 -92.3125 100.0625 C-92.65055664 99.40628662 -92.98861328 98.75007324 -93.33691406 98.07397461 C-97.94006034 88.63565923 -98.28151088 79.60368236 -98.1953125 69.21484375 C-98.1924826 67.91801163 -98.18965271 66.6211795 -98.18673706 65.28504944 C-98.17916621 61.86723872 -98.15957559 58.44960284 -98.1373291 55.03186035 C-98.11672804 51.53233199 -98.10770511 48.03277488 -98.09765625 44.53320312 C-98.07632222 37.68873107 -98.04226727 30.84437397 -98 24 C-97.22627548 23.97592575 -96.45255096 23.9518515 -95.65538025 23.92704773 C-92.11253359 23.81414355 -88.56995631 23.6942357 -85.02734375 23.57421875 C-83.81026733 23.53647339 -82.59319092 23.49872803 -81.3392334 23.45983887 C-54.72734555 22.53722141 -29.42070025 13.62565893 -6.6015625 0.15234375 C-3.62074175 -1.16798977 -2.96098395 -1.13770761 0 0 Z " fill="#F1D0A4" transform="translate(269,93)"/>
<path d="M0 0 C1.05316406 0.35191406 2.10632813 0.70382813 3.19140625 1.06640625 C22.83410239 8.09325032 39.55232879 21.30102551 49.07128906 40.11767578 C55.40978535 53.64480792 57.31298673 65.71020385 57.125 80.625 C57.11494398 82.02473314 57.10582279 83.42447331 57.09765625 84.82421875 C57.07426238 88.21632925 57.04148173 91.6080706 57 95 C54.69 95 52.38 95 50 95 C49.7834375 93.329375 49.7834375 93.329375 49.5625 91.625 C48.00073442 85.37793766 43.35396027 81.49682459 39 77 C37.47393764 75.27544642 35.95298193 73.54635867 34.4375 71.8125 C26.63959121 62.80300062 26.63959121 62.80300062 15.96484375 58.5859375 C10.31879671 59.17557394 6.39212724 61.76975659 1.5625 64.625 C-7.44187883 69.7533068 -16.19296467 73.69094465 -26 77 C-27.3502959 77.51342301 -28.69922409 78.03045519 -30.046875 78.55078125 C-33.44593751 79.83393349 -36.8289074 80.81216769 -40.375 81.625 C-41.39335937 81.86476563 -42.41171875 82.10453125 -43.4609375 82.3515625 C-50.33626372 83.61128011 -57.08615886 84.04594841 -64.07421875 84.10546875 C-65.94110352 84.12770508 -65.94110352 84.12770508 -67.84570312 84.15039062 C-70.41850504 84.1752423 -72.99157069 84.18027341 -75.56445312 84.16601562 C-82.26463983 84.28087597 -86.9226664 84.41487959 -91.77661133 89.32543945 C-93.09501108 90.99650093 -93.09501108 90.99650093 -93.9128418 93.15307617 C-95 95 -95 95 -96.9453125 95.609375 C-98.96354167 95.73958333 -100.98177083 95.86979167 -103 96 C-103.42333961 70.58985402 -103.42333961 70.58985402 -101 60 C-100.76667969 58.90171875 -100.53335938 57.8034375 -100.29296875 56.671875 C-95.44852447 36.94016587 -82.58899673 19.66815418 -65.31201172 8.953125 C-45.89425227 -2.57535386 -21.84284578 -7.6281467 0 0 Z " fill="#566473" transform="translate(251,18)"/>
<path d="M0 0 C4.5508448 0.53993074 8.61234712 2.33018814 12.8125 4.0625 C13.50537109 4.34416016 14.19824219 4.62582031 14.91210938 4.91601562 C16.60967624 5.60674973 18.30506312 6.30283728 20 7 C18.7625 8.4540625 18.7625 8.4540625 17.5 9.9375 C16.95085937 10.58332031 16.40171875 11.22914063 15.8359375 11.89453125 C14.61822714 13.29101186 13.37322081 14.6641796 12.1015625 16.01171875 C-3.66469978 32.86853277 -10.82441509 53.80312042 -10.21875 76.62109375 C-10.00851052 81.60692299 -9.44236764 86.21193424 -8 91 C-7.64679688 92.18078125 -7.29359375 93.3615625 -6.9296875 94.578125 C-2.78889574 107.89128119 3.01196647 120.01196647 13 130 C13.22705078 133.07275391 13.22705078 133.07275391 13.1953125 136.9765625 C13.19031738 138.23033691 13.18532227 139.48411133 13.18017578 140.77587891 C13.16196777 142.37608887 13.14375977 143.97629883 13.125 145.625 C13.08375 150.69875 13.0425 155.7725 13 161 C-3.17 161 -19.34 161 -36 161 C-38.22524882 149.87375589 -38.22524882 149.87375589 -38.96484375 145.3515625 C-39.12533203 144.40925781 -39.28582031 143.46695313 -39.45117188 142.49609375 C-39.77914353 140.55987554 -40.09928746 138.62231725 -40.41210938 136.68359375 C-40.57388672 135.74902344 -40.73566406 134.81445312 -40.90234375 133.8515625 C-41.04148193 133.01447754 -41.18062012 132.17739258 -41.32397461 131.31494141 C-42.09936837 128.65972883 -43.15640298 127.04885931 -45 125 C-47.88320917 124.27491571 -49.97257312 124.66361924 -53 125 C-57.30987272 131.46480907 -54.41384571 140.13341183 -53 147.3125 C-52.62271354 149.26648699 -52.24761228 151.22089754 -51.875 153.17578125 C-51.70742187 154.03083252 -51.53984375 154.88588379 -51.3671875 155.7668457 C-51 158 -51 158 -51 161 C-66.51 161 -82.02 161 -98 161 C-97.41132349 153.93588186 -96.8468837 147.18933853 -95.6171875 140.265625 C-95.48209778 139.480168 -95.34700806 138.694711 -95.20782471 137.88545227 C-94.76861527 135.33939349 -94.32201234 132.79469935 -93.875 130.25 C-93.56454532 128.46222694 -93.25449378 126.67438383 -92.94482422 124.88647461 C-92.29887518 121.1625604 -91.64963951 117.43923932 -90.99804688 113.71630859 C-90.16009227 108.92496135 -89.3315303 104.13204795 -88.50643921 99.33847046 C-87.86868121 95.63496935 -87.22796692 91.93198401 -86.58648682 88.22912598 C-86.27944581 86.45493984 -85.9732493 84.68060734 -85.66790771 82.90612793 C-85.24264472 80.43817008 -84.81329928 77.9709575 -84.3828125 75.50390625 C-84.25706848 74.7694075 -84.13132446 74.03490875 -84.00177002 73.27815247 C-83.11430826 68.22861652 -83.11430826 68.22861652 -82 66 C-77.05 66 -72.1 66 -67 66 C-66.67386719 68.02382813 -66.34773438 70.04765625 -66.01171875 72.1328125 C-65.68470014 74.10883985 -65.35761037 76.0848561 -65.02856445 78.06054688 C-64.80305766 79.42553289 -64.58099243 80.79109241 -64.36254883 82.15722656 C-64.04651189 84.1297578 -63.71673408 86.10007172 -63.38671875 88.0703125 C-63.09607544 89.84559326 -63.09607544 89.84559326 -62.79956055 91.65673828 C-61.91629304 95.35001012 -60.75693666 99.24306334 -58 102 C-53.96839809 102.26293056 -52.44107266 102.29404844 -49 100 C-47.36155102 90.61213019 -49.73873435 80.74756773 -51.57641602 71.55371094 C-51.75744873 70.64782227 -51.93848145 69.74193359 -52.125 68.80859375 C-52.29257813 68.00220459 -52.46015625 67.19581543 -52.6328125 66.36499023 C-53.37485698 61.585612 -53.23867099 58.72703971 -50.5 54.6875 C-50.0359375 53.99011719 -49.571875 53.29273438 -49.09375 52.57421875 C-48.7328125 52.05472656 -48.371875 51.53523438 -48 51 C-45.03824877 51.61277612 -43.61941217 52.25372522 -41 54 C-36.90717586 54.59016378 -33.13703211 54.41346622 -29.25 53 C-23.46827719 47.86069084 -20.31844404 39.90228438 -16.953125 33.06640625 C-16.49645447 32.14786362 -16.03978394 31.22932098 -15.5692749 30.28294373 C-14.12565269 27.3780274 -12.68746742 24.47046621 -11.25 21.5625 C-9.79751279 18.62991631 -8.34385261 15.69792867 -6.88787842 12.76707458 C-5.98532587 10.94969552 -5.08491378 9.1312516 -4.18682861 7.31166077 C-3.78260681 6.49668625 -3.37838501 5.68171173 -2.96191406 4.84204102 C-2.4282724 3.76237816 -2.4282724 3.76237816 -1.8838501 2.66090393 C-1 1 -1 1 0 0 Z " fill="#E1E7F5" transform="translate(304,275)"/>
<path d="M0 0 C9.17270802 6.84895532 16.5711349 16.6037497 18.33398438 28.19628906 C19.3956656 42.24831128 17.0097548 53.43105687 7.75 64.5 C-0.53914808 72.96995165 -11.00634002 78.25887249 -22.93774414 78.51953125 C-24.11324829 78.50986328 -24.11324829 78.50986328 -25.3125 78.5 C-26.14064209 78.49355469 -26.96878418 78.48710937 -27.82202148 78.48046875 C-39.563125 78.13275365 -48.69917698 73.21188563 -57 65 C-65.2285765 55.1753634 -68.68438836 43.65193624 -68 31 C-66.98287172 20.39518708 -61.87187061 10.23704233 -54 3 C-37.73779328 -9.59874257 -17.39425133 -12.10034875 0 0 Z " fill="#EFB135" transform="translate(401,312)"/>
<path d="M0 0 C3.58083907 2.77946149 6.81679698 5.77679263 10 9 C10.56332031 9.54140625 11.12664062 10.0828125 11.70703125 10.640625 C22.48878809 21.90599626 25.56893983 36.96180659 25.30859375 52.03125 C24.04488242 68.28353753 17.87788931 81.21771833 5.953125 92.5234375 C1.29532997 96.42957778 -3.53102473 99.36917268 -9 102 C-9.85207031 102.433125 -10.70414062 102.86625 -11.58203125 103.3125 C-23.1319465 108.18274245 -39.96675911 108.055729 -51.875 104.375 C-54.546875 103.25390625 -54.546875 103.25390625 -57 102 C-58.27617187 101.36384766 -58.27617187 101.36384766 -59.578125 100.71484375 C-74.54406874 92.47439313 -83.9894555 79.77899739 -89.75 63.9375 C-93.88074464 49.25040794 -91.00176055 33.65375502 -84.3125 20.3125 C-75.85573202 5.69954576 -62.30144119 -4.2808907 -46.125 -8.875 C-29.87849669 -12.4077683 -14.0126699 -8.77247479 0 0 Z M-59 14 C-59.61359375 14.44085938 -60.2271875 14.88171875 -60.859375 15.3359375 C-68.7886546 21.40569578 -73.75858784 30.54465676 -75.625 40.25 C-76.90249987 53.02499866 -74.84242094 64.5032212 -67 75 C-65.88625 76.546875 -65.88625 76.546875 -64.75 78.125 C-61.19202617 81.84469991 -57.44895112 84.44131406 -53 87 C-52.29488281 87.41765625 -51.58976562 87.8353125 -50.86328125 88.265625 C-41.34491245 92.98328074 -27.82767361 92.71595391 -17.875 89.375 C-5.14037518 83.72610151 3.76642139 75.07657982 8.92578125 62.015625 C12.12193163 51.54974758 11.40909202 39.34735708 6.54296875 29.57421875 C-0.32001602 18.1243277 -9.38590974 10.1751552 -22.28515625 6.31640625 C-35.43428671 3.04603933 -48.38508396 5.51642537 -59 14 Z " fill="#040301" transform="translate(409,299)"/>
<path d="M0 0 C1.24523437 0.10183594 2.49046875 0.20367187 3.7734375 0.30859375 C5.18496094 0.43427734 5.18496094 0.43427734 6.625 0.5625 C6.8725 1.655625 7.12 2.74875 7.375 3.875 C8.74350154 7.91207953 9.12723256 8.45699235 12.625 10.5625 C15.13913695 11.53788423 17.63840446 12.44246376 20.1875 13.3125 C37.67868306 19.64616193 49.98889282 31.18648545 58.625 47.5625 C65.79201061 63.56246073 67.67590591 81.77611586 61.625 98.5625 C61.2846875 99.5525 60.944375 100.5425 60.59375 101.5625 C54.32322637 118.17091394 42.18457653 130.40039071 26.625 138.5625 C10.15161497 145.94712087 -9.06033419 147.33405527 -26.375 141.5625 C-44.60956797 134.11901545 -58.10338369 121.44032886 -66.375 103.5625 C-73.24801583 85.41932276 -73.48809514 67.75577534 -65.796875 49.8984375 C-58.42256291 33.99658517 -46.01119023 20.1262804 -29.26074219 13.75878906 C-23.28163157 11.72340346 -23.28163157 11.72340346 -20.57983398 10.99169922 C-18.32285755 10.35769586 -18.32285755 10.35769586 -15.375 8.5625 C-14.13342034 5.83737797 -13.80381221 3.5734404 -13.375 0.5625 C-8.75534912 -0.39696595 -4.69370875 -0.39852244 0 0 Z M-48.375 39.5625 C-59.16083114 53.72256041 -62.57085107 68.0924988 -61.375 85.5625 C-59.40318305 99.88506133 -51.24306352 113.23115915 -40.375 122.5625 C-36.22677688 125.67494293 -31.9993922 128.22217499 -27.375 130.5625 C-26.50101562 131.01625 -25.62703125 131.47 -24.7265625 131.9375 C-12.73930096 136.99956939 4.18708047 136.5879853 16.4375 132.5 C31.47094342 125.97639667 43.88782258 115.77029306 50.625 100.5625 C56.7023636 84.00571976 56.39662811 66.48321232 49 50.375 C45.73915546 44.24979078 41.54174081 39.41821743 36.625 34.5625 C36.08359375 33.99917969 35.5421875 33.43585938 34.984375 32.85546875 C24.97291812 23.27379663 10.18319307 18.55916099 -3.375 18.1875 C-21.29175445 18.6786391 -36.48116334 26.4492358 -48.375 39.5625 Z " fill="#F7C454" transform="translate(379.375,270.4375)"/>
<path d="M0 0 C4.95 0 9.9 0 15 0 C15.48919922 3.03574219 15.48919922 3.03574219 15.98828125 6.1328125 C16.31529986 8.10883985 16.64238963 10.0848561 16.97143555 12.06054688 C17.19694234 13.42553289 17.41900757 14.79109241 17.63745117 16.15722656 C17.95348811 18.1297578 18.28326592 20.10007172 18.61328125 22.0703125 C18.90392456 23.84559326 18.90392456 23.84559326 19.20043945 25.65673828 C20.03759325 29.15719143 21.15120543 31.91542618 23 35 C23.84949219 35.31453125 24.69898438 35.6290625 25.57421875 35.953125 C26.37472656 36.29859375 27.17523438 36.6440625 28 37 C29.14453125 40.046875 29.14453125 40.046875 29.8125 43.75 C30.04582031 44.96171875 30.27914062 46.1734375 30.51953125 47.421875 C30.95608962 50.67299261 31.09540575 53.72607633 31 57 C32.32 57.33 33.64 57.66 35 58 C33.865625 58.28875 32.73125 58.5775 31.5625 58.875 C30.386875 59.24625 29.21125 59.6175 28 60 C24.92171308 66.15657383 27.74067941 74.91804441 29 81.3125 C29.37728646 83.26648699 29.75238772 85.22089754 30.125 87.17578125 C30.37636719 88.45835815 30.37636719 88.45835815 30.6328125 89.7668457 C31 92 31 92 31 95 C15.49 95 -0.02 95 -16 95 C-15.41132349 87.93588186 -14.8468837 81.18933853 -13.6171875 74.265625 C-13.48209778 73.480168 -13.34700806 72.694711 -13.20782471 71.88545227 C-12.76861527 69.33939349 -12.32201234 66.79469935 -11.875 64.25 C-11.56454532 62.46222694 -11.25449378 60.67438383 -10.94482422 58.88647461 C-10.29887518 55.1625604 -9.64963951 51.43923932 -8.99804688 47.71630859 C-8.16009227 42.92496135 -7.3315303 38.13204795 -6.50643921 33.33847046 C-5.86868121 29.63496935 -5.22796692 25.93198401 -4.58648682 22.22912598 C-4.27944581 20.45493984 -3.9732493 18.68060734 -3.66790771 16.90612793 C-3.24264472 14.43817008 -2.81329928 11.9709575 -2.3828125 9.50390625 C-2.25706848 8.7694075 -2.13132446 8.03490875 -2.00177002 7.27815247 C-1.11430826 2.22861652 -1.11430826 2.22861652 0 0 Z " fill="#E85051" transform="translate(222,341)"/>
<path d="M0 0 C4.39472335 1.50063724 5.77672238 4.09959582 7.8125 8.0625 C10 12.64615385 10 12.64615385 10 15 C10.79664063 15.02578125 11.59328125 15.0515625 12.4140625 15.078125 C18.80456114 15.42019549 23.1576865 15.66740371 28 20 C30.35620437 23.53430656 30.48991613 24.83571287 30 29 C28.01931804 32.65664363 25.74853512 35.26005248 22.6875 38 C21.12412582 39.4401572 21.12412582 39.4401572 20 41 C20.02525184 43.91038542 20.02525184 43.91038542 21 47 C21.48040088 52.4189219 21.59543501 56.60557943 18 61 C14.15434323 63.56377118 12.58969584 63.5099662 8 63 C6.28806476 62.17382872 4.60115868 61.29452219 2.9375 60.375 C-0.91116005 58.2434063 -0.91116005 58.2434063 -5.25 58.5 C-7.14902702 59.53583292 -9.04466292 60.57789864 -10.9375 61.625 C-14.66242614 63.29741582 -16.95832594 63.58787986 -21 63 C-23.63016161 60.8272578 -25.47336894 59.05326212 -27 56 C-27.12900089 52.83947817 -27.17995864 49.85666263 -26.52734375 46.75 C-26.04634201 44.35711738 -25.73425673 42.43155092 -26 40 C-27.5651345 38.01778296 -29.16753784 36.72556198 -31.23828125 35.2890625 C-33.61877734 33.54723609 -34.85115606 31.83665965 -35.37109375 28.9140625 C-35.49129298 24.77072431 -35.39701749 22.60192975 -33.0625 19.0625 C-27.92473794 15.60237453 -22.16903487 14.60199775 -16 15 C-15.7525 14.13375 -15.505 13.2675 -15.25 12.375 C-12.43285554 4.76870995 -8.68209851 -1.0631141 0 0 Z " fill="#040301" transform="translate(379,314)"/>
<path d="M0 0 C3.3 0.33 6.6 0.66 10 1 C11.95721376 1.07964706 13.9161679 1.13032847 15.875 1.1328125 C17.38320313 1.13474609 17.38320313 1.13474609 18.921875 1.13671875 C20.44554687 1.13091797 20.44554687 1.13091797 22 1.125 C23.01578125 1.12886719 24.0315625 1.13273437 25.078125 1.13671875 C26.08359375 1.13542969 27.0890625 1.13414062 28.125 1.1328125 C29.45917969 1.13112061 29.45917969 1.13112061 30.8203125 1.12939453 C35.22599577 0.9501092 39.61255298 0.4387447 44 0 C44 19.14 44 38.28 44 58 C39.11525967 57.18587661 36.51025754 56.43604351 32.25 54.375 C23.45873535 50.6552029 17.7634568 52.20339168 9.0625 55.5625 C7.44021484 56.24505859 7.44021484 56.24505859 5.78515625 56.94140625 C3 58 3 58 0 58 C0 38.86 0 19.72 0 0 Z " fill="#ABD4FA" transform="translate(354,428)"/>
<path d="M0 0 C0.66 0.33 1.32 0.66 2 1 C1.113125 1.86625 0.22625 2.7325 -0.6875 3.625 C-8.99829617 13.25528277 -10.1352058 26.53293943 -10.20532227 38.68701172 C-10.22017166 40.28303474 -10.22017166 40.28303474 -10.23532104 41.91130066 C-10.26683047 45.41740721 -10.29165172 48.92352729 -10.31640625 52.4296875 C-10.33698489 54.86492255 -10.3579816 57.30015409 -10.37937927 59.73538208 C-10.43450591 66.13697471 -10.48395665 72.53859907 -10.53222656 78.94024658 C-10.58251033 85.47581803 -10.63816048 92.01134354 -10.69335938 98.546875 C-10.80082588 111.3645455 -10.9018003 124.18225515 -11 137 C-1.1 137 8.8 137 19 137 C19 111.59 19 86.18 19 60 C19.33 60 19.66 60 20 60 C20 85.74 20 111.48 20 138 C4.82 138 -10.36 138 -26 138 C-26.08021762 113.98373628 -26.08021762 113.98373628 -26.09765625 103.70117188 C-26.10958509 96.70073391 -26.12365671 89.70034855 -26.15087891 82.69995117 C-26.17270125 77.05245705 -26.18458838 71.40501939 -26.18975449 65.75748634 C-26.19343343 63.60905888 -26.20061726 61.46063431 -26.21146011 59.31223106 C-26.22609994 56.28971185 -26.22797275 53.26742233 -26.22705078 50.24487305 C-26.23424133 49.36804871 -26.24143188 48.49122437 -26.24884033 47.58782959 C-26.19925947 32.44468894 -21.91385888 20.34756147 -11.390625 9.26953125 C-7.81405906 5.87413123 -4.01107051 2.86369573 0 0 Z " fill="#D3D7DF" transform="translate(94,298)"/>
<path d="M0 0 C0.84175781 0.28875 1.68351563 0.5775 2.55078125 0.875 C11.6556848 3.59796181 20.24474717 4.43731509 29.75 4.5 C31.4347644 4.52707031 31.4347644 4.52707031 33.15356445 4.5546875 C40.19563208 4.50513546 45.96530827 3.37369136 52.54785156 0.85742188 C55 0 55 0 58 0 C59.93972395 13.82951332 59.93972395 13.82951332 55.71484375 19.6875 C53.20031605 22.69782024 50.4472781 25.47337827 47.67675781 28.24707031 C44.90332705 31.14649269 42.49653116 34.31531007 40.0625 37.5 C38.38311096 39.67310766 36.69649461 41.84021904 35 44 C34.32880127 44.86044922 34.32880127 44.86044922 33.64404297 45.73828125 C32.47586218 47.19733264 31.24266553 48.60384109 30 50 C29.34 50 28.68 50 28 50 C26.27664632 47.97270387 24.66179475 45.93473171 23.0625 43.8125 C19.22021316 38.80850224 15.29127691 33.91676304 11.1875 29.125 C10.27847278 28.04181187 9.36961235 26.95848374 8.4609375 25.875 C7.01515171 24.18595502 5.53358891 22.52458483 3.9765625 20.9375 C-0.5013634 16.0601347 -0.51483979 11.28808362 -0.30737305 4.92626953 C-0.22510765 3.28304434 -0.11539907 1.64123115 0 0 Z " fill="#EEB886" transform="translate(200,234)"/>
<path d="M0 0 C4.95 0 9.9 0 15 0 C15.01458252 1.71920654 15.02916504 3.43841309 15.04418945 5.2097168 C15.09619899 10.94143074 15.1615769 16.67291205 15.23571491 22.40437603 C15.2801139 25.87348213 15.31943318 29.34247899 15.34643555 32.81176758 C15.37784006 36.81620425 15.43261112 40.8200453 15.48828125 44.82421875 C15.49467117 46.04767502 15.5010611 47.27113129 15.50764465 48.53166199 C15.81687951 66.97003603 21.29838605 82.28718523 34.265625 95.4296875 C37.22711175 98.21348505 40.24828009 100.67321128 43.63671875 102.9140625 C44.08660156 103.27242188 44.53648437 103.63078125 45 104 C45 104.66 45 105.32 45 106 C30.52188617 103.43130238 18.82085995 95.67354432 9.890625 83.984375 C3.85257232 74.45323399 -0.13791812 64.26984321 -0.11352539 52.90283203 C-0.11344986 51.72206085 -0.11337433 50.54128967 -0.11329651 49.32473755 C-0.10555458 47.43535965 -0.10555458 47.43535965 -0.09765625 45.5078125 C-0.0962413 44.20673553 -0.09482635 42.90565857 -0.09336853 41.56515503 C-0.08956844 38.12270147 -0.07975983 34.68029075 -0.06866455 31.237854 C-0.05839625 27.71847106 -0.05385934 24.19908113 -0.04882812 20.6796875 C-0.03813509 13.78643906 -0.02055886 6.89322601 0 0 Z " fill="#EFB986" transform="translate(171,117)"/>
<path d="M0 0 C0.66 0 1.32 0 2 0 C2.25394531 1.25296875 2.50789062 2.5059375 2.76953125 3.796875 C3.11664905 5.44802995 3.46433514 7.09906551 3.8125 8.75 C3.97814453 9.575 4.14378906 10.4 4.31445312 11.25 C5.48735721 17.20436613 5.48735721 17.20436613 9 22 C11.09415804 22.79623822 11.09415804 22.79623822 13 23 C13.50780894 25.20655075 14.00591365 27.41533605 14.5 29.625 C14.7784375 30.85476563 15.056875 32.08453125 15.34375 33.3515625 C15.94091621 36.67152228 16.12409534 39.63908451 16 43 C17.32 43.33 18.64 43.66 20 44 C18.865625 44.28875 17.73125 44.5775 16.5625 44.875 C15.386875 45.24625 14.21125 45.6175 13 46 C10.22915697 51.54168606 12.40674865 59.28447701 13.5 65.125 C13.78600516 66.66839723 14.06736063 68.21266432 14.34375 69.7578125 C14.46943359 70.4295752 14.59511719 71.10133789 14.72460938 71.79345703 C15.06358135 74.50943996 15 77.26294588 15 80 C5.76 80 -3.48 80 -13 80 C-12.38863186 72.05221419 -11.77611731 64.81922803 -10.16796875 57.13671875 C-8.65894247 49.57693034 -7.3052553 42.01087315 -6.11328125 34.39453125 C-5.9635788 33.43964813 -5.81387634 32.48476501 -5.65963745 31.50094604 C-5.20802685 28.60518843 -4.75969312 25.70894289 -4.3125 22.8125 C-3.70823909 18.90173858 -3.09957754 14.99169834 -2.48828125 11.08203125 C-2.28517082 9.75266289 -2.28517082 9.75266289 -2.07795715 8.3964386 C-1.11275791 2.22551583 -1.11275791 2.22551583 0 0 Z " fill="#FC6A6A" transform="translate(237,355)"/>
<path d="M0 0 C1.90458772 1.86008801 3.48881752 3.61506216 5.125 5.6875 C5.59365479 6.26113281 6.06230957 6.83476562 6.54516602 7.42578125 C8.04551368 9.27205559 9.52480006 11.13358681 11 13 C11.74950928 13.94286865 11.74950928 13.94286865 12.51416016 14.90478516 C14.88746169 17.8939288 17.24747674 20.89280501 19.58984375 23.90625 C21.13450051 25.88901848 22.70788061 27.84993423 24.31640625 29.78125 C26 32 26 32 26 34 C24.2434082 35.44873047 24.2434082 35.44873047 21.80078125 37.1171875 C20.92099609 37.72433594 20.04121094 38.33148438 19.13476562 38.95703125 C18.20341797 39.58996094 17.27207031 40.22289062 16.3125 40.875 C14.49505459 42.1208813 12.67861804 43.36823579 10.86328125 44.6171875 C10.00943848 45.20209961 9.1555957 45.78701172 8.27587891 46.38964844 C6.47438826 47.66433545 4.74364755 49.03893875 3.04296875 50.4453125 C1 52 1 52 -2 52 C-4.51115347 47.0025257 -7.01960699 42.00370871 -9.52563477 37.00366211 C-10.37744384 35.30505365 -11.22997253 33.60680586 -12.08325195 31.90893555 C-13.31393572 29.45978146 -14.54197321 27.0093157 -15.76953125 24.55859375 C-16.14777542 23.80726669 -16.52601959 23.05593964 -16.91572571 22.28184509 C-23 10.11457252 -23 10.11457252 -23 6 C-20.11255688 4.79133415 -17.21400173 3.61197063 -14.3125 2.4375 C-13.49587891 2.09525391 -12.67925781 1.75300781 -11.83789062 1.40039062 C-3.80474528 -1.81937209 -3.80474528 -1.81937209 0 0 Z " fill="#D4D8E1" transform="translate(192,262)"/>
<path d="M0 0 C5.08587145 0.64874896 9.55113277 2.13086657 14.3125 3.9375 C15.40401367 4.33485352 15.40401367 4.33485352 16.51757812 4.74023438 C21.87647017 6.75294033 21.87647017 6.75294033 23 9 C21.84549478 11.66436039 20.6256252 14.21017108 19.30078125 16.7890625 C18.90932419 17.56631683 18.51786713 18.34357117 18.11454773 19.14437866 C16.85463307 21.64175947 15.58376781 24.13338234 14.3125 26.625 C13.47387733 28.28218183 12.63597782 29.93972983 11.79882812 31.59765625 C10.24448333 34.67369355 8.68579675 37.74744543 7.12231445 40.81884766 C5.06194395 44.86953833 3.02826668 48.93314614 1 53 C-2.47982601 51.72689292 -5.30001531 50.25519006 -8.28515625 48.06640625 C-9.45208008 47.2165918 -9.45208008 47.2165918 -10.64257812 46.34960938 C-11.84043945 45.46499023 -11.84043945 45.46499023 -13.0625 44.5625 C-13.86494141 43.97662109 -14.66738281 43.39074219 -15.49414062 42.78710938 C-19.01337909 40.21412258 -22.51526946 37.61953584 -26 35 C-25.40092169 31.74670925 -24.35820644 29.89335564 -22.2265625 27.3828125 C-21.65373535 26.69952881 -21.0809082 26.01624512 -20.49072266 25.31225586 C-19.87503418 24.59046143 -19.2593457 23.86866699 -18.625 23.125 C-17.35283107 21.60919284 -16.08201787 20.09224692 -14.8125 18.57421875 C-14.17441406 17.81286621 -13.53632813 17.05151367 -12.87890625 16.26708984 C-10.06537681 12.87228289 -7.33771392 9.41307957 -4.625 5.9375 C-4.15529785 5.33631348 -3.6855957 4.73512695 -3.20166016 4.11572266 C-2.13270153 2.74516933 -1.06605272 1.37281483 0 0 Z " fill="#D5D9E2" transform="translate(267,261)"/>
<path d="M0 0 C-0.90621094 0.61746094 -1.81242187 1.23492188 -2.74609375 1.87109375 C-22.4574218 15.48652616 -37.24330997 34.03683566 -42 58 C-42.57007259 63.8193488 -42.75392909 69.65647746 -42.90820312 75.5 C-43.33681426 84.11074953 -43.33681426 84.11074953 -45.38085938 86.8515625 C-47.01953125 88.1796875 -47.01953125 88.1796875 -50 90 C-50.28875 90.7425 -50.5775 91.485 -50.875 92.25 C-51.24625 92.8275 -51.6175 93.405 -52 94 C-53.85986328 94.38964844 -53.85986328 94.38964844 -56.0703125 94.609375 C-57.36710938 94.73828125 -58.66390625 94.8671875 -60 95 C-60.42333961 69.58985402 -60.42333961 69.58985402 -58 59 C-57.76667969 57.90171875 -57.53335938 56.8034375 -57.29296875 55.671875 C-52.57506273 36.45556371 -40.40087687 19.99474639 -24 9 C-4.98947368 -2.49473684 -4.98947368 -2.49473684 0 0 Z " fill="#3C4958" transform="translate(208,19)"/>
<path d="M0 0 C0 0.66 0 1.32 0 2 C-1.29205831 3.05278825 -2.63634717 4.04175747 -4 5 C-11.17936549 10.42967736 -20.68397545 20.09664315 -22.4453125 29.3359375 C-23.36007861 33.72939161 -25.5593195 37.54220115 -27.52734375 41.55078125 C-30.40338029 48.28696233 -31.36748008 54.51507278 -31.3125 61.8125 C-31.30404053 62.99815552 -31.30404053 62.99815552 -31.29541016 64.20776367 C-31.07959379 74.64921567 -27.86481018 82.8165702 -23.3046875 92.15234375 C-22 95 -22 95 -21.51953125 97.046875 C-18.87732271 106.97998981 -9.78256291 116.10367891 -1.5390625 121.73828125 C-1.03117187 122.15464844 -0.52328125 122.57101562 0 123 C0 123.66 0 124.32 0 125 C-16.14589949 120.41116541 -27.08507823 107.02561691 -35 93 C-36.65922918 89.72935804 -37.92895133 86.50525018 -39 83 C-39.44472656 81.56140625 -39.44472656 81.56140625 -39.8984375 80.09375 C-44.88667008 61.60525492 -41.69122813 44.99607043 -32.84765625 28.19140625 C-27.30344417 18.61503994 -12.5272189 0 0 0 Z " fill="#ECB036" transform="translate(350,285)"/>
<path d="M0 0 C0.66 0.33 1.32 0.66 2 1 C1.43152344 1.51046875 0.86304688 2.0209375 0.27734375 2.546875 C-6.04462591 8.49944743 -12.84844691 15.84638815 -14.5 24.671875 C-15 27 -15 27 -16.546875 28.52734375 C-18.20832896 29.92186335 -18.20832896 29.92186335 -18.328125 32.19140625 C-18.28945313 33.36509766 -18.28945313 33.36509766 -18.25 34.5625 C-18.23453125 35.34753906 -18.2190625 36.13257813 -18.203125 36.94140625 C-18.11758859 39.06250961 -18.11758859 39.06250961 -17 41 C-17.05859114 42.41790549 -17.14689394 43.83463502 -17.25 45.25 C-17.31767489 56.97467479 -11.54711439 67.37261237 -4 76 C-2.0739397 77.86128249 -0.15696829 79.39481429 2 81 C3.0129624 81.98686735 4.01599697 82.98425494 5 84 C-1.78027785 82.29103653 -7.32500479 80.10270216 -13 76 C-14.03125 75.2575 -15.0625 74.515 -16.125 73.75 C-23.99707511 66.22018903 -29.37719177 55.61792786 -30.16796875 44.67578125 C-30.27634864 31.56181405 -26.70780393 20.39683701 -17.6953125 10.55859375 C-12.57254734 5.84895481 -6.56246504 2.27677359 0 0 Z " fill="#DF991E" transform="translate(363,306)"/>
<path d="M0 0 C10 1 10 1 12 2 C12 19.16 12 36.32 12 54 C3 58 3 58 0 58 C0 38.86 0 19.72 0 0 Z " fill="#87BEFA" transform="translate(354,428)"/>
<path d="M0 0 C0 25.41 0 50.82 0 77 C-7 75 -7 75 -8 74 C-8.12589974 71.84394159 -8.18084829 69.68372096 -8.20874023 67.52416992 C-8.21852402 66.84769913 -8.2283078 66.17122833 -8.23838806 65.47425842 C-8.26840301 63.22634874 -8.28974476 60.97849883 -8.30859375 58.73046875 C-8.31845149 57.58091422 -8.31845149 57.58091422 -8.32850838 56.40813637 C-8.36112982 52.35112987 -8.38557293 48.29414995 -8.4050293 44.23706055 C-8.42284542 40.87566983 -8.45766409 37.51511761 -8.50756836 34.15405273 C-8.56769361 30.10035445 -8.59849428 26.04743391 -8.60820198 21.99331093 C-8.61677216 20.44747184 -8.63562912 18.90165439 -8.6649456 17.35606956 C-8.70379634 15.19112699 -8.7049059 13.02922111 -8.69702148 10.86401367 C-8.70732895 9.63236984 -8.71763641 8.40072601 -8.72825623 7.13175964 C-8 4 -8 4 -5.08143616 1.57099915 C-2 0 -2 0 0 0 Z " fill="#4D93EB" transform="translate(421,418)"/>
<path d="M0 0 C3.465 1.485 3.465 1.485 7 3 C7 26.43 7 49.86 7 74 C3 76 3 76 0 76 C0 50.92 0 25.84 0 0 Z " fill="#328CEE" transform="translate(332,418)"/>
<path d="M0 0 C2.84904604 1.77324626 5.56464729 3.63568721 8.25390625 5.64453125 C9.22972656 6.36898438 10.20554688 7.0934375 11.2109375 7.83984375 C11.94699219 8.39414062 12.68304688 8.9484375 13.44140625 9.51953125 C12.80910774 13.6294716 11.23449967 16.45778915 8.44140625 19.51953125 C5.11782955 20.47306028 1.94284607 20.44884329 -1.49609375 20.39453125 C-2.39005859 20.43449219 -3.28402344 20.47445313 -4.20507812 20.515625 C-10.54890233 20.50620581 -10.54890233 20.50620581 -13.33642578 17.78222656 C-14.71695011 15.70214121 -15.79900187 13.89906613 -16.55859375 11.51953125 C-15.22364959 7.51469878 -12.62860577 6.03539854 -9.30859375 3.70703125 C-8.73496094 3.27455078 -8.16132813 2.84207031 -7.5703125 2.39648438 C-3.29377229 -0.61852518 -3.29377229 -0.61852518 0 0 Z " fill="#D2373F" transform="translate(230.55859375,306.48046875)"/>
<path d="M0 0 C6.79110651 1.13185109 6.79110651 1.13185109 9.75 3.8125 C10.32234375 4.31394531 10.8946875 4.81539062 11.484375 5.33203125 C15.16098646 9.37819901 15.43741992 13.10495569 15.3125 18.3984375 C14.62902653 24.08835417 12.43857217 27.80629118 8.0625 31.4375 C5 33 5 33 0 34 C0 22.78 0 11.56 0 0 Z " fill="#DEA36C" transform="translate(301,128)"/>
<path d="M0 0 C0 11.22 0 22.44 0 34 C-6.0123844 32.79752312 -9.17667602 30.9192884 -13.375 26.5 C-15.77623105 21.32811774 -15.74032568 16.60642469 -15 11 C-12.46249283 5.18487941 -6.5856124 0 0 0 Z " fill="#DAA06B" transform="translate(156,128)"/>
<path d="M0 0 C5.28 1.32 10.56 2.64 16 4 C15.67 13.24 15.34 22.48 15 32 C11.82874425 28.82874425 8.78034114 25.71597397 5.8125 22.375 C5.13832031 21.61960938 4.46414062 20.86421875 3.76953125 20.0859375 C0.07758371 15.7338404 -0.2572461 12.80188343 -0.125 7.3125 C-0.08375 4.899375 -0.0425 2.48625 0 0 Z " fill="#DDA36C" transform="translate(200,234)"/>
<path d="M0 0 C0.66 0 1.32 0 2 0 C2.391875 0.763125 2.78375 1.52625 3.1875 2.3125 C5.65850019 5.97639684 7.89189515 6.52728317 12 8 C11.69320313 8.56203125 11.38640625 9.1240625 11.0703125 9.703125 C9.97042415 12.06346934 9.39904149 14.20465562 8.875 16.75 C8.70742188 17.54921875 8.53984375 18.3484375 8.3671875 19.171875 C8.24601562 19.77515625 8.12484375 20.3784375 8 21 C7.11248047 20.85691406 7.11248047 20.85691406 6.20703125 20.7109375 C1.55619775 20.05845515 -1.72314374 19.65462721 -6 22 C-6.03738281 21.40832031 -6.07476562 20.81664062 -6.11328125 20.20703125 C-6.51376901 15.39332549 -7.0385035 11.99158223 -10 8 C-9.44570313 7.75765625 -8.89140625 7.5153125 -8.3203125 7.265625 C-7.59585937 6.93046875 -6.87140625 6.5953125 -6.125 6.25 C-5.40570313 5.92515625 -4.68640625 5.6003125 -3.9453125 5.265625 C-1.6629326 3.78070314 -0.99624102 2.49584592 0 0 Z " fill="#F4C255" transform="translate(375,336)"/>
<path d="M0 0 C4.87864583 0.2168287 7.43399432 1.74864188 11 5 C10.38545304 8.99455527 8.29353263 11.74466336 6 15 C3.58654511 14.60723218 2.26954474 14.25776515 0.48046875 12.546875 C-3.01530446 7.68870075 -3.01530446 7.68870075 -2.9375 4.1875 C-2 2 -2 2 0 0 Z " fill="#E95051" transform="translate(233,311)"/>
<path d="M0 0 C0.66 0 1.32 0 2 0 C2.391875 0.763125 2.78375 1.52625 3.1875 2.3125 C5.65850019 5.97639684 7.89189515 6.52728317 12 8 C11.69320313 8.56203125 11.38640625 9.1240625 11.0703125 9.703125 C9.97042415 12.06346934 9.39904149 14.20465562 8.875 16.75 C8.70742188 17.54921875 8.53984375 18.3484375 8.3671875 19.171875 C8.24601562 19.77515625 8.12484375 20.3784375 8 21 C7.34 21 6.68 21 6 21 C5.814375 19.989375 5.62875 18.97875 5.4375 17.9375 C4.09741359 13.07348268 0.68878568 10.24494783 -3 7 C-1.125 2.25 -1.125 2.25 0 0 Z " fill="#F2CB7F" transform="translate(375,336)"/>
<path d="M0 0 C0 0.33 0 0.66 0 1 C-1.87422152 1.48220263 -3.74941754 1.96061833 -5.625 2.4375 C-6.66914063 2.70433594 -7.71328125 2.97117187 -8.7890625 3.24609375 C-11.84891124 3.96452539 -14.8948051 4.51976716 -18 5 C-18 3.35 -18 1.7 -18 0 C-11.84949963 -1.20009763 -6.12189381 -1.48409547 0 0 Z " fill="#F4B73A" transform="translate(384,271)"/>
<path d="M0 0 C3 3 3 3 3.36328125 5.33984375 C3.34652344 6.19707031 3.32976562 7.05429688 3.3125 7.9375 C3.30863281 8.79214844 3.30476563 9.64679688 3.30078125 10.52734375 C2.98780141 13.10028192 2.29573378 14.77505475 1 17 C0.67 17 0.34 17 0 17 C0 11.39 0 5.78 0 0 Z " fill="#E9B483" transform="translate(313,136)"/>
</svg>
