<?xml version="1.0" encoding="utf-8"?>
<!-- Generator: Adobe Illustrator 27.5.0, SVG Export Plug-In . SVG Version: 6.00 Build 0)  -->
<svg version="1.1" id="Ñëîé_1" xmlns="http://www.w3.org/2000/svg" xmlns:xlink="http://www.w3.org/1999/xlink" x="0px" y="0px"
	 viewBox="0 0 400 400" style="enable-background:new 0 0 400 400;" xml:space="preserve">
<rect style="fill:#1994B3;" width="400" height="400"/>
<g>
	<g style="opacity:0.35;">
		<path style="fill:#FFFFFF;" d="M164.18,164.038c-0.654,0-1.205-0.506-1.252-1.168l-0.617-8.769l-8.327,3.774
			c-0.632,0.286-1.377,0.006-1.662-0.626c-0.286-0.632-0.007-1.376,0.625-1.662l9.971-4.52c0.374-0.169,0.808-0.146,1.162,0.065
			c0.353,0.21,0.581,0.581,0.61,0.991l0.744,10.57c0.049,0.692-0.473,1.293-1.165,1.341
			C164.24,164.037,164.21,164.038,164.18,164.038z"/>
	</g>
	<g style="opacity:0.35;">
		<path style="fill:#FFFFFF;" d="M85.228,240.656c-0.236,0-0.475-0.066-0.688-0.206c-0.58-0.38-0.741-1.16-0.361-1.739
			l28.042-42.727c0.242-0.37,0.654-0.584,1.104-0.566c0.442,0.02,0.841,0.269,1.052,0.658l5.005,9.267l16.572-34.257
			c0.199-0.411,0.605-0.682,1.062-0.707c0.456-0.022,0.89,0.199,1.133,0.587l6.195,9.876l13.682-22.168
			c0.364-0.59,1.137-0.774,1.729-0.409c0.59,0.364,0.773,1.138,0.409,1.728l-14.743,23.886c-0.228,0.369-0.63,0.595-1.064,0.596
			c-0.002,0-0.003,0-0.004,0c-0.432,0-0.834-0.223-1.064-0.589l-6.061-9.663l-16.653,34.424c-0.205,0.424-0.631,0.698-1.102,0.709
			c-0.472-0.013-0.91-0.245-1.133-0.659l-5.172-9.575L86.279,240.09C86.038,240.457,85.637,240.656,85.228,240.656z"/>
	</g>
</g>
<g>
	<g style="opacity:0.35;">
		<path style="fill:#FFFFFF;" d="M333.313,184.067c-0.626,0-1.185-0.443-1.307-1.082l-2.685-14.01l-12.66,7.669
			c-0.63,0.379-1.45,0.181-1.83-0.449c-0.381-0.63-0.18-1.449,0.449-1.83l14.298-8.661c0.375-0.226,0.834-0.255,1.232-0.078
			c0.399,0.177,0.685,0.538,0.768,0.967l3.046,15.892c0.138,0.723-0.336,1.421-1.058,1.56
			C333.48,184.059,333.396,184.067,333.313,184.067z"/>
	</g>
	<g style="opacity:0.35;">
		<path style="fill:#FFFFFF;" d="M225.242,302.904c-0.176,0-0.355-0.037-0.525-0.115c-0.63-0.29-0.905-1.036-0.615-1.667
			l24.335-52.808c0.21-0.457,0.662-0.773,1.177-0.729c0.503,0.014,0.949,0.328,1.133,0.796l5.189,13.214l14.672-42.996
			c0.184-0.538,0.71-0.884,1.271-0.848c0.567,0.037,1.038,0.45,1.15,1.006l5.544,27.569l14.329-50.482
			c0.149-0.523,0.617-0.891,1.16-0.913c0.542-0.033,1.039,0.31,1.228,0.819l8.872,23.984L323.6,177.65
			c0.291-0.63,1.037-0.904,1.667-0.613c0.63,0.29,0.904,1.037,0.613,1.667l-20.706,44.832c-0.212,0.46-0.683,0.746-1.189,0.729
			c-0.508-0.02-0.953-0.343-1.129-0.819l-8.586-23.212l-14.694,51.771c-0.159,0.559-0.703,0.938-1.258,0.913
			c-0.58-0.023-1.068-0.439-1.182-1.007l-5.65-28.094l-14.276,41.834c-0.17,0.499-0.634,0.838-1.16,0.851c-0.01,0-0.02,0-0.029,0
			c-0.516,0-0.98-0.316-1.169-0.797l-5.364-13.66l-23.102,50.132C226.172,302.633,225.717,302.904,225.242,302.904z"/>
	</g>
</g>
<defs>
	<filter id="Adobe_OpacityMaskFilter" filterUnits="userSpaceOnUse" x="324.053" y="119.927" width="30.576" height="19.301">
		<feFlood  style="flood-color:white;flood-opacity:1" result="back"/>
		<feBlend  in="SourceGraphic" in2="back" mode="normal"/>
	</filter>
</defs>
<mask maskUnits="userSpaceOnUse" x="324.053" y="119.927" width="30.576" height="19.301" id="SVGID_1_">
	<g style="filter:url(#Adobe_OpacityMaskFilter);">
		<defs>
			
				<filter id="Adobe_OpacityMaskFilter_00000104675464988579004140000007150429404276850062_" filterUnits="userSpaceOnUse" x="324.053" y="119.927" width="30.576" height="19.301">
				<feFlood  style="flood-color:white;flood-opacity:1" result="back"/>
				<feBlend  in="SourceGraphic" in2="back" mode="normal"/>
			</filter>
		</defs>
		<mask maskUnits="userSpaceOnUse" x="324.053" y="119.927" width="30.576" height="19.301" id="SVGID_1_">
			<g style="filter:url(#Adobe_OpacityMaskFilter_00000104675464988579004140000007150429404276850062_);">
			</g>
		</mask>
		
			<linearGradient id="SVGID_00000036248457310704271280000000675673569917532805_" gradientUnits="userSpaceOnUse" x1="335.359" y1="141.3574" x2="366.2212" y2="141.3574" gradientTransform="matrix(0.9977 -0.0676 0.0676 0.9977 -20.5006 11.7456)">
			<stop  offset="0.0615" style="stop-color:#FFFFFF"/>
			<stop  offset="0.4255" style="stop-color:#A3A3A3"/>
			<stop  offset="1" style="stop-color:#000000"/>
		</linearGradient>
		<path style="mask:url(#SVGID_1_);fill:url(#SVGID_00000036248457310704271280000000675673569917532805_);" d="M327.876,139.229
			l21.005-1.831c5.205-0.454,7.703-6.876,3.942-10.503c-1.133-1.092-2.669-1.814-4.753-1.798c-5.428,0.042-6.682,4.913-6.682,4.913
			s-0.607-12.557-8.38-9.644c-7.965,2.985-1.999,11.754-1.999,11.754s-7.244,1.464-6.946,4.158
			C324.36,138.973,327.876,139.229,327.876,139.229z"/>
	</g>
</mask>
<linearGradient id="SVGID_00000128448029843031980590000011837466155873290668_" gradientUnits="userSpaceOnUse" x1="335.359" y1="141.3574" x2="366.2212" y2="141.3574" gradientTransform="matrix(0.9977 -0.0676 0.0676 0.9977 -20.5006 11.7456)">
	<stop  offset="0.0615" style="stop-color:#FFFFFF"/>
	<stop  offset="0.4255" style="stop-color:#FFFFFF"/>
	<stop  offset="1" style="stop-color:#FFFFFF"/>
</linearGradient>
<path style="opacity:0.31;fill:url(#SVGID_00000128448029843031980590000011837466155873290668_);" d="M327.876,139.229
	l21.005-1.831c5.205-0.454,7.703-6.876,3.942-10.503c-1.133-1.092-2.669-1.814-4.753-1.798c-5.428,0.042-6.682,4.913-6.682,4.913
	s-0.607-12.557-8.38-9.644c-7.965,2.985-1.999,11.754-1.999,11.754s-7.244,1.464-6.946,4.158
	C324.36,138.973,327.876,139.229,327.876,139.229z"/>
<defs>
	
		<filter id="Adobe_OpacityMaskFilter_00000150089076251400876710000005099893875607152527_" filterUnits="userSpaceOnUse" x="132.98" y="67.282" width="24.116" height="15.223">
		<feFlood  style="flood-color:white;flood-opacity:1" result="back"/>
		<feBlend  in="SourceGraphic" in2="back" mode="normal"/>
	</filter>
</defs>
<mask maskUnits="userSpaceOnUse" x="132.98" y="67.282" width="24.116" height="15.223" id="SVGID_00000021084705863721641090000000578147352551869082_">
	<g style="filter:url(#Adobe_OpacityMaskFilter_00000150089076251400876710000005099893875607152527_);">
		<defs>
			
				<filter id="Adobe_OpacityMaskFilter_00000005252646237997136480000001882985513798043798_" filterUnits="userSpaceOnUse" x="132.98" y="67.282" width="24.116" height="15.223">
				<feFlood  style="flood-color:white;flood-opacity:1" result="back"/>
				<feBlend  in="SourceGraphic" in2="back" mode="normal"/>
			</filter>
		</defs>
		
			<mask maskUnits="userSpaceOnUse" x="132.98" y="67.282" width="24.116" height="15.223" id="SVGID_00000021084705863721641090000000578147352551869082_">
			<g style="filter:url(#Adobe_OpacityMaskFilter_00000005252646237997136480000001882985513798043798_);">
			</g>
		</mask>
		
			<linearGradient id="SVGID_00000132066072179348775980000010071991568686730922_" gradientUnits="userSpaceOnUse" x1="148.511" y1="73.7751" x2="172.8528" y2="73.7751" gradientTransform="matrix(0.9977 -0.0676 0.0676 0.9977 -20.5006 11.7456)">
			<stop  offset="0.0615" style="stop-color:#FFFFFF"/>
			<stop  offset="0.4255" style="stop-color:#A3A3A3"/>
			<stop  offset="1" style="stop-color:#000000"/>
		</linearGradient>
		
			<path style="mask:url(#SVGID_00000021084705863721641090000000578147352551869082_);fill:url(#SVGID_00000132066072179348775980000010071991568686730922_);" d="
			M135.995,82.506l16.567-1.444c4.106-0.358,6.075-5.423,3.109-8.284c-0.893-0.861-2.105-1.431-3.749-1.418
			c-4.281,0.033-5.27,3.875-5.27,3.875s-0.479-9.904-6.61-7.607c-6.282,2.355-1.577,9.271-1.577,9.271s-5.714,1.154-5.478,3.28
			C133.222,82.304,135.995,82.506,135.995,82.506z"/>
	</g>
</mask>
<linearGradient id="SVGID_00000078042678814887782020000000886781114378838438_" gradientUnits="userSpaceOnUse" x1="148.511" y1="73.7751" x2="172.8528" y2="73.7751" gradientTransform="matrix(0.9977 -0.0676 0.0676 0.9977 -20.5006 11.7456)">
	<stop  offset="0.0615" style="stop-color:#FFFFFF"/>
	<stop  offset="0.4255" style="stop-color:#FFFFFF"/>
	<stop  offset="1" style="stop-color:#FFFFFF"/>
</linearGradient>
<path style="opacity:0.31;fill:url(#SVGID_00000078042678814887782020000000886781114378838438_);" d="M135.995,82.506l16.567-1.444
	c4.106-0.358,6.075-5.423,3.109-8.284c-0.893-0.861-2.105-1.431-3.749-1.418c-4.281,0.033-5.27,3.875-5.27,3.875
	s-0.479-9.904-6.61-7.607c-6.282,2.355-1.577,9.271-1.577,9.271s-5.714,1.154-5.478,3.28
	C133.222,82.304,135.995,82.506,135.995,82.506z"/>
<defs>
	
		<filter id="Adobe_OpacityMaskFilter_00000121277178952331457750000006222427828010783126_" filterUnits="userSpaceOnUse" x="66.286" y="160.85" width="71.478" height="43.403">
		<feFlood  style="flood-color:white;flood-opacity:1" result="back"/>
		<feBlend  in="SourceGraphic" in2="back" mode="normal"/>
	</filter>
</defs>
<mask maskUnits="userSpaceOnUse" x="66.286" y="160.85" width="71.478" height="43.403" id="SVGID_00000114760646892352433550000003932215328364513182_">
	<g style="filter:url(#Adobe_OpacityMaskFilter_00000121277178952331457750000006222427828010783126_);">
		<defs>
			
				<filter id="Adobe_OpacityMaskFilter_00000058554434546925373690000001854949356726539168_" filterUnits="userSpaceOnUse" x="66.286" y="160.85" width="71.478" height="43.403">
				<feFlood  style="flood-color:white;flood-opacity:1" result="back"/>
				<feBlend  in="SourceGraphic" in2="back" mode="normal"/>
			</filter>
		</defs>
		
			<mask maskUnits="userSpaceOnUse" x="66.286" y="160.85" width="71.478" height="43.403" id="SVGID_00000114760646892352433550000003932215328364513182_">
			<g style="filter:url(#Adobe_OpacityMaskFilter_00000058554434546925373690000001854949356726539168_);">
			</g>
		</mask>
		
			<linearGradient id="SVGID_00000131351180557593006080000012690709048194060162_" gradientUnits="userSpaceOnUse" x1="68.6682" y1="170.827" x2="139.3913" y2="170.827" gradientTransform="matrix(0.9911 0.1331 -0.1092 0.8134 18.452 30.7346)">
			<stop  offset="0.0615" style="stop-color:#FFFFFF"/>
			<stop  offset="0.4255" style="stop-color:#A3A3A3"/>
			<stop  offset="1" style="stop-color:#000000"/>
		</linearGradient>
		
			<path style="mask:url(#SVGID_00000114760646892352433550000003932215328364513182_);fill:url(#SVGID_00000131351180557593006080000012690709048194060162_);" d="
			M72.12,201.56l54.748,2.693c0,0,11.582-7.045,10.864-16.172c-0.718-9.127-17.375-3.813-18.965-2.546
			c-1.591,1.267,2.987-22.236-18.899-24.561c-21.887-2.325-13.273,28.911-16.677,28.83c-3.405-0.081-9.62-5.988-14.06-4.048
			C64.689,187.697,65.275,196.688,72.12,201.56z"/>
	</g>
</mask>
<linearGradient id="SVGID_00000147215380161394286490000010116695053732535723_" gradientUnits="userSpaceOnUse" x1="68.6682" y1="170.827" x2="139.3913" y2="170.827" gradientTransform="matrix(0.9911 0.1331 -0.1092 0.8134 18.452 30.7346)">
	<stop  offset="0.0615" style="stop-color:#FFFFFF"/>
	<stop  offset="0.4255" style="stop-color:#FFFFFF"/>
	<stop  offset="1" style="stop-color:#FFFFFF"/>
</linearGradient>
<path style="opacity:0.31;fill:url(#SVGID_00000147215380161394286490000010116695053732535723_);" d="M72.12,201.56l54.748,2.693
	c0,0,11.582-7.045,10.864-16.172c-0.718-9.127-17.375-3.813-18.965-2.546c-1.591,1.267,2.987-22.236-18.899-24.561
	c-21.887-2.325-13.273,28.911-16.677,28.83c-3.405-0.081-9.62-5.988-14.06-4.048C64.689,187.697,65.275,196.688,72.12,201.56z"/>
<defs>
	
		<filter id="Adobe_OpacityMaskFilter_00000036964525702401670240000010458880392777006982_" filterUnits="userSpaceOnUse" x="282.548" y="237.17" width="63.926" height="32.191">
		<feFlood  style="flood-color:white;flood-opacity:1" result="back"/>
		<feBlend  in="SourceGraphic" in2="back" mode="normal"/>
	</filter>
</defs>
<mask maskUnits="userSpaceOnUse" x="282.548" y="237.17" width="63.926" height="32.191" id="SVGID_00000070094674604051675510000009846932784899698070_">
	<g style="filter:url(#Adobe_OpacityMaskFilter_00000036964525702401670240000010458880392777006982_);">
		<defs>
			
				<filter id="Adobe_OpacityMaskFilter_00000124153893233980668900000007780428393796861868_" filterUnits="userSpaceOnUse" x="282.548" y="237.17" width="63.926" height="32.191">
				<feFlood  style="flood-color:white;flood-opacity:1" result="back"/>
				<feBlend  in="SourceGraphic" in2="back" mode="normal"/>
			</filter>
		</defs>
		
			<mask maskUnits="userSpaceOnUse" x="282.548" y="237.17" width="63.926" height="32.191" id="SVGID_00000070094674604051675510000009846932784899698070_">
			<g style="filter:url(#Adobe_OpacityMaskFilter_00000124153893233980668900000007780428393796861868_);">
			</g>
		</mask>
		
			<linearGradient id="SVGID_00000182487041092796346100000017678868410516334512_" gradientUnits="userSpaceOnUse" x1="279.6012" y1="260.0419" x2="343.4462" y2="260.0419" gradientTransform="matrix(0.9999 0.0141 -0.0141 0.9999 6.7747 -10.9143)">
			<stop  offset="0.0615" style="stop-color:#FFFFFF"/>
			<stop  offset="0.4255" style="stop-color:#A3A3A3"/>
			<stop  offset="1" style="stop-color:#000000"/>
		</linearGradient>
		
			<path style="mask:url(#SVGID_00000070094674604051675510000009846932784899698070_);fill:url(#SVGID_00000182487041092796346100000017678868410516334512_);" d="
			M287.161,269.361l53.419-2.845c0,0,8.846-6.656,4.864-12.687c-5.912-8.953-21.176-0.7-22.568,0.424
			c-1.392,1.124,0.343-20.162-17.023-16.702c-18.311,3.648-8.228,24.833-9.355,21.71c-1.723-4.775-5.967-5.673-10.043-3.771
			C282.378,257.392,279.942,266.204,287.161,269.361z"/>
	</g>
</mask>
<linearGradient id="SVGID_00000148635963116669078100000011782950772998898322_" gradientUnits="userSpaceOnUse" x1="279.6012" y1="260.0419" x2="343.4462" y2="260.0419" gradientTransform="matrix(0.9999 0.0141 -0.0141 0.9999 6.7747 -10.9143)">
	<stop  offset="0.0615" style="stop-color:#FFFFFF"/>
	<stop  offset="0.4255" style="stop-color:#FFFFFF"/>
	<stop  offset="1" style="stop-color:#FFFFFF"/>
</linearGradient>
<path style="opacity:0.31;fill:url(#SVGID_00000148635963116669078100000011782950772998898322_);" d="M287.161,269.361
	l53.419-2.845c0,0,8.846-6.656,4.864-12.687c-5.912-8.953-21.176-0.7-22.568,0.424c-1.392,1.124,0.343-20.162-17.023-16.702
	c-18.311,3.648-8.228,24.833-9.355,21.71c-1.723-4.775-5.967-5.673-10.043-3.771C282.378,257.392,279.942,266.204,287.161,269.361z"
	/>
<g>
	<path style="fill:#C5FFF4;" d="M104.652,97.439c0,0,7.429-2.271,11.787-6.888c4.959-5.254,4.722-8.575,4.722-8.575l14.747,7.071
		c0,0-0.004,2.716-3.948,8.694c-4.133,6.264-8.708,8.511-11.586,9.628c-0.743,0.288-1.184,0.426-1.184,0.426L104.652,97.439z"/>
	<g>
		<path style="fill:#004E15;" d="M121.466,103.725l-10.241-6.593L121.466,103.725z"/>
		<g>
			
				<rect x="116.015" y="94.338" transform="matrix(0.5413 -0.8408 0.8408 0.5413 -31.0766 143.8899)" style="fill:#FFFFFF;" width="0.66" height="12.18"/>
		</g>
	</g>
	<g>
		<path style="fill:#004E15;" d="M124.527,101.613l-10.105-6.438L124.527,101.613z"/>
		<g>
			<polygon style="fill:#FFFFFF;" points="124.349,101.892 114.244,95.454 114.6,94.897 124.705,101.334 			"/>
		</g>
	</g>
	<g>
		<path style="fill:#004E15;" d="M127.209,98.903l-9.779-5.887L127.209,98.903z"/>
		<g>
			
				<rect x="121.989" y="90.253" transform="matrix(0.5157 -0.8567 0.8567 0.5157 -22.978 151.2662)" style="fill:#FFFFFF;" width="0.661" height="11.413"/>
		</g>
	</g>
	<g>
		<path style="fill:#004E15;" d="M129.665,95.824l-9.231-5.346L129.665,95.824z"/>
		<g>
			
				<rect x="124.719" y="87.818" transform="matrix(0.5011 -0.8654 0.8654 0.5011 -18.2259 154.6878)" style="fill:#FFFFFF;" width="0.661" height="10.668"/>
		</g>
	</g>
	<g>
		<path style="fill:#004E15;" d="M132.134,92.203l-9.607-4.586L132.134,92.203z"/>
		<g>
			
				<rect x="126.999" y="84.586" transform="matrix(0.4307 -0.9025 0.9025 0.4307 -8.658 166.0925)" style="fill:#FFFFFF;" width="0.661" height="10.646"/>
		</g>
	</g>
</g>
<g>
	<path style="fill:#C5FFF4;" d="M110.249,141.395c0,0,7.767-0.114,13.238-3.336c6.225-3.666,6.922-6.922,6.922-6.922l12.197,10.895
		c0,0-0.76,2.608-6.211,7.252c-5.712,4.867-10.733,5.751-13.807,6.023c-0.794,0.07-1.256,0.08-1.256,0.08L110.249,141.395z"/>
	<g>
		<path style="fill:#004E15;" d="M124.649,152.111l-8.002-9.183L124.649,152.111z"/>
		<g>
			
				<rect x="120.318" y="141.43" transform="matrix(0.7539 -0.657 0.657 0.7539 -67.2267 115.5645)" style="fill:#FFFFFF;" width="0.66" height="12.18"/>
		</g>
	</g>
	<g>
		<path style="fill:#004E15;" d="M128.177,150.934l-7.914-8.995L128.177,150.934z"/>
		<g>
			<polygon style="fill:#FFFFFF;" points="127.928,151.153 120.014,142.158 120.512,141.721 128.426,150.716 			"/>
		</g>
	</g>
	<g>
		<path style="fill:#004E15;" d="M131.507,149.077l-7.754-8.375L131.507,149.077z"/>
		<g>
			
				<rect x="127.3" y="139.183" transform="matrix(0.7338 -0.6794 0.6794 0.7338 -64.4587 125.2847)" style="fill:#FFFFFF;" width="0.661" height="11.413"/>
		</g>
	</g>
	<g>
		<path style="fill:#004E15;" d="M134.723,146.804l-7.379-7.704L134.723,146.804z"/>
		<g>
			
				<rect x="130.703" y="137.619" transform="matrix(0.7221 -0.6918 0.6918 0.7221 -62.4782 130.3655)" style="fill:#FFFFFF;" width="0.661" height="10.668"/>
		</g>
	</g>
	<g>
		<path style="fill:#004E15;" d="M138.102,144.013l-7.951-7.078L138.102,144.013z"/>
		<g>
			
				<rect x="133.796" y="135.15" transform="matrix(0.6649 -0.747 0.747 0.6649 -59.978 147.2633)" style="fill:#FFFFFF;" width="0.661" height="10.646"/>
		</g>
	</g>
</g>
<g>
	<path style="fill:#C5FFF4;" d="M88.466,114.26c0,0,2.684,7.29,7.538,11.382c5.523,4.657,8.826,4.234,8.826,4.234l-6.233,15.12
		c0,0-2.712,0.148-8.902-3.454c-6.486-3.775-8.986-8.217-10.262-11.028c-0.33-0.726-0.492-1.159-0.492-1.159L88.466,114.26z"/>
	<g>
		<path style="fill:#004E15;" d="M83.133,131.399l6.009-10.595L83.133,131.399z"/>
		<g>
			
				<rect x="80.047" y="125.772" transform="matrix(0.4933 -0.8698 0.8698 0.4933 -66.0456 138.8194)" style="fill:#FFFFFF;" width="12.18" height="0.66"/>
		</g>
	</g>
	<g>
		<path style="fill:#004E15;" d="M85.413,134.337l5.861-10.45L85.413,134.337z"/>
		<g>
			<polygon style="fill:#FFFFFF;" points="85.125,134.175 90.985,123.725 91.562,124.05 85.701,134.5 			"/>
		</g>
	</g>
	<g>
		<path style="fill:#004E15;" d="M88.269,136.863l5.329-10.093L88.269,136.863z"/>
		<g>
			
				<rect x="85.228" y="131.486" transform="matrix(0.4669 -0.8843 0.8843 0.4669 -68.089 150.689)" style="fill:#FFFFFF;" width="11.413" height="0.661"/>
		</g>
	</g>
	<g>
		<path style="fill:#004E15;" d="M91.48,139.142l4.82-9.516L91.48,139.142z"/>
		<g>
			
				<rect x="88.557" y="134.054" transform="matrix(0.4518 -0.8921 0.8921 0.4518 -68.4157 157.4328)" style="fill:#FFFFFF;" width="10.668" height="0.661"/>
		</g>
	</g>
	<g>
		<path style="fill:#004E15;" d="M95.235,141.404l4.04-9.849L95.235,141.404z"/>
		<g>
			
				<rect x="91.932" y="136.149" transform="matrix(0.3795 -0.9252 0.9252 0.3795 -65.9217 174.6703)" style="fill:#FFFFFF;" width="10.646" height="0.661"/>
		</g>
	</g>
</g>
<defs>
	
		<filter id="Adobe_OpacityMaskFilter_00000001624524870244686530000011670833553827011257_" filterUnits="userSpaceOnUse" x="102.957" y="342.515" width="1.459" height="2.667">
		<feFlood  style="flood-color:white;flood-opacity:1" result="back"/>
		<feBlend  in="SourceGraphic" in2="back" mode="normal"/>
	</filter>
</defs>
<mask maskUnits="userSpaceOnUse" x="102.957" y="342.515" width="1.459" height="2.667" id="SVGID_00000068644057164682629440000011590279372513866915_">
	<g style="filter:url(#Adobe_OpacityMaskFilter_00000001624524870244686530000011670833553827011257_);">
		<defs>
			
				<filter id="Adobe_OpacityMaskFilter_00000065790208472369267760000010469744718116124805_" filterUnits="userSpaceOnUse" x="102.957" y="342.515" width="1.459" height="2.667">
				<feFlood  style="flood-color:white;flood-opacity:1" result="back"/>
				<feBlend  in="SourceGraphic" in2="back" mode="normal"/>
			</filter>
		</defs>
		
			<mask maskUnits="userSpaceOnUse" x="102.957" y="342.515" width="1.459" height="2.667" id="SVGID_00000068644057164682629440000011590279372513866915_">
			<g style="filter:url(#Adobe_OpacityMaskFilter_00000065790208472369267760000010469744718116124805_);">
			</g>
		</mask>
		
			<linearGradient id="SVGID_00000053529519822453954440000000082793965676732039_" gradientUnits="userSpaceOnUse" x1="103.1012" y1="344.1265" x2="104.503" y2="342.9616">
			<stop  offset="0.0615" style="stop-color:#FFFFFF"/>
			<stop  offset="0.4255" style="stop-color:#A3A3A3"/>
			<stop  offset="1" style="stop-color:#000000"/>
		</linearGradient>
		
			<path style="mask:url(#SVGID_00000068644057164682629440000011590279372513866915_);fill:url(#SVGID_00000053529519822453954440000000082793965676732039_);" d="
			M103.915,345.182c-0.301-0.898-0.619-1.787-0.958-2.667c0.479,0.282,0.965,0.552,1.459,0.811
			C104.235,343.939,104.067,344.557,103.915,345.182z"/>
	</g>
</mask>
<linearGradient id="SVGID_00000046332770304979159680000002884628202061457315_" gradientUnits="userSpaceOnUse" x1="103.1012" y1="344.1265" x2="104.503" y2="342.9616">
	<stop  offset="0.0615" style="stop-color:#FFFFFF"/>
	<stop  offset="0.4255" style="stop-color:#FFFFFF"/>
	<stop  offset="1" style="stop-color:#FFFFFF"/>
</linearGradient>
<path style="fill:url(#SVGID_00000046332770304979159680000002884628202061457315_);" d="M103.915,345.182
	c-0.301-0.898-0.619-1.787-0.958-2.667c0.479,0.282,0.965,0.552,1.459,0.811C104.235,343.939,104.067,344.557,103.915,345.182z"/>
<g>
	<g>
		<defs>
			
				<filter id="Adobe_OpacityMaskFilter_00000096044908823929225360000004671139603299598769_" filterUnits="userSpaceOnUse" x="0.177" y="208.37" width="299.384" height="191.63">
				<feFlood  style="flood-color:white;flood-opacity:1" result="back"/>
				<feBlend  in="SourceGraphic" in2="back" mode="normal"/>
			</filter>
		</defs>
		
			<mask maskUnits="userSpaceOnUse" x="0.177" y="208.37" width="299.384" height="191.63" id="SVGID_00000124124192282174836640000002329208289698172034_">
			<g style="filter:url(#Adobe_OpacityMaskFilter_00000096044908823929225360000004671139603299598769_);">
				<defs>
					
						<filter id="Adobe_OpacityMaskFilter_00000145771649174824601730000010750452629696515483_" filterUnits="userSpaceOnUse" x="0.177" y="208.37" width="299.384" height="191.63">
						<feFlood  style="flood-color:white;flood-opacity:1" result="back"/>
						<feBlend  in="SourceGraphic" in2="back" mode="normal"/>
					</filter>
				</defs>
				
					<mask maskUnits="userSpaceOnUse" x="0.177" y="208.37" width="299.384" height="191.63" id="SVGID_00000124124192282174836640000002329208289698172034_">
					<g style="filter:url(#Adobe_OpacityMaskFilter_00000145771649174824601730000010750452629696515483_);">
					</g>
				</mask>
				
					<linearGradient id="SVGID_00000096033350699187808000000003903072918481674431_" gradientUnits="userSpaceOnUse" x1="15.6943" y1="418.6723" x2="262.4848" y2="213.5878">
					<stop  offset="0.0615" style="stop-color:#FFFFFF"/>
					<stop  offset="0.4255" style="stop-color:#A3A3A3"/>
					<stop  offset="1" style="stop-color:#000000"/>
				</linearGradient>
				
					<path style="mask:url(#SVGID_00000124124192282174836640000002329208289698172034_);fill:url(#SVGID_00000096033350699187808000000003903072918481674431_);" d="
					M299.543,391.742c-0.312-5.605-4.745-10.311-10.326-10.923c-5.869-0.643-10.973,3.074-12.505,8.317
					c-5.15-2.675-10.995-4.196-17.2-4.196c-0.795,0-1.581,0.033-2.364,0.082c0-0.028,0.004-0.055,0.004-0.082
					c0-11.773-9.544-21.317-21.317-21.317c-2.693,0-5.258,0.52-7.63,1.431c0.058-0.47,0.097-0.945,0.097-1.431
					c0-6.598-5.479-11.916-12.135-11.652c-6.124,0.242-11.127,5.404-11.188,11.532c-0.049,4.85,2.865,9.021,7.041,10.826
					c-0.085-0.001-0.167-0.013-0.252-0.013c-3.32,0-6.422,0.91-9.096,2.471c-0.687-4.866-2.875-9.561-6.618-13.304
					c-3.131-3.131-6.932-5.166-10.938-6.158c0.043-0.774,0.07-1.552,0.07-2.336c0-10.807-4.16-20.637-10.965-27.985
					c-12.393-13.382-16.039-32.805-8.972-49.619c0.06-0.142,0.12-0.284,0.18-0.426c9.652-22.586,30.91-46.377,35.435-52.456
					c0.558-0.749,0.482-1.83-0.228-2.437c-0.856-0.731-2.017-0.47-2.657,0.374c-4.012,5.288-21.327,25.632-45.3,41.646
					c-7.963,5.319-19.553,7.25-30.612,7.648c-13.342,0.48-26.238-4.12-36.918-12.132c-6.435-4.827-14.425-7.689-23.091-7.689
					c-3.395,0-6.686,0.442-9.823,1.266c0.094-0.83,0.146-1.672,0.146-2.527c0-10.791-7.662-19.792-17.842-21.86
					c0.104-0.783,0.176-1.575,0.176-2.386c0-10.638-9.212-19.125-20.094-17.919c-6.448,0.715-11.909,4.946-14.445,10.687V400H159.54
					c0.442-2.026,0.741-4.106,0.873-6.231c0.732,1.016,1.529,1.999,2.442,2.913c1.298,1.298,2.719,2.388,4.212,3.318h24.741
					c0.954-0.593,1.886-1.237,2.766-1.98c0.222,0.681,0.496,1.337,0.794,1.98h101.363
					C298.625,397.807,299.72,394.907,299.543,391.742z"/>
			</g>
		</mask>
		
			<linearGradient id="SVGID_00000121255288657641127190000012654078118670368168_" gradientUnits="userSpaceOnUse" x1="15.6943" y1="418.6723" x2="262.4848" y2="213.5878">
			<stop  offset="0.0615" style="stop-color:#FFFFFF"/>
			<stop  offset="0.4255" style="stop-color:#FFFFFF"/>
			<stop  offset="1" style="stop-color:#FFFFFF"/>
		</linearGradient>
		<path style="fill:url(#SVGID_00000121255288657641127190000012654078118670368168_);" d="M299.543,391.742
			c-0.312-5.605-4.745-10.311-10.326-10.923c-5.869-0.643-10.973,3.074-12.505,8.317c-5.15-2.675-10.995-4.196-17.2-4.196
			c-0.795,0-1.581,0.033-2.364,0.082c0-0.028,0.004-0.055,0.004-0.082c0-11.773-9.544-21.317-21.317-21.317
			c-2.693,0-5.258,0.52-7.63,1.431c0.058-0.47,0.097-0.945,0.097-1.431c0-6.598-5.479-11.916-12.135-11.652
			c-6.124,0.242-11.127,5.404-11.188,11.532c-0.049,4.85,2.865,9.021,7.041,10.826c-0.085-0.001-0.167-0.013-0.252-0.013
			c-3.32,0-6.422,0.91-9.096,2.471c-0.687-4.866-2.875-9.561-6.618-13.304c-3.131-3.131-6.932-5.166-10.938-6.158
			c0.043-0.774,0.07-1.552,0.07-2.336c0-10.807-4.16-20.637-10.965-27.985c-12.393-13.382-16.039-32.805-8.972-49.619
			c0.06-0.142,0.12-0.284,0.18-0.426c9.652-22.586,30.91-46.377,35.435-52.456c0.558-0.749,0.482-1.83-0.228-2.437
			c-0.856-0.731-2.017-0.47-2.657,0.374c-4.012,5.288-21.327,25.632-45.3,41.646c-7.963,5.319-19.553,7.25-30.612,7.648
			c-13.342,0.48-26.238-4.12-36.918-12.132c-6.435-4.827-14.425-7.689-23.091-7.689c-3.395,0-6.686,0.442-9.823,1.266
			c0.094-0.83,0.146-1.672,0.146-2.527c0-10.791-7.662-19.792-17.842-21.86c0.104-0.783,0.176-1.575,0.176-2.386
			c0-10.638-9.212-19.125-20.094-17.919c-6.448,0.715-11.909,4.946-14.445,10.687V400H159.54c0.442-2.026,0.741-4.106,0.873-6.231
			c0.732,1.016,1.529,1.999,2.442,2.913c1.298,1.298,2.719,2.388,4.212,3.318h24.741c0.954-0.593,1.886-1.237,2.766-1.98
			c0.222,0.681,0.496,1.337,0.794,1.98h101.363C298.625,397.807,299.72,394.907,299.543,391.742z"/>
	</g>
	<circle style="fill:#FFFFFF;" cx="17.267" cy="197.357" r="6.206"/>
	<circle style="fill:#FFFFFF;" cx="62.06" cy="241.928" r="6.206"/>
	
		<ellipse transform="matrix(0.9871 -0.1602 0.1602 0.9871 -43.0828 14.1991)" style="fill:#FFFFFF;" cx="66.53" cy="274.323" rx="9.729" ry="9.729"/>
	<g>
		<path style="fill:#FFFFFF;" d="M235.132,400c0.048-0.444,0.077-0.894,0.077-1.351c0-6.817-5.526-12.343-12.343-12.343
			c-4.033,0-7.603,1.943-9.855,4.934c-0.577-0.82-1.216-1.61-1.949-2.344c-5.625-5.625-14.102-6.652-20.774-3.091
			c0.352-1.762,0.539-3.584,0.539-5.449c0-15.297-12.401-27.697-27.697-27.697c-0.154,0-0.305,0.009-0.458,0.011
			c2.936-1.329,4.981-4.278,4.981-7.71c0-4.676-3.791-8.467-8.467-8.467s-8.467,3.791-8.467,8.467c0,4.079,2.884,7.482,6.724,8.286
			c-8,1.67-14.731,6.792-18.569,13.737c-0.405-0.231-0.823-0.44-1.247-0.639c0.373-1.346,0.588-2.757,0.588-4.221
			c0-4.586-1.965-8.702-5.086-11.589c11.607-4.638,19.812-15.977,19.812-29.239c0-4.107-0.795-8.026-2.226-11.622l0.004-0.004
			c-2.452-14.195,1.943-26.657,14.483-43.321c18.834-25.027,25.626-33.428,25.626-33.428s-19.532,20.906-35.637,33.428
			c-16.105,12.522-30.865,13.826-30.865,13.826l0.001,0.004c-5.856,0.696-10.833,4.251-13.491,9.237
			c-2.996-5.732-8.988-9.649-15.904-9.649c-6.758,0-12.638,3.74-15.699,9.259c-1.577-0.989-3.436-1.57-5.435-1.57
			c-4.932,0-9.048,3.482-10.031,8.122c-0.37,0.025-0.74,0.05-1.107,0.084c0.001-0.063,0.009-0.124,0.009-0.187
			c0-9.757-7.909-17.666-17.666-17.666c-3.51,0-6.772,1.036-9.521,2.801c-0.92-6.285-4.35-11.752-9.24-15.355
			c2.8-3.126,4.517-7.242,4.517-11.768c0-9.757-7.91-17.666-17.666-17.666c-4.995,0-9.497,2.082-12.71,5.414L0.177,400H235.132z"/>
	</g>
</g>
<g>
	<g>
		<g>
			<g>
				<path style="fill:#00898D;" d="M202.366,209.049l5.134,6.148l6.932,3.904c1.446,0.814,1.923,2.66,1.023,3.957l-15.558,22.435
					c0,0-6.679-6.854-9.525-9.221c-2.846-2.368-11.166-7.998-11.166-7.998l19.154-19.5
					C199.45,207.665,201.318,207.793,202.366,209.049z"/>
				<path style="fill:#FF3C00;" d="M228.677,189.61c-0.749,13.947-12.834,32.585-12.834,32.585l0,0
					c-6.733-3.012-12.546-7.85-16.74-13.931l0,0C199.104,208.264,215.751,192.516,228.677,189.61z"/>
			</g>
			<path style="fill:#004345;" d="M215.842,222.194c0,0,2.986-4.288-1.468,2.421c-12.111,18.244-14.477,20.877-14.477,20.877
				s-4.653-5.588-9.525-9.222c0,0,6.27-7.402,15.304-18.087c0.411-0.486,0.822-0.987,1.231-1.493
				C209.626,218.897,212.628,220.755,215.842,222.194z"/>
			<path style="fill:#DD2400;" d="M206.907,216.69c8.571-10.582,16.692-25.072,17.342-25.667c1.503-0.602,2.988-1.092,4.427-1.415
				c-0.006,0.117-0.02,0.238-0.028,0.356c-0.136,1.492-0.897,7.642-4.64,16.731c-3.676,8.568-8.166,15.499-8.166,15.499
				C212.628,220.755,209.626,218.897,206.907,216.69z"/>
			<path style="fill:#004345;" d="M179.207,228.273c-0.464,0.561,3.792,4.87,9.505,9.625c5.714,4.755,10.722,8.155,11.186,7.594
				c0.464-0.561-3.792-4.87-9.505-9.625C184.679,231.113,179.671,227.712,179.207,228.273z"/>
		</g>
		
			<rect x="234.034" y="149.977" transform="matrix(-0.7658 -0.643 0.643 -0.7658 323.5058 458.0729)" style="fill:#FF3C00;" width="22.244" height="40.314"/>
		<path style="fill:#BA2700;" d="M245.641,174.549c0,0,0.885-1.105,0.416-1.993c-0.469-0.888-8.517-8.027-8.517-8.027
			s9.879,6.191,12.013,8.039c2.134,1.848,3.69,5.415,3.69,5.415l-1.543,1.655L245.641,174.549z"/>
		
			<linearGradient id="SVGID_00000120530768656209246950000013655778241268333992_" gradientUnits="userSpaceOnUse" x1="179.531" y1="80.0239" x2="218.1367" y2="80.0239" gradientTransform="matrix(-0.7658 -0.643 -0.643 0.7658 460.8044 222.4989)">
			<stop  offset="0.0893" style="stop-color:#9CD9C7"/>
			<stop  offset="0.8737" style="stop-color:#DAFFC8"/>
		</linearGradient>
		<polygon style="fill:url(#SVGID_00000120530768656209246950000013655778241268333992_);" points="231.363,156.545 
			257.927,178.624 260.853,181.456 282.875,155.229 253.311,130.406 		"/>
		
			<linearGradient id="SVGID_00000171692596571269795590000001426175507240199845_" gradientUnits="userSpaceOnUse" x1="201.0994" y1="122.4393" x2="212.392" y2="106.3102" gradientTransform="matrix(-0.7658 -0.643 -0.643 0.7658 460.8044 222.4989)">
			<stop  offset="0.0893" style="stop-color:#9CD9C7"/>
			<stop  offset="0.8737" style="stop-color:#DAFFC8"/>
		</linearGradient>
		<polygon style="fill:url(#SVGID_00000171692596571269795590000001426175507240199845_);" points="203.756,202.145 
			220.792,216.449 251.7,179.637 234.665,165.333 		"/>
		<path style="opacity:0.32;fill:#00898D;" d="M241.808,171.332c0,0-0.352,4.558-3.377,9.323
			c-3.024,4.765-26.158,28.642-26.158,28.642l8.518,7.152l30.908-36.811L241.808,171.332z"/>
		
			<linearGradient id="SVGID_00000054959550284171156970000002855881981510017698_" gradientUnits="userSpaceOnUse" x1="193.9149" y1="53.2326" x2="219.9128" y2="53.2326" gradientTransform="matrix(-0.7658 -0.643 -0.643 0.7658 460.8044 222.4989)">
			<stop  offset="0.0893" style="stop-color:#9CD9C7"/>
			<stop  offset="0.8737" style="stop-color:#DAFFC8"/>
		</linearGradient>
		<path style="fill:url(#SVGID_00000054959550284171156970000002855881981510017698_);" d="M279.984,106.133l10.014,11.731
			l13.209,7.788c2.755,1.624,3.776,5.047,2.19,7.339l-27.438,39.645c0,0-12.947-13.165-18.424-17.764
			c-5.477-4.599-21.401-15.675-21.401-15.675l34.356-33.939C274.444,103.33,277.939,103.738,279.984,106.133z"/>
		<path style="fill:#FF3C00;" d="M327.524,76.394c-2.076,24.902-21.463,55.055-21.463,55.055l0,0
			c-12.841-6.169-23.922-15.472-32.219-27.053l0,0c0,0,27.256-24.847,50.525-30.718C326.071,73.247,327.67,74.641,327.524,76.394z"
			/>
		<path style="fill:#004345;" d="M277.96,172.637l-7.445-2.688c0,0-6.747-6.903-13.654-12.619
			c-9.07-7.506-15.902-12.215-15.902-12.215l-2.825-5.916l1.67,0.987C254.284,148.744,267.189,159.72,277.96,172.637L277.96,172.637
			z"/>
		<path style="fill:#004345;" d="M253.243,177.982c0,0-2.761-3.19-7.742-7.314c-6.542-5.415-9.345-7.046-9.345-7.046l-1.859-4.615
			c8.841,5.417,16.863,12.074,23.813,19.757L253.243,177.982z"/>
		<g>
			<path style="opacity:0.32;fill:#00898D;" d="M303.703,130.228c-12.877,23.041-25.742,42.409-25.742,42.409
				s-5.921-6.724-9.39-10.218c-5.093-5.129-7.426-6.891-7.426-6.891s13.745-11.521,30.714-32.727
				C295.586,125.589,299.544,128.077,303.703,130.228z"/>
			<path style="fill:#DD2400;" d="M296.928,116.294c9.627-12.7,24.883-36.987,29.038-40.066c0.402-0.298,0.962,0.035,0.908,0.532
				c-0.41,3.756-3.154,22.405-18.939,46.992c-1.429,2.227-2.841,4.382-4.233,6.477c-4.159-2.151-8.117-4.639-11.844-7.428
				C293.521,120.723,295.214,118.556,296.928,116.294z"/>
		</g>
		
			<ellipse transform="matrix(0.9978 -0.067 0.067 0.9978 -8.4658 18.6937)" style="fill:#FF3C00;" cx="274.505" cy="135.579" rx="15.314" ry="15.314"/>
		<path style="opacity:0.32;fill:#00898D;" d="M248.858,169.69c0,0,3.396-5.253,2.993-11.009c-0.282-4.024-3.87-7.923-6.003-9.905
			c-0.918-0.852-1.566-1.35-1.566-1.35s10.504,7.871,15.743,12.521c5.239,4.65,10.491,10.002,10.491,10.002l-9.662,11.508
			C260.853,181.456,253.018,173.21,248.858,169.69z"/>
		<g>
			
				<rect x="274.344" y="147.099" transform="matrix(-0.6542 0.7563 -0.7563 -0.6542 590.2415 27.555)" style="fill:#004345;" width="28.956" height="3.206"/>
			<g>
				
					<rect x="295.025" y="137.587" transform="matrix(-0.6542 0.7563 -0.7563 -0.6542 595.4287 5.8455)" style="fill:#FFD400;" width="2.707" height="2.897"/>
				
					<rect x="292.727" y="140.243" transform="matrix(-0.6542 0.7563 -0.7563 -0.6542 593.6367 11.9754)" style="fill:#FFD400;" width="2.707" height="2.897"/>
				
					<rect x="290.43" y="142.899" transform="matrix(-0.6542 0.7563 -0.7563 -0.6542 591.8484 18.1144)" style="fill:#FFD400;" width="2.707" height="2.897"/>
				
					<rect x="288.133" y="145.554" transform="matrix(-0.6542 0.7563 -0.7563 -0.6542 590.0533 24.2373)" style="fill:#FFD400;" width="2.707" height="2.897"/>
				
					<rect x="285.835" y="148.21" transform="matrix(-0.6542 0.7563 -0.7563 -0.6542 588.2613 30.3672)" style="fill:#FFD400;" width="2.707" height="2.897"/>
				
					<rect x="283.538" y="150.866" transform="matrix(-0.6542 0.7563 -0.7563 -0.6542 586.4696 36.4978)" style="fill:#FFD400;" width="2.707" height="2.897"/>
				
					<rect x="281.241" y="153.525" transform="matrix(-0.6542 0.7563 -0.7563 -0.6542 584.681 42.6339)" style="fill:#FFD400;" width="2.707" height="2.897"/>
				
					<rect x="278.944" y="156.181" transform="matrix(-0.6542 0.7563 -0.7563 -0.6542 582.8893 48.7645)" style="fill:#FFD400;" width="2.707" height="2.897"/>
			</g>
		</g>
		<defs>
			
				<filter id="Adobe_OpacityMaskFilter_00000134959120313369944530000012205105553321395878_" filterUnits="userSpaceOnUse" x="274.622" y="74.634" width="50.506" height="33.492">
				<feFlood  style="flood-color:white;flood-opacity:1" result="back"/>
				<feBlend  in="SourceGraphic" in2="back" mode="normal"/>
			</filter>
		</defs>
		
			<mask maskUnits="userSpaceOnUse" x="274.622" y="74.634" width="50.506" height="33.492" id="SVGID_00000151537866450811360410000000537635337764741010_">
			<g style="filter:url(#Adobe_OpacityMaskFilter_00000134959120313369944530000012205105553321395878_);">
				<defs>
					
						<filter id="Adobe_OpacityMaskFilter_00000145760488538148441320000015189297199663190164_" filterUnits="userSpaceOnUse" x="274.622" y="74.634" width="50.506" height="33.492">
						<feFlood  style="flood-color:white;flood-opacity:1" result="back"/>
						<feBlend  in="SourceGraphic" in2="back" mode="normal"/>
					</filter>
				</defs>
				
					<mask maskUnits="userSpaceOnUse" x="274.622" y="74.634" width="50.506" height="33.492" id="SVGID_00000151537866450811360410000000537635337764741010_">
					<g style="filter:url(#Adobe_OpacityMaskFilter_00000145760488538148441320000015189297199663190164_);">
					</g>
				</mask>
				
					<linearGradient id="SVGID_00000097459359161201991490000011241241001830649525_" gradientUnits="userSpaceOnUse" x1="207.7245" y1="2.5305" x2="218.6022" y2="-5.9373" gradientTransform="matrix(-0.7658 -0.643 -0.643 0.7658 460.8044 222.4989)">
					<stop  offset="0.0615" style="stop-color:#FFFFFF"/>
					<stop  offset="0.4255" style="stop-color:#A3A3A3"/>
					<stop  offset="1" style="stop-color:#000000"/>
				</linearGradient>
				
					<path style="mask:url(#SVGID_00000151537866450811360410000000537635337764741010_);fill:url(#SVGID_00000097459359161201991490000011241241001830649525_);" d="
					M321.516,77.757c0,0-17.912,8.273-29.718,17.197c-11.806,8.924-14.899,13.172-14.899,13.172l-2.277-3.283
					c0,0,14.017-13.475,30.063-21.262c16.047-7.788,20.898-9.788,20.41-8.653C324.608,76.064,321.516,77.757,321.516,77.757z"/>
			</g>
		</mask>
		
			<linearGradient id="SVGID_00000122685236981064851000000000692850172721038743_" gradientUnits="userSpaceOnUse" x1="207.7245" y1="2.5305" x2="218.6022" y2="-5.9373" gradientTransform="matrix(-0.7658 -0.643 -0.643 0.7658 460.8044 222.4989)">
			<stop  offset="0.0615" style="stop-color:#FFFFFF"/>
			<stop  offset="0.4255" style="stop-color:#FFFFFF"/>
			<stop  offset="1" style="stop-color:#FFFFFF"/>
		</linearGradient>
		<path style="opacity:0.66;fill:url(#SVGID_00000122685236981064851000000000692850172721038743_);" d="M321.516,77.757
			c0,0-17.912,8.273-29.718,17.197c-11.806,8.924-14.899,13.172-14.899,13.172l-2.277-3.283c0,0,14.017-13.475,30.063-21.262
			c16.047-7.788,20.898-9.788,20.41-8.653C324.608,76.064,321.516,77.757,321.516,77.757z"/>
		<defs>
			
				<filter id="Adobe_OpacityMaskFilter_00000109014430148601891990000015885976612019353514_" filterUnits="userSpaceOnUse" x="240.674" y="106.657" width="36.761" height="36.657">
				<feFlood  style="flood-color:white;flood-opacity:1" result="back"/>
				<feBlend  in="SourceGraphic" in2="back" mode="normal"/>
			</filter>
		</defs>
		
			<mask maskUnits="userSpaceOnUse" x="240.674" y="106.657" width="36.761" height="36.657" id="SVGID_00000096055145898598193710000006028482540897450402_">
			<g style="filter:url(#Adobe_OpacityMaskFilter_00000109014430148601891990000015885976612019353514_);">
				<defs>
					
						<filter id="Adobe_OpacityMaskFilter_00000148643545479071234150000005063885618203456938_" filterUnits="userSpaceOnUse" x="240.674" y="106.657" width="36.761" height="36.657">
						<feFlood  style="flood-color:white;flood-opacity:1" result="back"/>
						<feBlend  in="SourceGraphic" in2="back" mode="normal"/>
					</filter>
				</defs>
				
					<mask maskUnits="userSpaceOnUse" x="240.674" y="106.657" width="36.761" height="36.657" id="SVGID_00000096055145898598193710000006028482540897450402_">
					<g style="filter:url(#Adobe_OpacityMaskFilter_00000148643545479071234150000005063885618203456938_);">
					</g>
				</mask>
				
					<linearGradient id="SVGID_00000131364938809628264390000015336673310202791068_" gradientUnits="userSpaceOnUse" x1="217.6815" y1="54.7302" x2="232.0564" y2="43.5401" gradientTransform="matrix(-0.7658 -0.643 -0.643 0.7658 460.8044 222.4989)">
					<stop  offset="0.0615" style="stop-color:#FFFFFF"/>
					<stop  offset="0.4255" style="stop-color:#A3A3A3"/>
					<stop  offset="1" style="stop-color:#000000"/>
				</linearGradient>
				
					<path style="mask:url(#SVGID_00000096055145898598193710000006028482540897450402_);fill:url(#SVGID_00000131364938809628264390000015336673310202791068_);" d="
					M277.435,110.873c0,0-9.334,8.889-15.932,15.733c-6.598,6.844-14.879,16.707-14.879,16.707l-5.95-3.97
					c0,0,13.93-13.915,22.661-22.435c7.904-7.714,10.941-10.251,10.941-10.251L277.435,110.873z"/>
			</g>
		</mask>
		
			<linearGradient id="SVGID_00000137828595813712673490000002584157020980279996_" gradientUnits="userSpaceOnUse" x1="217.6815" y1="54.7302" x2="232.0564" y2="43.5401" gradientTransform="matrix(-0.7658 -0.643 -0.643 0.7658 460.8044 222.4989)">
			<stop  offset="0.0615" style="stop-color:#FFFFFF"/>
			<stop  offset="0.4255" style="stop-color:#FFFFFF"/>
			<stop  offset="1" style="stop-color:#FFFFFF"/>
		</linearGradient>
		<path style="opacity:0.66;fill:url(#SVGID_00000137828595813712673490000002584157020980279996_);" d="M277.435,110.873
			c0,0-9.334,8.889-15.932,15.733c-6.598,6.844-14.879,16.707-14.879,16.707l-5.95-3.97c0,0,13.93-13.915,22.661-22.435
			c7.904-7.714,10.941-10.251,10.941-10.251L277.435,110.873z"/>
		<g>
			<path style="fill:#004345;" d="M234.337,165.725l17.035,14.304c0.216,0.182,0.538,0.153,0.719-0.063
				c0.182-0.216,0.154-0.538-0.063-0.72l-17.036-14.304c-0.216-0.182-0.538-0.154-0.719,0.063
				C234.092,165.221,234.12,165.543,234.337,165.725z"/>
		</g>
		
			<linearGradient id="SVGID_00000146458759029654300310000006047907586124351149_" gradientUnits="userSpaceOnUse" x1="200.9868" y1="124.2904" x2="211.7177" y2="108.9635" gradientTransform="matrix(-0.7658 -0.643 -0.643 0.7658 460.8044 222.4989)">
			<stop  offset="0.0893" style="stop-color:#9CD9C7"/>
			<stop  offset="0.8737" style="stop-color:#DAFFC8"/>
		</linearGradient>
		<polygon style="fill:url(#SVGID_00000146458759029654300310000006047907586124351149_);" points="202.96,199.509 223.526,216.777 
			250.323,184.862 229.757,167.594 		"/>
		<path style="opacity:0.32;fill:#00898D;" d="M238.382,174.835c0,0,0.388,4.534-2.039,8.829
			c-2.427,4.295-23.099,24.479-23.099,24.479l10.283,8.634l26.798-31.915L238.382,174.835z"/>
		<g>
			<path style="fill:#004345;" d="M229.361,168.066l20.566,17.268c0.261,0.219,0.65,0.185,0.869-0.076
				c0.219-0.261,0.185-0.65-0.076-0.869l-20.566-17.268c-0.261-0.219-0.65-0.185-0.869,0.076
				C229.066,167.458,229.1,167.847,229.361,168.066z"/>
		</g>
		
			<linearGradient id="SVGID_00000093880319532603565130000000408983633999756721_" gradientUnits="userSpaceOnUse" x1="200.8502" y1="130.1458" x2="210.9002" y2="115.7914" gradientTransform="matrix(-0.7658 -0.643 -0.643 0.7658 460.8044 222.4989)">
			<stop  offset="0.0893" style="stop-color:#9CD9C7"/>
			<stop  offset="0.8737" style="stop-color:#DAFFC8"/>
		</linearGradient>
		<polygon style="fill:url(#SVGID_00000093880319532603565130000000408983633999756721_);" points="200.248,201.231 
			222.299,219.746 245.756,191.809 223.705,173.294 		"/>
		<path style="opacity:0.32;fill:#00898D;" d="M232.952,181.058c0,0,0.824,4.376-1.165,8.249
			c-1.989,3.874-20.514,21.181-20.514,21.181l11.026,9.258l23.457-27.937L232.952,181.058z"/>
		<path style="fill:#004345;" d="M201.365,202.246c-0.464,0.561,3.792,4.87,9.505,9.625c5.714,4.755,10.722,8.155,11.186,7.594
			c0.464-0.561-3.792-4.87-9.505-9.625C206.837,205.085,201.829,201.685,201.365,202.246z"/>
		<g>
			<path style="fill:#004345;" d="M223.28,173.8l22.051,18.515c0.28,0.235,0.696,0.199,0.931-0.081
				c0.235-0.28,0.199-0.696-0.081-0.931l-22.051-18.515c-0.28-0.235-0.696-0.199-0.931,0.081
				C222.964,173.149,223,173.565,223.28,173.8z"/>
		</g>
		<g>
			<path style="fill:#BA2700;" d="M272.372,127.773c2.902-3.781,6.967-3.266,10.24-0.36c3.272,2.906,4.512,7.102,1.609,10.883
				c-0.225,0.293-0.463,0.565-0.711,0.82c-0.003,0.004-0.006,0.008-0.009,0.012c-0.567,0.672-1.285,1.17-2.083,1.584
				c-0.27,0.146-0.546,0.277-0.825,0.39c-1.362,0.592-4.862,1.712-6.229,2.39c-1.943,0.964-3.814,2.956-4.55,3.794
				c-0.229,0.261-0.517,0.463-0.838,0.595l-0.406,0.167c-0.462,0.191-0.991,0.117-1.383-0.194l-3.114-2.469
				c-0.52-0.413-0.541-1.197-0.036-1.629c1.737-1.487,5.204-4.677,5.695-6.817c0.658-2.872,0.494-6.053,1.985-8.193
				c0.003-0.004,0.005-0.007,0.008-0.01C271.919,128.406,272.134,128.084,272.372,127.773z"/>
			<path style="fill:#FFD400;" d="M270.54,126.18c2.902-3.781,6.967-3.266,10.24-0.36c3.272,2.906,4.511,7.102,1.609,10.883
				c-0.225,0.293-0.463,0.565-0.711,0.82c-0.003,0.004-0.006,0.008-0.009,0.012c-0.567,0.672-1.285,1.17-2.083,1.584
				c-0.27,0.146-0.546,0.277-0.825,0.39c-1.362,0.592-2.872,1.041-4.239,1.719c-2.497,1.239-2.625,1.868-2.625,1.868l-2.603-2.312
				l-2.625-2.331c0,0,0.572-0.234,1.231-3.106c0.658-2.872,0.494-6.053,1.985-8.193c0.003-0.004,0.005-0.007,0.008-0.01
				C270.087,126.813,270.301,126.49,270.54,126.18z"/>
			
				<linearGradient id="SVGID_00000152263043782403453990000006808789526506669971_" gradientUnits="userSpaceOnUse" x1="271.8472" y1="40.1694" x2="285.0514" y2="49.4269" gradientTransform="matrix(-0.7719 -0.6357 -0.6357 0.7719 514.1368 285.2372)">
				<stop  offset="0.1687" style="stop-color:#E0F3F4"/>
				<stop  offset="0.7907" style="stop-color:#4D98A0"/>
			</linearGradient>
			<path style="fill:url(#SVGID_00000152263043782403453990000006808789526506669971_);" d="M267.097,137.857
				c0,0,0.584,1.49,2.183,2.915c1.603,1.419,3.074,1.754,3.074,1.754s0.257,1.466-0.178,1.571c-0.435,0.105-0.504-0.038-0.504-0.038
				s-2.095,3.055-3.41,3.197c-1.22,0.133-2.727-1.259-2.937-1.46c-0.208-0.171-1.662-1.408-1.772-2.722
				c-0.118-1.416,2.274-4.207,2.274-4.207s-0.144-0.046-0.13-0.525C265.71,137.863,267.097,137.857,267.097,137.857z"/>
			<g>
				<g>
					<path d="M270.669,141.927c0.338-0.403,2.211-2.624,4.041-4.526c-0.177-0.331-0.308-0.727-0.378-1.16
						c-0.24,0.074-0.474,0.106-0.69,0.09c-0.342-0.031-0.608-0.17-0.78-0.415l0.479-0.336c0.069,0.098,0.183,0.156,0.345,0.167
						c0.176,0.013,0.38-0.026,0.592-0.108c0.006-0.413,0.14-0.812,0.402-1.189c0.399-0.578,1.145-1.547,1.654-1.529
						c0.144,0.01,0.279,0.083,0.356,0.213c0.302,0.51-0.372,1.59-0.946,2.194c-0.26,0.273-0.554,0.5-0.856,0.669
						c0.043,0.349,0.133,0.677,0.257,0.956c1.166-1.181,2.261-2.16,2.867-2.372c0.846-0.292,1.141,0.09,1.227,0.271
						c0.374,0.771-0.641,2.244-2.263,3.283c-0.622,0.397-1.123,0.29-1.44,0.135c-0.174-0.088-0.336-0.217-0.482-0.378
						c-1.508,1.577-3.112,3.424-3.936,4.407L270.669,141.927z M278.205,135.137c-0.522,0.18-1.578,1.143-2.743,2.335
						c0.104,0.121,0.219,0.216,0.338,0.276c0.265,0.134,0.546,0.098,0.861-0.104c1.652-1.057,2.187-2.255,2.053-2.535
						c-0.01-0.018-0.031-0.031-0.063-0.039C278.568,135.049,278.414,135.064,278.205,135.137z M275.161,134.783
						c-0.11,0.16-0.191,0.325-0.24,0.495c0.14-0.104,0.274-0.223,0.397-0.354c0.462-0.485,0.748-1.022,0.838-1.309
						C275.934,133.799,275.562,134.203,275.161,134.783z"/>
				</g>
				<g>
					<path d="M267.715,139.338c0.747-1.066,2.144-3.131,3.304-5.034c-0.146-0.099-0.275-0.213-0.379-0.342
						c-0.247-0.304-0.488-0.83-0.227-1.608c0.631-1.878,1.754-3.21,2.557-3.031c0.263,0.045,0.64,0.285,0.534,1.221
						c-0.076,0.674-0.779,2.035-1.649,3.507c0.281,0.078,0.585,0.115,0.91,0.098c0.096-0.348,0.246-0.699,0.442-1.019
						c0.449-0.732,1.354-1.635,1.875-1.423c0.131,0.056,0.222,0.165,0.255,0.306c0.124,0.524-0.711,1.579-1.075,2.008
						c-0.293,0.344-0.631,0.563-1.014,0.654c-0.039,0.265-0.033,0.51,0.021,0.708c0.031,0.113,0.093,0.26,0.217,0.324l-0.272,0.519
						c-0.244-0.129-0.421-0.366-0.508-0.687c-0.065-0.235-0.081-0.509-0.053-0.8c-0.395,0.006-0.773-0.056-1.106-0.174
						c-1.463,2.411-3.228,4.932-3.35,5.107L267.715,139.338z M272.843,129.895c-0.275-0.06-1.246,0.767-1.877,2.647
						c-0.141,0.421-0.099,0.774,0.127,1.051c0.062,0.077,0.139,0.147,0.227,0.21c0.862-1.448,1.534-2.738,1.6-3.324
						C272.969,130.059,272.881,129.904,272.843,129.895L272.843,129.895z M273.705,133.436c-0.105,0.171-0.193,0.351-0.266,0.535
						c0.132-0.08,0.258-0.19,0.376-0.328c0.476-0.561,0.778-1.043,0.894-1.312C274.46,132.488,274.045,132.883,273.705,133.436z"/>
				</g>
			</g>
			<g>
				<path d="M271.487,144.244c0.142,0.035,0.29-0.04,0.344-0.18c0.057-0.151-0.017-0.32-0.169-0.378
					c-0.013-0.006-1.313-0.514-3.049-1.98c-1.732-1.461-2.527-2.965-2.535-2.98c-0.075-0.145-0.253-0.2-0.394-0.125
					c-0.143,0.074-0.2,0.251-0.125,0.394c0.033,0.065,0.85,1.617,2.677,3.159c1.819,1.535,3.162,2.057,3.218,2.078
					C271.465,144.237,271.476,144.241,271.487,144.244z"/>
			</g>
			<g>
				<path d="M269.798,145.01c0.137,0.034,0.282-0.035,0.339-0.168c0.065-0.148-0.004-0.32-0.152-0.385
					c-0.015-0.006-1.495-0.655-2.603-1.817c-1.11-1.166-1.508-2.004-1.513-2.012c-0.067-0.146-0.242-0.211-0.388-0.142
					c-0.146,0.067-0.21,0.241-0.143,0.387c0.018,0.037,0.435,0.926,1.621,2.171c1.191,1.252,2.728,1.923,2.793,1.952
					C269.768,145.002,269.783,145.007,269.798,145.01z"/>
			</g>
			<g>
				<path d="M269.322,145.632c0.137,0.034,0.282-0.035,0.339-0.168c0.065-0.148-0.004-0.32-0.152-0.385
					c-0.015-0.006-1.495-0.655-2.604-1.819c-1.109-1.166-1.508-2.003-1.512-2.012c-0.067-0.144-0.242-0.21-0.388-0.141
					c-0.146,0.067-0.211,0.241-0.143,0.387c0.018,0.037,0.435,0.925,1.62,2.17c1.192,1.253,2.729,1.924,2.794,1.953
					C269.291,145.623,269.306,145.628,269.322,145.632z"/>
			</g>
			<g>
				<path d="M268.845,146.252c0.137,0.034,0.282-0.035,0.339-0.168c0.065-0.148-0.004-0.32-0.152-0.385
					c-0.015-0.006-1.495-0.655-2.604-1.818c-1.109-1.166-1.509-2.004-1.513-2.013c-0.068-0.145-0.242-0.208-0.389-0.141
					c-0.145,0.069-0.209,0.241-0.142,0.388c0.018,0.037,0.436,0.927,1.621,2.17c1.193,1.252,2.73,1.923,2.794,1.952
					C268.814,146.243,268.829,146.249,268.845,146.252z"/>
			</g>
			<defs>
				
					<filter id="Adobe_OpacityMaskFilter_00000091733960457269416870000004743015040142955954_" filterUnits="userSpaceOnUse" x="269.301" y="124.747" width="13.021" height="6.077">
					<feFlood  style="flood-color:white;flood-opacity:1" result="back"/>
					<feBlend  in="SourceGraphic" in2="back" mode="normal"/>
				</filter>
			</defs>
			
				<mask maskUnits="userSpaceOnUse" x="269.301" y="124.747" width="13.021" height="6.077" id="SVGID_00000109734606950973349820000015106866465242259342_">
				<g style="filter:url(#Adobe_OpacityMaskFilter_00000091733960457269416870000004743015040142955954_);">
					<defs>
						
							<filter id="Adobe_OpacityMaskFilter_00000113320519158841811860000018443352207371521971_" filterUnits="userSpaceOnUse" x="269.301" y="124.747" width="13.021" height="6.077">
							<feFlood  style="flood-color:white;flood-opacity:1" result="back"/>
							<feBlend  in="SourceGraphic" in2="back" mode="normal"/>
						</filter>
					</defs>
					
						<mask maskUnits="userSpaceOnUse" x="269.301" y="124.747" width="13.021" height="6.077" id="SVGID_00000109734606950973349820000015106866465242259342_">
						<g style="filter:url(#Adobe_OpacityMaskFilter_00000113320519158841811860000018443352207371521971_);">
						</g>
					</mask>
					
						<linearGradient id="SVGID_00000139977641203192114440000008034724607570830219_" gradientUnits="userSpaceOnUse" x1="122.7974" y1="-47.5019" x2="130.8667" y2="-32.0457" gradientTransform="matrix(0.5052 0.6655 -0.5313 0.4034 192.0043 58.0726)">
						<stop  offset="0.0615" style="stop-color:#FFFFFF"/>
						<stop  offset="1" style="stop-color:#000000"/>
					</linearGradient>
					
						<path style="mask:url(#SVGID_00000109734606950973349820000015106866465242259342_);fill:url(#SVGID_00000139977641203192114440000008034724607570830219_);" d="
						M269.301,130.824c0,0,1.7-7.328,7.48-5.89c4.485,1.116,5.541,5.095,5.541,5.095s-2.666-1.814-5.541-2.191
						C271.514,127.147,270.064,130.077,269.301,130.824z"/>
				</g>
			</mask>
			
				<linearGradient id="SVGID_00000005249523567393028470000012656699331433273233_" gradientUnits="userSpaceOnUse" x1="122.7974" y1="-47.5019" x2="130.8667" y2="-32.0457" gradientTransform="matrix(0.5052 0.6655 -0.5313 0.4034 192.0043 58.0726)">
				<stop  offset="0.0615" style="stop-color:#FFFFFF"/>
				<stop  offset="1" style="stop-color:#FFFFFF"/>
			</linearGradient>
			<path style="fill:url(#SVGID_00000005249523567393028470000012656699331433273233_);" d="M269.301,130.824
				c0,0,1.7-7.328,7.48-5.89c4.485,1.116,5.541,5.095,5.541,5.095s-2.666-1.814-5.541-2.191
				C271.514,127.147,270.064,130.077,269.301,130.824z"/>
		</g>
		<g>
			<path style="fill:#004345;" d="M286.573,119.046c0.464,0.389,0.944,0.787,1.441,1.193c12.727,10.402,17.723,11.658,17.93,11.706
				c0.275,0.064,0.55-0.106,0.614-0.381c0.063-0.275-0.107-0.547-0.379-0.613l0,0c-0.049-0.012-5.047-1.309-17.519-11.503
				c-12.443-10.166-14.319-15.172-14.336-15.221c-0.095-0.267-0.385-0.405-0.65-0.313c-0.265,0.093-0.406,0.381-0.315,0.647
				C273.427,104.763,275.126,109.434,286.573,119.046z"/>
		</g>
		<g>
			<g>
				
					<linearGradient id="SVGID_00000016072723472757618850000014786564348476012165_" gradientUnits="userSpaceOnUse" x1="178.9992" y1="168.7492" x2="196.8696" y2="154.8379" gradientTransform="matrix(-0.7688 -0.5401 -0.5748 0.8183 445.1671 198.8469)">
					<stop  offset="0.0893" style="stop-color:#9CD9C7"/>
					<stop  offset="0.8737" style="stop-color:#DAFFC8"/>
				</linearGradient>
				<path style="fill:url(#SVGID_00000016072723472757618850000014786564348476012165_);" d="M213.853,222.817l5.164,5.559
					l6.731,3.138c1.404,0.654,1.954,2.437,1.18,3.821l-13.388,23.947c0,0-6.656-6.095-9.461-8.143
					c-2.805-2.049-10.937-6.752-10.937-6.752l16.931-21.415C211.035,221.754,212.798,221.682,213.853,222.817z"/>
				<path style="fill:#FF3C00;" d="M237.514,200.698c0.064,13.934-10.269,33.738-10.269,33.738l0,0
					c-6.495-2.274-12.225-6.458-16.502-12.051v0C210.743,222.386,225.524,204.966,237.514,200.698z"/>
			</g>
			<g>
				
					<linearGradient id="SVGID_00000003105877019485264990000014430240960012439946_" gradientUnits="userSpaceOnUse" x1="216.4619" y1="176.8354" x2="250.3127" y2="176.8354" gradientTransform="matrix(-0.6515 -0.6532 -0.708 0.7062 457.6841 238.6666)">
					<stop  offset="0.2492" style="stop-color:#9CD9C7"/>
					<stop  offset="0.6206" style="stop-color:#DAFFC8"/>
				</linearGradient>
				<path style="fill:url(#SVGID_00000003105877019485264990000014430240960012439946_);" d="M188.502,198.353l4.171,6.035
					l6.229,4.02c1.299,0.838,1.514,2.596,0.461,3.767l-18.219,20.269c0,0-5.582-6.776-8.036-9.145
					c-2.453-2.369-9.803-8.08-9.803-8.08l21.328-17.33C185.846,196.905,187.65,197.121,188.502,198.353z"/>
				<path style="fill:#FF3C00;" d="M216.801,181.447c-2.625,13.056-16.942,29.938-16.942,29.938l0,0
					c-6.157-3.173-11.169-8.012-14.432-13.935l0,0C185.427,197.449,203.801,183.515,216.801,181.447z"/>
			</g>
			<g>
				<path style="opacity:0.32;fill:#00898D;" d="M227.243,234.436c0,0,3.839-7.364,6.823-16.267
					c-1.706,5.33-4.253,11.689-8.07,18.829c-10.379,19.416-12.458,22.283-12.458,22.283s-4.681-5.054-9.461-8.143
					c0,0,5.486-8.022,13.389-19.6c0.36-0.527,0.718-1.068,1.075-1.614C221.219,231.825,224.143,233.35,227.243,234.436z"/>
				<path style="opacity:0.58;fill:#00898D;" d="M268.988,224.044c0.001-0.118,0.007-0.239,0.006-0.356
					C268.994,223.687,268.995,223.811,268.988,224.044z"/>
				<path style="fill:#DD2400;" d="M218.542,229.923c7.473-11.427,14.309-26.687,14.887-27.347c1.379-0.759,2.749-1.404,4.083-1.878
					c0.001,0.117-0.005,0.238-0.006,0.356c-0.045,1.497-0.422,7.686-3.44,17.115c-2.984,8.904-6.823,16.267-6.823,16.267
					C224.143,233.35,221.219,231.825,218.542,229.923z"/>
				<path style="opacity:0.58;fill:#00898D;" d="M185.868,198.22c0,0,0,0-2.423,1.742c-17.599,12.651-20.14,15.258-20.14,15.258
					s5.739,3.812,9.131,7.632c0,0,6.963-6.579,17.014-16.063c0.457-0.432,1.416-1.116,1.892-1.549
					C189.281,203.132,187.207,200.872,185.868,198.22z"/>
				<path style="fill:#DD2400;" d="M191.343,205.239c7.747-7.05,16.296-13.313,19.969-16.054c1.057-0.789,1.951-1.775,2.633-2.904
					c0.009-0.015,0.018-0.03,0.027-0.046c0.656-1.089-0.309-2.446-1.553-2.184c-2.088,0.439-5.777,1.467-11.988,4.792
					c-8.048,4.44-14.563,9.376-14.563,9.376C187.207,200.872,189.281,203.132,191.343,205.239z"/>
			</g>
			<path style="fill:#FF3C00;" d="M163.268,215.341c-0.527,0.505,3.016,4.747,7.913,9.476c4.897,4.729,9.294,8.154,9.821,7.649
				c0.527-0.504-3.016-4.747-7.913-9.476C168.192,218.261,163.795,214.837,163.268,215.341z"/>
			<path style="fill:#FF3C00;" d="M193.074,244.48c-0.407,0.605,3.828,4.429,9.458,8.541c5.63,4.111,10.524,6.954,10.931,6.348
				c0.407-0.605-3.828-4.429-9.458-8.54C198.375,246.717,193.481,243.874,193.074,244.48z"/>
			<g>
				<g>
					<path style="opacity:0.58;fill:#00898D;" d="M257.214,220.135c0.008-0.118,0.021-0.238,0.028-0.356
						C257.241,219.779,257.235,219.902,257.214,220.135z"/>
				</g>
			</g>
		</g>
		<g>
			<g>
				<path style="fill:#FFFFFF;" d="M201.632,238.181c0.227,0.137,0.526,0.077,0.681-0.143c0.066-0.093,6.673-9.442,12.822-16.102
					c6.119-6.628,11.884-9.93,11.941-9.963c0.246-0.139,0.332-0.451,0.193-0.696c-0.138-0.244-0.45-0.331-0.696-0.193
					c-0.06,0.033-5.963,3.415-12.189,10.158c-6.195,6.711-12.84,16.113-12.906,16.207c-0.162,0.23-0.107,0.549,0.124,0.712
					C201.611,238.168,201.621,238.175,201.632,238.181z"/>
			</g>
			<g>
				<path style="fill:#FFFFFF;" d="M282.532,99.76c0.196,0.164,0.489,0.16,0.679-0.021c15.726-14.892,39.004-22.784,39.238-22.862
					c0.267-0.09,0.412-0.379,0.322-0.646c-0.09-0.266-0.379-0.412-0.647-0.323c-0.235,0.079-23.722,8.039-39.616,23.089
					c-0.205,0.194-0.213,0.518-0.019,0.723C282.502,99.734,282.516,99.747,282.532,99.76z"/>
			</g>
			<g>
				<path style="fill:#FFFFFF;" d="M234.679,156.929c0.003,0.002,0.006,0.005,0.01,0.008c0.22,0.176,0.542,0.14,0.718-0.081
					c2.424-3.036,6.468-7.994,6.994-8.375c0.252-0.128,0.336-0.426,0.209-0.677c-0.128-0.251-0.451-0.344-0.702-0.215
					c-0.595,0.303-4.828,5.536-7.299,8.629C234.435,156.436,234.467,156.752,234.679,156.929z"/>
			</g>
		</g>
	</g>
	<polygon style="opacity:0.58;fill:#00898D;" points="234.493,159.245 244.876,148.357 243.31,147.007 231.363,156.545 	"/>
	<g>
		
			<linearGradient id="SVGID_00000090995112946348396710000017503539456154671007_" gradientUnits="userSpaceOnUse" x1="180.911" y1="158.2552" x2="217.3246" y2="158.2552" gradientTransform="matrix(0.9977 -0.0676 0.0676 0.9977 -20.5006 11.7456)">
			<stop  offset="0.121" style="stop-color:#0A2D51"/>
			<stop  offset="0.8552" style="stop-color:#19437F"/>
			<stop  offset="1" style="stop-color:#0A2D51"/>
		</linearGradient>
		<path style="fill:url(#SVGID_00000090995112946348396710000017503539456154671007_);" d="M179.906,122.217
			c0,0-1.079,11.314,0.155,19.293c1.234,7.979,2.796,22.284,0.748,31.068c-2.048,8.784-6.584,27.468-7.159,27.987
			c-0.575,0.52,7.239-1.307,7.239-1.307s11.81-22.001,13.154-33.204c1.344-11.203,1.007-30.394,2.575-32.608
			c1.568-2.214,6.518-4.092,7.776-8.843c1.623-6.135-2.885-12.75-2.885-12.75S181.263,118.76,179.906,122.217z"/>
		
			<linearGradient id="SVGID_00000047774180342983463730000015355766924032107170_" gradientUnits="userSpaceOnUse" x1="180.7969" y1="161.0936" x2="208.6092" y2="161.0936" gradientTransform="matrix(0.9977 -0.0676 0.0676 0.9977 -20.5006 11.7456)">
			<stop  offset="0.121" style="stop-color:#0A2D51"/>
			<stop  offset="1" style="stop-color:#0A2D51"/>
		</linearGradient>
		<path style="fill:url(#SVGID_00000047774180342983463730000015355766924032107170_);" d="M195.83,118.686
			c0,0-2.552,3.107-5.329,4.828c-2.777,1.721-5.257,6.462-5.756,9.277c-0.499,2.815,2.629,25.356,2.765,27.02
			c0.136,1.663,4.328,3.407,3.389,3.723c-0.939,0.317-6.18,1.904-4.962,1.902c1.217-0.002,5.104,0.749,3.868,1.466
			c-1.236,0.717-6.205,2.172-5.292,2.565c0.913,0.392,4.768,1.398,2.846,1.909c-1.922,0.51-5.438,13.206-6.539,17.947
			c-1.102,4.741,0.07,9.936,0.07,9.936l-7.37,1.557c0,0,7.783-29.383,8.006-32.77c0.223-3.387-2.004-26.9-2.563-31.879
			c-0.663-5.915-0.29-8.771-0.29-8.771s9.378-8.572,12.502-9.199C194.299,117.569,195.83,118.686,195.83,118.686z"/>
		<g>
			<g>
				
					<rect x="132.604" y="111.074" transform="matrix(0.9031 0.4293 -0.4293 0.9031 61.1228 -46.2528)" style="fill:#FFB600;" width="0.942" height="2.542"/>
				
					<rect x="142.702" y="117.05" transform="matrix(0.9032 0.4292 -0.4292 0.9032 64.4428 -50.0487)" style="fill:#FFB600;" width="0.942" height="1.575"/>
				
					<rect x="118.081" y="114.992" transform="matrix(0.9032 0.4292 -0.4292 0.9032 66.1528 -44.8595)" style="fill:#FF3C00;" width="28.886" height="18.462"/>
				
					<rect x="119.619" y="114.345" transform="matrix(0.9032 0.4293 -0.4293 0.9032 64.4441 -46.227)" style="fill:#FF3C00;" width="30.163" height="10.812"/>
				<path style="fill:#CE2C00;" d="M117.123,122.981c0,0,3.847,2.45,12.805,4.512c7.628,1.756,10.397,0.916,10.397,0.916
					l-21.032-9.996L117.123,122.981z"/>
				
					<rect x="131.025" y="122.639" transform="matrix(0.9032 0.4293 -0.4293 0.9032 66.4303 -44.9034)" style="fill:#FFB600;" width="3.466" height="4.346"/>
				<path style="fill:#FFFFFF;" d="M132.292,122.185c0,0-0.501,1.519-0.219,3.095c0.282,1.576,1.383,2.099,1.383,2.099l1.799-3.785
					L132.292,122.185z"/>
				<g>
					<polygon style="fill:#FF3C00;" points="146.249,114.523 133.577,108.501 131.985,111.85 134.072,112.842 135.084,110.827 
						143.507,114.83 142.495,116.845 144.657,117.873 					"/>
					
						<rect x="137.435" y="111.37" transform="matrix(0.4292 -0.9032 0.9032 0.4292 -26.17 190.653)" style="fill:#FF3C00;" width="0.658" height="9.326"/>
				</g>
			</g>
			<polygon style="fill:#020023;" points="201.874,114.912 207.353,95.246 207.646,112.737 			"/>
			
				<linearGradient id="SVGID_00000164513163035286397610000016142258454213000340_" gradientUnits="userSpaceOnUse" x1="187.9102" y1="104.4765" x2="223.7298" y2="104.4765" gradientTransform="matrix(0.9977 -0.0676 0.0676 0.9977 -20.5006 11.7456)">
				<stop  offset="0.1072" style="stop-color:#FFFFA4"/>
				<stop  offset="0.4147" style="stop-color:#FFD234"/>
				<stop  offset="0.7979" style="stop-color:#FF9200"/>
			</linearGradient>
			<path style="fill:url(#SVGID_00000164513163035286397610000016142258454213000340_);" d="M202.337,114.326
				c0,0,4.814-10.691,6.318-23.441c1.504-12.751-6.399-14.469-6.986-14.747c-4.023-1.907-19.586-0.831-20.512,1.134
				c-2.233,4.739,5.98,15.164,6.262,26.336c0.194,7.674-9.468,23.499-11.087,25.067c-2.656,2.573,5.494,2.363,13.492-8.778
				c0.867-1.208,1.893,0.067,4.979-1.218c0.99-0.412,1.946-1.215,2.701-1.777C199.767,115.213,202.337,114.326,202.337,114.326z"/>
			<polygon style="fill:#FF9100;" points="199.329,79.694 205.622,91.033 199.132,76.147 			"/>
			<path style="fill:#FF9100;" d="M187.374,118.347c0,0,7.771-11.728,10.208-18.513c2.437-6.785,1.422-13.501,1.017-15.219
				c-0.406-1.718,0.086-4.654,0.086-4.654l-3.436-1.507l-3.705-0.079C191.543,78.376,187.865,115.619,187.374,118.347z"/>
			<path style="fill:#FFB68E;" d="M190.608,75.349c0,0,3.444-7.279,3.514-9.851c0.069-2.573-0.01-7.93,4.081-8.677
				c4.091-0.746,5.249,3.225,5.469,4.79c0.22,1.564,0.571,5.826,0.311,5.886c-0.26,0.061-1.113-0.603-1.113-0.603
				s0.134,2.692-1.007,3.518c-1.141,0.826-2.62,0.477-2.62,0.477s-1.486,3.646-1.302,4.779s1.389,3.71,1.389,3.71
				S191.437,79.497,190.608,75.349z"/>
			<path style="fill:#19437F;" d="M189.95,74.839c0,0,5.896,7.983,7.253,13.391c1.357,5.408-8.758,30.796-12.373,33.946
				c-3.615,3.15-9.355,4.574-9.355,4.574s5.862-19.82,6.6-29.947c0.738-10.127-2.921-17.311-0.358-20.244
				C184.279,73.626,189.95,74.839,189.95,74.839z"/>
			<path style="fill:#19437F;" d="M198.898,74.975c0,0,3.048,8.377,5.761,12.88s2.928,24.886,2.928,24.886l1.04-0.58
				c0,0,2.106-23.704,1.587-28.187c-0.519-4.483-3.495-7.968-5.028-8.103C203.654,75.736,198.898,74.975,198.898,74.975z"/>
			
				<linearGradient id="SVGID_00000111908608245923809570000000448145217717672343_" gradientUnits="userSpaceOnUse" x1="190.9058" y1="106.4307" x2="228.9074" y2="75.2736" gradientTransform="matrix(0.9977 -0.0676 0.0676 0.9977 -20.5006 11.7456)">
				<stop  offset="0.121" style="stop-color:#0A2D51"/>
				<stop  offset="0.4862" style="stop-color:#19437F"/>
			</linearGradient>
			<path style="fill:url(#SVGID_00000111908608245923809570000000448145217717672343_);" d="M175.475,126.75
				c0,0,8.172-1.197,11.131-6.965c2.959-5.769,6.178-22.592,5.715-27.191c-0.463-4.599-1.009-5.038-1.009-5.038l2.899-0.581
				l-3.332-1.584c0,0,0.159-1.493-1.738-4.278c-1.897-2.785-5.076-5.863-5.076-5.863s-3.956-0.056-3.237,5.481
				c0.719,5.536,0.825,15.329,0.55,18.818C181.103,103.039,176.915,123.83,175.475,126.75z"/>
			
				<linearGradient id="SVGID_00000177481953285347552970000016220586062377279634_" gradientUnits="userSpaceOnUse" x1="218.6924" y1="97.5011" x2="225.8508" y2="97.5011" gradientTransform="matrix(0.9977 -0.0676 0.0676 0.9977 -20.5006 11.7456)">
				<stop  offset="0.121" style="stop-color:#0A2D51"/>
				<stop  offset="1" style="stop-color:#0A2D51"/>
			</linearGradient>
			<path style="fill:url(#SVGID_00000177481953285347552970000016220586062377279634_);" d="M203.017,75.599
				c0,0,4.329,7.687,4.856,8.71c0.527,1.023-2.129,0.991-2.129,0.991l2.496,0.709c0,0,0.926,3.28,1.164,5.811
				c0.238,2.531-1.462,11.399-1.462,11.399l-0.356,9.523l1.767-0.764c0,0,2.385-23.093,1.28-28.488
				c-1.105-5.395-3.929-7.074-4.688-7.346C205.187,75.871,203.017,75.599,203.017,75.599z"/>
			
				<linearGradient id="SVGID_00000106838659579260046640000003395686061419677111_" gradientUnits="userSpaceOnUse" x1="221.5782" y1="80.1951" x2="248.198" y2="80.1951" gradientTransform="matrix(0.9977 -0.0676 0.0676 0.9977 -20.5006 11.7456)">
				<stop  offset="0.121" style="stop-color:#0A2D51"/>
				<stop  offset="1" style="stop-color:#0A2D51"/>
			</linearGradient>
			<path style="fill:url(#SVGID_00000106838659579260046640000003395686061419677111_);" d="M210.334,85.504
				c0,0,20.002,3.462,21.878-0.239c1.876-3.702-0.904-19.412-1.611-20.613c-0.707-1.201-1.581-1.015-1.581-1.015l-2.968,1.126
				c0,0,0.419,12.955,0.093,13.749c-0.326,0.794-15.09-2.728-20.198-2.369C205.946,76.143,209.708,85.213,210.334,85.504z"/>
			
				<linearGradient id="SVGID_00000045585625996412036480000017381210694125290921_" gradientUnits="userSpaceOnUse" x1="165.4388" y1="98.8153" x2="206.416" y2="76.9895" gradientTransform="matrix(0.9977 -0.0676 0.0676 0.9977 -20.5006 11.7456)">
				<stop  offset="0.121" style="stop-color:#0A2D51"/>
				<stop  offset="0.4862" style="stop-color:#19437F"/>
			</linearGradient>
			<path style="fill:url(#SVGID_00000045585625996412036480000017381210694125290921_);" d="M183.013,75.493
				c0,0-25.361,9.46-31.161,17.524c-5.8,8.064-9.174,13.021-9.174,13.021l3.76,3.437c0,0,9.209-11.31,15.552-15.483
				c6.343-4.172,20.527-7.08,22.694-9.982C186.852,81.108,183.013,75.493,183.013,75.493z"/>
			<path style="fill:#020023;" d="M142.678,106.038c0,0,4.916-0.896,7.781-3.91c4.334-4.561,6.549-5.85,5.868-6.624
				c-0.744-0.845-1.355-2.784-0.362-2.343s3.584,2.419,3.531,1.51c-0.053-0.91-2.774-4.176-1.355-3.54
				c1.419,0.636,3.609,2.542,3.446,1.731c-0.162-0.811-1.647-4.14-0.075-2.736c1.573,1.404,6.071-1.202,9.793-2.605
				c3.722-1.403,10.858-7.76,10.858-7.76s0.926,5.631-0.785,6.332c-5.106,2.094-15.905,5.708-19.388,7.899
				c-3.483,2.191-15.552,15.483-15.552,15.483L142.678,106.038z"/>
			<path style="fill:#020023;" d="M210.922,86.013c0,0-0.707-2.039-1.741-4.463c-0.886-2.077-2.147-3.82-2.147-3.82
				s7.312,4.044,9.9,4.799s8.38,2.444,9.826,2.407c1.446-0.037,0.548-1.526-0.221-2.978c-0.769-1.452,1.491,0.98,2.354,1.335
				c0.863,0.355-2.553-4.106-1.644-3.99c0.91,0.116,3.769,2.976,3.671,2.211c-0.099-0.765-2.671-3.507-2.215-3.293
				c0.456,0.214,2.488,0.607,2.488,0.607s-1.659-9.888-2.315-11.636c-0.656-1.749-2.827-2.43-2.827-2.43s2.635-1.742,3.764-1.29
				c1.129,0.452,0.786,1.179,0.786,1.179s2.232,8.729,2.536,13.664c0.304,4.935-0.458,6.147-1.026,7.333
				C231.046,87.87,215.49,87.568,210.922,86.013z"/>
			<path style="fill:#FFB68E;" d="M145.747,108.843c0,0-0.451,2.689-1.546,4.797c-1.094,2.108-1.567,1.433-1.291-0.091
				s0.163-2.431,0.163-2.431s-1.16,0.937-1.535,1.904c-0.17,0.438,0.843,1.035,0.6,1.186c-1.226,0.765-2.526-0.809-2.526-0.809
				s-0.502,0.782-1.034,0.665c-1.131-0.248-0.311-1.434-0.311-1.434s-0.945,0.833-1.193-0.064c-0.248-0.897-0.141-0.863-0.141-0.863
				s-2.538,1.9-2.434,0.7c0.103-1.2,8.18-6.368,8.18-6.368L145.747,108.843z"/>
			<path style="fill:#020023;" d="M198.898,74.975l-0.433,0.403c0,0,4.786,9.597,5.915,12.541c1.786,4.657,1.756,6.136,2.256,8.49
				c0.139,0.656,0.361,3.684,0.361,3.684l0.587,12.496c0,0,1.536-13.396-1.033-21.045C205.532,88.507,198.898,74.975,198.898,74.975
				z"/>
			<g>
				<path style="fill:#020023;" d="M143.963,106.586l-0.289-0.194c0.405-0.603,9.8-14.563,11.947-15.687
					c0.036-0.019,0.068-0.034,0.1-0.045c0.853-0.312,6.016-3.296,11.482-6.457c8.219-4.752,13.652-7.871,14.284-7.922
					c0.063-0.005,0.158,0.01,0.252,0.111c0.535,0.582,0.884,4.593,0.633,6.084l-0.343-0.057c0.27-1.609-0.169-5.524-0.555-5.798
					c-0.559,0.056-8.065,4.397-14.096,7.884c-5.48,3.169-10.657,6.163-11.537,6.482c-0.026,0.01-0.053,0.022-0.083,0.037
					C154.066,91.909,146.705,102.505,143.963,106.586z"/>
			</g>
			<polygon style="fill:#020023;" points="179.055,109.646 184.294,108.597 184.846,106.876 179.34,108.289 			"/>
			<g>
				<path style="fill:#020023;" d="M180.003,108.294c-0.044,0.023-0.097,0.027-0.146,0.007c-0.089-0.036-0.132-0.137-0.096-0.227
					c0.034-0.085,3.431-8.504,4.311-13.169c0.877-4.645,0.743-6.44,0.742-6.458c-0.008-0.096,0.064-0.18,0.159-0.188
					c0.096-0.008,0.18,0.063,0.188,0.159c0.006,0.074,0.142,1.847-0.746,6.552c-0.887,4.699-4.297,13.15-4.331,13.235
					C180.067,108.244,180.038,108.275,180.003,108.294z"/>
			</g>
			<g>
				<path style="fill:#020023;" d="M181.701,99.31c-0.029,0.015-0.063,0.022-0.098,0.019c-0.096-0.009-0.166-0.094-0.156-0.19
					l0.997-10.248c0.009-0.096,0.094-0.166,0.19-0.156c0.096,0.009,0.166,0.094,0.156,0.19l-0.997,10.248
					C181.787,99.233,181.751,99.284,181.701,99.31z"/>
			</g>
			<g>
				<path style="fill:#020023;" d="M196.313,88.247c-0.048,0.025-0.107,0.028-0.159,0.001l-5.435-2.742l-0.013-0.09
					c-0.002-0.011-0.177-1.103-1.722-4.226c-1.55-3.133-4.991-5.775-5.025-5.802c-0.077-0.058-0.091-0.168-0.033-0.244
					c0.057-0.076,0.168-0.091,0.244-0.033c0.035,0.027,3.541,2.719,5.127,5.925c1.346,2.72,1.667,3.916,1.736,4.238l5.277,2.663
					c0.086,0.043,0.12,0.148,0.077,0.234C196.371,88.205,196.345,88.231,196.313,88.247z"/>
			</g>
			<g>
				<path style="fill:#020023;" d="M190.202,108.804c-0.038,0.02-0.084,0.026-0.128,0.013c-0.092-0.026-0.146-0.122-0.12-0.215
					c0.017-0.061,1.734-6.16,2.019-11.565c0.285-5.404-0.518-9.467-0.527-9.507c-0.019-0.095,0.04-0.186,0.136-0.205
					c0.094-0.019,0.186,0.042,0.205,0.136c0.008,0.041,0.82,4.148,0.533,9.595c-0.287,5.445-2.014,11.58-2.031,11.642
					C190.275,108.745,190.242,108.782,190.202,108.804z"/>
			</g>
			<g>
				<path style="fill:#020023;" d="M207.813,85.043c-0.548,0.287-1.666,0.399-2.055,0.43c-0.096,0.008-0.18-0.064-0.187-0.16
					c-0.007-0.095,0.063-0.179,0.16-0.187c1.014-0.081,1.993-0.313,2.055-0.488c-0.237-0.52-4.223-7.714-4.264-7.787
					c-0.047-0.084-0.016-0.19,0.068-0.237c0.001-0.001,0.002-0.001,0.004-0.002c0.083-0.044,0.187-0.013,0.233,0.07
					c0.164,0.297,4.033,7.279,4.274,7.816c0.048,0.107,0.042,0.221-0.018,0.321C208.033,84.903,207.937,84.978,207.813,85.043z"/>
			</g>
			<g>
				<path style="fill:#020023;" d="M208.812,100.363c-0.031,0.016-0.068,0.024-0.105,0.018c-0.095-0.013-0.161-0.102-0.148-0.197
					c0.007-0.046,0.664-4.674,0.69-7.481c0.025-2.792-1.078-6.295-1.089-6.33c-0.029-0.092,0.023-0.194,0.113-0.219
					c0.091-0.029,0.189,0.021,0.219,0.113c0.011,0.036,1.132,3.592,1.105,6.439c-0.026,2.831-0.687,7.48-0.693,7.527
					C208.896,100.291,208.86,100.338,208.812,100.363z"/>
			</g>
			<path style="fill:#172755;" d="M193.051,68.654c0,0,2.003-1.153,2.805-2.584s1.017-2.233,0.748-2.87
				c-0.567-1.339,0.211-3.851,0.742-3.141c0.531,0.71,0.239,2.582,0.708,2.125c0.469-0.457,0.347-2.881,1.759-3.526
				c1.412-0.646,2.312,0.541,3.939,0.3c1.761-0.261,4.239-1.106,5.077-1.712c2.782-2.012,3.838-4.19,2.813-5.934
				c-1.579-2.687-4.718-2.305-9.01-0.817c-4.447,1.542-10.146,4.462-9.945,5.782c0.201,1.32,2.528,2.577,1.26,2.559
				c-1.268-0.018-1.965,0.754-1.887,1.829C192.222,62.906,193.957,66.019,193.051,68.654z"/>
			
				<linearGradient id="SVGID_00000152260141653215834340000004783132779866908036_" gradientUnits="userSpaceOnUse" x1="211.3851" y1="77.0366" x2="203.6335" y2="84.8126" gradientTransform="matrix(0.9977 -0.0676 0.0676 0.9977 -20.5006 11.7456)">
				<stop  offset="0.1072" style="stop-color:#FFFFA4"/>
				<stop  offset="0.4147" style="stop-color:#FFD234"/>
				<stop  offset="0.7979" style="stop-color:#FF9200"/>
			</linearGradient>
			<path style="fill:url(#SVGID_00000152260141653215834340000004783132779866908036_);" d="M189.345,73.937
				c0.171-0.049,1.958,0.451,4.38,1.638c2.421,1.187,4.098,2.793,4.098,2.793s-0.188,0.395,0.449,0.992s0.412,0.602,0.412,0.602
				s-0.555,0.386-0.869,0.174c-0.314-0.212-1.071-0.925-1.071-0.925l-0.928,1.771c0,0-2.303-1.364-4.487-3.186
				c-1.677-1.399-3.973-3.205-3.973-3.205L189.345,73.937z"/>
			
				<linearGradient id="SVGID_00000088093373598591784170000009540479668325364610_" gradientUnits="userSpaceOnUse" x1="216.8018" y1="77.4709" x2="212.1351" y2="83.8057" gradientTransform="matrix(0.9977 -0.0676 0.0676 0.9977 -20.5006 11.7456)">
				<stop  offset="0.1072" style="stop-color:#FFFFA4"/>
				<stop  offset="0.4147" style="stop-color:#FFD234"/>
				<stop  offset="0.7979" style="stop-color:#FF9200"/>
			</linearGradient>
			<path style="fill:url(#SVGID_00000088093373598591784170000009540479668325364610_);" d="M197.987,74.543l2.166-0.004
				c0,0,0.999,0.956,1.075,2.327c0.077,1.371-0.719,3.097-0.765,3.03c-0.046-0.068-0.906-1.282-1.029-1.129
				c-0.123,0.153-0.13,0.797-0.13,0.797s-1.44-3.246-1.423-3.882C197.897,75.044,197.987,74.543,197.987,74.543z"/>
			<path style="fill:#FF3C00;" d="M197.965,80.191l2.279,2.43l-0.267-3.373C199.978,79.248,198.691,79.975,197.965,80.191z"/>
			<path style="fill:#FF3C00;" d="M183.67,112.651l2.805-4.492c0,0,6.58-6.722,10.053-13.502c3.472-6.779,2.921-13.319,2.921-13.319
				l0.809,0.97c0,0,0.977,10.609-3.277,18.867C192.727,109.435,189.051,111.573,183.67,112.651z"/>
			<path style="fill:#EF8B59;" d="M199.182,70.901l-2.312-1.672c0,0-0.204,3.063-0.166,4.664c0.038,1.602,1.504,2.852,1.504,2.852
				s-0.334-0.721-0.199-1.832C198.143,73.802,199.182,70.901,199.182,70.901z"/>
			<path style="fill:#020023;" d="M196.71,63.828c0,0-1.582-1.196-2.524-2.502s-1-2.388-1-2.388s-1.355,0.217-1.196,1.829
				c0.167,1.685,1.122,4.211,1.203,5.551c0.081,1.34-0.142,2.336-0.142,2.336S196.774,66.741,196.71,63.828z"/>
			<g>
				<path style="fill:#020023;" d="M201.257,58.252c-0.008,0.002-0.015,0.004-0.019,0.005c-0.093,0.024-0.188-0.032-0.212-0.125
					c-0.024-0.092,0.031-0.187,0.124-0.212c0,0-0.001,0,0.004-0.001c0.133-0.035,4.238-1.16,5.973-4.136
					c0.345-0.593,0.408-1.062,0.186-1.396c-0.611-0.92-3.246-0.795-4.21-0.669c-0.095,0.012-0.183-0.055-0.195-0.15
					c-0.013-0.096,0.055-0.184,0.15-0.195c0.15-0.019,3.69-0.465,4.545,0.822c0.301,0.454,0.242,1.048-0.176,1.764
					C205.643,57.022,201.611,58.158,201.257,58.252z"/>
			</g>
			<g>
				<path style="fill:#020023;" d="M200.285,58.387c-0.058,0.031-0.132,0.026-0.187-0.017c-0.076-0.059-0.09-0.168-0.031-0.244
					c1.978-2.557,3.451-4.977,3.216-5.284c-0.313-0.408-1.617-0.004-2.365,0.347c-0.087,0.041-0.191,0.003-0.231-0.084
					c-0.041-0.087-0.003-0.193,0.083-0.232c0.224-0.105,2.206-1.005,2.79-0.243c0.553,0.723-2.323,4.552-3.218,5.708
					C200.326,58.36,200.307,58.376,200.285,58.387z"/>
			</g>
			<g>
				<path style="fill:#020023;" d="M198.135,60.68c-0.012,0.001-0.024,0-0.036-0.001c-0.095-0.013-0.161-0.101-0.149-0.195
					c0.002-0.015,0.126-1.145-1.186-2.73c-1.313-1.587-3.158-1.371-3.18-1.37c-0.092,0.013-0.182-0.056-0.195-0.151
					c-0.012-0.095,0.056-0.182,0.151-0.195c0.082-0.01,2.059-0.239,3.491,1.493c1.422,1.718,1.27,2.948,1.263,2.999
					C198.284,60.613,198.216,60.674,198.135,60.68z"/>
			</g>
			<g>
				<path style="fill:#020023;" d="M207.324,57.372c-2.052,1.075-4.145,1.342-4.275,1.358c-0.096,0.012-0.182-0.056-0.194-0.152
					c-0.012-0.096,0.057-0.182,0.152-0.194c0.046-0.005,4.659-0.597,6.833-3.505c0.548-0.734,0.742-1.31,0.561-1.668
					c-0.257-0.505-1.188-0.501-1.197-0.501c-0.096,0.001-0.175-0.076-0.176-0.172c-0.001-0.095,0.075-0.173,0.172-0.176
					c0.047,0,1.156-0.007,1.512,0.691c0.25,0.491,0.051,1.175-0.592,2.035C209.365,56.097,208.349,56.835,207.324,57.372z"/>
			</g>
			<g>
				
					<rect x="207.09" y="58.603" transform="matrix(0.9837 -0.1798 0.1798 0.9837 -7.1424 40.9005)" style="fill:#FF3C00;" width="30.022" height="2.512"/>
				<polygon style="fill:#FF3C00;" points="247.861,58.013 218.207,62.748 217.437,58.535 246.831,52.376 				"/>
				<polygon style="fill:#FF3C00;" points="259.51,57.617 233.945,61.131 232.709,54.367 257.856,48.567 				"/>
				<polygon style="fill:#DD2400;" points="256.999,48.625 233.945,61.131 258.664,57.733 				"/>
				<polygon style="fill:#DD2400;" points="232.774,55.321 233.786,60.26 218.207,62.748 				"/>
				<polygon style="fill:#DD2400;" points="217.625,59.567 218.048,61.877 208.526,63.546 				"/>
				
					<rect x="257.876" y="46.674" transform="matrix(0.9837 -0.1798 0.1798 0.9837 -5.3589 47.4638)" style="fill:#FF3C00;" width="2.682" height="13.256"/>
				
					<rect x="206.341" y="60.63" transform="matrix(0.9837 -0.1797 0.1797 0.9837 -7.8673 38.2831)" style="fill:#FF3C00;" width="1.988" height="3.855"/>
			</g>
			<path style="fill:#FFB68E;" d="M225.42,57.016c0,0,0.932,1.942,1.319,2.072c0.387,0.13,0.347-0.723,0.347-0.723
				s0.371,0.986,0.755,0.849c0.384-0.137,0.277-0.943,0.277-0.943s0.331,0.792,0.624,0.549c0.293-0.243,0.258-1.011,0.258-1.011
				s0.087,0.709,0.509,0.738c0.422,0.029,0.286-1.013-0.05-1.889c-0.336-0.876-0.581-1.197-0.83-1.153
				c-0.25,0.044-0.297,0.187-0.297,0.187s-0.46-0.405-0.742-0.205c-0.282,0.2-0.267,0.393-0.267,0.393s-0.72-0.499-0.985-0.258
				c-0.265,0.241-0.307,0.529-0.307,0.529s-0.625-0.427-0.805-0.164c-0.18,0.264-0.409,1-0.409,1L225.42,57.016z"/>
			<path style="fill:#FFB68E;" d="M226.455,64.491c0,0-2.835-2.734-2.927-3.447c-0.092-0.713,1.008-2.781,1.261-3.062
				c0.254-0.281,0.291,2.406,0.272,2.973c-0.019,0.566,1.064,0.331,2.253,0.25c1.578-0.107,2.332-0.205,2.53,0.007
				c0.198,0.212-0.68,2.39-0.68,2.39L226.455,64.491z"/>
			<path style="fill:#EF8B59;" d="M229.165,63.603c0,0-0.965,0.117-2.134-0.389c-1.169-0.506-1.736-1.894-1.736-1.894
				s1.593-0.576,2.876-0.541c1.283,0.036,1.756,0.097,1.756,0.097S230.031,62.421,229.165,63.603z"/>
			<path style="fill:#DD2400;" d="M208.526,63.546l9.1-3.979L208.526,63.546z"/>
			<defs>
				
					<filter id="Adobe_OpacityMaskFilter_00000038395005593159981910000017935556220808132284_" filterUnits="userSpaceOnUse" x="233.881" y="49.636" width="19.341" height="4.461">
					<feFlood  style="flood-color:white;flood-opacity:1" result="back"/>
					<feBlend  in="SourceGraphic" in2="back" mode="normal"/>
				</filter>
			</defs>
			
				<mask maskUnits="userSpaceOnUse" x="233.881" y="49.636" width="19.341" height="4.461" id="SVGID_00000124121317444576501840000001413901722543096239_">
				<g style="filter:url(#Adobe_OpacityMaskFilter_00000038395005593159981910000017935556220808132284_);">
					<defs>
						
							<filter id="Adobe_OpacityMaskFilter_00000145741145252382997520000002690695068924710567_" filterUnits="userSpaceOnUse" x="233.881" y="49.636" width="19.341" height="4.461">
							<feFlood  style="flood-color:white;flood-opacity:1" result="back"/>
							<feBlend  in="SourceGraphic" in2="back" mode="normal"/>
						</filter>
					</defs>
					
						<mask maskUnits="userSpaceOnUse" x="233.881" y="49.636" width="19.341" height="4.461" id="SVGID_00000124121317444576501840000001413901722543096239_">
						<g style="filter:url(#Adobe_OpacityMaskFilter_00000145741145252382997520000002690695068924710567_);">
						</g>
					</mask>
					
						<linearGradient id="SVGID_00000090975733675646007780000003982030790757687723_" gradientUnits="userSpaceOnUse" x1="250.94" y1="58.0172" x2="270.5384" y2="58.0172" gradientTransform="matrix(0.9977 -0.0676 0.0676 0.9977 -20.5006 11.7456)">
						<stop  offset="0.0615" style="stop-color:#FFFFFF"/>
						<stop  offset="0.4255" style="stop-color:#A3A3A3"/>
						<stop  offset="1" style="stop-color:#000000"/>
					</linearGradient>
					
						<path style="mask:url(#SVGID_00000124121317444576501840000001413901722543096239_);fill:url(#SVGID_00000090975733675646007780000003982030790757687723_);" d="
						M233.881,54.097c0,0,5.038-0.241,9.502-0.374c4.464-0.133,9.839-4.087,9.839-4.087L233.881,54.097z"/>
				</g>
			</mask>
			
				<linearGradient id="SVGID_00000182511652951058842260000013376530631020688049_" gradientUnits="userSpaceOnUse" x1="250.94" y1="58.0172" x2="270.5384" y2="58.0172" gradientTransform="matrix(0.9977 -0.0676 0.0676 0.9977 -20.5006 11.7456)">
				<stop  offset="0.0615" style="stop-color:#FFFFFF"/>
				<stop  offset="0.4255" style="stop-color:#FFFFFF"/>
				<stop  offset="1" style="stop-color:#FFFFFF"/>
			</linearGradient>
			<path style="opacity:0.66;fill:url(#SVGID_00000182511652951058842260000013376530631020688049_);" d="M233.881,54.097
				c0,0,5.038-0.241,9.502-0.374c4.464-0.133,9.839-4.087,9.839-4.087L233.881,54.097z"/>
			<defs>
				
					<filter id="Adobe_OpacityMaskFilter_00000109736507531548649890000012513038670823657368_" filterUnits="userSpaceOnUse" x="256.707" y="46.541" width="4.639" height="10.951">
					<feFlood  style="flood-color:white;flood-opacity:1" result="back"/>
					<feBlend  in="SourceGraphic" in2="back" mode="normal"/>
				</filter>
			</defs>
			
				<mask maskUnits="userSpaceOnUse" x="256.707" y="46.541" width="4.639" height="10.951" id="SVGID_00000134251866955209035970000009453737192995472270_">
				<g style="filter:url(#Adobe_OpacityMaskFilter_00000109736507531548649890000012513038670823657368_);">
					<defs>
						
							<filter id="Adobe_OpacityMaskFilter_00000099660633005706371220000003309173366400953752_" filterUnits="userSpaceOnUse" x="256.707" y="46.541" width="4.639" height="10.951">
							<feFlood  style="flood-color:white;flood-opacity:1" result="back"/>
							<feBlend  in="SourceGraphic" in2="back" mode="normal"/>
						</filter>
					</defs>
					
						<mask maskUnits="userSpaceOnUse" x="256.707" y="46.541" width="4.639" height="10.951" id="SVGID_00000134251866955209035970000009453737192995472270_">
						<g style="filter:url(#Adobe_OpacityMaskFilter_00000099660633005706371220000003309173366400953752_);">
						</g>
					</mask>
					
						<linearGradient id="SVGID_00000054952153565539814620000006995872806766470038_" gradientUnits="userSpaceOnUse" x1="274.1918" y1="59.1646" x2="278.1129" y2="59.1646" gradientTransform="matrix(0.9977 -0.0676 0.0676 0.9977 -20.5006 11.7456)">
						<stop  offset="0.0615" style="stop-color:#FFFFFF"/>
						<stop  offset="0.4255" style="stop-color:#A3A3A3"/>
						<stop  offset="1" style="stop-color:#000000"/>
					</linearGradient>
					
						<path style="mask:url(#SVGID_00000134251866955209035970000009453737192995472270_);fill:url(#SVGID_00000054952153565539814620000006995872806766470038_);" d="
						M256.707,47.023c0,0,1.649,4.801,2.554,6.921c0.905,2.12,2.085,3.548,2.085,3.548l-2.001-10.951L256.707,47.023z"/>
				</g>
			</mask>
			
				<linearGradient id="SVGID_00000084493689273629792530000006973746951834835366_" gradientUnits="userSpaceOnUse" x1="274.1918" y1="59.1646" x2="278.1129" y2="59.1646" gradientTransform="matrix(0.9977 -0.0676 0.0676 0.9977 -20.5006 11.7456)">
				<stop  offset="0.0615" style="stop-color:#FFFFFF"/>
				<stop  offset="0.4255" style="stop-color:#FFFFFF"/>
				<stop  offset="1" style="stop-color:#FFFFFF"/>
			</linearGradient>
			<path style="opacity:0.66;fill:url(#SVGID_00000084493689273629792530000006973746951834835366_);" d="M256.707,47.023
				c0,0,1.649,4.801,2.554,6.921c0.905,2.12,2.085,3.548,2.085,3.548l-2.001-10.951L256.707,47.023z"/>
		</g>
		<path style="fill:#19437F;" d="M202.337,114.326c2.999-2.21,32.065-8.372,34.656-3.978c2.591,4.394-2.072,37.102-2.072,37.102
			l-6.745,1.971c0,0,0.256-6.62,0.056-14.116c-0.323-12.108-0.163-13.74-0.163-13.74c-1.909-1.008-33.614,10.568-33.614,10.568
			S198.922,116.842,202.337,114.326z"/>
		
			<linearGradient id="SVGID_00000179627488609227903090000013600565122871797405_" gradientUnits="userSpaceOnUse" x1="208.2462" y1="136.1022" x2="247.2888" y2="136.1022" gradientTransform="matrix(0.9977 -0.0676 0.0676 0.9977 -20.5006 11.7456)">
			<stop  offset="0.121" style="stop-color:#0A2D51"/>
			<stop  offset="1" style="stop-color:#0A2D51"/>
		</linearGradient>
		<path style="fill:url(#SVGID_00000179627488609227903090000013600565122871797405_);" d="M196.618,133.447
			c-0.921,0.226,2.561-3.111,2.255-7.203c-0.305-4.093,0.197-6.837,0.054-6.519c-0.143,0.318,2.152,5.462,2.789,4.991
			c0.637-0.471,5.861-4.837,20.278-8.607c6.074-1.589,7.025-0.441,7.586-0.514c0.561-0.073,5.311-3.727,4.537-2.578
			c-0.774,1.148-4.148,5.453-3.413,5.139c0.735-0.314,3.889-1.728,2.561-0.151c-1.328,1.577-4.143,4.779-3.222,4.414
			c0.921-0.365,2.911-0.911,2.102,0.236c-0.809,1.147-0.752,13.082-0.035,16.249c0.717,3.167,2.813,8.546,2.813,8.546l-6.745,1.971
			c0,0,0.138-27.109-1.207-27.574c-2.124-0.734-20.715,5.847-23.158,7.118C201.76,130.033,200.411,132.516,196.618,133.447z"/>
		<g>
			<path style="fill:#FFFFFF;" d="M179.774,204.177c0,0-0.956-0.152-0.988-1.612c-0.033-1.46,0.22-2.827,0.22-2.827l-4.938,0.987
				c0,0,0.521,6.949,2.41,7.29C177.724,208.241,178.514,205.484,179.774,204.177z"/>
			<path style="fill:#050023;" d="M174.749,207.492c0,0,1.357,1.851,2.798,1.001c1.441-0.85,11.772-7.566,11.33-7.824
				c-0.442-0.258-0.656-1.084-0.948-0.938c-0.292,0.145-5.152,2.795-6.803,2.152c-1.651-0.643-1.763-2.015-1.763-2.015l-2.262,1.525
				c0,0,1.405,1.703,1.329,2.67C178.353,205.03,174.749,207.492,174.749,207.492z"/>
		</g>
		<g>
			<path style="fill:#FFFFFF;" d="M235.568,152.016c0,0-0.964-0.09-1.09-1.545c-0.126-1.455,0.039-2.835,0.039-2.835l-4.864,1.302
				c0,0,0.966,6.901,2.873,7.121C233.783,156.204,234.395,153.401,235.568,152.016z"/>
			<path style="fill:#050023;" d="M230.766,155.646c0,0,1.473,1.76,2.856,0.819c1.383-0.941,11.263-8.305,10.805-8.534
				s-0.724-1.039-1.006-0.875c-0.282,0.164-4.962,3.119-6.651,2.584c-1.689-0.536-1.889-1.898-1.889-1.898l-2.159,1.667
				c0,0,1.511,1.609,1.497,2.579C234.204,152.958,230.766,155.646,230.766,155.646z"/>
		</g>
		<g>
			<path style="fill:#020023;" d="M176.537,130.268c-0.063,0-0.099-0.003-0.108-0.004c-0.12-0.012-0.208-0.12-0.196-0.24
				c0.012-0.12,0.122-0.205,0.239-0.196c0.015,0.002,1.705,0.119,5.379-2.173c2.545-1.588,5.132-4.724,6.678-6.598
				c0.948-1.149,1.343-1.619,1.585-1.7c0.175-0.059,0.504-0.089,0.958-0.131c1.256-0.117,3.36-0.311,4.581-1.302
				c1.286-1.044,2.665-1.752,3.671-2.269c0.349-0.179,0.66-0.338,0.915-0.485c1-0.575,1.995-1.038,2.005-1.043
				c0.11-0.052,0.241-0.003,0.291,0.106c0.051,0.11,0.003,0.24-0.106,0.291c-0.01,0.005-0.989,0.46-1.972,1.025
				c-0.26,0.15-0.577,0.312-0.934,0.495c-0.989,0.508-2.344,1.204-3.595,2.219c-1.325,1.075-3.511,1.277-4.817,1.398
				c-0.393,0.036-0.732,0.068-0.859,0.111c-0.156,0.073-0.781,0.831-1.385,1.563c-1.563,1.895-4.178,5.065-6.784,6.691
				C178.733,130.117,176.976,130.268,176.537,130.268z"/>
		</g>
		<g>
			<path style="fill:#020023;" d="M187.538,120.996c-0.021,0-0.042-0.003-0.064-0.009c-0.116-0.035-0.181-0.158-0.146-0.274
				c0.032-0.105,0.803-2.611,2.514-4.843c1.99-2.595,3.627-3.836,3.696-3.887c0.096-0.072,0.234-0.052,0.307,0.044
				c0.073,0.097,0.053,0.234-0.044,0.307c-0.016,0.012-1.661,1.26-3.611,3.803c-1.661,2.167-2.435,4.678-2.443,4.704
				C187.72,120.935,187.633,120.996,187.538,120.996z"/>
		</g>
		<g>
			<path style="fill:#020023;" d="M193.059,119.269c-0.114,0-0.211-0.089-0.219-0.205c-0.003-0.037-0.054-0.921,0.392-2.048
				c0.436-1.101,1.988-3.616,2.054-3.723c0.063-0.103,0.198-0.134,0.302-0.071c0.103,0.063,0.135,0.199,0.071,0.301
				c-0.016,0.026-1.597,2.589-2.019,3.653c-0.407,1.031-0.362,1.851-0.362,1.86c0.007,0.12-0.084,0.225-0.205,0.233
				C193.068,119.269,193.064,119.269,193.059,119.269z"/>
		</g>
		<g>
			<path style="fill:#020023;" d="M180.486,134.026l-0.152-2.249l0.15-0.058c0.039-0.015,3.875-1.508,5.783-2.525
				c1.831-0.975,2.186-1.388,2.2-1.405l0.299-0.36l0.433,2.303l-0.12,0.08c-0.023,0.015-2.311,1.544-3.987,2.462
				c-1.69,0.926-4.238,1.648-4.346,1.679L180.486,134.026z M180.794,132.068l0.094,1.385c0.699-0.211,2.657-0.831,3.994-1.565
				c1.44-0.789,3.341-2.036,3.833-2.362l-0.22-1.18c-0.311,0.241-0.907,0.641-2.021,1.235
				C184.76,130.494,181.527,131.78,180.794,132.068z"/>
		</g>
		<g>
			<path style="fill:#020023;" d="M187.284,171.025c-0.583,0-1.424-0.171-2.583-0.763c-2.56-1.31-3.299-2.032-3.33-2.062
				l-0.063-0.063l-0.001-0.089c0-0.025-0.042-2.527-0.177-4.939c-0.135-2.392-1.932-22.535-2.384-26.922
				c-0.443-4.3-0.129-6.602-0.116-6.698c0.017-0.119,0.126-0.198,0.248-0.186c0.12,0.017,0.203,0.128,0.186,0.248
				c-0.003,0.023-0.32,2.351,0.117,6.591c0.452,4.389,2.251,24.547,2.385,26.941c0.121,2.153,0.167,4.378,0.176,4.861
				c0.223,0.191,1.074,0.86,3.157,1.926c2.352,1.205,3.183,0.53,3.191,0.522c0.091-0.076,0.228-0.069,0.308,0.019
				c0.079,0.089,0.075,0.224-0.012,0.305C188.364,170.738,188.041,171.025,187.284,171.025z"/>
		</g>
		<g>
			<path style="fill:#020023;" d="M187.989,167.113c-0.023,0-0.047-0.003-0.07-0.012c-1.552-0.521-5.182-1.803-5.373-2.442
				c-0.03-0.1-0.011-0.204,0.052-0.284c0.404-0.514,5.449-1.176,7.598-1.436c0.116-0.017,0.23,0.071,0.244,0.191
				c0.015,0.12-0.071,0.23-0.191,0.244c-3.142,0.381-6.555,0.925-7.221,1.225c0.458,0.4,2.874,1.362,5.03,2.087
				c0.115,0.039,0.176,0.163,0.138,0.278C188.166,167.055,188.081,167.113,187.989,167.113z"/>
		</g>
		<g>
			
				<rect x="184.075" y="161.645" transform="matrix(0.9447 -0.3278 0.3278 0.9447 -42.7476 70.1377)" style="fill:#020023;" width="5.179" height="0.439"/>
		</g>
		<g>
			<path style="fill:#020023;" d="M173.777,200.701c-0.019,0-0.038-0.003-0.058-0.008c-0.117-0.032-0.186-0.153-0.154-0.269
				l0.961-3.517l6.776-0.459c0.122-0.016,0.226,0.083,0.234,0.204c0.008,0.121-0.083,0.225-0.204,0.233l-6.465,0.439l-0.879,3.215
				C173.962,200.637,173.873,200.701,173.777,200.701z"/>
		</g>
		<g>
			<path style="fill:#020023;" d="M196.618,133.666c-0.03,0-0.061-0.006-0.09-0.019c-0.111-0.05-0.16-0.179-0.11-0.29
				c0.001,0,0.912-2.029,1.894-4.304c0.725-1.681,0.515-2.864,0.362-3.729c-0.049-0.278-0.095-0.54-0.105-0.78
				c-0.038-0.953,0.133-4.672,0.14-4.83c0.005-0.121,0.111-0.221,0.229-0.209c0.121,0.006,0.214,0.108,0.209,0.229
				c-0.002,0.038-0.177,3.858-0.139,4.792c0.008,0.21,0.05,0.446,0.099,0.72c0.163,0.919,0.386,2.178-0.391,3.979
				c-0.984,2.279-1.896,4.31-1.896,4.31C196.782,133.618,196.702,133.666,196.618,133.666z"/>
		</g>
		<g>
			<path style="fill:#020023;" d="M196.618,133.666c-0.105,0-0.198-0.076-0.216-0.184c-0.02-0.12,0.061-0.232,0.181-0.252
				c0.032-0.005,3.193-0.549,5.147-2.949c1.37-1.683,3.108-2.229,6.569-3.317c1.827-0.574,4.102-1.289,7.067-2.401
				c5.674-2.128,8.347-2.596,9.944-2.876c0.724-0.127,1.247-0.218,1.735-0.407c1.152-0.446,3.639-4.792,4.5-6.429
				c0.057-0.107,0.189-0.148,0.296-0.092c0.107,0.057,0.148,0.189,0.093,0.296c-0.326,0.617-3.217,6.048-4.732,6.634
				c-0.529,0.204-1.068,0.299-1.817,0.43c-1.582,0.277-4.23,0.74-9.865,2.854c-2.976,1.116-5.257,1.833-7.09,2.409
				c-3.378,1.061-5.074,1.594-6.361,3.175c-2.062,2.533-5.281,3.083-5.417,3.105C196.642,133.665,196.63,133.666,196.618,133.666z"
				/>
		</g>
		<g>
			<path style="fill:#020023;" d="M228.986,123.102c-0.451,0-0.514-0.137-0.548-0.211c-0.2-0.428,1.3-2.323,4.455-5.63
				c0.085-0.089,0.223-0.09,0.31-0.007c0.087,0.084,0.091,0.222,0.007,0.31c-2.014,2.112-4.115,4.523-4.343,5.116
				c0.506,0.075,2.742-0.541,4.646-1.193c0.111-0.039,0.24,0.021,0.278,0.136c0.039,0.114-0.021,0.239-0.136,0.278
				C230.862,122.859,229.583,123.102,228.986,123.102z"/>
		</g>
		<g>
			<path style="fill:#020023;" d="M227.939,149.714l0.254-4.22l2.492-0.729l4.94-0.878l-0.506,3.738l-0.144,0.036
				c-0.011,0.003-1.115,0.279-2.048,0.598c-0.948,0.326-4.539,1.329-4.692,1.372L227.939,149.714z M228.612,145.829l-0.199,3.298
				c0.901-0.253,3.591-1.014,4.371-1.281c0.749-0.257,1.605-0.485,1.939-0.572l0.386-2.848l-4.324,0.767L228.612,145.829z"/>
		</g>
		<g>
			<path style="fill:#020023;" d="M207.84,112.133l-0.437-0.039c0.006-0.081,0.639-8.189,1.087-11.946
				c0.09-0.762,0.096-0.804,0.323-0.783c0.085,0.009,0.141,0.015,0.154,0.27l0.032,0.009c-0.006,0.025-0.015,0.09-0.029,0.198
				c-0.011,0.654-0.161,2.225-0.524,6.028C208.145,109.002,207.84,112.133,207.84,112.133z"/>
		</g>
	</g>
	<g>
		<path style="fill:#020023;" d="M200.112,130.52c-0.032,0-0.064-0.007-0.094-0.021c-0.109-0.052-0.156-0.183-0.104-0.293
			c0.015-0.029,1.428-3.013,2.174-5.157c0.735-2.111,0.57-4.112,0.568-4.132c-0.011-0.121,0.079-0.227,0.199-0.238
			c0.124-0.008,0.227,0.078,0.238,0.199c0.008,0.086,0.174,2.117-0.591,4.314c-0.754,2.166-2.178,5.171-2.192,5.201
			C200.273,130.474,200.194,130.52,200.112,130.52z"/>
	</g>
	<g>
		<path style="fill:#020023;" d="M204.154,64.197c-0.115,0-0.222-0.021-0.286-0.035l-0.152-0.036l-0.239-2.349l0.166-0.056
			c0.265-0.09,0.746-0.223,0.983-0.101c0.078,0.039,0.135,0.104,0.161,0.182c0.071,0.212-0.028,2.062-0.26,2.277
			C204.429,64.17,204.286,64.197,204.154,64.197z M204.12,63.756c0.036,0.002,0.07,0.001,0.093-0.001
			c0.081-0.28,0.185-1.397,0.165-1.746c-0.093,0.001-0.258,0.032-0.428,0.078L204.12,63.756z"/>
	</g>
	<g>
		<g>
			<path style="fill:#020023;" d="M199.386,64.467c-0.296,0-0.357-0.052-0.398-0.088l-0.081-0.07l-0.008-0.135
				c0.011-0.251,0.158-1.646,0.164-1.706l0.018-0.166l0.164-0.027c3.764-0.625,3.785-0.558,3.856-0.338
				c0.062,0.191-0.174,1.245-0.455,1.724c-0.134,0.228-0.281,0.356-0.449,0.389C200.55,64.378,199.77,64.467,199.386,64.467z
				 M199.348,64.034c0.398,0.003,1.47-0.156,2.763-0.414c0.193-0.038,0.475-0.945,0.547-1.401c-0.507,0.043-1.893,0.25-3.177,0.461
				C199.437,63.106,199.374,63.725,199.348,64.034z"/>
		</g>
		<g>
			<path style="fill:#020023;" d="M203.771,63.294c-0.004,0-0.008,0-0.012,0l-1.089-0.059c-0.121-0.007-0.214-0.11-0.207-0.231
				c0.007-0.121,0.098-0.208,0.231-0.207l1.089,0.059c0.121,0.006,0.214,0.11,0.207,0.231
				C203.983,63.203,203.887,63.294,203.771,63.294z"/>
		</g>
		<path style="fill:#020023;" d="M199.281,62.491c0,0-1.763-2.623-2.328-2.749c-0.565-0.127-1.534,0.764-1.534,0.764l0.234,0.176
			c0,0,0.762-0.668,1.092-0.3c0.331,0.368,2.189,3.904,2.189,3.904L199.281,62.491z"/>
	</g>
</g>
</svg>
