<?xml version="1.0" encoding="utf-8"?><svg version="1.1" id="Layer_1" xmlns="http://www.w3.org/2000/svg" xmlns:xlink="http://www.w3.org/1999/xlink" x="0px" y="0px" viewBox="0 0 122.88 113.54" style="enable-background:new 0 0 122.88 113.54" xml:space="preserve"><style type="text/css">.st0{fill-rule:evenodd;clip-rule:evenodd;fill:#1B7CBD;} .st1{fill-rule:evenodd;clip-rule:evenodd;fill:#4398D1;} .st2{fill-rule:evenodd;clip-rule:evenodd;fill:#FFD401;} .st3{fill-rule:evenodd;clip-rule:evenodd;fill:#FF0000;} .st4{fill:#FFFFFF;}</style><g><path class="st0" d="M61.44,0l12.49,10.15L89.83,7.6l5.74,15.04l15.04,5.74l-1.08,6.74H13.36l-1.08-6.74l15.04-5.74L33.05,7.6 l15.89,2.55L61.44,0L61.44,0z M109.52,78.41l1.08,6.74l-15.04,5.74l-5.74,15.04l-15.89-2.55l-12.49,10.15l-12.49-10.15l-15.89,2.55 l-5.74-15.04l-15.04-5.74l1.08-6.74H109.52L109.52,78.41z"/><path class="st1" d="M61.44,6.51L72.5,15.5l14.07-2.26l5.08,13.32l13.32,5.08l-0.56,3.49H18.47l-0.56-3.49l13.32-5.08l5.08-13.32 l14.07,2.26L61.44,6.51L61.44,6.51L61.44,6.51L61.44,6.51z M104.41,78.41l0.56,3.49l-13.32,5.08l-5.08,13.32L72.5,98.04 l-11.06,8.99l-11.06-8.99l-14.07,2.26l-5.08-13.32L17.91,81.9l0.56-3.49H104.41L104.41,78.41z"/><path class="st2" d="M61.92,14.12l2.54,5.95l6.45,0.58c0.29,0.02,0.5,0.27,0.47,0.56c-0.01,0.14-0.07,0.26-0.18,0.35l0,0 l-4.88,4.26l1.44,6.31c0.07,0.28-0.11,0.55-0.39,0.62c-0.14,0.03-0.29,0-0.4-0.07l-5.55-3.31l-5.56,3.33 c-0.24,0.15-0.56,0.07-0.71-0.18c-0.07-0.12-0.09-0.26-0.06-0.38l0,0l1.44-6.31l-4.88-4.26c-0.21-0.18-0.24-0.52-0.05-0.73 c0.1-0.11,0.24-0.16,0.37-0.17l6.43-0.58l2.54-5.96c0.11-0.27,0.41-0.38,0.68-0.27C61.77,13.9,61.87,14,61.92,14.12L61.92,14.12 L61.92,14.12L61.92,14.12z"/><path class="st2" d="M61.77,83.03l1.73,4.05l4.39,0.39c0.2,0.02,0.34,0.19,0.32,0.38c-0.01,0.1-0.05,0.18-0.12,0.24l0,0l-3.32,2.9 l0.98,4.3c0.05,0.19-0.08,0.38-0.27,0.42c-0.1,0.02-0.2,0-0.27-0.05l-3.77-2.25l-3.78,2.26c-0.17,0.1-0.38,0.05-0.48-0.12 c-0.05-0.08-0.06-0.18-0.04-0.26l0,0l0.98-4.3l-3.32-2.9c-0.15-0.13-0.16-0.35-0.04-0.5c0.07-0.08,0.16-0.11,0.25-0.12l4.38-0.39 l1.73-4.05c0.08-0.18,0.28-0.26,0.46-0.19C61.67,82.88,61.73,82.95,61.77,83.03L61.77,83.03L61.77,83.03L61.77,83.03z"/><polygon class="st3" points="0,39.43 122.88,39.43 111.95,56.96 122.88,74.11 0,74.11 6.65,56.77 0,39.43"/><path class="st4" d="M29.13,58.22c0,1.71-0.04,2.91-0.13,3.62c-0.09,0.71-0.36,1.36-0.81,1.95c-0.46,0.59-1.07,1.04-1.85,1.35 c-0.77,0.31-1.68,0.47-2.71,0.47c-0.98,0-1.86-0.15-2.64-0.45c-0.78-0.3-1.41-0.74-1.88-1.33c-0.47-0.59-0.76-1.24-0.85-1.94 c-0.09-0.7-0.13-1.92-0.13-3.67v-2.9c0-1.71,0.04-2.91,0.13-3.62c0.08-0.71,0.35-1.36,0.81-1.94c0.46-0.59,1.07-1.04,1.85-1.35 c0.77-0.31,1.68-0.47,2.71-0.47c0.98,0,1.86,0.15,2.64,0.45c0.78,0.3,1.41,0.74,1.88,1.33c0.47,0.59,0.76,1.24,0.84,1.94 c0.09,0.7,0.14,1.92,0.14,3.67V58.22L29.13,58.22z M24.38,52.65c0-0.79-0.05-1.3-0.14-1.52c-0.09-0.22-0.29-0.33-0.58-0.33 c-0.25,0-0.44,0.09-0.57,0.27c-0.13,0.18-0.2,0.7-0.2,1.58v7.92c0,0.99,0.04,1.6,0.13,1.82c0.09,0.23,0.29,0.35,0.61,0.35 c0.32,0,0.53-0.13,0.62-0.4c0.09-0.27,0.13-0.9,0.13-1.9V52.65L24.38,52.65z M31.39,48.28h3.37c2.24,0,3.76,0.08,4.56,0.24 c0.79,0.16,1.44,0.57,1.94,1.23c0.5,0.66,0.75,1.71,0.75,3.16c0,1.32-0.18,2.21-0.53,2.66c-0.35,0.45-1.05,0.73-2.09,0.82 c0.95,0.22,1.58,0.51,1.9,0.87c0.32,0.36,0.52,0.69,0.6,1c0.08,0.3,0.12,1.14,0.12,2.51v4.48h-4.42v-5.64 c0-0.91-0.08-1.47-0.23-1.69s-0.56-0.33-1.21-0.33v7.65h-4.76V48.28L31.39,48.28z M36.14,51.19v3.78c0.54,0,0.91-0.07,1.13-0.2 c0.21-0.14,0.32-0.58,0.32-1.33V52.5c0-0.54-0.1-0.89-0.31-1.06C37.07,51.27,36.69,51.19,36.14,51.19L36.14,51.19z M49.09,48.28 v16.97h-4.76V48.28H49.09L49.09,48.28z M62.39,54.53h-4.75v-1.54c0-0.97-0.05-1.58-0.13-1.82c-0.09-0.24-0.31-0.36-0.64-0.36 c-0.3,0-0.5,0.1-0.6,0.31c-0.1,0.21-0.16,0.75-0.16,1.61v8.14c0,0.76,0.05,1.27,0.16,1.51c0.1,0.24,0.32,0.36,0.63,0.36 c0.35,0,0.58-0.14,0.71-0.41c0.12-0.28,0.18-0.81,0.18-1.6v-2.01h-0.96v-2.58h5.57v9.11H59.4l-0.44-1.22 c-0.32,0.53-0.73,0.92-1.23,1.18c-0.49,0.26-1.08,0.39-1.75,0.39c-0.8,0-1.55-0.18-2.24-0.54c-0.69-0.36-1.22-0.81-1.58-1.34 c-0.36-0.53-0.59-1.09-0.68-1.67c-0.09-0.58-0.13-1.46-0.13-2.63V54.4c0-1.62,0.09-2.8,0.28-3.53c0.19-0.73,0.73-1.41,1.62-2.02 c0.89-0.61,2.05-0.92,3.46-0.92c1.39,0,2.55,0.26,3.47,0.8c0.92,0.53,1.52,1.16,1.8,1.89c0.28,0.73,0.42,1.79,0.42,3.18V54.53 L62.39,54.53z M69.47,48.28v16.97h-4.76V48.28H69.47L69.47,48.28z M82.48,48.28v16.97h-4.17l-2.48-7.71v7.71h-3.98V48.28h3.98 l2.67,7.64v-7.64H82.48L82.48,48.28z M93.09,48.28l2.72,16.97h-4.87l-0.24-3.05H89l-0.28,3.05h-4.92l2.42-16.97H93.09L93.09,48.28z M90.57,59.2c-0.24-1.92-0.48-4.3-0.73-7.12c-0.48,3.25-0.78,5.62-0.9,7.12H90.57L90.57,59.2z M101.86,48.28v13.58h2.89v3.4H97.1 V48.28H101.86L101.86,48.28z"/></g></svg>