<?xml version="1.0" encoding="UTF-8"?>
<svg version="1.1" xmlns="http://www.w3.org/2000/svg" width="512" height="512">
<path d="M0 0 C1.07383942 -0.00852997 2.14767883 -0.01705994 3.25405884 -0.02584839 C4.427146 -0.02494202 5.60023315 -0.02403564 6.80886841 -0.02310181 C8.04827179 -0.02981903 9.28767517 -0.03653625 10.56463623 -0.04345703 C13.96146306 -0.05920228 17.35804539 -0.06581218 20.75489187 -0.0670886 C22.87832402 -0.06851106 25.00173061 -0.07278245 27.1251564 -0.07808304 C34.53667068 -0.0965818 41.94811306 -0.10475386 49.35964966 -0.10317993 C56.26253279 -0.10197861 63.16510321 -0.12307919 70.06790721 -0.15466726 C75.99925767 -0.18084021 81.93050605 -0.19154681 87.8619138 -0.19026911 C91.40231582 -0.18975976 94.9424399 -0.19542738 98.48278427 -0.21662521 C102.4327485 -0.23963033 106.38228562 -0.23048037 110.33230591 -0.21841431 C111.5013446 -0.22965332 112.6703833 -0.24089233 113.87484741 -0.25247192 C120.11425676 -0.20398348 123.97748687 0.02854919 128.69998169 4.26742554 C131.64397075 7.92341482 130.95072714 12.71907937 130.89529419 17.18930054 C130.89104935 18.47927948 130.89104935 18.47927948 130.88671875 19.7953186 C130.87554319 22.53616374 130.85044348 25.27667952 130.82498169 28.01742554 C130.81494849 29.87809789 130.80582324 31.73877538 130.79763794 33.59945679 C130.77561244 38.15557286 130.74110066 42.71144339 130.69998169 47.26742554 C131.45343872 47.40680542 132.20689575 47.5461853 132.98318481 47.68978882 C156.36126608 52.66036217 179.66656939 68.71136475 197.78201294 83.70883179 C200.93402278 86.47013455 200.93402278 86.47013455 204.87966919 87.18539429 C208.886968 85.88107958 212.24386294 83.77384285 215.82498169 81.57992554 C217.34664475 80.6715817 218.86878039 79.76402905 220.39138794 78.85726929 C222.92561644 77.33739661 225.45349412 75.80849246 227.97732544 74.27133179 C233.52054361 71.02936548 237.25022019 69.17424562 243.69998169 70.26742554 C252.88070112 74.49055648 257.45442194 86.14806346 262.18875122 94.53817749 C263.9457058 97.65123632 265.71401158 100.75784271 267.48123169 103.86508179 C267.838302 104.49346954 268.19537231 105.1218573 268.56326294 105.76928711 C271.89659331 111.62875194 275.29099053 117.45168268 278.69998169 123.26742554 C282.42302929 129.62397865 286.12502953 135.99152139 289.77810669 142.38851929 C290.12281006 142.99201706 290.46751343 143.59551483 290.82266235 144.21730042 C292.54882749 147.2419951 294.27025833 150.26927686 295.98513794 153.30038452 C298.87785832 158.40356905 301.78983469 163.47797816 304.93435669 168.43148804 C312.85948968 180.95800778 312.85948968 180.95800778 312.53982544 188.87289429 C309.52367654 197.47242581 301.12784405 200.82347006 293.63748169 204.95492554 C291.28991376 206.26690463 288.94615999 207.58548836 286.60232544 208.90414429 C285.56583862 209.47866333 284.52935181 210.05318237 283.4614563 210.64511108 C281.06042705 212.05567066 278.88132403 213.54252933 276.69998169 215.26742554 C276.91654419 216.41469116 277.13310669 217.56195679 277.35623169 218.74398804 C281.71342855 244.29793974 281.50681317 271.80266352 276.69998169 297.26742554 C283.94681766 302.28549243 291.4793343 306.59038683 299.23513794 310.76742554 C308.78507435 316.07448137 308.78507435 316.07448137 311.69998169 321.26742554 C313.68786622 330.39535306 309.86999912 336.79037571 305.13748169 344.32992554 C304.10382774 346.04579109 303.0702103 347.76168004 302.03887939 349.47894287 C300.97195941 351.24898414 299.89508961 353.01266587 298.81668091 354.77572632 C295.5049778 360.21114271 292.36242541 365.74436114 289.19998169 371.26742554 C287.95075777 373.43453976 286.70075554 375.60120551 285.44998169 377.76742554 C284.83123169 378.83992554 284.21248169 379.91242554 283.57498169 381.01742554 C281.69998169 384.26742554 279.82498169 387.51742554 277.94998169 390.76742554 C277.33050659 391.84161743 276.71103149 392.91580933 276.07278442 394.02255249 C274.83163217 396.17300935 273.58897399 398.3225978 272.34475708 400.47128296 C269.42048274 405.52551319 266.51186626 410.58693275 263.65722656 415.68078613 C262.31424551 418.07499427 260.96253316 420.46421882 259.61013794 422.8531189 C258.66410183 424.53266544 257.73067764 426.21929635 256.79763794 427.90609741 C253.27049068 434.12563375 250.25538004 438.98972636 243.69998169 442.26742554 C236.01864861 443.20140581 231.24019575 440.38019978 224.69998169 436.57992554 C223.75380981 436.04947632 222.80763794 435.5190271 221.83279419 434.97250366 C217.5516934 432.5562314 213.39354398 430.06888715 209.32498169 427.31039429 C206.7874679 425.70828282 205.98931272 425.26661622 202.90701294 425.27523804 C200.56927283 426.32618669 199.19729468 427.33693191 197.38748169 429.14242554 C182.6938679 442.59549032 151.26240455 465.26742554 130.69998169 465.26742554 C130.72092896 466.41743042 130.74187622 467.5674353 130.76345825 468.75228882 C130.83607232 473.0348761 130.88185898 477.31740937 130.91970825 481.60043335 C130.93977508 483.4511125 130.96703514 485.30172863 131.0017395 487.15219116 C131.05047602 489.81836531 131.07299956 492.4836984 131.09060669 495.15023804 C131.11125183 495.97234772 131.13189697 496.7944574 131.15316772 497.64147949 C131.15523395 502.9783314 130.33701847 506.09177537 126.69998169 510.26742554 C123.55205094 512.25765688 121.09069272 512.52158456 117.39996338 512.53485107 C116.32612396 512.54338104 115.25228455 512.55191101 114.14590454 512.56069946 C112.3862738 512.5593399 112.3862738 512.5593399 110.59109497 512.55795288 C109.35169159 512.5646701 108.11228821 512.57138733 106.83532715 512.57830811 C103.43850032 512.59405335 100.04191799 512.60066326 96.64507151 512.60193968 C94.52163936 512.60336214 92.39823277 512.60763352 90.27480698 512.61293411 C82.8632927 512.63143287 75.45185032 512.63960494 68.04031372 512.63803101 C61.13743059 512.63682969 54.23486017 512.65793026 47.33205616 512.68951833 C41.40070571 512.71569128 35.46945732 512.72639788 29.53804958 512.72512019 C25.99764756 512.72461084 22.45752348 512.73027845 18.91717911 512.75147629 C14.96721488 512.77448141 11.01767776 512.76533145 7.06765747 512.75326538 C5.89861877 512.76450439 4.72958008 512.77574341 3.52511597 512.787323 C-2.71429338 512.73883455 -6.57752349 512.50630188 -11.30001831 508.26742554 C-14.24400737 504.61143625 -13.55076376 499.81577171 -13.49533081 495.34555054 C-13.49250092 494.48556458 -13.48967102 493.62557861 -13.48675537 492.73953247 C-13.47557981 489.99868733 -13.45048011 487.25817155 -13.42501831 484.51742554 C-13.41498511 482.65675318 -13.40585986 480.79607569 -13.39767456 478.93539429 C-13.37564907 474.37927822 -13.34113728 469.82340768 -13.30001831 465.26742554 C-14.05347534 465.12804565 -14.80693237 464.98866577 -15.58322144 464.84506226 C-38.9613027 459.8744889 -62.26660601 443.82348632 -80.38204956 428.82601929 C-83.5340594 426.06471652 -83.5340594 426.06471652 -87.47970581 425.34945679 C-91.48700462 426.6537715 -94.84389956 428.76100822 -98.42501831 430.95492554 C-99.94668138 431.86326937 -101.46881701 432.77082203 -102.99142456 433.67758179 C-105.52565306 435.19745446 -108.05353075 436.72635862 -110.57736206 438.26351929 C-116.12058023 441.5054856 -119.85025681 443.36060545 -126.30001831 442.26742554 C-135.44628573 438.06014252 -140.01018093 426.4712638 -144.73193359 418.11038208 C-146.12509286 415.64369829 -147.52580962 413.18133269 -148.92604065 410.71865845 C-149.65077465 409.44391922 -150.37514867 408.16897527 -151.09916687 406.89382935 C-154.65863254 400.62700264 -158.2565217 394.38258312 -161.86251831 388.14242554 C-162.47305054 387.08555542 -163.08358276 386.0286853 -163.71261597 384.93978882 C-164.94800826 382.80137196 -166.18352259 380.6630256 -167.41915894 378.52474976 C-169.35580078 375.17081991 -171.28926404 371.81507524 -173.22189331 368.45883179 C-173.86819702 367.33758911 -174.51450073 366.21634644 -175.1803894 365.06112671 C-176.45441031 362.84809091 -177.72563525 360.63344282 -178.99386597 358.41708374 C-181.73652469 353.63701093 -184.50337299 348.89276927 -187.46408081 344.24398804 C-195.46084036 331.60937949 -195.46084036 331.60937949 -195.13986206 323.66195679 C-192.12371316 315.06242526 -183.72788067 311.71138101 -176.23751831 307.57992554 C-173.88995038 306.26794644 -171.54619661 304.94936271 -169.20236206 303.63070679 C-167.64763184 302.76892822 -167.64763184 302.76892822 -166.06149292 301.88973999 C-163.66046367 300.47918041 -161.48136065 298.99232175 -159.30001831 297.26742554 C-159.51658081 296.12015991 -159.73314331 294.97289429 -159.95626831 293.79086304 C-164.31346517 268.23691134 -164.10684979 240.73218755 -159.30001831 215.26742554 C-166.54685428 210.24935864 -174.07937092 205.94446424 -181.83517456 201.76742554 C-191.38511097 196.4603697 -191.38511097 196.4603697 -194.30001831 191.26742554 C-196.28790284 182.13949802 -192.47003574 175.74447536 -187.73751831 168.20492554 C-186.70386436 166.48905998 -185.67024692 164.77317104 -184.63891602 163.0559082 C-183.57199603 161.28586693 -182.49512623 159.5221852 -181.41671753 157.75912476 C-178.10501442 152.32370837 -174.96246203 146.79048994 -171.80001831 141.26742554 C-170.55079439 139.10031132 -169.30079216 136.93364557 -168.05001831 134.76742554 C-167.43126831 133.69492554 -166.81251831 132.62242554 -166.17501831 131.51742554 C-164.30001831 128.26742554 -162.42501831 125.01742554 -160.55001831 121.76742554 C-159.62068481 120.1561377 -159.62068481 120.1561377 -158.6725769 118.51229858 C-157.43174956 116.36212436 -156.18989994 114.21253972 -154.94699097 112.06356812 C-152.02258572 107.00446233 -149.10871198 101.94013054 -146.23147583 96.85406494 C-144.87682398 94.4609534 -143.51626318 92.07122622 -142.15524292 89.68173218 C-141.20098482 88.00066928 -140.25526056 86.31477114 -139.30978394 84.62875366 C-132.25138975 72.25121602 -132.25138975 72.25121602 -126.30001831 70.26742554 C-118.6091989 69.34899063 -113.8537679 72.1467863 -107.30001831 75.95492554 C-106.35384644 76.48537476 -105.40767456 77.01582397 -104.43283081 77.56234741 C-100.15173002 79.97861967 -95.9935806 82.46596392 -91.92501831 85.22445679 C-89.38750452 86.82656825 -88.58934934 87.26823485 -85.50704956 87.25961304 C-83.16930945 86.20866439 -81.7973313 85.19791917 -79.98751831 83.39242554 C-65.29390452 69.93936075 -33.86244117 47.26742554 -13.30001831 47.26742554 C-13.32096558 46.11742065 -13.34191284 44.96741577 -13.36349487 43.78256226 C-13.43610894 39.49997498 -13.4818956 35.21744171 -13.51974487 30.93441772 C-13.5398117 29.08373857 -13.56707177 27.23312245 -13.60177612 25.38265991 C-13.65051264 22.71648577 -13.67303619 20.05115267 -13.69064331 17.38461304 C-13.71128845 16.56250336 -13.73193359 15.74039368 -13.75320435 14.89337158 C-13.75527057 9.55651968 -12.93705509 6.4430757 -9.30001831 2.26742554 C-6.15208756 0.27719419 -3.69072934 0.01326651 0 0 Z " fill="#6763F6" transform="translate(197.30001831054688,-0.267425537109375)"/>
<path d="M0 0 C4.21845733 0.02022886 6.08453856 1.79341248 9.0703125 4.65234375 C10.73300435 6.38657772 12.37444804 8.14138744 13.99609375 9.9140625 C15.64138665 11.66434686 17.29098418 13.41059696 18.9453125 15.15234375 C19.66420654 15.93262939 20.38310059 16.71291504 21.1237793 17.5168457 C24.24389454 20.49401232 26.97138949 22.37395326 31.24609375 23.1015625 C35.59611823 22.39135442 37.42099117 20.90167973 40.30859375 17.6015625 C41.04714144 13.43883918 41.19911455 11.22347323 39.171875 7.53125 C37.9672508 5.82613724 36.6451125 4.205385 35.30859375 2.6015625 C66.42340995 6.00737346 95.40483743 26.22746775 114.64453125 50.08984375 C129.40550752 69.12146092 139.79122987 92.53852539 142.30859375 116.6015625 C142.4375 117.41882813 142.56640625 118.23609375 142.69921875 119.078125 C143.0349719 122.42446475 143.11280463 124.6089365 140.94140625 127.2890625 C139.62301174 128.42692996 138.26434078 129.51900428 136.87890625 130.57421875 C133.65708078 133.11544583 130.8195191 135.94081854 127.93359375 138.8515625 C127.14807129 139.63140503 127.14807129 139.63140503 126.34667969 140.42700195 C121.58196333 145.14250763 121.58196333 145.14250763 119.93359375 151.4765625 C120.03827022 154.46259647 120.41002544 155.81324603 121.74609375 158.6015625 C124.97257787 161.11979401 126.96338801 161.30889888 130.98046875 161.109375 C134.9132701 160.2515492 137.27074218 158.18696809 140.30859375 155.6015625 C139.18191181 162.95561146 137.50411654 169.73119653 134.80859375 176.6640625 C134.46111084 177.56237793 134.11362793 178.46069336 133.75561523 179.38623047 C128.26256045 193.14854326 121.27605429 205.5774807 111.30859375 216.6015625 C110.57898438 217.44976562 109.849375 218.29796875 109.09765625 219.171875 C88.33351238 242.99599797 57.23189011 260.39207421 25.30859375 262.6015625 C24.63127197 262.72225098 23.9539502 262.84293945 23.25610352 262.96728516 C19.33119996 263.42308041 17.13945617 263.19929685 13.87402344 260.85009766 C11.29378799 258.40148597 8.88418418 255.86274162 6.49609375 253.2265625 C4.84795686 251.46480502 3.19577418 249.7068214 1.5390625 247.953125 C0.82129639 247.16760254 0.10353027 246.38208008 -0.63598633 245.57275391 C-3.53303573 242.79442193 -5.65972666 241.73326628 -9.62890625 241.2265625 C-13.42823055 241.69178588 -14.97779059 242.96547871 -17.69140625 245.6015625 C-19.13109031 248.48093062 -18.99422925 250.39163869 -18.69140625 253.6015625 C-17.5427793 256.10446577 -16.18284482 258.27118973 -14.69140625 260.6015625 C-48.05073459 254.44984228 -77.37141482 235.3864973 -97.02392578 207.72607422 C-103.51834945 198.23165198 -108.54229801 188.31355986 -112.69140625 177.6015625 C-113.16449219 176.40144531 -113.63757813 175.20132813 -114.125 173.96484375 C-116.76976992 166.70546043 -118.38773828 159.59787929 -119.56640625 151.9765625 C-119.69885742 151.12288086 -119.83130859 150.26919922 -119.96777344 149.38964844 C-120.55275769 145.18077892 -120.98189384 141.73016004 -119.69140625 137.6015625 C-117.86547852 135.33740234 -117.86547852 135.33740234 -115.5078125 133.0625 C-114.66283203 132.23492187 -113.81785156 131.40734375 -112.94726562 130.5546875 C-112.05845703 129.70390625 -111.16964844 128.853125 -110.25390625 127.9765625 C-108.50318709 126.27812265 -106.75439916 124.57768921 -105.0078125 122.875 C-104.22865479 122.12653809 -103.44949707 121.37807617 -102.64672852 120.60693359 C-99.64412014 117.52746984 -98.37583867 115.4173522 -98.25390625 111.1640625 C-98.349182 107.72292659 -98.49770677 106.84973995 -100.69140625 104.0390625 C-104.44810587 102.23897727 -107.64137169 101.78050286 -111.69140625 102.6015625 C-113.98836283 103.72818814 -115.67437883 104.98794056 -117.69140625 106.6015625 C-117.28301552 99.74688111 -116.0985437 93.81460142 -113.62890625 87.4140625 C-113.31800049 86.59526611 -113.00709473 85.77646973 -112.68676758 84.93286133 C-99.61857786 51.44012989 -74.27738827 25.33490534 -41.63037109 10.44921875 C-27.84731277 4.42368633 -14.58212698 2.37634662 0 0 Z " fill="#FDFEFE" transform="translate(246.69140625,124.3984375)"/>
<path d="M0 0 C34.32 0 68.64 0 104 0 C104.33 11.88 104.66 23.76 105 36 C109.28411303 43.14018838 113.03749133 44.54207112 120.5625 47.125 C143.61385157 55.38639549 163.77333334 67.01902665 182.36328125 82.96875 C188.2085089 88.10906428 188.2085089 88.10906428 195.46875 90.43359375 C199.40461837 89.95031788 201.99444729 88.90291517 205.5 87.0625 C206.09022949 86.75763672 206.68045898 86.45277344 207.28857422 86.13867188 C210.63642566 84.37729243 213.88312178 82.4834161 217.1015625 80.49609375 C217.77380859 80.08157959 218.44605469 79.66706543 219.13867188 79.23999023 C220.44263837 78.4259728 221.73861716 77.59898889 223.02539062 76.75805664 C227.42318149 73.98192125 227.42318149 73.98192125 229.98632812 74.06225586 C232.99753645 75.4645414 233.80669877 77.49505288 235.3984375 80.37890625 C236.03531494 81.51537598 236.67219238 82.6518457 237.32836914 83.82275391 C238.01061867 85.06931446 238.69282793 86.31589705 239.375 87.5625 C240.08891309 88.84377331 240.80434543 90.12420122 241.52124023 91.40380859 C242.61882099 93.3634615 243.71538505 95.32361273 244.80717468 97.28649902 C248.14226981 103.28192801 251.58757688 109.20958897 255.0625 115.125 C256.19840106 117.06742515 257.33381366 119.01013602 258.46875 120.953125 C259.03851563 121.92830078 259.60828125 122.90347656 260.1953125 123.90820312 C263.493449 129.558582 266.78197933 135.2143834 270.0625 140.875 C270.6819751 141.9386377 271.3014502 143.00227539 271.93969727 144.09814453 C275.52520849 150.2950941 278.88838793 156.55151696 282 163 C277.55797772 165.82434631 273.08403649 168.54757731 268.51171875 171.15625 C267.08182617 171.97802734 267.08182617 171.97802734 265.62304688 172.81640625 C263.65130058 173.94724145 261.67463132 175.06953216 259.69335938 176.18359375 C258.74654297 176.73144531 257.79972656 177.27929688 256.82421875 177.84375 C255.96916748 178.33037109 255.11411621 178.81699219 254.2331543 179.31835938 C251.07607795 181.69574452 249.28890625 184.19962329 248.65649414 188.140625 C248.82558448 193.53154946 249.44828219 198.69963296 250.4375 204 C254.52806079 226.54701452 253.58650987 248.4746742 249.875 271.04296875 C248.70504509 278.54354969 247.89749847 284.22361068 252 291 C254.43119358 292.98898856 254.43119358 292.98898856 257.33203125 294.5078125 C258.37810547 295.10207031 259.42417969 295.69632812 260.50195312 296.30859375 C261.59443359 296.90800781 262.68691406 297.50742187 263.8125 298.125 C265.96566777 299.3344717 268.11803618 300.54536777 270.26953125 301.7578125 C271.27064941 302.31758789 272.27176758 302.87736328 273.30322266 303.45410156 C276.30864151 305.17692541 279.16556047 307.01144033 282 309 C278.15618294 316.90535539 274.04462732 324.56508071 269.5625 332.125 C268.32231764 334.23402286 267.08275562 336.34341061 265.84375 338.453125 C264.89242187 340.07057617 264.89242187 340.07057617 263.921875 341.72070312 C260.77515341 347.08995673 257.66945782 352.48267491 254.5625 357.875 C253.94858398 358.935979 253.33466797 359.99695801 252.70214844 361.09008789 C249.73770278 366.21839351 246.79198329 371.35546319 243.90113831 376.52557373 C242.54040407 378.956571 241.17026534 381.38220338 239.79928589 383.80743408 C238.83094959 385.52968615 237.87638971 387.25966082 236.92211914 388.98974609 C236.33551514 390.02566895 235.74891113 391.0615918 235.14453125 392.12890625 C234.63253174 393.04744385 234.12053223 393.96598145 233.59301758 394.91235352 C232 397 232 397 230.17675781 398.0012207 C226.85398354 397.99935733 224.85847803 396.54419949 222.02734375 394.8515625 C221.46302139 394.51957855 220.89869904 394.1875946 220.317276 393.84555054 C218.51689179 392.78354477 216.72710073 391.70505999 214.9375 390.625 C213.14252005 389.55546607 211.34553378 388.48943972 209.54701233 387.4258728 C207.91556458 386.45894097 206.28954921 385.48286091 204.66381836 384.50634766 C200.29406278 382.03531916 196.98800136 381.57728802 192 382 C188.81208063 383.70022366 186.35413481 385.70583963 183.578125 388.01171875 C182.27101563 389.08873047 182.27101563 389.08873047 180.9375 390.1875 C180.12152344 390.88230469 179.30554688 391.57710938 178.46484375 392.29296875 C173.38430694 395.81150216 167.29325142 395.18818075 161.328125 395.23828125 C160.38126831 395.24798447 159.43441162 395.25768768 158.4588623 395.26768494 C155.3891986 395.29266335 152.31975528 395.30522033 149.25 395.3125 C148.20767212 395.31511841 147.16534424 395.31773682 146.09143066 395.32043457 C130.31202587 395.32469516 115.43897963 394.46234233 100 391 C98.19470112 390.63459167 96.38870924 390.27258996 94.58203125 389.9140625 C82.4234096 387.4234096 82.4234096 387.4234096 80 385 C81.49273437 384.70609375 81.49273437 384.70609375 83.015625 384.40625 C112.50314784 378.24035172 138.423534 363.78553983 160 343 C161.04027344 342.05447266 161.04027344 342.05447266 162.1015625 341.08984375 C181.73203167 322.71152385 195.56774552 295.37620266 200.81005859 269.20288086 C201.82114446 264.17885554 201.82114446 264.17885554 204 262 C204.474375 262.495 204.94875 262.99 205.4375 263.5 C209.23375308 265.72219692 212.70473183 265.67778544 217 265 C219.75 263.75 219.75 263.75 221 261 C221.76492158 257.80864684 221.77204725 255.1939489 221 252 C218.54916346 248.01168215 215.20852577 244.96216498 211.56640625 242.0625 C207.76693288 238.85270489 205.30960074 236.60918226 204.34765625 231.609375 C204.23610152 228.9211782 204.17211268 226.25821459 204.1484375 223.5703125 C203.66882975 190.39017636 186.1002964 156.8052373 164 133 C163.51805176 132.47422363 163.03610352 131.94844727 162.53955078 131.40673828 C140.64390005 107.73155616 111.10418593 93.85531882 80 87 C81.875 82.25 81.875 82.25 83 80 C83.43023798 76.12785818 83.31669086 74.47503629 81.125 71.1875 C78.59875496 68.58695364 77.54437943 68.11341238 74 67.375 C68.89706993 67.43865401 65.95337558 71.16090407 62.44140625 74.46875 C60.01426796 76.88714665 60.01426796 76.88714665 58.21484375 79.34375 C55.13785372 83.21276708 53.19764239 84.81764293 48.203125 85.578125 C45.93397523 85.70165964 43.67261304 85.75106946 41.40039062 85.7824707 C7.47520761 86.25898651 -25.55349481 103.36155683 -50 126 C-50.95519531 126.87269531 -51.91039062 127.74539062 -52.89453125 128.64453125 C-73.19227322 148.01304898 -87.14037556 173.89503652 -93.45410156 201.12231445 C-93.91716635 203.09454186 -94.45187644 205.0496999 -95 207 C-95.66 207.33 -96.32 207.66 -97 208 C-99.88067851 198.71440864 -101.71444785 189.41751323 -103.1875 179.8125 C-103.35411133 178.73307129 -103.52072266 177.65364258 -103.69238281 176.54150391 C-105.50182603 164.33054882 -106.22135946 152.28006656 -106.25 139.9375 C-106.25167175 139.25067139 -106.25334351 138.56384277 -106.25506592 137.85620117 C-106.25746837 121.19853145 -105.45653204 104.12102024 -101 88 C-100.319375 88.33 -99.63875 88.66 -98.9375 89 C-94.37233244 90.55409959 -90.66541465 90.69200055 -86.1796875 88.828125 C-82.5257299 86.72732383 -79.66809155 84.25792065 -76.5625 81.4375 C-57.43728372 64.63033738 -32.94343672 50.84175726 -8.3828125 43.984375 C-5.50949915 42.79736686 -3.98831381 41.37171064 -2 39 C2.11636301 26.65091096 -0.36144621 13.01206367 0 0 Z " fill="#BB99F3" transform="translate(204,20)"/>
<path d="M0 0 C1.07383942 -0.00852997 2.14767883 -0.01705994 3.25405884 -0.02584839 C4.427146 -0.02494202 5.60023315 -0.02403564 6.80886841 -0.02310181 C8.04827179 -0.02981903 9.28767517 -0.03653625 10.56463623 -0.04345703 C13.96146306 -0.05920228 17.35804539 -0.06581218 20.75489187 -0.0670886 C22.87832402 -0.06851106 25.00173061 -0.07278245 27.1251564 -0.07808304 C34.53667068 -0.0965818 41.94811306 -0.10475386 49.35964966 -0.10317993 C56.26253279 -0.10197861 63.16510321 -0.12307919 70.06790721 -0.15466726 C75.99925767 -0.18084021 81.93050605 -0.19154681 87.8619138 -0.19026911 C91.40231582 -0.18975976 94.9424399 -0.19542738 98.48278427 -0.21662521 C102.4327485 -0.23963033 106.38228562 -0.23048037 110.33230591 -0.21841431 C111.5013446 -0.22965332 112.6703833 -0.24089233 113.87484741 -0.25247192 C120.11425676 -0.20398348 123.97748687 0.02854919 128.69998169 4.26742554 C131.64397075 7.92341482 130.95072714 12.71907937 130.89529419 17.18930054 C130.89104935 18.47927948 130.89104935 18.47927948 130.88671875 19.7953186 C130.87554319 22.53616374 130.85044348 25.27667952 130.82498169 28.01742554 C130.81494849 29.87809789 130.80582324 31.73877538 130.79763794 33.59945679 C130.77561244 38.15557286 130.74110066 42.71144339 130.69998169 47.26742554 C131.45343872 47.40680542 132.20689575 47.5461853 132.98318481 47.68978882 C156.36126608 52.66036217 179.66656939 68.71136475 197.78201294 83.70883179 C200.93402278 86.47013455 200.93402278 86.47013455 204.87966919 87.18539429 C208.886968 85.88107958 212.24386294 83.77384285 215.82498169 81.57992554 C217.34664475 80.6715817 218.86878039 79.76402905 220.39138794 78.85726929 C222.92561644 77.33739661 225.45349412 75.80849246 227.97732544 74.27133179 C233.52054361 71.02936548 237.25022019 69.17424562 243.69998169 70.26742554 C252.88070112 74.49055648 257.45442194 86.14806346 262.18875122 94.53817749 C263.9457058 97.65123632 265.71401158 100.75784271 267.48123169 103.86508179 C267.838302 104.49346954 268.19537231 105.1218573 268.56326294 105.76928711 C271.89659331 111.62875194 275.29099053 117.45168268 278.69998169 123.26742554 C282.42302929 129.62397865 286.12502953 135.99152139 289.77810669 142.38851929 C290.12281006 142.99201706 290.46751343 143.59551483 290.82266235 144.21730042 C292.54882749 147.2419951 294.27025833 150.26927686 295.98513794 153.30038452 C298.87785832 158.40356905 301.78983469 163.47797816 304.93435669 168.43148804 C312.85948968 180.95800778 312.85948968 180.95800778 312.53982544 188.87289429 C309.52367654 197.47242581 301.12784405 200.82347006 293.63748169 204.95492554 C291.28991376 206.26690463 288.94615999 207.58548836 286.60232544 208.90414429 C285.56583862 209.47866333 284.52935181 210.05318237 283.4614563 210.64511108 C281.06042705 212.05567066 278.88132403 213.54252933 276.69998169 215.26742554 C276.91654419 216.41469116 277.13310669 217.56195679 277.35623169 218.74398804 C281.71342855 244.29793974 281.50681317 271.80266352 276.69998169 297.26742554 C283.94681766 302.28549243 291.4793343 306.59038683 299.23513794 310.76742554 C308.78507435 316.07448137 308.78507435 316.07448137 311.69998169 321.26742554 C313.68786622 330.39535306 309.86999912 336.79037571 305.13748169 344.32992554 C304.10382774 346.04579109 303.0702103 347.76168004 302.03887939 349.47894287 C300.97195941 351.24898414 299.89508961 353.01266587 298.81668091 354.77572632 C295.5049778 360.21114271 292.36242541 365.74436114 289.19998169 371.26742554 C287.95075777 373.43453976 286.70075554 375.60120551 285.44998169 377.76742554 C284.83123169 378.83992554 284.21248169 379.91242554 283.57498169 381.01742554 C281.69998169 384.26742554 279.82498169 387.51742554 277.94998169 390.76742554 C277.33050659 391.84161743 276.71103149 392.91580933 276.07278442 394.02255249 C274.83163217 396.17300935 273.58897399 398.3225978 272.34475708 400.47128296 C269.42048274 405.52551319 266.51186626 410.58693275 263.65722656 415.68078613 C262.31424551 418.07499427 260.96253316 420.46421882 259.61013794 422.8531189 C258.66410183 424.53266544 257.73067764 426.21929635 256.79763794 427.90609741 C253.27049068 434.12563375 250.25538004 438.98972636 243.69998169 442.26742554 C236.01864861 443.20140581 231.24019575 440.38019978 224.69998169 436.57992554 C223.75380981 436.04947632 222.80763794 435.5190271 221.83279419 434.97250366 C217.5516934 432.5562314 213.39354398 430.06888715 209.32498169 427.31039429 C206.7874679 425.70828282 205.98931272 425.26661622 202.90701294 425.27523804 C200.56927283 426.32618669 199.19729468 427.33693191 197.38748169 429.14242554 C182.6938679 442.59549032 151.26240455 465.26742554 130.69998169 465.26742554 C130.72092896 466.41743042 130.74187622 467.5674353 130.76345825 468.75228882 C130.83607232 473.0348761 130.88185898 477.31740937 130.91970825 481.60043335 C130.93977508 483.4511125 130.96703514 485.30172863 131.0017395 487.15219116 C131.05047602 489.81836531 131.07299956 492.4836984 131.09060669 495.15023804 C131.11125183 495.97234772 131.13189697 496.7944574 131.15316772 497.64147949 C131.15523395 502.9783314 130.33701847 506.09177537 126.69998169 510.26742554 C123.55205094 512.25765688 121.09069272 512.52158456 117.39996338 512.53485107 C116.32612396 512.54338104 115.25228455 512.55191101 114.14590454 512.56069946 C112.3862738 512.5593399 112.3862738 512.5593399 110.59109497 512.55795288 C109.35169159 512.5646701 108.11228821 512.57138733 106.83532715 512.57830811 C103.43850032 512.59405335 100.04191799 512.60066326 96.64507151 512.60193968 C94.52163936 512.60336214 92.39823277 512.60763352 90.27480698 512.61293411 C82.8632927 512.63143287 75.45185032 512.63960494 68.04031372 512.63803101 C61.13743059 512.63682969 54.23486017 512.65793026 47.33205616 512.68951833 C41.40070571 512.71569128 35.46945732 512.72639788 29.53804958 512.72512019 C25.99764756 512.72461084 22.45752348 512.73027845 18.91717911 512.75147629 C14.96721488 512.77448141 11.01767776 512.76533145 7.06765747 512.75326538 C5.89861877 512.76450439 4.72958008 512.77574341 3.52511597 512.787323 C-2.71429338 512.73883455 -6.57752349 512.50630188 -11.30001831 508.26742554 C-14.24400737 504.61143625 -13.55076376 499.81577171 -13.49533081 495.34555054 C-13.49250092 494.48556458 -13.48967102 493.62557861 -13.48675537 492.73953247 C-13.47557981 489.99868733 -13.45048011 487.25817155 -13.42501831 484.51742554 C-13.41498511 482.65675318 -13.40585986 480.79607569 -13.39767456 478.93539429 C-13.37564907 474.37927822 -13.34113728 469.82340768 -13.30001831 465.26742554 C-14.05347534 465.12804565 -14.80693237 464.98866577 -15.58322144 464.84506226 C-38.9613027 459.8744889 -62.26660601 443.82348632 -80.38204956 428.82601929 C-83.5340594 426.06471652 -83.5340594 426.06471652 -87.47970581 425.34945679 C-91.48700462 426.6537715 -94.84389956 428.76100822 -98.42501831 430.95492554 C-99.94668138 431.86326937 -101.46881701 432.77082203 -102.99142456 433.67758179 C-105.52565306 435.19745446 -108.05353075 436.72635862 -110.57736206 438.26351929 C-116.12058023 441.5054856 -119.85025681 443.36060545 -126.30001831 442.26742554 C-135.44628573 438.06014252 -140.01018093 426.4712638 -144.73193359 418.11038208 C-146.12509286 415.64369829 -147.52580962 413.18133269 -148.92604065 410.71865845 C-149.65077465 409.44391922 -150.37514867 408.16897527 -151.09916687 406.89382935 C-154.65863254 400.62700264 -158.2565217 394.38258312 -161.86251831 388.14242554 C-162.47305054 387.08555542 -163.08358276 386.0286853 -163.71261597 384.93978882 C-164.94800826 382.80137196 -166.18352259 380.6630256 -167.41915894 378.52474976 C-169.35580078 375.17081991 -171.28926404 371.81507524 -173.22189331 368.45883179 C-173.86819702 367.33758911 -174.51450073 366.21634644 -175.1803894 365.06112671 C-176.45441031 362.84809091 -177.72563525 360.63344282 -178.99386597 358.41708374 C-181.73652469 353.63701093 -184.50337299 348.89276927 -187.46408081 344.24398804 C-195.46084036 331.60937949 -195.46084036 331.60937949 -195.13986206 323.66195679 C-192.12371316 315.06242526 -183.72788067 311.71138101 -176.23751831 307.57992554 C-173.88995038 306.26794644 -171.54619661 304.94936271 -169.20236206 303.63070679 C-167.64763184 302.76892822 -167.64763184 302.76892822 -166.06149292 301.88973999 C-163.66046367 300.47918041 -161.48136065 298.99232175 -159.30001831 297.26742554 C-159.51658081 296.12015991 -159.73314331 294.97289429 -159.95626831 293.79086304 C-164.31346517 268.23691134 -164.10684979 240.73218755 -159.30001831 215.26742554 C-166.54685428 210.24935864 -174.07937092 205.94446424 -181.83517456 201.76742554 C-191.38511097 196.4603697 -191.38511097 196.4603697 -194.30001831 191.26742554 C-196.28790284 182.13949802 -192.47003574 175.74447536 -187.73751831 168.20492554 C-186.70386436 166.48905998 -185.67024692 164.77317104 -184.63891602 163.0559082 C-183.57199603 161.28586693 -182.49512623 159.5221852 -181.41671753 157.75912476 C-178.10501442 152.32370837 -174.96246203 146.79048994 -171.80001831 141.26742554 C-170.55079439 139.10031132 -169.30079216 136.93364557 -168.05001831 134.76742554 C-167.43126831 133.69492554 -166.81251831 132.62242554 -166.17501831 131.51742554 C-164.30001831 128.26742554 -162.42501831 125.01742554 -160.55001831 121.76742554 C-159.62068481 120.1561377 -159.62068481 120.1561377 -158.6725769 118.51229858 C-157.43174956 116.36212436 -156.18989994 114.21253972 -154.94699097 112.06356812 C-152.02258572 107.00446233 -149.10871198 101.94013054 -146.23147583 96.85406494 C-144.87682398 94.4609534 -143.51626318 92.07122622 -142.15524292 89.68173218 C-141.20098482 88.00066928 -140.25526056 86.31477114 -139.30978394 84.62875366 C-132.25138975 72.25121602 -132.25138975 72.25121602 -126.30001831 70.26742554 C-118.6091989 69.34899063 -113.8537679 72.1467863 -107.30001831 75.95492554 C-106.35384644 76.48537476 -105.40767456 77.01582397 -104.43283081 77.56234741 C-100.15173002 79.97861967 -95.9935806 82.46596392 -91.92501831 85.22445679 C-89.38750452 86.82656825 -88.58934934 87.26823485 -85.50704956 87.25961304 C-83.16930945 86.20866439 -81.7973313 85.19791917 -79.98751831 83.39242554 C-65.29390452 69.93936075 -33.86244117 47.26742554 -13.30001831 47.26742554 C-13.32096558 46.11742065 -13.34191284 44.96741577 -13.36349487 43.78256226 C-13.43610894 39.49997498 -13.4818956 35.21744171 -13.51974487 30.93441772 C-13.5398117 29.08373857 -13.56707177 27.23312245 -13.60177612 25.38265991 C-13.65051264 22.71648577 -13.67303619 20.05115267 -13.69064331 17.38461304 C-13.71128845 16.56250336 -13.73193359 15.74039368 -13.75320435 14.89337158 C-13.75527057 9.55651968 -12.93705509 6.4430757 -9.30001831 2.26742554 C-6.15208756 0.27719419 -3.69072934 0.01326651 0 0 Z M6.69998169 20.26742554 C6.36998169 32.14742554 6.03998169 44.02742554 5.69998169 56.26742554 C1.68731816 62.95519809 -2.32828017 64.41006737 -9.42501831 66.89242554 C-31.46093968 74.93879022 -51.24181786 86.33786683 -69.30001831 101.26742554 C-71.19276546 102.81287963 -73.08828423 104.35495033 -74.98751831 105.89242554 C-75.7545105 106.52406616 -76.52150269 107.15570679 -77.31173706 107.80648804 C-81.15589586 110.63107624 -84.66692442 110.58067123 -89.30001831 110.26742554 C-92.3420105 109.01400757 -92.3420105 109.01400757 -95.34689331 107.27523804 C-96.43872925 106.65262085 -97.53056519 106.03000366 -98.65548706 105.38851929 C-99.77568237 104.72980835 -100.89587769 104.07109741 -102.05001831 103.39242554 C-103.18568237 102.74144897 -104.32134644 102.09047241 -105.49142456 101.41976929 C-109.49103302 99.11868969 -113.46006032 96.82739753 -117.30001831 94.26742554 C-119.3511811 94.17239677 -119.3511811 94.17239677 -121.30001831 95.26742554 C-123.11798279 97.62370771 -123.11798279 97.62370771 -124.69845581 100.64633179 C-125.33533325 101.78280151 -125.97221069 102.91927124 -126.62838745 104.09017944 C-127.31063698 105.33674 -127.99284624 106.58332259 -128.67501831 107.82992554 C-129.3889314 109.11119885 -130.10436374 110.39162675 -130.82125854 111.67123413 C-131.9188393 113.63088703 -133.01540337 115.59103827 -134.10719299 117.55392456 C-137.44228812 123.54935354 -140.88759519 129.47701451 -144.36251831 135.39242554 C-145.49841937 137.33485068 -146.63383197 139.27756156 -147.76876831 141.22055054 C-148.33853394 142.19572632 -148.90829956 143.1709021 -149.49533081 144.17562866 C-152.79346731 149.82600754 -156.08199764 155.48180893 -159.36251831 161.14242554 C-159.98199341 162.20606323 -160.60146851 163.26970093 -161.23971558 164.36557007 C-164.8252268 170.56251963 -168.18840624 176.81894249 -171.30001831 183.26742554 C-169.48907721 184.39493322 -167.67611498 185.51919431 -165.86251831 186.64242554 C-165.29355835 186.99603149 -164.72459839 187.34963745 -164.13839722 187.71395874 C-160.71426566 189.82784055 -157.26156199 191.87135422 -153.75704956 193.84945679 C-152.99642212 194.28274292 -152.23579468 194.71602905 -151.45211792 195.16244507 C-149.95737334 196.01086126 -148.4569939 196.84944098 -146.95065308 197.67709351 C-142.91394388 199.98015718 -139.95840525 201.7229311 -138.30001831 206.26742554 C-137.58310863 212.68764345 -138.70220734 219.06499012 -139.73751831 225.39242554 C-140.00718754 227.1033413 -140.27672134 228.81427841 -140.54611206 230.52523804 C-140.97305773 233.23375794 -141.41551476 235.93637476 -141.88204956 238.63851929 C-144.00537371 257.07373549 -142.54163725 276.68174549 -138.76852417 294.82284546 C-137.51462947 301.36544452 -137.89290805 305.54501362 -141.30001831 311.26742554 C-143.96383667 313.26205444 -143.96383667 313.26205444 -147.13986206 314.99398804 C-148.28519409 315.63336304 -149.43052612 316.27273804 -150.61056519 316.93148804 C-151.81900162 317.58614633 -153.02799177 318.23978349 -154.23751831 318.89242554 C-156.60594469 320.18817083 -158.96715249 321.49570273 -161.32736206 322.80648804 C-162.37657837 323.37577026 -163.42579468 323.94505249 -164.50680542 324.53158569 C-167.19640281 326.20303377 -169.17405513 327.93630037 -171.30001831 330.26742554 C-163.31494447 344.64569354 -155.2096497 358.93921409 -146.88986206 373.12680054 C-143.02954597 379.71399183 -139.22872303 386.33494343 -135.42501831 392.95492554 C-130.52082197 401.48142554 -125.56498983 409.95785388 -120.30001831 418.26742554 C-116.14515017 417.67745223 -113.22626049 416.28031745 -109.63204956 414.14242554 C-108.57437378 413.51851929 -107.516698 412.89461304 -106.42697144 412.25180054 C-105.3332019 411.59695679 -104.23943237 410.94211304 -103.11251831 410.26742554 C-100.93170183 408.97546662 -98.75072071 407.68378558 -96.56954956 406.39242554 C-95.60637817 405.81750366 -94.64320679 405.24258179 -93.65084839 404.65023804 C-89.55704646 402.24216927 -87.1235677 401.94585558 -82.30001831 402.26742554 C-77.64830739 404.21936963 -74.13832486 406.92962851 -70.42501831 410.26742554 C-51.5362283 426.66255547 -29.80009295 437.77841471 -6.57736206 446.69711304 C-5.51646362 447.11219116 -4.45556519 447.52726929 -3.36251831 447.95492554 C-2.01867065 448.45572632 -2.01867065 448.45572632 -0.64767456 448.96664429 C1.69998169 450.26742554 1.69998169 450.26742554 5.69998169 455.26742554 C6.02998169 467.47742554 6.35998169 479.68742554 6.69998169 492.26742554 C41.01998169 492.26742554 75.33998169 492.26742554 110.69998169 492.26742554 C111.02998169 480.05742554 111.35998169 467.84742554 111.69998169 455.26742554 C117.3191724 448.52439668 117.3191724 448.52439668 121.11404419 447.24789429 C121.94758423 446.95302124 122.78112427 446.65814819 123.6399231 446.3543396 C124.52599243 446.05753296 125.41206177 445.76072632 126.32498169 445.45492554 C128.22290304 444.7718978 130.11870559 444.08295749 132.01248169 443.38851929 C132.96638794 443.03902222 133.92029419 442.68952515 134.90310669 442.32943726 C155.04141779 434.6826449 172.77249109 423.27576173 189.06326294 409.29867554 C197.20215688 402.45465364 197.20215688 402.45465364 202.16873169 401.83383179 C206.10460006 402.31710766 208.69442898 403.36451037 212.19998169 405.20492554 C212.79021118 405.50978882 213.38044067 405.8146521 213.98855591 406.12875366 C217.33640735 407.8901331 220.58310347 409.78400944 223.80154419 411.77133179 C224.47379028 412.18584595 225.14603638 412.60036011 225.83865356 413.0274353 C227.14262006 413.84145274 228.43859885 414.66843665 229.72537231 415.5093689 C232.96049386 417.63787606 232.96049386 417.63787606 236.68850708 418.20077515 C239.6812453 416.81210684 240.48018148 414.82357599 242.06326294 411.95883179 C243.01084473 410.26959595 243.01084473 410.26959595 243.97756958 408.54623413 C244.65594088 407.30750143 245.33424308 406.06873089 246.01248169 404.82992554 C246.7238496 403.55389308 247.43667989 402.27867488 248.15090942 401.00424194 C249.62197839 398.37767273 251.08753325 395.74814137 252.54959106 393.11654663 C255.72198705 387.4209768 258.99321108 381.78276307 262.26248169 376.14242554 C263.48923803 374.01753743 264.71579976 371.89253697 265.94216919 369.76742554 C268.2210471 365.8229825 270.5035031 361.8806474 272.78977966 357.94049072 C273.82367643 356.15814374 274.85659073 354.37523113 275.88919067 352.59213257 C277.18358662 350.35757976 278.4798547 348.12410994 279.77835083 345.89193726 C282.94121231 340.42829935 285.95304601 334.95215099 288.69998169 329.26742554 C284.26317939 326.4411351 279.7944415 323.72993854 275.21170044 321.14633179 C274.25843872 320.60299194 273.305177 320.0596521 272.32302856 319.49984741 C270.35288738 318.37910841 268.37617553 317.26984795 266.39334106 316.17172241 C262.39700525 313.87294517 259.30698309 312.08222922 256.53201294 308.35726929 C254.65696208 301.39405225 255.97209573 294.96929761 257.12356567 287.98104858 C261.04489117 263.99303327 261.6562207 239.02366775 255.69998169 215.26742554 C255.49685669 213.08383179 255.49685669 213.08383179 255.44998169 210.82992554 C255.42420044 210.0887146 255.39841919 209.34750366 255.37185669 208.58383179 C255.80740653 205.50905731 256.90854541 203.80559519 258.69998169 201.26742554 C261.14846802 199.4781189 261.14846802 199.4781189 264.03201294 197.85726929 C265.07808716 197.25978882 266.12416138 196.66230835 267.20193481 196.04672241 C268.84065552 195.13503296 268.84065552 195.13503296 270.51248169 194.20492554 C272.6657086 192.98643279 274.81807879 191.76642465 276.96951294 190.54476929 C277.9706311 189.97870972 278.97174927 189.41265015 280.00320435 188.82943726 C283.00069451 187.0932484 285.86319078 185.2526841 288.69998169 183.26742554 C284.40951602 174.30290953 279.70452742 165.71759625 274.61795044 157.18539429 C271.19128685 151.43379245 267.8531153 145.63178399 264.51248169 139.82992554 C263.88301636 138.7380896 263.25355103 137.64625366 262.60501099 136.52133179 C259.59342552 131.29633922 256.58538621 126.06934346 253.58299255 120.83906555 C252.55518846 119.04909679 251.52653177 117.25962087 250.49758911 115.4703064 C249.20433217 113.22082505 247.91274375 110.97038337 246.62307739 108.71884155 C243.78954337 103.79273195 240.94347937 98.93548672 237.69998169 94.26742554 C233.55055669 94.85602322 230.65023748 96.24703409 227.06716919 98.39242554 C226.01400513 99.01633179 224.96084106 99.64023804 223.87576294 100.28305054 C222.78650513 100.93789429 221.69724731 101.59273804 220.57498169 102.26742554 C218.4071479 103.56150258 216.23793971 104.85328083 214.06716919 106.14242554 C213.10923462 106.71734741 212.15130005 107.29226929 211.16433716 107.88461304 C206.88790334 110.28422876 203.56487211 110.67970439 198.69998169 110.26742554 C194.32300077 107.66635081 190.56378755 104.50049494 186.76248169 101.14242554 C167.26345455 84.34508784 143.28442567 71.82811505 118.75857544 64.21664429 C116.1224732 63.00113605 114.58144635 61.46178147 112.69998169 59.26742554 C108.58361868 46.9183365 111.0614279 33.27948921 110.69998169 20.26742554 C76.37998169 20.26742554 42.05998169 20.26742554 6.69998169 20.26742554 Z " fill="#052A75" transform="translate(197.30001831054688,-0.267425537109375)"/>
<path d="M0 0 C2.97361628 1.78152067 5.42653612 3.85307225 7 7 C7.64993148 12.58941071 5.92477152 15.43004449 3 20 C4.155 20.061875 5.31 20.12375 6.5 20.1875 C35.19759037 23.46594147 62.7236605 41.41785757 83 61 C83.79019531 61.73863281 84.58039063 62.47726563 85.39453125 63.23828125 C108.91638097 85.77147179 124.96218835 119.548577 128 152 C127.98444659 153.36643228 127.94299622 154.7328282 127.875 156.09765625 C127.61139456 162.84481638 127.83884024 167.08377899 132.359375 172.265625 C135.57637797 175.59224552 138.97700234 178.68086167 142.52539062 181.64990234 C144.37360343 183.34205744 144.93264306 184.51021885 145.2734375 186.98828125 C145.45781799 191.20775776 145.37243334 193.41131504 143.0625 197.0625 C138.96949198 199.65195405 135.72705144 199.84663608 131 199 C128.4375 197.5 128.4375 197.5 127 196 C125.49696898 199.4777245 124.61866179 202.71886121 123.9375 206.4375 C117.9982872 232.7610462 103.29448916 255.62936442 85 275 C84.25492187 275.80953125 83.50984375 276.6190625 82.7421875 277.453125 C62.04223715 299.17782536 31.88439796 313.99449905 2.375 318.75 C1.5691748 318.88092041 0.76334961 319.01184082 -0.06689453 319.14672852 C-4.88676762 319.86465504 -9.30749286 319.90401909 -14.1875 319.6875 C-22.25691913 320.03006968 -26.58959458 325.57982439 -31.76049805 331.18432617 C-32.99042289 332.551787 -34.20932393 333.92930993 -35.4128418 335.32006836 C-37.93925537 337.99415724 -39.65230881 338.95407852 -43.3125 339.4375 C-48.17487109 338.86060851 -49.58138701 337.41861299 -53 334 C-54.43968406 331.12063188 -54.302823 329.20992381 -54 326 C-52.81255671 323.56780624 -51.39723281 321.32320959 -50 319 C-51.90458984 318.56300781 -51.90458984 318.56300781 -53.84765625 318.1171875 C-83.18286649 311.21090961 -108.31596585 297.90849645 -130 277 C-130.76699219 276.29617188 -131.53398437 275.59234375 -132.32421875 274.8671875 C-156.71804195 251.83100976 -171.76725043 217.13568307 -175 184 C-174.9071875 182.32164062 -174.9071875 182.32164062 -174.8125 180.609375 C-174.58937283 174.38970506 -175.19180255 170.54515729 -179.36328125 165.8515625 C-182.60022232 162.52497824 -186.00224002 159.4024682 -189.52539062 156.38183594 C-192.03603842 154.02914281 -192.22980772 152.01016945 -192.375 148.6875 C-192.31189983 145.13094468 -192.04355638 144.06884718 -190.0625 140.9375 C-186.02781716 138.38494555 -182.66492553 138.04145366 -178 139 C-175.21875 140.53125 -175.21875 140.53125 -173 142 C-172.76216797 140.74509766 -172.76216797 140.74509766 -172.51953125 139.46484375 C-168.3779118 118.80251026 -160.63531487 98.99311507 -148 82 C-147.60619141 81.46101074 -147.21238281 80.92202148 -146.80664062 80.36669922 C-122.19293211 46.8710672 -86.4701651 25.01223752 -45.45947266 18.27734375 C-43.01707091 18.00192501 -40.71613897 17.97664895 -38.26171875 18.0625 C-28.72700821 18.37110147 -28.72700821 18.37110147 -20.6484375 13.6796875 C-17.34960512 10.50733286 -14.32147301 7.13574342 -11.43188477 3.58813477 C-7.90526482 -0.32331668 -5.04797007 -0.5989117 0 0 Z M-41.09765625 38.296875 C-66.06003409 42.11194197 -88.84887629 51.3552314 -108 68 C-109.24523437 69.06347656 -109.24523437 69.06347656 -110.515625 70.1484375 C-130.520296 87.63718362 -146.09239244 111.8675242 -152 138 C-152.06015795 139.99909505 -152.0773231 142.00149527 -152 144 C-150.7625 143.01 -150.7625 143.01 -149.5 142 C-145.5218269 139.36669393 -142.70598109 139.4024151 -138 140 C-135 141.4375 -135 141.4375 -133 144 C-131.95313086 147.25324524 -132.04425514 149.72463652 -133 153 C-136.37043584 158.0598563 -140.82630345 162.09459472 -145.5625 165.85546875 C-152.05147086 170.99687004 -152.05147086 170.99687004 -155.42822266 178.25927734 C-155.57131398 183.9980539 -154.36949393 189.45736452 -153 195 C-152.80019531 195.98742187 -152.60039062 196.97484375 -152.39453125 197.9921875 C-151.75709779 200.7387129 -150.91809864 203.33330892 -150 206 C-149.7824707 206.66402832 -149.56494141 207.32805664 -149.34082031 208.01220703 C-143.71127731 225.08303393 -136.1329549 240.58086614 -124 254 C-123.27039063 254.84820312 -122.54078125 255.69640625 -121.7890625 256.5703125 C-103.71988211 277.30231947 -76.88556873 294.81203091 -49 298 C-49.99 296.453125 -49.99 296.453125 -51 294.875 C-52.95591201 291.41024159 -53.70066601 289.02882956 -53 285 C-51.20006226 282.30009338 -49.916227 280.4581135 -47 279 C-42.69755501 278.5110858 -40.27772174 279.10568799 -36.73974609 281.5715332 C-32.24475932 285.2622668 -28.40880932 289.82351186 -24.54101562 294.15234375 C-20.73334878 298.3038904 -20.73334878 298.3038904 -15.72412109 300.55102539 C-13.40565383 300.58251687 -11.28701716 300.37086765 -9 300 C-7.72640625 299.86464844 -6.4528125 299.72929687 -5.140625 299.58984375 C30.19077156 293.66580437 61.47708128 275.92389297 83 247 C94.08538786 231.41243855 103.70489694 212.16655218 106 193 C105.030625 193.825 104.06125 194.65 103.0625 195.5 C99.39096548 198.11186398 96.50002228 198.76685298 92.0234375 198.4765625 C90 198 90 198 87.4375 196 C85.56256878 192.08710006 84.70186826 189.15693871 86 185 C88.59745688 181.25916497 91.75458405 178.18032164 95 175 C95.99437422 173.98651587 96.98651421 172.97083545 97.9765625 171.953125 C105.54262724 164.22868638 105.54262724 164.22868638 108 163 C108.78788127 131.42171886 92.8657571 100.30834199 71.6706543 77.6940918 C55.45941364 60.90635996 35.82888544 49.59426855 13.6875 42.4375 C12.88103027 42.17372559 12.07456055 41.90995117 11.24365234 41.63818359 C10.48648926 41.40566895 9.72932617 41.1731543 8.94921875 40.93359375 C8.28237061 40.72790771 7.61552246 40.52222168 6.9284668 40.31030273 C4.68150183 39.94875159 3.15129581 40.31485677 1 41 C1.825 41.825 2.65 42.65 3.5 43.5 C5.56211175 45.99935035 6.4594938 47.8149523 6.6875 51.0625 C6 55 6 55 3.375 58 C-0.40422792 60.23954247 -1.72708174 60.94004202 -6 60 C-13.0648883 55.67803076 -18.51970224 49.5063477 -24 43.39453125 C-27.48380448 39.57616087 -27.48380448 39.57616087 -32.06811523 37.5 C-35.10444373 37.46533624 -38.0763966 38.00732174 -41.09765625 38.296875 Z " fill="#072B76" transform="translate(281,87)"/>
<path d="M0 0 C10.96220081 7.69084103 18.00187585 19.28097417 21.30859375 32.19921875 C22.98350212 43.16512824 22.30411549 53.75257886 17.72265625 63.91015625 C17.37203125 64.69648438 17.02140625 65.4828125 16.66015625 66.29296875 C13.43342357 72.72402625 8.66922943 77.74804611 3.72265625 82.91015625 C6.2239354 84.92557542 8.73270785 86.91771018 11.30078125 88.84765625 C25.39398722 99.72662226 35.14165913 115.12047365 37.72265625 132.91015625 C38.98374675 146.91543773 38.98374675 146.91543773 35.8828125 151.8203125 C32.66067377 154.93757149 30.02153093 155.03688034 25.72598267 155.05732727 C24.69414352 155.06448257 23.66230438 155.07163788 22.59919739 155.07901001 C20.90194771 155.08304337 20.90194771 155.08304337 19.17041016 155.0871582 C17.38226646 155.097015 17.38226646 155.097015 15.55799866 155.10707092 C11.60507854 155.12681529 7.65217168 155.13846925 3.69921875 155.1484375 C2.33758906 155.15248574 0.97595957 155.15660268 -0.38566971 155.16078758 C-6.78168501 155.17983161 -13.17768881 155.19406556 -19.57372701 155.20239955 C-26.95480821 155.21217627 -34.33558986 155.23851005 -41.71656549 155.27890044 C-47.42366585 155.3090588 -53.1306803 155.32386805 -58.8378588 155.32718056 C-62.24580472 155.32953097 -65.65343034 155.33848972 -69.06129074 155.36364174 C-72.86320835 155.38789931 -76.66433785 155.38709235 -80.46630859 155.38012695 C-82.15748558 155.39934204 -82.15748558 155.39934204 -83.88282776 155.41894531 C-91.51407129 155.36786961 -91.51407129 155.36786961 -95.45303345 153.00578308 C-100.05536297 147.71898225 -98.67040818 139.57977334 -98.27734375 132.91015625 C-96.3315162 115.86470689 -86.13322433 100.06474905 -72.96484375 89.41015625 C-71.4123721 88.2301778 -69.85061419 87.06225758 -68.27734375 85.91015625 C-66.94373784 84.91051979 -65.61031096 83.91064423 -64.27734375 82.91015625 C-64.71304688 82.52085937 -65.14875 82.1315625 -65.59765625 81.73046875 C-75.70624461 72.23452211 -81.61776848 59.50141296 -82.48046875 45.6484375 C-82.70186146 29.46831995 -77.82574488 16.93113878 -66.62109375 5.12890625 C-47.70029539 -12.78278286 -21.49820363 -13.34078249 0 0 Z " fill="#072B75" transform="translate(286.27734375,183.08984375)"/>
<path d="M0 0 C7.01534685 4.5696296 12.22558105 11.77314851 14 20 C14.87499611 29.71870674 13.63367747 38.88906473 7.75 46.875 C1.82976264 53.82538348 -5.0613221 58.42438347 -14.3046875 59.3203125 C-25.64960116 59.68627746 -33.62771807 56.63947826 -42 49 C-48.8766819 41.40885765 -50.59434908 33.452395 -50.34765625 23.40234375 C-49.85698803 18.60041091 -48.530757 15.07601672 -46 11 C-45.57589844 10.30261719 -45.15179688 9.60523438 -44.71484375 8.88671875 C-34.18944364 -6.68149144 -15.79943285 -8.79292959 0 0 Z " fill="#FAC950" transform="translate(274,199)"/>
<path d="M0 0 C9.81918399 7.28846647 16.65871677 15.83308939 20.6484375 27.5 C20.6484375 29.15 20.6484375 30.8 20.6484375 32.5 C-10.3715625 32.5 -41.3915625 32.5 -73.3515625 32.5 C-71.79278845 20.02980759 -66.22649622 10.35087898 -56.3515625 2.5 C-39.13164849 -9.41431888 -18.19073637 -11.6033933 0 0 Z " fill="#FAC950" transform="translate(282.3515625,285.5)"/>
</svg>
