<?xml version="1.0" encoding="UTF-8"?>
<svg version="1.1" xmlns="http://www.w3.org/2000/svg" width="512" height="512">
<path d="M0 0 C0.7827832 -0.01893311 1.56556641 -0.03786621 2.37207031 -0.05737305 C14.97009206 0.08102411 26.47376928 5.30707128 37.6875 10.5625 C53.09834667 17.98512783 53.09834667 17.98512783 69.8125 19 C75.26727622 18.31024958 78.37822395 18.35435605 83 21.5 C86.93334258 26.16512725 88.46681054 31.28680955 90.0625 37.0625 C90.44656006 38.45178711 90.44656006 38.45178711 90.83837891 39.86914062 C101.80084088 81.09525479 97.05791425 124.31984146 75.91259766 161.40722656 C63.13773979 182.66802119 44.63258582 200.02376152 24 213.5 C24.15855469 214.05042969 24.31710937 214.60085937 24.48046875 215.16796875 C27.29699192 225.20475022 29.75933183 235.32059023 32 245.5 C32.17096191 246.24733398 32.34192383 246.99466797 32.51806641 247.76464844 C39.64322966 280.09794381 35.55573116 315.30906544 26.76171875 346.77441406 C25.93304768 349.73956913 25.12137267 352.70907412 24.3125 355.6796875 C24.06113281 356.60249512 23.80976563 357.52530273 23.55078125 358.47607422 C23.36902344 359.14396973 23.18726563 359.81186523 23 360.5 C23.47421387 360.95850342 23.94842773 361.41700684 24.43701172 361.8894043 C26.59093299 363.98078215 28.73298534 366.08393175 30.875 368.1875 C31.62136719 368.90873047 32.36773437 369.62996094 33.13671875 370.37304688 C33.85214844 371.07880859 34.56757813 371.78457031 35.3046875 372.51171875 C35.96452637 373.15584717 36.62436523 373.79997559 37.30419922 374.46362305 C40.62997675 378.45733315 41.22632962 382.20942491 41.36328125 387.33984375 C40.4479508 392.78261515 37.22709061 396.65527544 33.45605469 400.47973633 C32.53789978 401.41703079 31.61974487 402.35432526 30.67376709 403.32002258 C29.6737443 404.32463097 28.67309818 405.3286192 27.671875 406.33203125 C26.63896209 407.37459546 25.60627114 408.41737963 24.5737915 409.46037292 C22.41371278 411.63836014 20.24757801 413.81011252 18.07763672 415.97827148 C15.30384918 418.75175362 12.55130699 421.54533376 9.80360031 424.34462452 C7.67939641 426.50223914 5.54163993 428.64602453 3.39987946 430.78619957 C2.37920571 431.81040292 1.36336847 432.83945073 0.35262299 433.87345314 C-1.06335755 435.31894812 -2.50055089 436.74356981 -3.93847656 438.16723633 C-4.74883362 438.98186844 -5.55919067 439.79650055 -6.394104 440.63581848 C-9.64401627 442.96071034 -12.0416961 443.30426344 -16 443.5 C-16.99 443.17 -17.98 442.84 -19 442.5 C-21.04721805 444.33077209 -23.05927639 446.18461775 -25.0625 448.0625 C-25.64322266 448.57619141 -26.22394531 449.08988281 -26.82226562 449.61914062 C-28.46200385 451.18125811 -29.81598254 452.56664701 -31 454.5 C-30.75075173 458.07836038 -30.75075173 458.07836038 -30 461.5 C-31.8621531 465.30611412 -34.33980654 468.09238802 -37.31616211 471.07495117 C-38.18393784 471.94903122 -39.05171356 472.82311127 -39.94578552 473.72367859 C-41.34740685 475.11922722 -41.34740685 475.11922722 -42.77734375 476.54296875 C-43.75025672 477.51723034 -44.72287276 478.49178854 -45.69520569 479.46662903 C-47.72870967 481.50307361 -49.76576671 483.53587703 -51.80541992 485.56616211 C-54.41596023 488.16529334 -57.01739811 490.77332122 -59.61624813 493.38413525 C-61.62094625 495.39606776 -63.63039262 497.40320339 -65.64129829 499.40892982 C-66.60240949 500.36870969 -67.56204503 501.32996966 -68.52015495 502.29274559 C-69.86007073 503.63775401 -71.20711129 504.97565318 -72.55444336 506.31323242 C-73.31816757 507.07536545 -74.08189178 507.83749847 -74.86875916 508.62272644 C-78.59203829 511.90232456 -81.44345455 512.80593074 -86.375 512.875 C-87.29023438 512.90335938 -88.20546875 512.93171875 -89.1484375 512.9609375 C-98.23306173 511.49246399 -104.65558518 501.72306426 -110.48046875 495.32617188 C-114.65276038 490.60841184 -114.65276038 490.60841184 -120.17333984 488.0690918 C-122.53727988 488.27890989 -122.53727988 488.27890989 -126 489.5 C-127.13179688 489.72558594 -128.26359375 489.95117188 -129.4296875 490.18359375 C-130.56664062 490.43238281 -131.70359375 490.68117188 -132.875 490.9375 C-161.92850116 496.86686023 -193.85063157 497.04007076 -222.51171875 488.953125 C-225.46375567 488.41554842 -227.12477659 488.62649419 -230 489.5 C-232.41835286 491.40098314 -232.41835286 491.40098314 -234.6875 493.8671875 C-235.55117187 494.75277344 -236.41484375 495.63835937 -237.3046875 496.55078125 C-238.63886719 497.94876953 -238.63886719 497.94876953 -240 499.375 C-241.76614375 501.21025372 -243.53682324 503.04115573 -245.3125 504.8671875 C-246.09238281 505.68300293 -246.87226563 506.49881836 -247.67578125 507.33935547 C-251.707361 511.08720009 -254.9003611 512.9296459 -260.4375 512.9375 C-261.34371094 512.95683594 -262.24992187 512.97617187 -263.18359375 512.99609375 C-268.93143281 511.98364498 -273.02622443 507.72411118 -277.03594971 503.71801758 C-277.50519009 503.25189717 -277.97443048 502.78577677 -278.45789027 502.3055315 C-280.01477764 500.75656376 -281.56448611 499.20061579 -283.11425781 497.64453125 C-284.23462301 496.52687852 -285.3554127 495.40965119 -286.47659302 494.29281616 C-289.50988543 491.26861743 -292.53684635 488.23815558 -295.56241703 485.20623398 C-298.73219683 482.03138106 -301.90686431 478.86142157 -305.08074951 475.69067383 C-310.40704528 470.36801281 -315.72911857 465.04115708 -321.04882812 459.71191406 C-327.19925616 453.55059126 -333.35687108 447.39652155 -339.51824689 441.24614811 C-344.81121317 435.96225535 -350.10027505 430.67447812 -355.38608813 425.38342953 C-358.54185858 422.22454118 -361.69896451 419.06701944 -364.85959625 415.91299438 C-367.82885856 412.9495062 -370.79319163 409.98117427 -373.75378036 407.00902176 C-374.84128963 405.91886676 -375.93050674 404.83041241 -377.0215416 403.74378586 C-378.50969467 402.26109269 -379.99155851 400.7723848 -381.47198486 399.28198242 C-382.30302357 398.45018967 -383.13406227 397.61839691 -383.99028397 396.76139832 C-387.03219618 393.33853904 -388.28844459 390.6955281 -388.3125 386.125 C-388.32925781 385.39539063 -388.34601563 384.66578125 -388.36328125 383.9140625 C-387.2820276 376.72895758 -382.29525192 372.42630717 -377.3125 367.625 C-376.61060547 366.93664062 -375.90871094 366.24828125 -375.18554688 365.5390625 C-373.46367145 363.85232739 -371.73517426 362.17303303 -370 360.5 C-370.17893799 359.84088623 -370.35787598 359.18177246 -370.54223633 358.50268555 C-371.03255794 356.69593481 -371.52227746 354.88902066 -372.01171875 353.08203125 C-372.72684111 350.49006603 -373.45796525 347.90629332 -374.20703125 345.32421875 C-389.57074114 292.06062544 -384.1709241 235.4456214 -358 186.5 C-357.51660156 185.59121094 -357.51660156 185.59121094 -357.0234375 184.6640625 C-345.23355973 162.71380226 -328.60424344 141.00783437 -309 125.5 C-308.0615625 124.7471875 -307.123125 123.994375 -306.15625 123.21875 C-260.86199138 87.34586579 -204.84378687 71.08889578 -147.3125 77.625 C-130.05079276 79.80748329 -113.20267552 84.18870366 -97 90.5 C-96.96559814 89.7471875 -96.93119629 88.994375 -96.89575195 88.21875 C-96.04856907 70.90206917 -94.32905183 54.33670237 -90 37.5 C-89.73268066 36.45730957 -89.73268066 36.45730957 -89.45996094 35.39355469 C-87.82724729 29.27487243 -86.29677811 24.3756913 -81 20.5 C-76.86384539 18.38183086 -74.11880658 18.50344604 -69.5625 19.125 C-56.95818087 20.13958916 -47.14791444 15.21019581 -36 10 C-23.89689406 4.35677141 -13.51692749 0.24763255 0 0 Z " fill="#020201" transform="translate(402,-0.5)"/>
<path d="M0 0 C3.62011046 2.33296007 5.89022378 4.96794755 7.8125 8.8125 C8.45926855 15.06459598 7.465518 17.76780356 3.9375 22.859375 C2.16942291 25.92895328 2.27454769 28.383054 2.8125 31.8125 C3.79298938 33.87652685 3.79298938 33.87652685 5.8125 34.8125 C8.64126903 35.48137173 8.64126903 35.48137173 11.8125 34.8125 C13.41435798 33.68621663 13.41435798 33.68621663 15 32.3125 C18.91196138 29.26986337 22.35778442 29.09606028 27.21875 29.31640625 C31.33870294 30.1044093 33.01263903 31.7254738 35.8125 34.8125 C38.78364399 39.26921599 38.57603067 43.5852516 37.8125 48.8125 C36.66583323 50.82691459 35.36753595 52.42471068 33.8671875 54.18359375 C32.46180228 56.02256543 32.46180228 56.02256543 32.875 59.625 C33.5539531 62.87318786 33.5539531 62.87318786 35.8125 64.8125 C40.44496922 65.46104569 43.04718535 64.89840676 46.8125 62.3125 C50.63540795 59.71469382 53.11924503 59.11720297 57.8125 59.8125 C63.14989473 61.80094117 66.26583824 64.71917648 68.8125 69.8125 C69.25474561 75.45113152 68.32389519 78.88630173 65.8125 83.8125 C65.1525 84.4725 64.4925 85.1325 63.8125 85.8125 C63.3484554 90.47478885 63.3484554 90.47478885 64.9375 94.75 C67.77561387 96.35826453 69.59292439 96.25440253 72.8125 95.8125 C75.99538354 93.94071884 75.99538354 93.94071884 78.8125 91.8125 C83.51772555 90.24409148 87.33898816 90.26354461 92 92 C95.24394395 94.09054166 96.93384184 95.41646409 98.8125 98.8125 C99.94268059 105.605116 98.6048642 110.11253307 94.8125 115.8125 C93.01590782 117.83314867 91.25130742 119.69756128 89.30957031 121.56079102 C88.77253983 122.08862183 88.23550934 122.61645264 87.6822052 123.16027832 C86.52599367 124.29517662 85.36642197 125.42666008 84.20380402 126.55499458 C82.3636862 128.34257593 80.53471696 130.14090333 78.70843506 131.94261169 C73.51831301 137.05966393 68.31131643 142.15929283 63.09130859 147.24584961 C59.89041002 150.36641453 56.70426819 153.50142935 53.52675629 156.64579582 C52.31551821 157.83842272 51.0986187 159.02532822 49.87601471 160.20630074 C48.1694136 161.85525352 46.48210713 163.52187678 44.79785156 165.19360352 C44.28984512 165.67532516 43.78183868 166.15704681 43.25843811 166.65336609 C40.81004557 169.12272011 39.84994833 170.51978448 39.40325928 174.01133728 C39.62763525 176.8927701 39.62763525 176.8927701 41.375 179.25 C43.78158438 181.100838 43.78158438 181.100838 47.03125 180.8203125 C52.04311463 179.4845056 54.31539765 176.99217868 57.75 173.25 C58.33845703 172.63447266 58.92691406 172.01894531 59.53320312 171.38476562 C60.97371864 169.87398106 62.39510249 168.34499445 63.8125 166.8125 C67.49319887 168.34893852 69.80025204 170.59400945 72.5625 173.4375 C73.36171875 174.25476563 74.1609375 175.07203125 74.984375 175.9140625 C75.58765625 176.54054688 76.1909375 177.16703125 76.8125 177.8125 C75.47222043 180.79343009 73.99718111 182.87595315 71.68673706 185.17877197 C71.04451202 185.82374634 70.40228699 186.4687207 69.74060059 187.13323975 C68.68540222 188.17765228 68.68540222 188.17765228 67.60888672 189.24316406 C66.8673233 189.98501953 66.12575989 190.726875 65.36172485 191.49121094 C62.90992329 193.94161939 60.45111395 196.384868 57.9921875 198.828125 C56.29067175 200.52591057 54.58959708 202.22413829 52.88894653 203.92279053 C48.41185194 208.39224916 43.92878362 212.85566914 39.44445801 217.31787109 C34.86951531 221.87235468 30.30022952 226.43250567 25.73046875 230.9921875 C16.76335005 239.93785692 7.79010292 248.8773529 -1.1875 257.8125 C-4.50916835 256.23573355 -6.71046561 254.53305992 -9.31347656 251.91357422 C-10.11400452 251.1128952 -10.91453247 250.31221619 -11.73931885 249.48727417 C-12.59362488 248.62264557 -13.44793091 247.75801697 -14.328125 246.8671875 C-15.21030701 245.9821756 -16.09248901 245.0971637 -17.00140381 244.18533325 C-19.33944543 241.83799869 -21.67305874 239.48643215 -24.00463867 237.13269043 C-26.38746526 234.72936073 -28.77600348 232.33172233 -31.1640625 229.93359375 C-35.84381862 225.23178533 -40.51781867 220.52431336 -45.1875 215.8125 C-41.34920906 211.97420906 -36.82656982 212.67835378 -31.7421875 212.671875 C-30.00649769 212.65350967 -28.27082033 212.63393607 -26.53515625 212.61328125 C-23.82156882 212.58464565 -21.10876649 212.56250847 -18.39501953 212.56201172 C-4.53094168 212.54406967 14.98835874 211.97976725 25.8125 201.8125 C27.21064636 198.28690615 27.21064636 198.28690615 26.8125 194.8125 C25.09865876 191.58779656 25.09865876 191.58779656 21.9375 190.8125 C17.12492327 190.27888794 13.14653426 192.50588038 8.875 194.48828125 C2.49360543 197.24758324 -3.16498867 198.10235665 -10.015625 198.12109375 C-11.72005538 198.14626235 -13.42448238 198.17166024 -15.12890625 198.19726562 C-17.77912446 198.22588622 -20.42928404 198.24994154 -23.07958984 198.26879883 C-37.389539 198.31845921 -37.389539 198.31845921 -51.1875 201.8125 C-51.89277832 202.08247803 -52.59805664 202.35245605 -53.32470703 202.63061523 C-55.30179997 203.45292685 -57.20815307 204.35908397 -59.125 205.3125 C-59.73794922 205.58835937 -60.35089844 205.86421875 -60.98242188 206.1484375 C-75.26169295 213.17912641 -86.88161163 228.3860496 -97.9375 239.5 C-99.61695215 241.18447948 -101.29663797 242.86872601 -102.9765625 244.55273438 C-107.04956983 248.63664431 -111.11969479 252.72340876 -115.1875 256.8125 C-118.12314734 255.48693115 -120.20271239 254.04808973 -122.47784424 251.77612305 C-123.1059903 251.15361664 -123.73413635 250.53111023 -124.38131714 249.88973999 C-125.05889069 249.20811798 -125.73646423 248.52649597 -126.43457031 247.82421875 C-127.15691864 247.10537506 -127.87926697 246.38653137 -128.62350464 245.64590454 C-131.00926741 243.26894334 -133.38764173 240.88474221 -135.765625 238.5 C-137.4187135 236.8482583 -139.07209884 235.19681362 -140.72576904 233.5456543 C-144.18893318 230.08543904 -147.64845261 226.62163069 -151.10546875 223.15527344 C-155.54661743 218.70271264 -159.99670684 214.25921305 -164.449543 209.81834412 C-167.86394262 206.41115417 -171.27358571 202.99923649 -174.68178558 199.58584595 C-176.32144917 197.94484431 -177.96261039 196.30533773 -179.60526276 194.66732788 C-181.89437313 192.38326996 -184.17701868 190.09294556 -186.45800781 187.80078125 C-187.14367828 187.11915924 -187.82934875 186.43753723 -188.53579712 185.73526001 C-189.15266388 185.1127536 -189.76953064 184.49024719 -190.40509033 183.84887695 C-190.9455965 183.30761673 -191.48610268 182.76635651 -192.04298782 182.20869446 C-193.1875 180.8125 -193.1875 180.8125 -193.1875 178.8125 C-191.859375 177.5078125 -191.859375 177.5078125 -189.9375 175.9375 C-187.17639435 173.64553796 -184.67518054 171.29577869 -182.30078125 168.61328125 C-174.58324167 160.00525634 -174.58324167 160.00525634 -170.83984375 159.48828125 C-168.6875 160.0625 -168.6875 160.0625 -166.52734375 160.9296875 C-160.29173552 163.28235438 -153.0231464 162.42998501 -146.875 160.1875 C-138.97890848 156.562649 -134.38743724 151.88115895 -131.1875 143.8125 C-130.8575 142.8225 -130.5275 141.8325 -130.1875 140.8125 C-129.18460937 141.13476562 -128.18171875 141.45703125 -127.1484375 141.7890625 C-118.78367403 144.16517681 -108.86342231 144.27084878 -101.109375 140.05859375 C-100.47515625 139.64738281 -99.8409375 139.23617187 -99.1875 138.8125 C-98.55328125 138.41160156 -97.9190625 138.01070312 -97.265625 137.59765625 C-91.77190486 133.54779845 -89.59441378 128.04607394 -87.1875 121.8125 C-86.445 121.9775 -85.7025 122.1425 -84.9375 122.3125 C-74.6127208 123.68913723 -66.05858465 123.27013265 -57.15234375 117.4921875 C-51.77620859 113.31455381 -49.30398149 108.16194446 -47.1875 101.8125 C-46.96031504 99.24615139 -46.77141816 96.69571893 -46.625 94.125 C-46.56022461 93.0721582 -46.56022461 93.0721582 -46.49414062 91.99804688 C-46.3883264 90.26974794 -46.28743419 88.5411489 -46.1875 86.8125 C-45.5584375 86.66554688 -44.929375 86.51859375 -44.28125 86.3671875 C-36.99506185 84.45785506 -31.03820754 81.89709587 -26.6171875 75.5625 C-21.70393582 67.02747993 -20.46021019 57.83408639 -22.84765625 48.12890625 C-25.97447149 40.88848618 -31.87548699 35.80894683 -37.51953125 30.5 C-40.1875 27.8125 -40.1875 27.8125 -40.1875 25.8125 C-38.76269531 24.41333008 -38.76269531 24.41333008 -36.765625 22.76953125 C-31.00797208 17.87552627 -25.81469051 12.45476183 -20.546875 7.04492188 C-19.4021875 5.88379883 -19.4021875 5.88379883 -18.234375 4.69921875 C-17.55213867 4.00014404 -16.86990234 3.30106934 -16.16699219 2.58081055 C-11.20651917 -1.85045562 -6.25552637 -2.33049022 0 0 Z " fill="#D78954" transform="translate(287.1875,170.1875)"/>
<path d="M0 0 C0.89512802 -0.01266403 1.79025604 -0.02532806 2.71250916 -0.03837585 C33.12948316 -0.38461842 59.19508845 3.00226302 87.73828125 14.2734375 C88.92808594 14.71300781 90.11789062 15.15257813 91.34375 15.60546875 C94.81795123 18.02550778 94.95036405 20.2363058 95.73828125 24.3359375 C96.05290945 25.79030384 96.37345189 27.24340055 96.69921875 28.6953125 C96.86518555 29.45005859 97.03115234 30.20480469 97.20214844 30.98242188 C103.13108417 56.31809259 116.88198579 77.74234018 134.73828125 96.2734375 C135.85203125 97.49933594 135.85203125 97.49933594 136.98828125 98.75 C147.87079634 110.35045879 169.99321972 130.33627421 186.48828125 131.4609375 C189.89683609 131.26429011 192.56055248 130.48400084 195.73828125 129.2734375 C213.6357872 167.92996925 209.1031697 216.7839914 196.73828125 256.2734375 C192.1049331 252.41231404 187.84865693 248.41649529 183.73046875 244.0078125 C179.8442443 240.62451121 175.84087974 239.82973471 170.7265625 239.9453125 C167.4696814 240.48279386 165.30488139 242.29015557 162.73828125 244.2734375 C160.75828125 245.2634375 160.75828125 245.2634375 158.73828125 246.2734375 C155.10828125 242.6434375 151.47828125 239.0134375 147.73828125 235.2734375 C149.35049243 232.04901513 150.12655053 230.64095373 152.5480957 228.30004883 C153.11240799 227.74879837 153.67672028 227.19754791 154.25813293 226.6295929 C154.86646469 226.04413193 155.47479645 225.45867096 156.1015625 224.85546875 C157.39416303 223.58817903 158.68647138 222.32059124 159.97851562 221.05273438 C162.00868902 219.07197597 164.04187917 217.09454623 166.08081055 215.12280273 C168.0551677 213.20944627 170.01640423 211.28335475 171.9765625 209.35546875 C172.57882156 208.78012894 173.18108063 208.20478912 173.80158997 207.61201477 C181.11591783 200.38383071 184.81704409 192.92558811 185.11328125 182.6484375 C185.03036919 174.66400626 183.21977597 169.19290277 177.90625 163.2109375 C171.31514097 156.97083428 164.59637368 155.06433861 155.73828125 154.2734375 C155.59132813 153.355625 155.444375 152.4378125 155.29296875 151.4921875 C153.57130391 142.07250403 151.16754299 136.70269924 144.48828125 130.0234375 C138.66424737 126.31723412 132.54949592 124.25496625 125.73828125 123.2734375 C125.50044922 122.11328125 125.50044922 122.11328125 125.2578125 120.9296875 C122.96236335 110.68259956 119.53678997 103.34137455 110.73828125 97.2734375 C105.46350135 94.44068533 100.61689946 93.6600133 94.73828125 93.2734375 C94.6403125 92.5721875 94.54234375 91.8709375 94.44140625 91.1484375 C92.93032953 81.56091621 90.63798955 75.01995689 82.9296875 68.81640625 C75.54508343 63.61690784 68.74365151 62.16689527 59.73828125 63.2734375 C57.97405586 63.87933309 56.22242846 64.52367179 54.48828125 65.2109375 C52.046875 66.05859375 52.046875 66.05859375 49.73828125 66.2734375 C47.31317141 64.86062397 45.68174331 63.29565896 43.8203125 61.203125 C37.68584142 55.51751765 30.73412502 55.8432138 22.8203125 55.91015625 C21.68550949 55.90965775 20.55070648 55.90915924 19.3815155 55.90864563 C16.99203736 55.91097867 14.60255642 55.92066153 12.21313477 55.93725586 C8.55267452 55.96092526 4.89293962 55.95780102 1.23242188 55.95117188 C-1.09245226 55.95674654 -3.41732334 55.96385508 -5.7421875 55.97265625 C-6.8370195 55.97174484 -7.9318515 55.97083344 -9.05986023 55.96989441 C-10.58713493 55.98419243 -10.58713493 55.98419243 -12.14526367 55.9987793 C-13.03904221 56.00338669 -13.93282074 56.00799408 -14.85368347 56.01274109 C-17.43132235 56.29179896 -18.99936955 57.05747328 -21.26171875 58.2734375 C-23.29806866 58.46658722 -25.34223199 58.58439334 -27.38671875 58.6484375 C-36.27811101 59.22722622 -44.03697047 61.61440446 -50.26171875 68.2734375 C-54.28793169 74.56509616 -56.2138546 80.92274866 -57.26171875 88.2734375 C-58.09574219 88.42039062 -58.92976563 88.56734375 -59.7890625 88.71875 C-69.66438856 90.68702805 -76.95424717 93.29479016 -82.69921875 101.8984375 C-85.73747377 107.41947709 -86.64250197 113.05991735 -87.26171875 119.2734375 C-88.01195313 119.34820312 -88.7621875 119.42296875 -89.53515625 119.5 C-98.11249415 120.60187464 -105.28899065 122.74024154 -111.14453125 129.421875 C-117.13924021 137.90713938 -118.31486408 146.46416962 -116.75 156.58203125 C-116.58886719 157.47019531 -116.42773438 158.35835937 -116.26171875 159.2734375 C-117.05835938 159.62535156 -117.855 159.97726563 -118.67578125 160.33984375 C-127.98175905 164.6758407 -133.66716841 169.12440138 -137.56640625 178.7578125 C-139.67237479 186.37715934 -138.84724213 193.86693475 -135.55859375 200.99609375 C-133.29129705 204.97752139 -130.48527392 208.03423401 -127.26171875 211.2734375 C-126.67229492 211.86979004 -126.08287109 212.46614258 -125.47558594 213.08056641 C-121.09826197 217.50591075 -116.69077449 221.89990512 -112.26171875 226.2734375 C-113.71917299 229.63679344 -115.57289729 231.81877755 -118.17578125 234.3828125 C-118.93632813 235.13691406 -119.696875 235.89101563 -120.48046875 236.66796875 C-121.27453125 237.44527344 -122.06859375 238.22257813 -122.88671875 239.0234375 C-123.68851563 239.81621094 -124.4903125 240.60898437 -125.31640625 241.42578125 C-127.29374721 243.37958243 -129.27560784 245.32855853 -131.26171875 247.2734375 C-133.764941 246.08826009 -135.64057368 244.96850549 -137.82421875 243.2109375 C-141.45626577 240.32392577 -144.48047358 240.11107445 -149.03125 239.84765625 C-154.89463438 240.96693628 -159.06438714 245.85741715 -163.01171875 250.0234375 C-164.72515202 251.82874387 -166.4529958 253.5592883 -168.26171875 255.2734375 C-168.92171875 255.2734375 -169.58171875 255.2734375 -170.26171875 255.2734375 C-182.53529896 225.503477 -184.28855863 187.56861983 -177.26171875 156.2734375 C-176.97901795 154.8713855 -176.69778247 153.46903729 -176.41796875 152.06640625 C-169.62134452 119.4636731 -153.97050698 90.31346194 -132.26171875 65.2734375 C-131.79459473 64.73187012 -131.3274707 64.19030273 -130.84619141 63.63232422 C-125.68787482 57.69193424 -120.34980968 52.24908657 -114.26171875 47.2734375 C-113.76639648 46.85513672 -113.27107422 46.43683594 -112.76074219 46.00585938 C-84.58180034 22.21177929 -51.63029315 7.29607342 -15.26171875 1.2734375 C-14.37782471 1.09981689 -13.49393066 0.92619629 -12.58325195 0.74731445 C-8.37600982 0.14707506 -4.24511017 0.05405997 0 0 Z " fill="#D6EAFC" transform="translate(215.26171875,91.7265625)"/>
<path d="M0 0 C10.12594576 4.65317612 19.60990442 8.38217152 30.83203125 8.84375 C31.61126953 8.88242187 32.39050781 8.92109375 33.19335938 8.9609375 C35.09340504 9.05419127 36.99393403 9.13750962 38.89453125 9.21875 C39.99329916 12.52813986 40.95768205 15.85942043 41.89453125 19.21875 C42.43400391 21.01505859 42.43400391 21.01505859 42.984375 22.84765625 C45.99178289 33.94468623 46.30219725 44.92305855 46.33203125 56.34375 C46.33802338 57.09944275 46.3440155 57.8551355 46.35018921 58.63372803 C46.42809009 73.41486881 44.621891 87.68243267 39.76953125 101.71875 C39.32275024 103.02948486 39.32275024 103.02948486 38.86694336 104.36669922 C32.62901843 121.96330527 22.70997413 136.71168004 9.89453125 150.21875 C8.99992187 151.1778125 8.1053125 152.136875 7.18359375 153.125 C-2.43075489 163.22882424 -13.43393817 171.09464297 -25.23046875 178.46875 C-25.84575439 178.86408936 -26.46104004 179.25942871 -27.0949707 179.66674805 C-29.68650608 181.2314014 -31.56612676 182.22960363 -34.62890625 182.16796875 C-49.62665676 176.41961958 -62.59633551 165.08848695 -74.10546875 154.21875 C-74.915 153.47367188 -75.72453125 152.72859375 -76.55859375 151.9609375 C-99.36086995 130.23424037 -113.66234183 98.39957409 -114.484375 66.8984375 C-114.5336867 63.98406299 -114.54732287 61.07100647 -114.54296875 58.15625 C-114.54319031 57.46604767 -114.54341187 56.77584534 -114.54364014 56.06472778 C-114.49886469 42.99477615 -113.01930385 30.43541909 -109.48046875 17.84375 C-109.13628906 16.57917969 -109.13628906 16.57917969 -108.78515625 15.2890625 C-108.23274862 13.26356787 -107.67026975 11.24082381 -107.10546875 9.21875 C-105.80996094 9.1671875 -104.51445312 9.115625 -103.1796875 9.0625 C-90.65007511 8.34726895 -80.78534724 5.72160996 -69.50097656 0.34179688 C-65.33695705 -1.61035251 -61.09461308 -3.3748679 -56.85546875 -5.15625 C-56.08122559 -5.48963379 -55.30698242 -5.82301758 -54.50927734 -6.16650391 C-34.21834451 -14.80934928 -18.86593844 -8.76249552 0 0 Z " fill="#FCD201" transform="translate(436.10546875,25.78125)"/>
<path d="M0 0 C7.34782142 6.22070424 7.34782142 6.22070424 10.73217773 9.61865234 C11.37231308 10.25886322 12.01244843 10.8990741 12.67198181 11.5586853 C13.33581375 12.22767853 13.99964569 12.89667175 14.68359375 13.5859375 C15.38396255 14.28772125 16.08433136 14.989505 16.80592346 15.71255493 C19.01883027 17.93101136 21.22821416 20.15293815 23.4375 22.375 C24.94703314 23.88955466 26.45679657 25.40387985 27.96679688 26.91796875 C31.64719702 30.60933099 35.32471957 34.30354069 39 38 C37.5249607 41.43644715 35.60846506 43.60499477 32.93334961 46.19848633 C32.09585678 47.01646194 31.25836395 47.83443756 30.39549255 48.67720032 C29.0376339 49.99134163 29.0376339 49.99134163 27.65234375 51.33203125 C26.23592222 52.72238674 24.81951818 54.11276058 23.4041605 55.50419903 C19.91726874 58.93011074 16.42101214 62.34621538 12.90991211 65.74731445 C10.93867986 67.65770587 8.97572434 69.57592751 7.02113342 71.50334167 C5.18149402 73.3166938 3.32996869 75.11808349 1.46556091 76.90596008 C-3.62395712 81.66888535 -3.62395712 81.66888535 -6.12402344 87.94946289 C-6.12962621 90.95485201 -6.12962621 90.95485201 -5.23046875 93.5390625 C-5 96 -5 96 -7.17578125 99.1484375 C-8.19695576 100.24715057 -9.24416958 101.32208125 -10.3125 102.375 C-11.13476074 103.19810669 -11.13476074 103.19810669 -11.97363281 104.0378418 C-16.15497661 107.90504005 -16.15497661 107.90504005 -19.74609375 108.30859375 C-21.35782887 107.98926401 -22.96103114 107.62108125 -24.54760742 107.19395447 C-27.01729403 106.75959279 -27.01729403 106.75959279 -28.90185547 108.14332581 C-29.50916504 108.72323776 -30.11647461 109.30314972 -30.7421875 109.90063477 C-31.433125 110.5504129 -32.1240625 111.20019104 -32.8359375 111.86965942 C-33.55007813 112.57267181 -34.26421875 113.2756842 -35 114 C-35.70382812 114.68150116 -36.40765625 115.36300232 -37.1328125 116.06515503 C-39.39949396 118.28396634 -41.63965696 120.52697903 -43.875 122.77734375 C-44.68493408 123.58869278 -45.49486816 124.40004181 -46.3293457 125.23597717 C-48.88861015 127.80079139 -51.4443553 130.36907948 -54 132.9375 C-55.74586133 134.68838283 -57.49195287 136.43903613 -59.23828125 138.18945312 C-63.49485198 142.45698616 -67.74854716 146.72736866 -72 151 C-77.14829744 146.69372744 -81.95752072 142.17688069 -86.68359375 137.4140625 C-87.38396255 136.71227875 -88.08433136 136.010495 -88.80592346 135.28744507 C-91.01883027 133.06898864 -93.22821416 130.84706185 -95.4375 128.625 C-96.94703314 127.11044534 -98.45679657 125.59612015 -99.96679688 124.08203125 C-103.64719702 120.39066901 -107.32471957 116.69645931 -111 113 C-109.47800665 109.41407463 -107.36744251 107.1206208 -104.62142944 104.38092041 C-103.70153732 103.45827896 -102.7816452 102.53563751 -101.83387756 101.58503723 C-100.81170737 100.56994481 -99.78944158 99.55494864 -98.76708984 98.54003906 C-97.69248727 97.46600073 -96.6183251 96.39152162 -95.54457092 95.31663513 C-92.6298224 92.4013126 -89.70894689 89.49219928 -86.78694105 86.58415318 C-83.73375233 83.54346373 -80.68622334 80.49711269 -77.63809204 77.45135498 C-71.86581322 71.68529328 -66.08845491 65.92434896 -60.30925906 60.16522098 C-53.72982199 53.60813567 -47.15606047 47.04537301 -40.58277202 40.48212481 C-27.06149151 26.98175156 -13.53309201 13.48853257 0 0 Z " fill="#FD636E" transform="translate(388,346)"/>
<path d="M0 0 C6.16415313 5.09728873 11.79193521 10.6566778 17.43334961 16.31982422 C18.4686367 17.35539385 19.50414496 18.3907424 20.53985596 19.42588806 C23.33291752 22.21866428 26.12289844 25.0144994 28.91231227 27.81091833 C31.83464239 30.73952579 34.75982974 33.66527659 37.68470764 36.59133911 C43.21491743 42.12464934 48.74257448 47.66050236 54.26930577 53.19728673 C60.56482362 59.50400577 66.86320208 65.80786471 73.16181552 72.11149192 C86.11104948 85.07116111 99.05670923 98.03439527 112 111 C110.49667312 114.14940547 108.95358047 116.29085016 106.46826172 118.75878906 C105.38736771 119.83945648 105.38736771 119.83945648 104.28463745 120.94195557 C103.50750397 121.70876648 102.73037048 122.47557739 101.9296875 123.265625 C101.13345978 124.05902283 100.33723206 124.85242065 99.51687622 125.66986084 C96.97424052 128.20130703 94.42473652 130.72570803 91.875 133.25 C90.14928247 134.96568617 88.42401645 136.68182662 86.69921875 138.3984375 C82.47136869 142.60424347 78.23746203 146.80388119 74 151 C67.83584687 145.90271127 62.20806479 140.3433222 56.56665039 134.68017578 C55.5313633 133.64460615 54.49585504 132.6092576 53.46014404 131.57411194 C50.66708248 128.78133572 47.87710156 125.9855006 45.08768773 123.18908167 C42.16535761 120.26047421 39.24017026 117.33472341 36.31529236 114.40866089 C30.78508257 108.87535066 25.25742552 103.33949764 19.73069423 97.80271327 C13.43517638 91.49599423 7.13679792 85.19213529 0.83818448 78.88850808 C-12.11104948 65.92883889 -25.05670923 52.96560473 -38 40 C-36.49667312 36.85059453 -34.95358047 34.70914984 -32.46826172 32.24121094 C-31.74766571 31.52076599 -31.0270697 30.80032104 -30.28463745 30.05804443 C-29.11893723 28.90782806 -29.11893723 28.90782806 -27.9296875 27.734375 C-27.13345978 26.94097717 -26.33723206 26.14757935 -25.51687622 25.33013916 C-22.97424052 22.79869297 -20.42473652 20.27429197 -17.875 17.75 C-16.14928247 16.03431383 -14.42401645 14.31817338 -12.69921875 12.6015625 C-8.47136869 8.39575653 -4.23746203 4.19611881 0 0 Z " fill="#96D628" transform="translate(68,346)"/>
<path d="M0 0 C0 0.33 0 0.66 0 1 C-0.72960937 1.12375 -1.45921875 1.2475 -2.2109375 1.375 C-12.54264318 3.41583075 -21.53982022 7.49228772 -31 12 C-31.94625244 12.44134277 -31.94625244 12.44134277 -32.91162109 12.89160156 C-80.46717396 35.10411055 -115.99171491 76.82222558 -134.17529297 125.66601562 C-147.32861133 162.89091897 -147.77853761 201.59590267 -140 240 C-140.65226562 239.95359375 -141.30453125 239.9071875 -141.9765625 239.859375 C-142.85054687 239.82328125 -143.72453125 239.7871875 -144.625 239.75 C-145.48351562 239.70359375 -146.34203125 239.6571875 -147.2265625 239.609375 C-153.44984122 240.48589313 -157.6156074 245.38655518 -161.75 249.75 C-163.46343327 251.55530637 -165.19127705 253.2858508 -167 255 C-167.66 255 -168.32 255 -169 255 C-181.27358021 225.2300395 -183.02683988 187.29518233 -176 156 C-175.7172992 154.597948 -175.43606372 153.19559979 -175.15625 151.79296875 C-168.35962577 119.1902356 -152.70878823 90.04002444 -131 65 C-130.53287598 64.45843262 -130.06575195 63.91686523 -129.58447266 63.35888672 C-124.42615607 57.41849674 -119.08809093 51.97564907 -113 47 C-112.50467773 46.58169922 -112.00935547 46.16339844 -111.49902344 45.73242188 C-83.29683113 21.91870928 -50.37913453 7.07523416 -14 1 C-12.9171875 0.8040625 -11.834375 0.608125 -10.71875 0.40625 C-7.09232473 -0.13562964 -3.66247458 -0.06314611 0 0 Z " fill="#C2E0FD" transform="translate(214,92)"/>
<path d="M0 0 C0.66 0.33 1.32 0.66 2 1 C1.80664062 1.95777344 1.61328125 2.91554688 1.4140625 3.90234375 C1.14987925 5.247168 0.88696242 6.59224138 0.625 7.9375 C0.48344482 8.65462158 0.34188965 9.37174316 0.19604492 10.1105957 C-0.51729532 13.87165864 -1.09297701 17.57032514 -1.36328125 21.390625 C-2.02702913 30.53916251 -3.68034452 36.53454162 -9.02734375 44.0703125 C-16.96480285 55.85861809 -17.85859899 71.36736655 -15.34765625 85.078125 C-11.38037848 101.62831382 -2.38550843 113.81345238 11.70703125 123.015625 C16.65280249 125.99599486 21.75405602 128.61108505 27.54296875 129.3046875 C30.88548046 130.25058112 31.80723773 131.83029764 33.8125 134.625 C37.49652683 139.45516851 41.28050122 143.20501599 46 147 C47.2096528 147.98565575 48.41928648 148.97133496 49.62890625 149.95703125 C50.96004635 151.03495558 52.29208621 152.1117697 53.625 153.1875 C54.25865479 153.69909668 54.89230957 154.21069336 55.54516602 154.73779297 C59.25123402 157.697806 63.01308606 160.42997394 67 163 C63.19456655 167.15071409 59.24427747 169.89622473 54.375 172.6875 C49.12450477 175.7409329 49.12450477 175.7409329 44 179 C29.12853181 177.95594145 12.13739866 160.57420984 2 151 C1.19046875 150.25492188 0.3809375 149.50984375 -0.453125 148.7421875 C-23.2554012 127.01549037 -37.55687308 95.18082409 -38.37890625 63.6796875 C-38.42821795 60.76531299 -38.44185412 57.85225647 -38.4375 54.9375 C-38.43772156 54.24729767 -38.43794312 53.55709534 -38.43817139 52.84597778 C-38.39339594 39.77602615 -36.9138351 27.21666909 -33.375 14.625 C-33.14554687 13.78195313 -32.91609375 12.93890625 -32.6796875 12.0703125 C-32.12727987 10.04481787 -31.564801 8.02207381 -31 6 C-30.41621582 5.96036133 -29.83243164 5.92072266 -29.23095703 5.87988281 C-15.00688574 5.15297335 -15.00688574 5.15297335 -1.64453125 0.70703125 C-0.83048828 0.35705078 -0.83048828 0.35705078 0 0 Z " fill="#F7C400" transform="translate(360,29)"/>
<path d="M0 0 C3.534817 1.29285736 5.77814601 3.53566451 8.40136719 6.17431641 C9.2619574 7.03505768 10.12254761 7.89579895 11.00921631 8.78262329 C11.92914368 9.71287323 12.84907104 10.64312317 13.796875 11.6015625 C14.75479097 12.56321086 15.71315114 13.52441694 16.67193604 14.48519897 C19.18835125 17.00923282 21.69870107 19.53921591 24.20782471 22.07049561 C26.77162441 24.6547919 29.34112918 27.23340199 31.91015625 29.8125 C36.94569457 34.86945697 41.9748456 39.93272256 47 45 C45.40786807 48.38201132 43.65211132 50.53355616 40.9375 53.125 C36.96511874 56.93216468 35.83134384 58.70822684 35.6875 64.25 C35.73421743 69.36222214 36.60394641 72.03793747 40 76 C41.33690042 77.66380673 42.6707573 79.33006904 44 81 C29.50258953 84.84310053 15.28779358 85.44332002 0.375 85.5 C-0.529086 85.50999023 -1.433172 85.51998047 -2.36465454 85.53027344 C-15.70536574 85.65094516 -28.02085231 84.0712011 -41 81 C-40.58282715 80.52151611 -40.1656543 80.04303223 -39.73583984 79.55004883 C-39.19137207 78.92122803 -38.6469043 78.29240723 -38.0859375 77.64453125 C-37.54501465 77.02167236 -37.0040918 76.39881348 -36.44677734 75.75708008 C-32.92091036 71.47499019 -32.38753721 66.98541599 -32.484375 61.5625 C-33.42639259 56.88095806 -36.60998745 54.15887533 -40 51 C-40.98110201 50.0018987 -41.96057512 49.00219017 -42.9375 48 C-43.618125 47.34 -44.29875 46.68 -45 46 C-43.53198804 42.61092234 -41.64689435 40.39880171 -39.04101562 37.7980957 C-38.22677124 36.98077469 -37.41252686 36.16345367 -36.5736084 35.32136536 C-35.69338013 34.4483226 -34.81315186 33.57527985 -33.90625 32.67578125 C-33.0037854 31.77377487 -32.1013208 30.87176849 -31.17150879 29.94242859 C-29.26395748 28.03789738 -27.35463525 26.13537973 -25.44189453 24.23608398 C-22.98869556 21.7999105 -20.54216717 19.3571697 -18.09784698 16.91209126 C-15.7659389 14.5805201 -13.42979292 12.25320856 -11.09375 9.92578125 C-10.21352173 9.0466658 -9.33329346 8.16755035 -8.4263916 7.26179504 C-7.61214722 6.45393051 -6.79790283 5.64606598 -5.95898438 4.8137207 C-5.24109741 4.09964554 -4.52321045 3.38557037 -3.78356934 2.64985657 C-2 1 -2 1 0 0 Z " fill="#D5E9FB" transform="translate(227,393)"/>
<path d="M0 0 C11.05371849 8.50392058 21.51057317 19.93568638 23.4375 34.25 C23 37 23 37 21.4375 39.375 C18.04129157 41.63913895 15.99900698 41.64269755 12 41 C8.90482073 37.70952261 7.04646673 34.27508391 5.1875 30.1875 C-0.70881576 18.20371609 -9.54222898 11.55187787 -22 7 C-33.37541817 4.09000931 -45.37249287 5.88768079 -55.64453125 11.42578125 C-66.32886264 18.28288946 -73.5957793 27.77708689 -77 40 C-78.17196318 53.54571393 -76.47247148 65.90262171 -68 77 C-60.42341472 85.60044816 -51.24879665 90.75024067 -40 93 C-26.29727058 93.84173909 -14.82881501 90.59409726 -3.8125 82.0625 C0.98894835 77.61409933 4.02000816 71.7752412 7.21484375 66.1328125 C9 63 9 63 10 62 C12.92942542 61.71185979 15.14948367 61.51386543 18 62 C20.5625 64.125 20.5625 64.125 22 67 C20.93302394 78.98296193 12.14413123 88.52879743 3.5390625 96.19140625 C-9.63936225 106.61937899 -26.3888014 110.69047089 -43 109 C-58.88687155 106.14102036 -73.124677 97.21514412 -82.75 84.25 C-86.3428217 78.82325539 -88.84795292 73.12829033 -91 67 C-91.2475 66.29746094 -91.495 65.59492187 -91.75 64.87109375 C-96.04315379 49.63636052 -92.84588647 33.52923705 -85.6640625 19.85546875 C-76.60430582 4.30926656 -63.73588865 -3.64121792 -47 -9 C-46.04480469 -9.30744141 -46.04480469 -9.30744141 -45.0703125 -9.62109375 C-29.50362632 -12.47009103 -13.20509293 -8.4239386 0 0 Z " fill="#030300" transform="translate(436,52)"/>
<path d="M0 0 C1.11228972 0.9457431 2.22348623 1.892772 3.33422852 2.84033203 C3.95314468 3.36756866 4.57206085 3.8948053 5.20973206 4.4380188 C7.5563298 6.48538918 9.75278049 8.65666942 11.9375 10.875 C12.70964844 11.65617187 13.48179687 12.43734375 14.27734375 13.2421875 C14.84582031 13.82226562 15.41429687 14.40234375 16 15 C11.43619479 20.47609839 6.58782262 25.54368242 1.53198242 30.56567383 C0.70365906 31.39253693 -0.12466431 32.21940002 -0.97808838 33.07131958 C-2.76609989 34.85554243 -4.55526519 36.63860965 -6.34546852 38.42063332 C-9.17561894 41.23797828 -12.00267533 44.05840612 -14.82878113 46.87980652 C-20.82038205 52.86035373 -26.81623258 58.83663212 -32.8125 64.8125 C-39.30449309 71.28245325 -45.79573387 77.75315133 -52.28213233 84.22871417 C-55.54562325 87.48641694 -58.81298979 90.74020319 -62.08100891 93.99336243 C-63.78047098 95.68919425 -65.47979409 97.38516534 -67.17895508 99.08129883 C-67.96074631 99.85792374 -68.74253754 100.63454865 -69.54801941 101.43470764 C-70.60987961 102.4964621 -70.60987961 102.4964621 -71.69319153 103.57966614 C-72.31129605 104.19555005 -72.92940058 104.81143396 -73.56623554 105.44598103 C-75.58604264 107.63519596 -75.98098184 108.83307239 -76.32226562 111.82861328 C-75.91260286 115.86006735 -74.73591476 116.96418714 -71.84375 119.7421875 C-70.98652344 120.58007812 -70.12929688 121.41796875 -69.24609375 122.28125 C-68.33988281 123.1371875 -67.43367188 123.993125 -66.5 124.875 C-65.59378906 125.75414062 -64.68757813 126.63328125 -63.75390625 127.5390625 C-61.51547913 129.70680245 -59.26427911 131.85933075 -57 134 C-58.32120828 136.93230193 -59.74638197 138.98664899 -62.0390625 141.234375 C-62.90917969 142.09482422 -62.90917969 142.09482422 -63.796875 142.97265625 C-64.70179688 143.85244141 -64.70179688 143.85244141 -65.625 144.75 C-66.23601562 145.35199219 -66.84703125 145.95398438 -67.4765625 146.57421875 C-68.97988624 148.05405305 -70.48934856 149.52764676 -72 151 C-77.14829744 146.69372744 -81.95752072 142.17688069 -86.68359375 137.4140625 C-87.38396255 136.71227875 -88.08433136 136.010495 -88.80592346 135.28744507 C-91.01883027 133.06898864 -93.22821416 130.84706185 -95.4375 128.625 C-96.94703314 127.11044534 -98.45679657 125.59612015 -99.96679688 124.08203125 C-103.64719702 120.39066901 -107.32471957 116.69645931 -111 113 C-109.47800665 109.41407463 -107.36744251 107.1206208 -104.62142944 104.38092041 C-103.70153732 103.45827896 -102.7816452 102.53563751 -101.83387756 101.58503723 C-100.81170737 100.56994481 -99.78944158 99.55494864 -98.76708984 98.54003906 C-97.69248727 97.46600073 -96.6183251 96.39152162 -95.54457092 95.31663513 C-92.6298224 92.4013126 -89.70894689 89.49219928 -86.78694105 86.58415318 C-83.73375233 83.54346373 -80.68622334 80.49711269 -77.63809204 77.45135498 C-71.86581322 71.68529328 -66.08845491 65.92434896 -60.30925906 60.16522098 C-53.72982199 53.60813567 -47.15606047 47.04537301 -40.58277202 40.48212481 C-27.06149151 26.98175156 -13.53309201 13.48853257 0 0 Z " fill="#FB4654" transform="translate(388,346)"/>
<path d="M0 0 C1.11228972 0.9457431 2.22348623 1.892772 3.33422852 2.84033203 C3.95314468 3.36756866 4.57206085 3.8948053 5.20973206 4.4380188 C7.5563298 6.48538918 9.75278049 8.65666942 11.9375 10.875 C12.70964844 11.65617187 13.48179688 12.43734375 14.27734375 13.2421875 C14.84582031 13.82226562 15.41429687 14.40234375 16 15 C12.92810138 18.70045634 9.84611669 22.22877036 6.3515625 25.53515625 C5.43310547 26.40817383 5.43310547 26.40817383 4.49609375 27.29882812 C3.23430064 28.48818009 1.9631913 29.6677154 0.68359375 30.83789062 C-2.06146154 33.47466548 -3.77769952 35.23418503 -4.8515625 38.93359375 C-2.69918985 46.68410996 5.89710161 53.03710784 11.47387695 58.58740234 C12.29098648 59.4046579 13.10809601 60.22191345 13.94996643 61.06393433 C16.62703885 63.74031517 19.30762665 66.41314498 21.98828125 69.0859375 C23.85700498 70.95279402 25.72550646 72.81987304 27.59379578 74.68716431 C31.9949184 79.0851924 36.39858068 83.48066825 40.80318755 87.87520659 C45.81392841 92.87474251 50.82180716 97.87714116 55.82945311 102.87977672 C65.70391452 112.74424138 75.58159565 122.6054771 85.4615984 132.46439171 C86.64167099 133.64232162 87.82099826 134.82099826 89 136 C84.05 140.95 79.1 145.9 74 151 C69.86839218 147.45862187 65.98186079 144.10668895 62.17201233 140.29226685 C61.2789035 139.40053268 60.38579468 138.50879852 59.46562195 137.59004211 C58.49925104 136.62013355 57.53292879 135.65017651 56.56665039 134.68017578 C55.5313633 133.64460615 54.49585504 132.6092576 53.46014404 131.57411194 C50.66708248 128.78133572 47.87710156 125.9855006 45.08768773 123.18908167 C42.16535761 120.26047421 39.24017026 117.33472341 36.31529236 114.40866089 C30.78508257 108.87535066 25.25742552 103.33949764 19.73069423 97.80271327 C13.43517638 91.49599423 7.13679792 85.19213529 0.83818448 78.88850808 C-12.11104948 65.92883889 -25.05670923 52.96560473 -38 40 C-36.49667312 36.85059453 -34.95358047 34.70914984 -32.46826172 32.24121094 C-31.74766571 31.52076599 -31.0270697 30.80032104 -30.28463745 30.05804443 C-29.11893723 28.90782806 -29.11893723 28.90782806 -27.9296875 27.734375 C-27.13345978 26.94097717 -26.33723206 26.14757935 -25.51687622 25.33013916 C-22.97424052 22.79869297 -20.42473652 20.27429197 -17.875 17.75 C-16.14928247 16.03431383 -14.42401645 14.31817338 -12.69921875 12.6015625 C-8.47136968 8.39575752 -4.23786131 4.19571493 0 0 Z " fill="#8AC526" transform="translate(68,346)"/>
<path d="M0 0 C0.928125 0.309375 1.85625 0.61875 2.8125 0.9375 C7.77871546 2.3783156 12.86205306 2.64694036 18 3 C18 3.33 18 3.66 18 4 C17.11014404 4.24153809 16.22028809 4.48307617 15.3034668 4.73193359 C9.63724679 6.90696476 6.01758374 11.36815202 1.8125 15.625 C0.91080078 16.50285156 0.00910156 17.38070313 -0.91992188 18.28515625 C-6.59719928 23.97511558 -10.56208548 28.4504287 -11.21484375 36.72265625 C-11.12332031 37.49480469 -11.03179687 38.26695312 -10.9375 39.0625 C-10.86402344 39.83722656 -10.79054687 40.61195313 -10.71484375 41.41015625 C-8.46107411 49.57545282 -2.57686078 54.82051827 3.2890625 60.58203125 C4.63851456 61.92511604 4.63851456 61.92511604 6.01522827 63.29533386 C8.39288146 65.65909615 10.7768048 68.01614341 13.16412354 70.37011719 C15.59664604 72.7718457 18.02061263 75.18217566 20.4453125 77.59179688 C24.70056567 81.81759817 28.96230025 86.03673434 33.22988892 90.25007629 C34.49039975 91.49621153 35.74665635 92.74665635 37 94 C29.74 101.26 22.48 108.52 15 116 C11.71375587 114.35687793 10.17444513 113.42498339 7.70965576 110.96362305 C7.0815097 110.34111664 6.45336365 109.71861023 5.80618286 109.07723999 C5.12860931 108.39561798 4.45103577 107.71399597 3.75292969 107.01171875 C3.03058136 106.29287506 2.30823303 105.57403137 1.56399536 104.83340454 C-0.82176741 102.45644334 -3.20014173 100.07224221 -5.578125 97.6875 C-7.2312135 96.0357583 -8.88459884 94.38431362 -10.53826904 92.7331543 C-14.00143318 89.27293904 -17.46095261 85.80913069 -20.91796875 82.34277344 C-25.35911743 77.89021264 -29.80920684 73.44671305 -34.262043 69.00584412 C-37.67644262 65.59865417 -41.08608571 62.18673649 -44.49428558 58.77334595 C-46.13394917 57.13234431 -47.77511039 55.49283773 -49.41776276 53.85482788 C-51.70687313 51.57076996 -53.98951868 49.28044556 -56.27050781 46.98828125 C-56.95617828 46.30665924 -57.64184875 45.62503723 -58.34829712 44.92276001 C-58.96516388 44.3002536 -59.58203064 43.67774719 -60.21759033 43.03637695 C-60.7580965 42.49511673 -61.29860268 41.95385651 -61.85548782 41.39619446 C-63 40 -63 40 -63 38 C-61.671875 36.6953125 -61.671875 36.6953125 -59.75 35.125 C-56.98889435 32.83303796 -54.48768054 30.48327869 -52.11328125 27.80078125 C-44.39574167 19.19275634 -44.39574167 19.19275634 -40.65234375 18.67578125 C-38.5 19.25 -38.5 19.25 -36.33984375 20.1171875 C-30.10423552 22.46985438 -22.8356464 21.61748501 -16.6875 19.375 C-8.79140848 15.750149 -4.19993724 11.06865895 -1 3 C-0.67 2.01 -0.34 1.02 0 0 Z " fill="#C37843" transform="translate(157,311)"/>
<path d="M0 0 C3.68069887 1.53643852 5.98775204 3.78150945 8.75 6.625 C9.54921875 7.44226563 10.3484375 8.25953125 11.171875 9.1015625 C11.77515625 9.72804688 12.3784375 10.35453125 13 11 C11.65972043 13.98093009 10.18468111 16.06345315 7.87423706 18.36627197 C7.23201202 19.01124634 6.58978699 19.6562207 5.92810059 20.32073975 C5.22463501 21.01701477 4.52116943 21.71328979 3.79638672 22.43066406 C3.0548233 23.17251953 2.31325989 23.914375 1.54922485 24.67871094 C-0.90257671 27.12911939 -3.36138605 29.572368 -5.8203125 32.015625 C-7.52182825 33.71341057 -9.22290292 35.41163829 -10.92355347 37.11029053 C-15.40064806 41.57974916 -19.88371638 46.04316914 -24.36804199 50.50537109 C-28.94298469 55.05985468 -33.51227048 59.62000567 -38.08203125 64.1796875 C-47.04914995 73.12535692 -56.02239708 82.0648529 -65 91 C-68.32166835 89.42323355 -70.52296561 87.72055992 -73.12597656 85.10107422 C-73.92650452 84.3003952 -74.72703247 83.49971619 -75.55181885 82.67477417 C-76.83327789 81.37783127 -76.83327789 81.37783127 -78.140625 80.0546875 C-79.02280701 79.1696756 -79.90498901 78.2846637 -80.81390381 77.37283325 C-83.15194543 75.02549869 -85.48555874 72.67393215 -87.81713867 70.32019043 C-90.19996526 67.91686073 -92.58850348 65.51922233 -94.9765625 63.12109375 C-99.65631862 58.41928533 -104.33031867 53.71181336 -109 49 C-105.16170906 45.16170906 -100.63906982 45.86585378 -95.5546875 45.859375 C-93.81899769 45.84100967 -92.08332033 45.82143607 -90.34765625 45.80078125 C-87.63406882 45.77214565 -84.92126649 45.75000847 -82.20751953 45.74951172 C-68.38962159 45.73162943 -48.76082515 45.18691448 -38 35 C-36.92783361 31.49721894 -36.92783361 31.49721894 -37 28 C-34.73904285 21.9108313 -29.09155733 16.82879709 -24 13 C-21.38274561 12.73660219 -19.64433652 13.16245668 -17.12109375 13.828125 C-14.90678558 14.20941719 -14.90678558 14.20941719 -12.91015625 12.796875 C-10.82185198 10.95307468 -8.90498928 9.03224565 -7 7 C-5.66821028 5.68593372 -4.33496562 4.37333974 -3 3.0625 C-1.99739287 2.04422713 -0.99636187 1.02438455 0 0 Z " fill="#FAE0BD" transform="translate(351,337)"/>
<path d="M0 0 C1.05445313 -0.01417969 2.10890625 -0.02835938 3.1953125 -0.04296875 C5.875 0.1875 5.875 0.1875 7.875 2.1875 C7.3903125 2.49300781 6.905625 2.79851563 6.40625 3.11328125 C-3.9535142 10.18581258 -9.58071116 20.33771028 -13.125 32.1875 C-13.434375 33.19425781 -13.74375 34.20101562 -14.0625 35.23828125 C-14.43313493 38.37349476 -14.43313493 38.37349476 -12.03515625 40.9609375 C-11.09542969 41.81945312 -10.15570313 42.67796875 -9.1875 43.5625 C-8.25035156 44.43648437 -7.31320312 45.31046875 -6.34765625 46.2109375 C-5.61417969 46.86320312 -4.88070312 47.51546875 -4.125 48.1875 C-0.27105021 46.61894132 2.02917799 44.17780889 4.8671875 41.1796875 C5.82883237 40.18301959 6.79109095 39.18694353 7.75390625 38.19140625 C9.25709241 36.62626344 10.75511842 35.05706346 12.24267578 33.47705078 C13.68730532 31.94758322 15.15033361 30.43781168 16.6171875 28.9296875 C17.91438721 27.56626221 17.91438721 27.56626221 19.23779297 26.17529297 C22.41757784 23.77853233 23.98065656 23.64330344 27.875 24.1875 C31.11012995 26.31587497 31.76017436 27.64468788 32.5625 31.4375 C30.93496688 40.31495338 20.89428334 47.32421608 14.63012695 53.56274414 C13.04454204 55.14289644 11.46446558 56.72841976 9.88476562 58.31445312 C8.87532108 59.32323806 7.86556701 60.33171338 6.85546875 61.33984375 C5.94692139 62.24726318 5.03837402 63.15468262 4.10229492 64.08959961 C1.19649216 66.82658997 0.48724001 67.16523673 -3.5625 67.3125 C-7.125 67.1875 -7.125 67.1875 -10.125 66.1875 C-5.08227037 74.9559577 -0.62402827 81.52148115 7.875 87.1875 C5.28847958 89.77402042 4.16649257 89.514765 0.5625 89.5625 C-10.38434689 89.35248855 -19.51211353 85.80582329 -28.125 79.1875 C-29.011875 78.589375 -29.89875 77.99125 -30.8125 77.375 C-39.1665693 69.47250202 -44.09112426 57.80921043 -44.46777344 46.3996582 C-44.63148536 35.16182721 -41.97946736 26.25308586 -35.125 17.1875 C-34.320625 15.9809375 -34.320625 15.9809375 -33.5 14.75 C-27.01748001 7.75570211 -19.16498218 3.87350109 -10.125 1.1875 C-9.1659375 0.89552734 -9.1659375 0.89552734 -8.1875 0.59765625 C-5.43845615 0.05097139 -2.80114784 0.01720607 0 0 Z " fill="#89C426" transform="translate(402.125,56.8125)"/>
<path d="M0 0 C13.59628941 5.30273636 21.39969912 13.1755812 28 26 C28.41507812 27.06992188 28.83015625 28.13984375 29.2578125 29.2421875 C30.840908 32.36458659 30.840908 32.36458659 34.6875 33.375 C35.780625 33.58125 36.87375 33.7875 38 34 C38.0270203 36.75006608 38.04684883 39.49986546 38.0625 42.25 C38.07087891 43.02730469 38.07925781 43.80460937 38.08789062 44.60546875 C38.09111328 45.35957031 38.09433594 46.11367187 38.09765625 46.890625 C38.10289307 47.58188477 38.10812988 48.27314453 38.11352539 48.98535156 C37.99437971 51.09973898 37.57618237 52.96641515 37 55 C35.40091797 55.0309375 35.40091797 55.0309375 33.76953125 55.0625 C29.76931999 55.63648422 29.76931999 55.63648422 27.69921875 59.0625 C27.01087623 60.36576853 26.34111822 61.67897482 25.6875 63 C19.43417929 74.36539696 10.74146356 82.2810449 -2 86 C-8.50302243 85.65263358 -11.70529444 82.58432925 -16 78 C-19.97464482 73.06864028 -23.51818191 68.25656525 -25 62 C-24.484375 62.33 -23.96875 62.66 -23.4375 63 C-19.91190497 64.44639796 -17.79971828 64.56995774 -14 64 C-7.35118395 59.3900532 -1.75504462 52.90998558 3.94799805 47.18237305 C5.45572096 45.66921334 6.96881759 44.16157115 8.48242188 42.65429688 C9.44563392 41.69042526 10.4085364 40.72624416 11.37109375 39.76171875 C12.6693811 38.4617395 12.6693811 38.4617395 13.99389648 37.13549805 C16.87629957 34.06717873 17.1210978 32.47684619 17.0625 28.375 C17.04166667 26.91666667 17.02083333 25.45833333 17 24 C13.34210215 22.77300798 11.71933002 22.3037227 8 23 C3.25345809 26.43773854 -0.59114656 30.65081813 -4.5625 34.9375 C-5.67537464 36.10056978 -6.79058907 37.26140554 -7.90820312 38.41992188 C-10.63323092 41.25480585 -13.32446749 44.11838903 -16 47 C-21.39687301 44.39471148 -25.78216307 41.1440595 -29 36 C-29.13723062 31.55492123 -27.74376139 28.04404238 -26 24 C-25.64808594 23.12988281 -25.29617188 22.25976562 -24.93359375 21.36328125 C-20.58025692 11.70099706 -12.02956733 -2.95149236 0 0 Z " fill="#95D428" transform="translate(416,59)"/>
<path d="M0 0 C3.54761543 2.06483782 6.2678519 4.54537883 9.12042236 7.44873047 C9.68379303 8.01005676 10.2471637 8.57138306 10.8276062 9.14971924 C12.67570877 10.99482966 14.51288249 12.85041559 16.34991455 14.70654297 C17.63633769 15.9960261 18.9233545 17.28491721 20.2109375 18.57324219 C22.90183955 21.2687372 25.58776795 23.96905553 28.26983643 26.67333984 C31.70855205 30.14039373 35.15593769 33.59865964 38.60661697 37.05380249 C41.26135574 39.71269597 43.91325143 42.37440869 46.5641098 45.03717041 C47.83472059 46.31347846 49.1058009 47.58931927 50.37735748 48.86468506 C52.15111783 50.64531499 53.92144908 52.42928079 55.69073486 54.21435547 C56.21646088 54.74119934 56.74218689 55.26804321 57.28384399 55.81085205 C61.29151375 59.86598998 63.44178009 62.35935927 63.52178955 68.14404297 C63.41561698 73.1673326 62.70967638 76.08113578 59.14678955 79.83154297 C55.21709661 82.51087907 51.90014 83.18300077 47.27178955 83.32763672 C41.57083766 81.99671596 37.27439897 77.25335317 33.26495361 73.22436523 C32.71133652 72.67585907 32.15771942 72.12735291 31.58732605 71.56222534 C29.77386276 69.76256963 27.96783 67.95567589 26.16241455 66.14794922 C24.89804584 64.88747082 23.63345493 63.62721527 22.36865234 62.36717224 C19.72601717 59.73197917 17.08726535 57.09296967 14.45098877 54.45141602 C11.07450435 51.06912395 7.6867599 47.69836478 4.2958107 44.33058262 C1.68434268 41.73384888 -0.92016297 39.13021866 -3.52271271 36.52454948 C-4.76909043 35.2786846 -6.01782899 34.03517682 -7.2689743 32.79409981 C-9.01623246 31.05918946 -10.75366738 29.31499005 -12.48895264 27.56811523 C-13.00532791 27.0593837 -13.52170319 26.55065216 -14.0537262 26.02650452 C-18.07041715 21.95033455 -20.10491211 18.18809624 -20.35321045 12.45654297 C-20.26093511 7.85046567 -18.64229426 5.53806431 -15.55633545 2.24169922 C-10.76452878 -1.72582878 -5.83042266 -2.38769571 0 0 Z " fill="#FACFA2" transform="translate(162.85321044921875,196.16845703125)"/>
<path d="M0 0 C4.49377829 1.95822748 7.60057842 4.22565439 11.05566406 7.68334961 C11.52149902 8.14553391 11.98733398 8.6077182 12.46728516 9.08390808 C13.99086601 10.59944395 15.50340472 12.12547867 17.015625 13.65234375 C18.0779188 14.71515675 19.14073246 15.77745039 20.20404053 16.83924866 C22.42431606 19.05961364 24.63935749 21.28503013 26.85058594 23.5144043 C29.68225988 26.36880583 32.52491831 29.21195736 35.37134171 32.05164242 C37.56447985 34.24143702 39.75259593 36.43619336 41.93914032 38.63257027 C42.9855821 39.68285455 44.03336766 40.73180177 45.08252716 41.77937126 C46.54732314 43.24379568 48.00544129 44.71455921 49.46191406 46.18725586 C50.29209045 47.02203964 51.12226685 47.85682343 51.9776001 48.71690369 C55.5054039 52.69945721 56.41674175 55.57605514 56.24609375 60.9765625 C55.68865136 65.55997768 53.7844154 68.25480537 50.5 71.375 C45.43438585 73.72689229 41.46519786 74.21769068 36 73 C33.60583496 71.29962158 33.60583496 71.29962158 31.27148438 69.06738281 C30.40644287 68.24911011 29.54140137 67.4308374 28.65014648 66.58776855 C27.77559814 65.73380493 26.9010498 64.87984131 26 64 C25.17894775 63.20887817 24.35789551 62.41775635 23.51196289 61.60266113 C20.95887844 59.12235258 18.42942474 56.62009267 15.90625 54.109375 C14.99290894 53.20173401 14.07956787 52.29409302 13.1385498 51.35894775 C11.22752509 49.45830385 9.31873587 47.5554448 7.41113281 45.65136719 C4.97242116 43.21819573 2.52451649 40.79448893 0.07450104 38.37270737 C-2.2798061 36.04149182 -4.62353647 33.69973809 -6.96875 31.359375 C-7.84575562 30.49471619 -8.72276123 29.63005737 -9.62634277 28.73919678 C-10.83900818 27.52202972 -10.83900818 27.52202972 -12.07617188 26.28027344 C-12.78769409 25.57239685 -13.49921631 24.86452026 -14.2322998 24.13519287 C-17.00874423 20.7815448 -17.90635218 17.85843834 -18.375 13.5625 C-17.81350071 8.22825672 -15.36008987 5.476669 -11.8125 1.625 C-7.90468529 -0.6328485 -4.41567733 -0.80482789 0 0 Z " fill="#FBD0A2" transform="translate(130,226)"/>
<path d="M0 0 C0.03867188 1.35931641 0.03867188 1.35931641 0.078125 2.74609375 C0.43089734 10.32268155 1.0611958 16.45221295 5 23 C5.41121094 23.69738281 5.82242188 24.39476562 6.24609375 25.11328125 C11.13505527 32.46749816 18.26316083 36.66567292 26.8046875 38.67285156 C29.14647766 39.0218283 31.26599713 39.00721536 33.62890625 38.88671875 C41.17994009 38.52048829 47.4917219 38.27114039 53.56640625 43.29296875 C65.57411096 54.73669434 65.57411096 54.73669434 66.30078125 60.3046875 C66.33127796 66.99363219 65.41390277 70.20892492 61 75.3125 C56.52297082 77.83082891 52.01841839 77.94660874 47 77 C42.7560581 74.43253207 39.28615378 71.54213737 35.77661133 68.05126953 C35.29287552 67.57264465 34.80913971 67.09401978 34.31074524 66.60089111 C32.72935461 65.03328584 31.15538604 63.45848 29.58203125 61.8828125 C28.47699901 60.78167226 27.37174528 59.68075424 26.26628113 58.58004761 C23.95739191 56.27859608 21.65238469 53.97333918 19.34985352 51.66552734 C16.40616411 48.71603586 13.45124623 45.7780864 10.49309254 42.84311104 C8.2101197 40.57490108 5.93414446 38.29976869 3.66010094 36.02260971 C2.57364191 34.93666225 1.48483311 33.85306017 0.39359474 32.77191544 C-1.13317285 31.25754929 -2.65001124 29.73386061 -4.16479492 28.20751953 C-5.02828049 27.34466339 -5.89176605 26.48180725 -6.78141785 25.59280396 C-10.0275051 21.79917934 -11.81719392 18.46244863 -12.4375 13.5 C-11.76475659 8.11805273 -9.34403135 5.2456876 -5.4375 1.625 C-3 0 -3 0 0 0 Z " fill="#F8CDA0" transform="translate(185,165)"/>
<path d="M0 0 C0.79019531 0.79986328 1.58039063 1.59972656 2.39453125 2.42382812 C3.21050781 3.26494141 4.02648437 4.10605469 4.8671875 4.97265625 C5.69089844 5.80990234 6.51460938 6.64714844 7.36328125 7.50976562 C8.88769091 9.06037218 10.40900795 10.61402925 11.92626953 12.17163086 C13.18953489 13.4680149 14.46225568 14.75522443 15.7421875 16.03515625 C7.4921875 24.28515625 -0.7578125 32.53515625 -9.2578125 41.03515625 C-12.86613743 39.23099379 -14.61859835 37.91892239 -17.38378906 35.13623047 C-18.18431702 34.33555145 -18.98484497 33.53487244 -19.80963135 32.70993042 C-20.66393738 31.84530182 -21.51824341 30.98067322 -22.3984375 30.08984375 C-23.28061951 29.20483185 -24.16280151 28.31981995 -25.07171631 27.4079895 C-27.40975793 25.06065494 -29.74337124 22.7090884 -32.07495117 20.35534668 C-34.45777776 17.95201698 -36.84631598 15.55437858 -39.234375 13.15625 C-43.91413112 8.45444158 -48.58813117 3.74696961 -53.2578125 -0.96484375 C-49.36831067 -4.85434558 -44.52867396 -4.19515997 -39.35546875 -4.31640625 C-38.48135849 -4.33955902 -37.60724823 -4.36271179 -36.70664978 -4.38656616 C-34.85828348 -4.43417136 -33.00985493 -4.47940957 -31.16137695 -4.52246094 C-28.33455099 -4.58950605 -25.50816099 -4.66731259 -22.68164062 -4.74609375 C-20.88543286 -4.79101672 -19.08920917 -4.83530853 -17.29296875 -4.87890625 C-16.44807388 -4.90280426 -15.60317902 -4.92670227 -14.73268127 -4.95132446 C-13.9418364 -4.96819305 -13.15099152 -4.98506165 -12.33618164 -5.00244141 C-11.643517 -5.01941071 -10.95085236 -5.03638 -10.23719788 -5.05386353 C-5.45264566 -4.83868574 -3.33492771 -3.40765315 0 0 Z " fill="#FBCFA2" transform="translate(295.2578125,386.96484375)"/>
<path d="M0 0 C4.54167544 2.72595965 8.27217502 5.977059 11.984375 9.71875 C12.52604309 10.25850464 13.06771118 10.79825928 13.62579346 11.35437012 C14.76096183 12.48818607 15.89364299 13.62449722 17.02392578 14.76318359 C18.7520349 16.50204756 20.49061685 18.22992552 22.23046875 19.95703125 C23.33657968 21.06446312 24.4420704 22.17251489 25.546875 23.28125 C26.06457458 23.79490112 26.58227417 24.30855225 27.11566162 24.83776855 C31.24601795 29.02226003 33.28302157 31.96998467 33.375 37.875 C33.26921508 42.66353052 32.278475 45.36709527 29 49 C25.3244074 52.15050794 22.03298783 52.37120784 17.37890625 52.49609375 C11.41218463 51.25180205 6.96834199 46.27627672 2.796875 42.09765625 C2.23301086 41.53807724 1.66914673 40.97849823 1.0881958 40.40196228 C-0.09412676 39.225349 -1.27388328 38.04615208 -2.45117188 36.86450195 C-4.25007057 35.06242931 -6.06193292 33.27413196 -7.875 31.48632812 C-9.02685163 30.33674849 -10.17792084 29.18638424 -11.328125 28.03515625 C-11.86769836 27.50479263 -12.40727173 26.97442902 -12.9631958 26.42799377 C-17.21625048 22.12206444 -18.80487698 19.04879175 -19.375 13.0625 C-19.25331017 8.76279273 -17.82525163 6.28340054 -15 3 C-10.76134502 -0.73998969 -5.40343719 -1.03193462 0 0 Z " fill="#FACFA2" transform="translate(110,266)"/>
<path d="M0 0 C3.62011046 2.33296007 5.89022378 4.96794755 7.8125 8.8125 C8.45175123 14.99192859 7.52047905 17.92723763 3.9921875 22.98046875 C2.5641596 25.1981677 2.05774996 27.19650039 1.8125 29.8125 C0.8225 29.8125 -0.1675 29.8125 -1.1875 29.8125 C-3.35395304 31.5614343 -3.35395304 31.5614343 -5.56640625 33.8984375 C-6.40494141 34.74664062 -7.24347656 35.59484375 -8.10742188 36.46875 C-8.97947266 37.3659375 -9.85152344 38.263125 -10.75 39.1875 C-11.62591797 40.07695312 -12.50183594 40.96640625 -13.40429688 41.8828125 C-15.02755874 43.53231647 -16.6477365 45.18486475 -18.26391602 46.84130859 C-19.56355495 48.17311273 -20.87168018 49.49668018 -22.1875 50.8125 C-22.39761719 50.24144531 -22.60773438 49.67039063 -22.82421875 49.08203125 C-25.86069268 41.98187473 -30.27570708 37.31262481 -35.81713867 32.10473633 C-37.30295074 30.70415656 -38.74895017 29.26158094 -40.1875 27.8125 C-40.1875 27.1525 -40.1875 26.4925 -40.1875 25.8125 C-38.76269531 24.41333008 -38.76269531 24.41333008 -36.765625 22.76953125 C-31.00797208 17.87552627 -25.81469051 12.45476183 -20.546875 7.04492188 C-19.78375 6.27083984 -19.020625 5.49675781 -18.234375 4.69921875 C-17.55213867 4.00014404 -16.86990234 3.30106934 -16.16699219 2.58081055 C-11.20651917 -1.85045562 -6.25552637 -2.33049022 0 0 Z " fill="#C27843" transform="translate(287.1875,170.1875)"/>
<path d="M0 0 C3.4249181 -0.49946722 5.76400384 -0.82932695 8.70803833 1.14605713 C15.08525029 6.97517683 21.20290531 13.05762568 27.3046875 19.171875 C28.47658973 20.34310234 29.64864027 21.51418131 30.8208313 22.68511963 C33.26141217 25.12423516 35.70019755 27.56512774 38.13769531 30.00732422 C41.26141426 33.13677157 44.38964461 36.26166488 47.51920891 39.38526535 C49.93333639 41.79578269 52.3450814 44.20867236 54.75610733 46.62229156 C55.90921782 47.77606843 57.06306967 48.92910487 58.21767807 50.08138275 C59.82577269 51.68694 61.43063101 53.29566374 63.03466797 54.90527344 C64.40412064 56.27591949 64.40412064 56.27591949 65.80123901 57.67425537 C69.31378416 61.3896583 70.27707314 63.46439607 70.25 68.5 C70.25773437 69.93859375 70.25773437 69.93859375 70.265625 71.40625 C70 74 70 74 68 77 C63.34066196 75.5644909 60.44204051 72.88064399 57.07983398 69.49975586 C56.51006836 68.93845978 55.94030273 68.3771637 55.35327148 67.79885864 C53.47633889 65.94527849 51.61076919 64.08074857 49.74609375 62.21484375 C48.44031991 60.9161746 47.13424948 59.61780361 45.82789612 58.31971741 C43.09171659 55.59698024 40.36154396 52.86838075 37.63500977 50.13598633 C34.15279476 46.64788817 30.65272609 43.17834331 27.14739895 39.71349239 C24.4439752 37.0360186 21.75221092 34.34705187 19.06355476 31.65475655 C17.77859326 30.37148072 16.48967611 29.0921524 15.19665337 27.81699944 C-0.07785357 12.73044114 -0.07785357 12.73044114 -0.25 2.9375 C-0.1675 1.968125 -0.085 0.99875 0 0 Z " fill="#FCE2C0" transform="translate(156,196)"/>
<path d="M0 0 C3.23512995 2.12837497 3.88517436 3.45718788 4.6875 7.25 C3.05996688 16.12745338 -6.98071666 23.13671608 -13.24487305 29.37524414 C-14.83045796 30.95539644 -16.41053442 32.54091976 -17.99023438 34.12695312 C-18.99967892 35.13573806 -20.00943299 36.14421338 -21.01953125 37.15234375 C-21.92807861 38.05976318 -22.83662598 38.96718262 -23.77270508 39.90209961 C-26.45572655 42.42925115 -27.47407329 42.91585173 -31.125 43.5 C-36.80658829 42.76689183 -39.04916075 39.9814185 -43 36 C-44.25694964 34.76604753 -45.51484739 33.53306045 -46.7734375 32.30078125 C-49.46023317 29.65287341 -52.14254088 27.00083028 -54.8046875 24.328125 C-55.65522705 23.47589355 -55.65522705 23.47589355 -56.52294922 22.60644531 C-59.02187268 19.8886079 -59.97034831 18.27180716 -60.375 14.5625 C-60 11 -60 11 -58.375 8.5625 C-55.28634342 6.53048909 -53.6526828 6.59766241 -50 7 C-47.5078125 8.6875 -47.5078125 8.6875 -45.125 11 C-44.27421875 11.81339844 -43.4234375 12.62679687 -42.546875 13.46484375 C-41.28617187 14.71974609 -41.28617187 14.71974609 -40 16 C-39.20078125 16.78503906 -38.4015625 17.57007812 -37.578125 18.37890625 C-35.70270818 20.23769703 -33.843763 22.10988541 -32 24 C-28.14605021 22.43144132 -25.84582201 19.99030889 -23.0078125 16.9921875 C-22.04616763 15.99551959 -21.08390905 14.99944353 -20.12109375 14.00390625 C-18.61790759 12.43876344 -17.11988158 10.86956346 -15.63232422 9.28955078 C-14.18769468 7.76008322 -12.72466639 6.25031168 -11.2578125 4.7421875 C-9.96061279 3.37876221 -9.96061279 3.37876221 -8.63720703 1.98779297 C-5.45742216 -0.40896767 -3.89434344 -0.54419656 0 0 Z " fill="#030400" transform="translate(430,81)"/>
<path d="M0 0 C0.9047406 -0.00960754 1.8094812 -0.01921509 2.74163818 -0.02911377 C3.72698547 -0.03336365 4.71233276 -0.03761353 5.72753906 -0.04199219 C6.73528381 -0.04769226 7.74302856 -0.05339233 8.78131104 -0.05926514 C10.91995183 -0.06873309 13.05860733 -0.07525621 15.19726562 -0.07910156 C18.46543025 -0.08878501 21.73296032 -0.11978261 25.00097656 -0.15136719 C27.07649365 -0.15789914 29.15201525 -0.16314885 31.22753906 -0.16699219 C32.20478943 -0.17933899 33.18203979 -0.19168579 34.18890381 -0.20440674 C42.94653423 -0.17575624 42.94653423 -0.17575624 46.74316406 3.16113281 C48.05566406 5.34863281 48.05566406 5.34863281 48.74316406 7.16113281 C47.88766968 8.00877197 47.88766968 8.00877197 47.01489258 8.87353516 C44.44255731 11.42513636 41.87407069 13.9805774 39.30566406 16.53613281 C38.40783203 17.42558594 37.51 18.31503906 36.58496094 19.23144531 C35.73095703 20.08222656 34.87695312 20.93300781 33.99707031 21.80957031 C33.20631104 22.59509277 32.41555176 23.38061523 31.60083008 24.18994141 C29.68945388 26.02857583 29.68945388 26.02857583 28.74316406 28.16113281 C7.63159054 29.15049999 7.63159054 29.15049999 1.30566406 24.66113281 C-2.71766235 20.79873945 -5.14564207 16.75783662 -5.38964844 11.05957031 C-5.38707031 9.89683594 -5.38449219 8.73410156 -5.38183594 7.53613281 C-5.38570312 5.78429687 -5.38570312 5.78429687 -5.38964844 3.99707031 C-5.18317187 -0.41181161 -4.00522697 0.03418961 0 0 Z " fill="#FCE3C0" transform="translate(205.2568359375,161.8388671875)"/>
<path d="M0 0 C5.01618066 0.08957465 7.90674759 0.50674691 11.64892578 3.93676758 C12.34262268 4.57127838 13.03631958 5.20578918 13.7510376 5.85952759 C17.92819851 9.83518218 22.03704304 13.87415877 26.1171875 17.94921875 C27.06496298 18.89377241 28.0128098 19.8382545 28.96072388 20.78266907 C30.93065837 22.74666482 32.89856567 24.71266594 34.86523438 26.67993164 C37.38191273 29.19671235 39.90544842 31.70649701 42.43072319 34.21464825 C44.8515383 36.62168032 47.26516104 39.03587861 49.6796875 41.44921875 C50.584841 42.34718674 51.48999451 43.24515472 52.4225769 44.17033386 C53.25749664 45.00833023 54.09241638 45.8463266 54.95263672 46.7097168 C55.68795624 47.4436113 56.42327576 48.1775058 57.18087769 48.93363953 C60.63682497 52.85928697 61.32149984 55.74979874 61.203125 61.02734375 C60.93884644 63.59389518 60.14932212 65.70135576 59 68 C54.24716515 67.54011476 52.21217951 65.70892596 48.89013672 62.37597656 C48.40654694 61.89618347 47.92295715 61.41639038 47.42471313 60.92205811 C45.83310679 59.337844 44.25633422 57.73971708 42.6796875 56.140625 C41.57373878 55.03229055 40.46704804 53.92469607 39.35964966 52.81781006 C37.04193929 50.49697373 34.73109446 48.16958139 32.42529297 45.83691406 C29.47540586 42.8530875 26.51256431 39.88255593 23.54490471 36.91641617 C21.25887193 34.62983833 18.97809831 32.33807517 16.69903946 30.04454803 C15.60862467 28.9477864 14.51700983 27.85221647 13.42416 26.75788116 C11.89470625 25.22406967 10.37202814 23.68383627 8.85107422 22.14160156 C7.98457245 21.2674762 7.11807068 20.39335083 6.22531128 19.49273682 C0.52935683 13.11227422 -0.13705116 8.22306944 0 0 Z " fill="#FCE2BF" transform="translate(125,226)"/>
<path d="M0 0 C5.4038958 -0.51465674 7.69935586 0.81600968 12 4 C14.05375122 5.87323909 16.03008183 7.74893124 17.984375 9.71875 C18.52604309 10.25850464 19.06771118 10.79825928 19.62579346 11.35437012 C20.76096183 12.48818607 21.89364299 13.62449722 23.02392578 14.76318359 C24.7520349 16.50204756 26.49061685 18.22992552 28.23046875 19.95703125 C29.33657968 21.06446312 30.4420704 22.17251489 31.546875 23.28125 C32.06457458 23.79490112 32.58227417 24.30855225 33.11566162 24.83776855 C37.33318174 29.11056625 39.28672499 31.97710182 39.25 38 C39.25773437 39.2684375 39.25773437 39.2684375 39.265625 40.5625 C38.98531155 43.13478811 38.2948187 44.7803108 37 47 C31.99173722 45.51205055 29.1153318 42.56727223 25.52734375 38.9609375 C24.92241592 38.36125153 24.3174881 37.76156555 23.69422913 37.14370728 C22.41892599 35.87481352 21.14746874 34.60204419 19.87963867 33.32568359 C17.95257397 31.39014029 16.00766871 29.47393288 14.06054688 27.55859375 C12.81918063 26.31884064 11.57891006 25.07798927 10.33984375 23.8359375 C9.76370834 23.27103607 9.18757294 22.70613464 8.59397888 22.12411499 C4.16530675 17.6190928 0.51611961 12.63348203 -0.390625 6.25 C-0.34421875 5.5075 -0.2978125 4.765 -0.25 4 C-0.21390625 3.236875 -0.1778125 2.47375 -0.140625 1.6875 C-0.09421875 1.130625 -0.0478125 0.57375 0 0 Z " fill="#FBE1BF" transform="translate(104,266)"/>
<path d="M0 0 C16.26294668 -2.22893178 16.26294668 -2.22893178 22.38720703 1.42382812 C27.60771661 5.69987176 36.38731333 13.30538787 37.30078125 20.3046875 C37.32385392 25.36529382 37.30179333 28.87275833 34 33 C29.15057142 30.00271363 25.28724893 26.56712288 21.2890625 22.51953125 C20.67606293 21.90607346 20.06306335 21.29261566 19.43148804 20.66056824 C18.14676839 19.37284447 16.86446275 18.08270822 15.58447266 16.7902832 C13.61549062 14.80290176 11.63847966 12.82378176 9.66015625 10.84570312 C8.41098285 9.59161928 7.16226814 8.33707833 5.9140625 7.08203125 C5.32041901 6.48727493 4.72677551 5.89251862 4.11514282 5.27973938 C0 1.11608717 0 1.11608717 0 0 Z " fill="#FDE3C0" transform="translate(214,205)"/>
</svg>
