<?xml version="1.0" encoding="utf-8"?>
<!-- Generator: Adobe Illustrator 27.5.0, SVG Export Plug-In . SVG Version: 6.00 Build 0)  -->
<svg version="1.1" xmlns="http://www.w3.org/2000/svg" xmlns:xlink="http://www.w3.org/1999/xlink" x="0px" y="0px"
	 viewBox="0 0 3710 3710" style="enable-background:new 0 0 3710 3710;" xml:space="preserve">
<g id="Background">
	<g>
		<g>
			<rect style="fill:#FFFFFF;" width="3710" height="3710"/>
		</g>
	</g>
</g>
<g id="Illustration">
	<g>
		<path style="fill:#F4F7FA;" d="M3110.256,2287.549c-204.414,231.952-545.605,209.078-544.85,318.419
			c0.834,120.736,416.797,141.091,424.559,254.735c10.517,153.982-730.36,450.135-1503.813,328.873
			c-266.469-41.777-518.759-82.139-736.403-278.771c-596.443-538.863-159.631-1679.559-88.439-1868.363
			c140.702-373.151,314.95-493.459,368.868-530.963c280.532-195.129,603.327-163.07,891.573-134.444
			c218.262,21.677,545.123,58.555,843.498,304.586c50.885,41.957,163.115,141.662,264.262,299.837
			C3275.253,1365.75,3383.858,1977.087,3110.256,2287.549z"/>
		<g>
			<g>
				<g>
					<g>
						
							<linearGradient id="SVGID_1_" gradientUnits="userSpaceOnUse" x1="3146.8494" y1="1933.5073" x2="1843.5427" y2="-320.1244" gradientTransform="matrix(0.9037 0.4282 -0.4282 0.9037 136.3408 -387.783)">
							<stop  offset="0" style="stop-color:#AA80F9"/>
							<stop  offset="0.9964" style="stop-color:#6165D7"/>
						</linearGradient>
						<path style="fill:url(#SVGID_1_);" d="M1836.199,2158.826c-20.123,31.868-40.246,55.805-61.353,86.023
							c156.326,27.814,301.928,83.286,460.367,111.773c-57.85-199.308-134.107-299.027-19.001-510.347
							c54.017-99.169,189.536-278.794,171.704-392.371c-20.316-129.396-111.75-119.691-63.988-219.785
							c74.65-156.444,36.99-349.82-203.757-335.045c-237.606,14.582-373.797,617.32-287.146,811.509
							C1873.646,1890.598,1941.273,1992.421,1836.199,2158.826z"/>
						<g>
							<defs>
								<path id="SVGID_00000023987193618190444370000009333320773144604340_" d="M2224.789,1829.429
									c20.422-37.172,192.309-281.757,165.305-379.463c-30.765-111.315-110.98-120.507-65.156-217.49
									c71.621-151.58,36.784-349.231-204.579-333.765c-238.214,15.265-373.934,618.597-287.096,810.63
									c36.891,195.886,113.95,260.003-0.548,460.602C1752.515,2310.453,2148.007,1969.189,2224.789,1829.429z"/>
							</defs>
							<clipPath id="SVGID_00000101087394236363634050000006594733817475361942_">
								<use xlink:href="#SVGID_00000023987193618190444370000009333320773144604340_"  style="overflow:visible;"/>
							</clipPath>
							<g style="clip-path:url(#SVGID_00000101087394236363634050000006594733817475361942_);">
								<path style="fill:#FCFDFE;" d="M2020.452,2284.567l-3.013-0.097c1.89-58.569-0.802-117.992-3.407-175.46l-0.974-21.712
									c-2.035-46.161-3.03-87.491-3.911-123.954c-0.494-20.537-0.961-39.934-1.569-58.734
									c-1.855-57.454-3.262-97.652-3.96-117.631c-0.235-6.722-0.39-11.156-0.456-13.188
									c-5.034-157.487,46.066-373.354,73.517-489.327c2.975-12.554,5.632-23.776,7.857-33.43
									c38.258-165.931,58.201-343.157,59.268-526.754l3.013,0.017c-1.068,183.82-21.034,361.267-59.344,527.414
									c-2.229,9.659-4.885,20.886-7.857,33.447c-27.423,115.836-78.461,331.45-73.441,488.536
									c0.066,2.032,0.221,6.461,0.456,13.179c0.698,19.981,2.104,60.182,3.96,117.64c0.608,18.813,1.074,38.216,1.572,58.759
									c0.878,36.449,1.873,77.761,3.908,123.895l0.974,21.707C2019.651,2166.399,2022.346,2225.883,2020.452,2284.567z"/>
								<path style="fill:#FCFDFE;" d="M2008.819,1993.447l-3.013-0.048c1.624-104.214,45.517-225.977,126.939-352.127
									c67.823-105.081,159.925-209.505,252.686-286.494l1.928,2.318c-92.541,76.803-184.418,180.977-252.082,285.81
									C2054.163,1768.583,2010.433,1889.797,2008.819,1993.447z"/>
								<path style="fill:#FCFDFE;" d="M2074.794,1304.453l-2.667-1.403c41.972-79.76,94.271-154.683,144.85-227.141
									c34.62-49.592,70.418-100.874,102.615-153.289l2.571,1.579c-32.246,52.489-68.068,103.807-102.712,153.436
									C2168.923,1150.017,2116.676,1224.862,2074.794,1304.453z"/>
								<path style="fill:#FCFDFE;" d="M2015.663,1589.866c-19.987-123.762-102.875-280.411-177.38-335.226l1.79-2.429
									c75.03,55.205,158.474,212.763,178.568,337.175L2015.663,1589.866z"/>
							</g>
						</g>
					</g>
					<g>
						
							<linearGradient id="SVGID_00000031169673247888455030000017990990023864599738_" gradientUnits="userSpaceOnUse" x1="1300.3346" y1="1775.8818" x2="2021.2827" y2="2962.7483" gradientTransform="matrix(-0.4046 0.9145 0.9145 0.4046 432.9851 -449.4488)">
							<stop  offset="0.0036" style="stop-color:#E38DDD"/>
							<stop  offset="1" style="stop-color:#9571F6"/>
						</linearGradient>
						<path style="fill:url(#SVGID_00000031169673247888455030000017990990023864599738_);" d="M1861.271,1706.736
							c-24.654,191.787,92.04,188.398,241.207,190.584c-80.547,161.077-153.045,320.882-226.057,483.315
							c-99.812-2.945-171.25-6.912-186.972-127.118c-17.78-135.952-23.534-214.998-153.843-291.28
							c-130.31-76.282-201.464-215.309-108.733-334.431c97.584-125.356,37.622-352.084,191.853-415.104
							C1887.466,1102.893,1886.943,1507.027,1861.271,1706.736z"/>
						<g>
							<defs>
								<path id="SVGID_00000034770545958702502690000009536708163722868638_" d="M1953.911,2371.195
									c-114.186,16.296-243.12,35.367-264.487-119.449c-17.788-128.882-23.393-215.696-153.85-289.931
									c-130.457-74.235-201.058-216.004-108.793-333.999c97.094-124.171,38.775-353.776,191.923-415.009
									c266.851-106.696,271.575,288.327,241.254,496.532c-30.32,208.206,123.191,163.406,251.023,199.105
									C2285.5,1957.18,2046.169,2358.028,1953.911,2371.195z"/>
							</defs>
							<clipPath id="SVGID_00000062184141974587017350000013118670983100706462_">
								<use xlink:href="#SVGID_00000034770545958702502690000009536708163722868638_"  style="overflow:visible;"/>
							</clipPath>
							<g style="clip-path:url(#SVGID_00000062184141974587017350000013118670983100706462_);">
								<path style="fill:#FCFDFE;" d="M1937.5,2161.251c-115.878-114.656-209.246-213.418-268.752-352.527
									c-56.946-133.12-64.366-258.171-24.813-418.141c20.506-82.923,25.82-144.653,31.588-229.365l3.009,0.204
									c-5.78,84.87-11.106,146.723-31.671,229.883c-39.384,159.284-32.01,283.765,24.657,416.234
									c59.292,138.607,152.462,237.149,268.103,351.57L1937.5,2161.251z"/>
								<path style="fill:#FCFDFE;" d="M1685.872,2324.099l-1.596-2.557c45.517-28.39,91.012-48.578,139.087-61.721
									c24.588-6.72,48.186-8.916,76.055-10.144l0.131,3.013c-27.665,1.218-51.073,3.393-75.391,10.041
									C1776.369,2275.793,1731.135,2295.867,1685.872,2324.099z"/>
								<path style="fill:#FCFDFE;" d="M1709.906,1891.265c-87.379-86.786-213.349-143.491-354.706-159.666l0.342-2.996
									c142.027,16.253,268.63,73.26,356.489,160.522L1709.906,1891.265z"/>
								<path style="fill:#FCFDFE;" d="M1621.865,1567.653l-2.947-0.629c3.039-14.223,59.975-122.121,112.245-218.355
									c52.484-96.628,110.255-199.958,116.083-205.621l2.101,2.163c-4.955,4.811-56.782,96.728-115.534,204.898
									C1681.643,1446.157,1624.839,1553.745,1621.865,1567.653z"/>
							</g>
						</g>
					</g>
				</g>
			</g>
		</g>
		<g>
			
				<linearGradient id="SVGID_00000124158685655863547720000010340859150863675552_" gradientUnits="userSpaceOnUse" x1="1043.902" y1="2221.115" x2="1051.943" y2="2364.2449">
				<stop  offset="0.0036" style="stop-color:#26264F"/>
				<stop  offset="1" style="stop-color:#444B8C"/>
			</linearGradient>
			<path style="fill:url(#SVGID_00000124158685655863547720000010340859150863675552_);" d="M1009.313,2249.561
				c0,0-9.007,20.616-8.66,24.127c0.004,0.034,0.007,0.07,0.01,0.107c0.666,7.043,6.218,12.381,12.794,12.012
				c19.111-1.073,55.639-3.808,74.681-9.721c26.535-8.241-64.578-29.589-64.578-29.589L1009.313,2249.561z"/>
			
				<linearGradient id="SVGID_00000167383892126417546470000002163501275429389502_" gradientUnits="userSpaceOnUse" x1="1034.9171" y1="2322.4971" x2="1009.1858" y2="2113.4307">
				<stop  offset="0" style="stop-color:#FFC444"/>
				<stop  offset="0.9964" style="stop-color:#F36F56"/>
			</linearGradient>
			<path style="fill:url(#SVGID_00000167383892126417546470000002163501275429389502_);" d="M1009.896,2219.036l1.468,34.929
				c0,0,5.307,8.428,18.352-2.285l7.034-37.127L1009.896,2219.036z"/>
			
				<linearGradient id="SVGID_00000180356192109213021250000000601868188976618634_" gradientUnits="userSpaceOnUse" x1="971.3013" y1="1890.0073" x2="1252.8082" y2="1890.0073">
				<stop  offset="0" style="stop-color:#311944"/>
				<stop  offset="1" style="stop-color:#893976"/>
			</linearGradient>
			<path style="fill:url(#SVGID_00000180356192109213021250000000601868188976618634_);" d="M1076.131,1569.232
				c-21.221,11.732-33.957,27.688-38.999,34.582c-40.502,55.387-15.65,115.54-17.69,210.94
				c-2.829,132.368-53.51,149.444-47.673,274.892c2.742,58.923,16.309,106.438,27.168,137.054
				c16.361-2.173,32.721-4.342,49.081-6.514c7.549-81.272,27.601-207.02,89.477-344.332
				c64.675-143.522,137.906-217.272,108.703-272.906C1222.048,1556.938,1134.887,1536.757,1076.131,1569.232z"/>
			
				<linearGradient id="SVGID_00000168116945085065992680000018373651401260851871_" gradientUnits="userSpaceOnUse" x1="971.3013" y1="1890.0081" x2="1252.8096" y2="1890.0081">
				<stop  offset="0" style="stop-color:#311944"/>
				<stop  offset="1" style="stop-color:#893976"/>
			</linearGradient>
			<path style="opacity:0.3;fill:url(#SVGID_00000168116945085065992680000018373651401260851871_);" d="M1246.199,1602.948
				c-24.151-46.008-111.312-66.192-170.068-33.716c-2.17,1.201-4.194,2.468-6.188,3.741c42.715,72.572,43.476,122.34,33.93,156.004
				c-9.768,34.45-30.181,51.558-34.979,101.317c-5.338,55.365,16.984,64.751,8.443,109.76
				c-10.747,56.637-48.693,55.478-59.102,110.966c-9.89,52.727,19.804,78.121,1.206,112.172
				c-7.155,13.103-18.636,22.267-31.396,28.788c3.611,13.201,7.39,24.853,10.891,34.724c16.361-2.177,32.721-4.344,49.081-6.516
				c7.549-81.274,27.601-207.02,89.477-344.333C1202.17,1732.331,1275.401,1658.581,1246.199,1602.948z"/>
			
				<linearGradient id="SVGID_00000044873274015815880350000011852091672666432447_" gradientUnits="userSpaceOnUse" x1="1318.5175" y1="2204.7681" x2="1326.5586" y2="2347.8984">
				<stop  offset="0.0036" style="stop-color:#26264F"/>
				<stop  offset="1" style="stop-color:#444B8C"/>
			</linearGradient>
			<path style="fill:url(#SVGID_00000044873274015815880350000011852091672666432447_);" d="M1285.614,2263.222
				c0,0-9.007,20.616-8.66,24.127c0.004,0.035,0.007,0.071,0.011,0.107c0.666,7.043,6.217,12.381,12.794,12.012
				c19.111-1.073,55.639-3.808,74.682-9.721c26.535-8.24-64.579-29.589-64.579-29.589L1285.614,2263.222z"/>
			
				<linearGradient id="SVGID_00000084522644113097100260000010240374850798301072_" gradientUnits="userSpaceOnUse" x1="1299.0758" y1="2289.9856" x2="1273.3446" y2="2080.9192">
				<stop  offset="0" style="stop-color:#FFC444"/>
				<stop  offset="0.9964" style="stop-color:#F36F56"/>
			</linearGradient>
			<path style="fill:url(#SVGID_00000084522644113097100260000010240374850798301072_);" d="M1278.343,2232.865l8.866,35.706
				c0,0,5.307,8.428,18.352-2.285l-0.364-37.904L1278.343,2232.865z"/>
			
				<linearGradient id="SVGID_00000011738021560220738140000011655448482032341400_" gradientUnits="userSpaceOnUse" x1="1139.9084" y1="1884.316" x2="1339.9291" y2="1884.316">
				<stop  offset="0" style="stop-color:#311944"/>
				<stop  offset="1" style="stop-color:#893976"/>
			</linearGradient>
			<path style="fill:url(#SVGID_00000011738021560220738140000011655448482032341400_);" d="M1154.531,1589.981
				c-39.337,40.58,10.355,183.93,35.917,257.67c2.363,6.813,8.693,24.547,12.509,49.323c5.332,34.618,2.186,59.809,0.864,79.271
				c0,0-3.4,50.037,8.696,121.011c5.864,34.405,19.859,86.515,57.805,146.303c14.876-2.594,29.752-5.187,44.627-7.781
				c0.543-64.469,2.26-169.494,8.443-299.557c10.112-212.678,28.097-406.739,6.031-411.08c-7.263-1.428-9.004,19.634-31.36,38.903
				C1246.799,1608.232,1184.564,1559,1154.531,1589.981z"/>
			
				<linearGradient id="SVGID_00000176732906833003344970000001109839862546738320_" gradientUnits="userSpaceOnUse" x1="812.4337" y1="1262.2262" x2="1191.6501" y2="1262.2262">
				<stop  offset="0" style="stop-color:#FB6FBB"/>
				<stop  offset="1" style="stop-color:#FF9085"/>
			</linearGradient>
			<path style="fill:url(#SVGID_00000176732906833003344970000001109839862546738320_);" d="M1191.65,1085.757
				c-50.586,3.016-219.67,18.457-318.577,130.201c-23.395,26.431-80.804,91.289-53.374,148.157
				c26.438,54.813,124.745,87.799,241.322,69.502c7.848-9.929,15.695-19.858,23.543-29.787
				c-64.421-6.579-109.026-36.772-111.832-68.261c-2.452-27.523,27.599-49.693,42.672-60.814
				c51.372-37.897,116.127-37.132,138.318-35.992C1166.365,1187.761,1179.008,1136.76,1191.65,1085.757z"/>
			
				<linearGradient id="SVGID_00000160166236944606601430000012704649006084751799_" gradientUnits="userSpaceOnUse" x1="1545.5311" y1="801.7941" x2="1642.5536" y2="801.7941">
				<stop  offset="0.0036" style="stop-color:#26264F"/>
				<stop  offset="1" style="stop-color:#444B8C"/>
			</linearGradient>
			<path style="fill:url(#SVGID_00000160166236944606601430000012704649006084751799_);" d="M1629.781,778.823
				c18.117,28.186,16.802,61.32-2.935,74.007c-19.738,12.687-50.425,0.122-68.542-28.064c-18.117-28.186-16.802-61.32,2.935-74.007
				C1580.977,738.072,1611.664,750.637,1629.781,778.823z"/>
			
				<linearGradient id="SVGID_00000134250161062790856010000015009161453641704119_" gradientUnits="userSpaceOnUse" x1="1358.4775" y1="877.8552" x2="1623.7593" y2="877.8552">
				<stop  offset="0.0036" style="stop-color:#26264F"/>
				<stop  offset="1" style="stop-color:#444B8C"/>
			</linearGradient>
			<path style="fill:url(#SVGID_00000134250161062790856010000015009161453641704119_);" d="M1358.478,975.177l196.667-201.493
				c2.561-2.624,6.198-3.887,9.827-3.364c15.694,2.26,57.021,13.129,58.781,64.975c0.146,4.309-2.113,8.379-5.866,10.501
				l-247.146,139.712L1358.478,975.177z"/>
			
				<linearGradient id="SVGID_00000160909640504037567220000016222957277779801768_" gradientUnits="userSpaceOnUse" x1="1355.3539" y1="979.8258" x2="1374.3049" y2="979.8258">
				<stop  offset="0.0036" style="stop-color:#26264F"/>
				<stop  offset="1" style="stop-color:#444B8C"/>
			</linearGradient>
			<path style="fill:url(#SVGID_00000160909640504037567220000016222957277779801768_);" d="M1371.81,975.339
				c3.539,5.505,3.282,11.977-0.573,14.455c-3.855,2.478-9.849,0.024-13.388-5.481s-3.282-11.977,0.573-14.455
				C1362.277,967.379,1368.271,969.833,1371.81,975.339z"/>
			
				<linearGradient id="SVGID_00000142889287738130584260000002944613158745661320_" gradientUnits="userSpaceOnUse" x1="1506.1451" y1="897.8568" x2="1556.1615" y2="897.8568">
				<stop  offset="0" style="stop-color:#FFC444"/>
				<stop  offset="0.9964" style="stop-color:#F36F56"/>
			</linearGradient>
			<path style="fill:url(#SVGID_00000142889287738130584260000002944613158745661320_);" d="M1541.287,935.477l-35.141-26.514
				c0,0,17.495-5.187,11.266-31.107c-6.23-25.92,10.74-20.929,11.299,0c0.558,20.93,6.014,35.296,6.014,35.296l21.438,15.445
				L1541.287,935.477z"/>
			<g>
				
					<linearGradient id="SVGID_00000111185033363218069260000011511179274075857560_" gradientUnits="userSpaceOnUse" x1="-1688.0045" y1="838.9526" x2="-1486.2677" y2="1092.7632" gradientTransform="matrix(-0.9998 0.0235 0.0235 0.9998 -333.5531 171.7463)">
					<stop  offset="0" style="stop-color:#FFC444"/>
					<stop  offset="0.9964" style="stop-color:#F36F56"/>
				</linearGradient>
				<path style="fill:url(#SVGID_00000111185033363218069260000011511179274075857560_);" d="M1338.312,1036.199
					c7.78-13.89,3.803-29.452,2.909-32.816c-3.74-14.073-5.058-16.193-7.756-19.129l-3.808-3.84c0,0-0.234-0.165-0.483-0.33
					c-2.626-1.715-12.341-4.377-14.425-4.434c-6.662-0.175-19.639,24-26.528,60.944c-0.599,1.329-1.191,2.671-1.777,4.024
					c-1.089,2.511-1.846,4.368-1.905,4.509c-1.204,2.916-8.224,13.734-15.868,20.25c-17.629,15.03-58.234,23.958-57.895,30.559
					c0.313,6.13,35.93,10.342,71.161,9.579c24.891-0.542,67.199-3.948,67.948-12.797c0.747-8.834-41.645-12.866-36.66-42.385
					C1313.718,1047.408,1332.58,1046.432,1338.312,1036.199z"/>
				<path style="fill:#26264F;" d="M1345.288,973.222c-2.767,11.294-11.009,22.078-14.191,23.362
					c-0.41,0.167-2.759,1.248-5.174,3.483c-0.329,0.304-0.644,0.677-0.966,1.18c-4.196,6.524,5.103,17.642,2.148,20.303
					c-2.145,1.93-9.095-3.023-10.492-1.246c-1.317,1.672,4.139,7.11,2.616,9.125c-1.15,1.521-4.711-0.984-7.822,1.02
					c-1.551,0.998-1.436,2.114-3.705,5.763c-1.284,2.063-2.913,4.267-4.046,5.438c-5.51,5.692-17.158,5.444-18.645,2.274
					c-0.414-0.883,0.245-1.382,0.24-4.012c0,0-0.005-2.438-0.964-5.486c-1.37-4.355-6.236-8.409-10.841-13.769
					c-8.527-9.927-9.801-16.941-10.126-19.285c-0.115-0.835-0.163-1.455-0.197-1.903c-0.672-8.979,2.272-21.218,7.835-27.839
					c9.32-11.091,22.028-1.687,36.629-11.378c16.847-11.182,13.645-32.802,21.424-33.226
					C1337.585,926.558,1350.406,952.341,1345.288,973.222z"/>
				
					<linearGradient id="SVGID_00000165207480675052700910000015007851328637602472_" gradientUnits="userSpaceOnUse" x1="-1677.1188" y1="836.1982" x2="-1502.5494" y2="1055.8286" gradientTransform="matrix(-0.9998 0.0235 0.0235 0.9998 -333.5531 171.7463)">
					<stop  offset="0" style="stop-color:#FFC444"/>
					<stop  offset="0.9964" style="stop-color:#F36F56"/>
				</linearGradient>
				<path style="fill:url(#SVGID_00000165207480675052700910000015007851328637602472_);" d="M1323.682,1017.912
					c-1.851-4.476-7.582-2.075-8.8,2.842c-1.218,4.918,2.317,11.191,7.181,11.337
					C1326.927,1032.237,1326.172,1023.936,1323.682,1017.912z"/>
			</g>
			
				<linearGradient id="SVGID_00000058566050767142041650000012819823994001180607_" gradientUnits="userSpaceOnUse" x1="1624.9763" y1="924.4658" x2="1190.7615" y2="1426.2253">
				<stop  offset="0" style="stop-color:#FB6FBB"/>
				<stop  offset="1" style="stop-color:#FF9085"/>
			</linearGradient>
			<path style="fill:url(#SVGID_00000058566050767142041650000012819823994001180607_);" d="M1132.016,1099.766
				c21.815-15.84,56.523-18.813,126.016-23.709c52.157-3.675,100.645-1.682,129.688-0.414c63.065,2.751,86.256,7.675,126.268-2.37
				c28.221-7.081,60.498-15.186,69.932-39.441c10.366-26.648-9.621-65.654-50.271-95.856c8.18-6.643,16.36-13.291,24.54-19.935
				c14.91,3.279,62.437,15.708,95.808,60.044c28.996,38.521,43.443,94.692,24.807,142.589
				c-16.71,42.951-54.089,64.138-110.365,96.045c-63.049,35.746-76.489,24.905-102.927,51.93
				c-20.01,20.458-29.963,63.3-49.052,148.155c-10.754,47.808-18.234,87.96-36.043,149.276
				c-17.014,58.573-23.111,66.423-29.687,72.435c-31.496,28.802-65.21,7.562-158.408,20.905
				c-59.486,8.519-59.01,19.011-111.77,22.516c-48.735,3.237-99.951,6.634-130.264-27.341c-25.651-28.75-21.606-69.75-20.907-75.583
				c5.258-43.864,37.227-62.941,68.348-102.122c27.941-35.177,40.741-76.525,66.339-159.212
				C1107.933,1175.988,1087.672,1131.964,1132.016,1099.766z"/>
			
				<linearGradient id="SVGID_00000100367415007598291150000016025444890614446211_" gradientUnits="userSpaceOnUse" x1="1681.9626" y1="973.7802" x2="1247.7476" y2="1475.54">
				<stop  offset="0" style="stop-color:#FF9085"/>
				<stop  offset="1" style="stop-color:#FB6FBB"/>
			</linearGradient>
			<path style="opacity:0.3;fill:url(#SVGID_00000100367415007598291150000016025444890614446211_);" d="M1684.776,1048.947
				c-5.103,19.147-13.528,38.248-26.877,55.643c-43.328,56.458-121.581,73.25-162.429,82.018
				c-74.144,15.911-119.241,3.468-133.481,30.559c-13.407,25.509,21.661,45.891,17.69,91.668
				c-4.785,55.177-58.447,56.971-91.668,127.047c-34.11,71.945-4.218,126.321-38.597,146.345
				c-23.251,13.541-39.678-9.725-91.668-14.474c-94.713-8.651-143.166,59.163-188.16,35.383
				c-11.349-5.997-24.757-19.053-32.694-50.799c-3.66,7.967-6.31,16.655-7.511,26.676c-0.699,5.833-4.745,46.833,20.907,75.583
				c30.314,33.975,81.53,30.578,130.264,27.341c52.76-3.505,52.284-13.998,111.77-22.516
				c93.198-13.343,126.911,7.896,158.408-20.905c6.577-6.012,12.674-13.862,29.687-72.435
				c17.809-61.316,25.289-101.468,36.043-149.276c19.089-84.855,29.042-127.697,49.052-148.155
				c26.438-27.025,39.878-16.184,102.927-51.93c56.276-31.907,93.655-53.095,110.365-96.045
				C1687.74,1097.711,1689.008,1072.857,1684.776,1048.947z"/>
		</g>
		<g>
			
				<linearGradient id="SVGID_00000081649694746332674370000008594857697810831277_" gradientUnits="userSpaceOnUse" x1="3135.4968" y1="762.516" x2="2414.2371" y2="727.0436">
				<stop  offset="0" style="stop-color:#FFC444"/>
				<stop  offset="0.9964" style="stop-color:#F36F56"/>
			</linearGradient>
			<path style="fill:url(#SVGID_00000081649694746332674370000008594857697810831277_);" d="M2411.943,486.103
				c121.173-60.086,236.725-43.883,294.419-18.352c68.204,30.181,90.829,52.829,151.207,64.228
				c53.666,10.131,109.379-55.695,151.208-9.175c2.816,3.133,6.283,7.031,10.177,13.763c29.966,51.795-5.433,114.351,4.362,223.649
				c5.011,55.922,17.136,71.442,28.351,178.919c4.265,40.87,3.374,46.89,2.181,51.611c-18.328,72.523-163.731,58.819-266.067,27.526
				c-141.087-43.141-186.51-115.492-279.153-82.578c-42.735,15.183-75.211,45.551-95.959,68.815
				C2422.121,832.471,2402.493,658.141,2411.943,486.103z"/>
			<path style="fill:#26264F;" d="M2413.473,1852.446c-2.93,0-5.307-2.375-5.307-5.307V436.431c0-2.932,2.377-5.307,5.307-5.307
				c2.93,0,5.307,2.375,5.307,5.307v1410.707C2418.78,1850.07,2416.403,1852.446,2413.473,1852.446z"/>
		</g>
		<g>
			
				<linearGradient id="SVGID_00000066485964399595650900000013450942522500147596_" gradientUnits="userSpaceOnUse" x1="4037.5127" y1="1654.2549" x2="2355.499" y2="2369.7383" gradientTransform="matrix(1 0.0219 0 1 0 -14.4292)">
				<stop  offset="0" style="stop-color:#311944"/>
				<stop  offset="1" style="stop-color:#893976"/>
			</linearGradient>
			<polygon style="fill:url(#SVGID_00000066485964399595650900000013450942522500147596_);" points="2597.669,3045.371 
				2038.41,3022.574 2038.41,1798.646 2597.669,1775.464 			"/>
			
				<linearGradient id="SVGID_00000144330893630410778720000013481564079061586351_" gradientUnits="userSpaceOnUse" x1="2622.7292" y1="2085.644" x2="3235.8557" y2="3095.0085" gradientTransform="matrix(1 0.0219 0 1 0 -14.4292)">
				<stop  offset="0" style="stop-color:#FF9085"/>
				<stop  offset="1" style="stop-color:#FB6FBB"/>
			</linearGradient>
			<polygon style="fill:url(#SVGID_00000144330893630410778720000013481564079061586351_);" points="3003.5,3018.077 
				2597.669,3045.371 2597.669,1775.464 3003.5,1805.315 			"/>
		</g>
		<g>
			
				<linearGradient id="SVGID_00000170262634843653530230000013629391840630938015_" gradientUnits="userSpaceOnUse" x1="3924.0112" y1="1592.3184" x2="2311.8843" y2="2278.074" gradientTransform="matrix(1 0.0219 0 1 0 -14.4292)">
				<stop  offset="0" style="stop-color:#311944"/>
				<stop  offset="1" style="stop-color:#893976"/>
			</linearGradient>
			<polygon style="fill:url(#SVGID_00000170262634843653530230000013629391840630938015_);" points="1970.837,3087.528 
				1430.897,3062.951 1430.897,2034.08 1970.837,2016.378 			"/>
			
				<linearGradient id="SVGID_00000134223355159537800500000013978887412956896685_" gradientUnits="userSpaceOnUse" x1="2047.5913" y1="2268.0513" x2="2592.6592" y2="3165.3733" gradientTransform="matrix(1 0.0219 0 1 0 -14.4292)">
				<stop  offset="0" style="stop-color:#FF9085"/>
				<stop  offset="1" style="stop-color:#FB6FBB"/>
			</linearGradient>
			<polygon style="fill:url(#SVGID_00000134223355159537800500000013978887412956896685_);" points="2443.129,3055.765 
				1970.837,3087.528 1970.837,2016.378 2443.129,2041.181 			"/>
		</g>
		<g>
			
				<linearGradient id="SVGID_00000096761162780660216420000001534877687318807944_" gradientUnits="userSpaceOnUse" x1="3789.6099" y1="1496.5176" x2="2226.0073" y2="2161.6321" gradientTransform="matrix(1 0.0219 0 1 0 -14.4292)">
				<stop  offset="0" style="stop-color:#311944"/>
				<stop  offset="1" style="stop-color:#893976"/>
			</linearGradient>
			<polygon style="fill:url(#SVGID_00000096761162780660216420000001534877687318807944_);" points="1233.398,3137.125 
				716.185,3110.452 716.185,2264.445 1233.398,2253.812 			"/>
			
				<linearGradient id="SVGID_00000139979439366269210370000016412212679040158634_" gradientUnits="userSpaceOnUse" x1="1368.9196" y1="2450.1069" x2="1854.2679" y2="3249.1152" gradientTransform="matrix(1 0.0219 0 1 0 -14.4292)">
				<stop  offset="0" style="stop-color:#FF9085"/>
				<stop  offset="1" style="stop-color:#FB6FBB"/>
			</linearGradient>
			<polygon style="fill:url(#SVGID_00000139979439366269210370000016412212679040158634_);" points="1789.929,3099.695 
				1233.398,3137.125 1233.398,2253.812 1789.929,2270.428 			"/>
		</g>
	</g>
</g>
</svg>
