<?xml version="1.0" encoding="utf-8"?>
<!-- Generator: Adobe Illustrator 27.5.0, SVG Export Plug-In . SVG Version: 6.00 Build 0)  -->
<svg version="1.1" id="Capa_1" xmlns="http://www.w3.org/2000/svg" xmlns:xlink="http://www.w3.org/1999/xlink" x="0px" y="0px"
	 viewBox="0 0 425.196 481.89" style="enable-background:new 0 0 425.196 481.89;" xml:space="preserve">
<rect style="fill:#3FC3D8;" width="425.196" height="481.89"/>
<g>
	<g>
		<path style="fill:#F8B78F;" d="M161.411,289.578c-0.396-2.601-1.658-1.301-3.155-0.89c-1.148,0.317-0.949,0.382-2.131,0.667
			c0,0,1.013-0.296,1.375-1.212c0.358-0.915-0.658-1.165-0.658-1.165l-2.288,1.833c-0.468,0.386-0.965,0.741-1.413,1.152
			c-0.508,0.468-0.968,1.322-1.087,2c-0.215,1.224,0.66,2.248,1.867,2.367c1.067,0.105,5.011-0.617,6.595-1.807
			C160.516,292.522,162.568,290.443,161.411,289.578z"/>
		<path style="fill:#F8B78F;" d="M128.112,302.31l24.569-11.2l1.276,2.837l-21.336,15.558c0,0-5.741,4.542-8.404,0.242
			C124.218,309.747,121.941,305.388,128.112,302.31z"/>
	</g>
	<g>
		<g>
			<circle style="fill:#F04E4F;" cx="201.932" cy="192.161" r="123.961"/>
			<path style="fill:#DF3B47;" d="M307.93,192.161c0,58.538-47.458,105.994-105.998,105.994
				c-58.537,0-105.993-47.456-105.993-105.994c0-58.54,47.456-105.996,105.993-105.996
				C260.472,86.165,307.93,133.622,307.93,192.161z"/>
			<path style="fill:#FFFFFF;" d="M292.383,192.161c0,49.955-40.496,90.447-90.451,90.447c-49.95,0-90.446-40.492-90.446-90.447
				s40.496-90.451,90.446-90.451C251.887,101.71,292.383,142.206,292.383,192.161z"/>
			
				<ellipse transform="matrix(0.0167 -0.9999 0.9999 0.0167 6.4334 390.8637)" style="fill:#C3DAE6;" cx="201.932" cy="192.161" rx="67.077" ry="67.076"/>
			<path style="fill:#F04E4F;" d="M254.788,192.161c0,29.19-23.664,52.854-52.856,52.854c-29.191,0-52.852-23.664-52.852-52.854
				c0-29.192,23.661-52.856,52.852-52.856C231.124,139.305,254.788,162.969,254.788,192.161z"/>
			<path style="fill:#DF3B47;" d="M238.651,192.161c0,20.276-16.441,36.716-36.72,36.716c-20.277,0-36.713-16.44-36.713-36.716
				c0-20.278,16.436-36.718,36.713-36.718C222.21,155.443,238.651,171.883,238.651,192.161z"/>
			<circle style="fill:#FFFFFF;" cx="201.932" cy="192.161" r="24.005"/>
		</g>
		<g>
			
				<line style="fill:none;stroke:#214BA0;stroke-width:4.7745;stroke-miterlimit:10;" x1="220.452" y1="178.783" x2="312.268" y2="86.963"/>
			<polygon style="fill:#214BA0;" points="303.873,95.36 337.765,61.468 371.975,63.707 334.189,101.49 			"/>
			<polygon style="fill:#16347A;" points="303.873,95.36 337.765,61.468 335.526,27.259 297.741,65.042 			"/>
			<polygon style="fill:#214BA0;" points="201.932,197.301 239.46,184.213 215.018,159.773 			"/>
			<polygon style="fill:#16347A;" points="201.932,197.301 239.46,184.213 227.238,171.992 			"/>
		</g>
	</g>
	<path style="fill:#009ECA;" d="M153.958,435.161c0,4.87-22.552,8.819-50.368,8.819c-27.817,0-50.368-3.949-50.368-8.819
		c0-4.87,22.551-8.816,50.368-8.816C131.406,426.345,153.958,430.291,153.958,435.161z"/>
	<path style="fill:#009ECA;" d="M355.914,435.161c0,4.87-22.552,8.819-50.368,8.819c-27.817,0-50.369-3.949-50.369-8.819
		c0-4.87,22.551-8.816,50.369-8.816C333.361,426.345,355.914,430.291,355.914,435.161z"/>
	<g>
		<path style="fill:#DE8F1F;" d="M305.522,238.251c0.27,5.513-1.86,10.096-4.756,10.237c-2.897,0.141-5.462-4.212-5.731-9.725
			c-0.27-5.513,1.859-10.096,4.756-10.237C302.686,228.386,305.253,232.739,305.522,238.251z"/>
		<g>
			<path style="fill:#A63132;" d="M277.732,304.816c1.442,2.471-2.287,8.681,6.062,8.422c1.607-0.05,2.856-0.585,8.547-14.755
				c6.547-10.941,10.158-20.073,10.81-22.351c0,0,1.537-7.076-5.881-7.728c0,0-8.319-1.603-11.391,7.865
				C285.879,276.27,281.498,288.443,277.732,304.816z"/>
		</g>
		<g>
			<polygon style="fill:#F8B78F;" points="294.929,379.235 297.661,431.855 302.34,431.855 306.012,379.235 			"/>
			<polygon style="fill:#F8B78F;" points="324.902,325.684 322.375,341.305 322.595,370.568 326.84,429.021 322.161,429.021 
				310.929,374.901 303.492,344.101 299.189,325.688 			"/>
			<polygon style="fill:#2C4590;" points="293.46,379.235 307.122,379.235 307.162,377.918 312.476,325.569 292.907,325.569 
				293.454,376.672 			"/>
			<path style="fill:#1F3E4C;" d="M303.072,433.534l-10.521,2.315c0,0-7.349,1.083-8.641-0.794c0,0-0.181-0.406,0.308-0.633
				l13.443-5.401h4.679C302.34,429.021,303.426,430.847,303.072,433.534z"/>
			<path style="fill:#1F3E4C;" d="M327.572,433.535l-10.521,2.314c0,0-7.35,1.083-8.641-0.794c0,0-0.181-0.406,0.308-0.633
				l13.442-5.401h4.679C326.84,429.021,327.927,430.847,327.572,433.535z"/>
			<polygon style="fill:#2D55A6;" points="310.063,375.486 310.476,379.235 324.01,379.235 323.305,370.789 322.375,341.305 
				324.902,325.684 299.189,325.688 303.492,344.101 			"/>
		</g>
		<g>
			<rect x="303.282" y="253.614" style="fill:#F8B78F;" width="9.407" height="13.066"/>
		</g>
		<g>
			<path style="fill:#F6A47A;" d="M312.69,259.685v-6.071h-9.407v6.533C306.646,260.5,309.74,260.822,312.69,259.685z"/>
		</g>
		<path style="fill:#F8B78F;" d="M326.725,271.473c-2.303-3.563-5.924-4.529-5.924-4.529l-8.675-3.215h-8.28l-8.672,3.215
			c0,0-3.62,0.966-5.924,4.529H326.725z"/>
		<path style="fill:#BF3B3C;" d="M312.69,263.729l10.879,3.872c0,0,4.857,2.072,4.857,8.477l-3.826,7.605
			c0,0,3.826,25.385,0.303,42.001c-1.971,9.294,0,0,0,0v3.8h-33.141v-3.8c-2.512-17.282-0.839-40.347-0.839-40.347l-2.19-13.076
			c0-3.163,5.135-5.053,5.135-5.053l9.414-3.479C303.282,263.729,306.283,264.911,312.69,263.729z"/>
		<path style="fill:#8F2829;" d="M324.902,329.484v-3.416h-0.082c-0.105,0.495-0.294,1.385-0.461,2.174
			c0.116-0.548,0.269-1.266,0.461-2.174h-33.059v3.416h32.335c-0.023,0.103-0.039,0.183-0.051,0.239
			c0.011-0.052,0.028-0.135,0.051-0.239H324.902z M324.275,328.638c-0.069,0.329-0.131,0.617-0.175,0.828
			C324.14,329.279,324.197,329.007,324.275,328.638z"/>
		<path style="fill:#BF3B3C;" d="M324.902,325.684"/>
		<g>
			<path style="fill:#FBB88E;" d="M324.642,211.81c0,0,2.998,26.057-1.822,49.357l8.436,0.095c0,0,4.014-20.972-2.082-49.341
				L324.642,211.81z"/>
			<g>
				<polygon style="fill:#F8B78F;" points="328.075,207.636 329.412,212.979 325.103,214.385 324.256,211.053 				"/>
				<g>
					<g>
						<path style="fill:#FBB88E;" d="M323.422,207.747l-0.695-2.635c-2.016,0.443-0.737,3.588-0.737,3.588s1.92,3.839,5.734,2.245
							c1.244-0.477,1.133-4.188,1.133-4.188c-0.298-1.392-1.18-3.432-1.18-3.432c-0.509-0.845-1.41-0.172-1.41-0.172
							c-0.685-0.904-1.286,0.049-1.286,0.049c-0.878-0.703-1.228,0.329-1.228,0.329c-1.126-0.707-1.448,0.667-1.448,0.667
							L323.422,207.747z"/>
					</g>
				</g>
			</g>
		</g>
		<path style="fill:#A63132;" d="M333.365,260.118c-2.154,10.129-4.766,17.354-5.689,19.226c0,0-2.984,5.507-9.549,1.768
			c0,0-6.212-2.419-2.88-12.106c0,0,10.676-12.236,8.281-57.548c0,0,2.122-1.654,5.732-1.517
			C329.261,209.941,335.79,237.288,333.365,260.118z"/>
		<g>
			<path style="fill:#F8B78F;" d="M297.307,253.431c1.411,4.091,3.388,5.089,3.388,5.089l2.563,0.286
				c1.438-0.305,3.893-1.1,3.893-1.1c5.601-2.432,7.523-2.47,8.468-5.565c0.029-0.095,2.725-15.904,2.725-15.904
				c0.077-8.109-8.485-9.093-9.775-9.197c-1.281-0.187-9.488-1.759-11.224,6.163C297.344,233.202,294.579,242.444,297.307,253.431z"
				/>
			<path style="fill:#DE8F1F;" d="M317.025,243.953c-1.176,0.301-1.307,2.733-1.307,2.733l-1.592-0.087
				c0.631-4.405,0.823-8.626,0.823-8.626s0.261-2.372-1.542-3.77l5.084-4.453c0,0,2.743,2.152,2.142,9.037
				c0,0-0.52,11.385-4.935,12.895L317.025,243.953z"/>
			<path style="fill:#F8B78F;" d="M315.321,245.229c0,0,1.17-3.221,3.561-1.565c0,0,1.085,0.712-0.001,2.892
				c0,0-1.577,3.138-3.898,1.662L315.321,245.229z"/>
		</g>
		<path style="fill:#DE8F1F;" d="M315.742,224.319c1.5,0.633,2.732,1.649,3.3,3.29c0.963,2.777-2.439,3.832-4.06,5.213
			c-0.005,0.004-6.407,5.456-17.866,1.262c0,0-4.209-0.85-3.135-5.475c0.242-1.043,1.983-2.138,2.786-2.642
			c3.561-2.234,7.776-2.842,11.896-2.738C310.77,223.283,313.544,223.391,315.742,224.319z"/>
		<g>
			<g>
				<path style="fill:#F8B78F;" d="M254.531,303.369l-0.072,4.546c0,0,1.345,0.577,6.267,1.642l2.443-4.063
					C263.169,305.495,257.941,303.77,254.531,303.369"/>
				<g>
					<g>
						<path style="fill:#FBB88E;" d="M251.713,308.845c0,0,5.258-1.4,4.868-2.678c-0.635-3.419-2.395-2.995-2.395-2.995
							l-2.375,1.022l-5.346,2.973c0,0-1.554,1.566-0.303,2.018C246.162,309.184,248.561,309.807,251.713,308.845z"/>
					</g>
				</g>
			</g>
			<g>
				<path style="fill:#F8B78F;" d="M279.103,305.311l-24.986-0.835l-0.854,3.15l25.522,6.171c0,0,7.241,1.072,7.404-3.983
					C286.189,309.814,285.986,304.901,279.103,305.311z"/>
			</g>
			<g>
				<path style="fill:#A63132;" d="M279.898,304.367l-22.052-1.294l-2.043,6.29l22.981,4.435c0,0,8.099,1.16,8.26-3.895
					C287.044,309.902,287.773,305.111,279.898,304.367z"/>
			</g>
		</g>
	</g>
	<g>
		<g>
			<g>
				<g>
					<path style="fill:#FBB88E;" d="M124.218,309.747c-8.863-16.229-7.702-22.355-7.702-22.355l7.709-3.426
						c2.386,10.395,4.77,17.156,8.397,25.539C131.6,309.979,127.665,313.174,124.218,309.747z"/>
				</g>
			</g>
			<path style="fill:#D4EFFC;" d="M128.416,292.857c0,1.939-3.768,3.99-6.909,5.056c-1.524,0.517-3.231,1.053-4.956,1.341
				c-4.625-13.618-6.304-19.7-6.558-22.055c0,0-0.289-8.163,6.824-8.424c0,0,5.198-0.683,6.618,4.047
				C123.436,272.823,126.534,283.897,128.416,292.857z"/>
		</g>
		<g>
			<polygon style="fill:#41569A;" points="98.556,325.569 106.704,377.918 114.36,429.021 119.039,429.021 120.412,376.672 
				120.854,325.569 			"/>
			<path style="fill:#88523B;" d="M113.628,433.534l10.521,2.315c0,0,7.349,1.083,8.641-0.794c0,0,0.181-0.406-0.308-0.633
				l-13.443-5.401h-4.679C114.36,429.021,113.274,430.847,113.628,433.534z"/>
			<path style="fill:#88523B;" d="M93.988,433.534l-10.521,2.315c0,0-7.349,1.083-8.641-0.794c0,0-0.181-0.406,0.308-0.633
				l13.443-5.401h4.679C93.256,429.021,94.342,430.847,93.988,433.534z"/>
			<polygon style="fill:#426CB4;" points="112.286,329.781 107.558,343.8 102.145,372.798 93.256,429.021 88.577,429.021 
				88.203,374.546 88.515,342.482 87.17,324.272 			"/>
		</g>
		<g>
			<rect x="99.48" y="254.175" style="fill:#F8B78F;" width="9.406" height="13.066"/>
		</g>
		<g>
			<path style="fill:#F6A47A;" d="M99.48,260.247v-6.071h9.406v7.621C105.234,262.296,101.932,261.936,99.48,260.247z"/>
		</g>
		<path style="fill:#F8B78F;" d="M85.444,272.034c2.304-3.563,5.924-4.529,5.924-4.529l8.676-3.215h8.279l8.672,3.215
			c0,0,3.62,0.966,5.924,4.529H85.444z"/>
		<path style="fill:#D4EFFC;" d="M110.578,265.125l7.723,2.645c0,0,5.135,1.89,5.135,5.053l-2.189,13.076l0.873,47.201
			c-19.906,5.084-36.675-0.075-36.675-0.075l2.126-48.781l-3.826-7.605c0-6.405,4.856-8.477,4.856-8.477l9.384-3.109
			C97.984,265.053,107.497,270.327,110.578,265.125z"/>
		<g>
			<path style="fill:#623224;" d="M117.168,231.734c0,0,0.202,9.43-1.088,14.535l-3.118-14.126L117.168,231.734z"/>
			<path style="fill:#F8B78F;" d="M108.277,259.885c-1.422-0.372-3.837-1.282-3.837-1.282c-5.48-2.692-7.398-2.821-8.196-5.957
				c-0.024-0.097-1.974-16.015-1.974-16.015c0.305-8.104,8.903-8.684,10.197-8.727c1.289-0.126,9.561-1.311,10.922,6.684
				c0,0,2.326,9.362-0.915,20.208c-1.603,4.021-3.623,4.924-3.623,4.924S109.778,260.341,108.277,259.885z"/>
			<path style="fill:#623224;" d="M108.277,259.885c-1.422-0.372-3.837-1.282-3.837-1.282c-5.48-2.692-7.398-2.821-8.196-5.957
				c-0.014-0.055-0.639-5.132-1.182-9.554c0.877-0.11,1.679,0.348,2.278,1.731c1.226,2.824,2.354,3.594,5.304,5.216
				c1.391,0.764,3.868,0.2,5.291-0.083c2.01-0.399,3.12,0.521,5.026-0.347c2.808-1.279,3.009-2.423,3.164-4.37
				c-0.163,2.875-0.631,6.142-1.651,9.558c-1.603,4.021-3.623,4.924-3.623,4.924S109.866,260.371,108.277,259.885z"/>
			<path style="fill:#623224;" d="M95.224,244.401c1.16,0.355,1.177,2.791,1.177,2.791l1.594-0.012
				c-0.423-4.43-0.417-8.655-0.417-8.655s-0.148-2.382,1.719-3.694l-4.869-4.687c0,0-3.606,0.081-3.328,6.987
				c0,0,0.261,10.782,5.086,15.051L95.224,244.401z"/>
			<path style="fill:#F8B78F;" d="M96.981,248.686c-0.212,0.267-0.563,0.431-1.117,0.422c-1.197-0.019-2.164-1.18-2.616-2.195
				c-0.982-2.229,0.135-2.889,0.135-2.889c2.456-1.536,3.475,1.706,3.483,1.731C97.133,246.61,97.529,247.994,96.981,248.686z"/>
			<path style="fill:#623224;" d="M108.396,224.114c-6.367-2.969-15.896-0.415-14.254,5.961c0.41,1.59,3.097,4.524,4.732,4.902
				c12.053,2.703,16.451-1.311,16.451-1.311c3.727-2.226,4.052-6.82,3.131-10.58l0,0
				C118.457,223.086,115.511,226.295,108.396,224.114z"/>
		</g>
		<g>
			<g>
				<g>
					<path style="fill:#FBB88E;" d="M68.5,251.251c7.24,17.015,12.768,19.901,12.768,19.901l7.467-3.926
						c-6.677-8.314-10.505-14.377-14.834-22.42C72.895,245.314,67.947,246.42,68.5,251.251z"/>
				</g>
				<g>
					<path style="fill:#F8B78F;" d="M79.148,209.319c0.657,0.526,0.843,1.943,1.351,3.818c0.311,1.149,0.311,1.149,0.464,3.583
						c0,0,0.956-0.636,1.872-0.997c0.915-0.357,1.164,0.659,1.164,0.659l-1.836,2.287c-0.387,0.466-0.74,0.964-1.152,1.412
						c-0.469,0.506-1.322,0.966-2.002,1.086c-1.224,0.213-2.247-0.663-2.365-1.87c-0.104-1.067,0.3-2.157,0.467-3.201
						C77.11,216.096,77.15,209.845,79.148,209.319z"/>
					<path style="fill:#F8B78F;" d="M77.307,247.264l2.499-26.355l-3.036-1.678l-7.754,26.2c0,0-2.351,6.934,2.595,7.999
						C71.61,253.43,76.479,254.11,77.307,247.264z"/>
				</g>
			</g>
			<path style="fill:#D4EFFC;" d="M84.355,258.425c-1.521-1.202-5.466,0.483-8.249,2.288c-1.352,0.876-2.944,2.509-3.491,4.034
				c7.818,12.071,14.43,20.571,16.119,22.23c0,0,2.714,0.898,7.328-4.522c0,0,3.758-3.655,0.927-7.703
				C96.989,274.752,90.22,265.457,84.355,258.425z"/>
		</g>
	</g>
</g>
</svg>
